%TF.GenerationSoftware,KiCad,Pcbnew,7.0.2-0*%
%TF.CreationDate,2023-04-25T00:34:15+03:00*%
%TF.ProjectId,PLC-CIM,504c432d-4349-44d2-9e6b-696361645f70,rev?*%
%TF.SameCoordinates,Original*%
%TF.FileFunction,Paste,Bot*%
%TF.FilePolarity,Positive*%
%FSLAX46Y46*%
G04 Gerber Fmt 4.6, Leading zero omitted, Abs format (unit mm)*
G04 Created by KiCad (PCBNEW 7.0.2-0) date 2023-04-25 00:34:15*
%MOMM*%
%LPD*%
G01*
G04 APERTURE LIST*
G04 Aperture macros list*
%AMRotRect*
0 Rectangle, with rotation*
0 The origin of the aperture is its center*
0 $1 length*
0 $2 width*
0 $3 Rotation angle, in degrees counterclockwise*
0 Add horizontal line*
21,1,$1,$2,0,0,$3*%
G04 Aperture macros list end*
%ADD10R,1.180000X2.820000*%
%ADD11R,2.820000X1.180000*%
%ADD12R,1.200000X0.450000*%
%ADD13R,0.650000X1.525000*%
%ADD14RotRect,1.180000X2.820000X45.000000*%
%ADD15R,0.650000X1.500000*%
%ADD16R,0.450000X1.800000*%
%ADD17R,1.475000X0.450000*%
G04 APERTURE END LIST*
D10*
%TO.C,C2*%
X92910000Y-94437200D03*
X89970000Y-94437200D03*
%TD*%
D11*
%TO.C,C3*%
X96062800Y-97691600D03*
X96062800Y-100631600D03*
%TD*%
D12*
%TO.C,IC45*%
X210484400Y-75651000D03*
X210484400Y-75001000D03*
X210484400Y-74351000D03*
X210484400Y-73701000D03*
X212984400Y-73701000D03*
X212984400Y-74351000D03*
X212984400Y-75001000D03*
X212984400Y-75651000D03*
%TD*%
D13*
%TO.C,IC47*%
X209981800Y-77602800D03*
X211251800Y-77602800D03*
X212521800Y-77602800D03*
X213791800Y-77602800D03*
X213791800Y-83026800D03*
X212521800Y-83026800D03*
X211251800Y-83026800D03*
X209981800Y-83026800D03*
%TD*%
D14*
%TO.C,C4*%
X97559447Y-92483353D03*
X95480553Y-94562247D03*
%TD*%
D15*
%TO.C,U2*%
X119837200Y-63550800D03*
X118567200Y-63550800D03*
X117297200Y-63550800D03*
X116027200Y-63550800D03*
X116027200Y-68950800D03*
X117297200Y-68950800D03*
X118567200Y-68950800D03*
X119837200Y-68950800D03*
%TD*%
D10*
%TO.C,C1*%
X88338000Y-94437200D03*
X85398000Y-94437200D03*
%TD*%
D16*
%TO.C,IC31*%
X88707800Y-98100800D03*
X89357800Y-98100800D03*
X90007800Y-98100800D03*
X90657800Y-98100800D03*
X91307800Y-98100800D03*
X91957800Y-98100800D03*
X92607800Y-98100800D03*
X93257800Y-98100800D03*
X93257800Y-105200800D03*
X92607800Y-105200800D03*
X91957800Y-105200800D03*
X91307800Y-105200800D03*
X90657800Y-105200800D03*
X90007800Y-105200800D03*
X89357800Y-105200800D03*
X88707800Y-105200800D03*
%TD*%
D17*
%TO.C,IC46*%
X209550000Y-98783000D03*
X209550000Y-99433000D03*
X209550000Y-100083000D03*
X209550000Y-100733000D03*
X209550000Y-101383000D03*
X209550000Y-102033000D03*
X209550000Y-102683000D03*
X209550000Y-103333000D03*
X209550000Y-103983000D03*
X209550000Y-104633000D03*
X209550000Y-105283000D03*
X209550000Y-105933000D03*
X203674000Y-105933000D03*
X203674000Y-105283000D03*
X203674000Y-104633000D03*
X203674000Y-103983000D03*
X203674000Y-103333000D03*
X203674000Y-102683000D03*
X203674000Y-102033000D03*
X203674000Y-101383000D03*
X203674000Y-100733000D03*
X203674000Y-100083000D03*
X203674000Y-99433000D03*
X203674000Y-98783000D03*
%TD*%
%TO.C,IC44*%
X88138000Y-116497000D03*
X88138000Y-115847000D03*
X88138000Y-115197000D03*
X88138000Y-114547000D03*
X88138000Y-113897000D03*
X88138000Y-113247000D03*
X88138000Y-112597000D03*
X88138000Y-111947000D03*
X88138000Y-111297000D03*
X88138000Y-110647000D03*
X88138000Y-109997000D03*
X88138000Y-109347000D03*
X94014000Y-109347000D03*
X94014000Y-109997000D03*
X94014000Y-110647000D03*
X94014000Y-111297000D03*
X94014000Y-111947000D03*
X94014000Y-112597000D03*
X94014000Y-113247000D03*
X94014000Y-113897000D03*
X94014000Y-114547000D03*
X94014000Y-115197000D03*
X94014000Y-115847000D03*
X94014000Y-116497000D03*
%TD*%
M02*
