M48
; DRILL file {KiCad 7.0.2-0} date 2023 April 24, Monday 01:17:22
; FORMAT={-:-/ absolute / inch / decimal}
; #@! TF.CreationDate,2023-04-24T01:17:22+03:00
; #@! TF.GenerationSoftware,Kicad,Pcbnew,7.0.2-0
; #@! TF.FileFunction,Plated,1,4,PTH
FMAT,2
INCH
; #@! TA.AperFunction,Plated,PTH,ViaDrill
T1C0.0130
; #@! TA.AperFunction,Plated,PTH,ComponentDrill
T2C0.0402
; #@! TA.AperFunction,Plated,PTH,ComponentDrill
T3C0.0409
; #@! TA.AperFunction,Plated,PTH,ComponentDrill
T4C0.0472
; #@! TA.AperFunction,Plated,PTH,ComponentDrill
T5C0.1201
%
G90
G05
T1
X3.345Y-4.485
X3.346Y-4.432
X3.368Y-4.33
X3.39Y-4.458
X3.39Y-4.51
X3.392Y-4.406
X3.58Y-3.715
X3.735Y-3.393
X3.756Y-4.306
X3.8Y-4.33
X3.89Y-3.715
X3.92Y-4.5
X4.046Y-3.398
X4.08Y-4.3
X4.2Y-3.715
X4.235Y-4.5
X4.356Y-3.394
X4.395Y-4.3
X4.51Y-3.715
X4.545Y-4.5
X4.67Y-3.398
X4.7Y-4.3
X4.82Y-3.715
X4.86Y-4.5
X4.976Y-3.398
X5.015Y-4.3
X5.13Y-3.715
X5.17Y-4.5
X5.286Y-3.398
X5.325Y-4.3
X5.44Y-3.715
X5.48Y-4.5
X5.596Y-3.396
X5.635Y-4.3
X5.75Y-3.715
X5.79Y-4.5
X5.906Y-3.384
X5.945Y-4.305
X6.06Y-3.715
X6.1Y-4.5
X6.216Y-3.384
X6.255Y-4.3
X6.37Y-3.715
X6.41Y-4.5
X6.526Y-3.384
X6.565Y-4.3
X6.68Y-3.715
X6.72Y-4.5
X6.772Y-4.408
X6.8Y-4.37
X6.836Y-3.386
X6.875Y-4.3
X6.99Y-3.715
X7.144Y-3.386
X7.144Y-4.604
X7.2Y-3.92
X7.202Y-3.964
X7.204Y-4.016
X7.3Y-3.715
X7.4Y-4.24
X7.456Y-3.384
X7.488Y-4.456
X7.53Y-4.67
X7.556Y-3.922
X7.61Y-3.715
X7.71Y-4.24
X7.762Y-3.392
X7.848Y-3.832
X7.866Y-3.928
X7.92Y-3.715
X7.976Y-4.474
X7.985Y-4.71
X8.02Y-4.24
X8.076Y-3.388
X8.176Y-3.908
T2
X4.7373Y-1.7687
X4.7373Y-2.7687
X4.8373Y-1.7687
X4.8373Y-2.7687
X4.9373Y-1.7687
X4.9373Y-2.7687
X5.0373Y-1.7687
X5.0373Y-2.7687
X5.1373Y-1.7687
X5.1373Y-2.7687
X5.2373Y-1.7687
X5.2373Y-2.7687
X5.3373Y-1.7687
X5.3373Y-2.7687
X5.4373Y-1.7687
X5.4373Y-2.7687
X5.5373Y-1.7687
X5.5373Y-2.7687
X5.6373Y-1.7687
X5.6373Y-2.7687
X5.7373Y-1.7687
X5.7373Y-2.7687
X5.8373Y-1.7687
X5.8373Y-2.7687
X5.9373Y-1.7687
X5.9373Y-2.7687
X6.0373Y-1.7687
X6.0373Y-2.7687
X6.1373Y-1.7687
X6.1373Y-2.7687
X6.2373Y-1.7687
X6.2373Y-2.7687
X6.3373Y-1.7687
X6.3373Y-2.7687
X6.4373Y-1.7687
X6.4373Y-2.7687
X6.5373Y-1.7687
X6.5373Y-2.7687
T3
X3.0882Y-3.8974
X3.0882Y-4.0053
X3.0882Y-4.1132
X3.0882Y-4.2211
X3.2Y-3.8435
X3.2Y-3.9514
X3.2Y-4.0593
X3.2Y-4.1671
X3.2Y-4.275
X8.4882Y-3.8474
X8.4882Y-3.9553
X8.4882Y-4.0632
X8.4882Y-4.1711
X8.4882Y-4.2789
X8.6Y-3.9014
X8.6Y-4.0093
X8.6Y-4.1171
X8.6Y-4.225
T4
X2.9594Y-4.9
X3.1563Y-4.9
X3.3531Y-4.9
X3.55Y-4.9
X3.7469Y-4.9
X3.9437Y-4.9
X4.1406Y-4.9
X4.3374Y-4.9
X4.5343Y-4.9
X4.7311Y-4.9
X4.9533Y-4.9
X5.1502Y-4.9
X5.347Y-4.9
X5.5439Y-4.9
X5.7407Y-4.9
X5.9376Y-4.9
X6.1344Y-4.9
X6.3313Y-4.9
X6.5281Y-4.9
X6.725Y-4.9
X6.9502Y-4.9
X7.147Y-4.9
X7.3439Y-4.9
X7.5407Y-4.9
X7.7376Y-4.9
X7.9344Y-4.9
X8.1313Y-4.9
X8.3281Y-4.9
X8.525Y-4.9
X8.7219Y-4.9
T5
X3.1441Y-3.5673
X3.1441Y-4.5512
X8.5441Y-3.5713
X8.5441Y-4.5551
T0
M30
