%TF.GenerationSoftware,KiCad,Pcbnew,7.0.2-0*%
%TF.CreationDate,2023-04-24T01:17:18+03:00*%
%TF.ProjectId,PLC-CIM,504c432d-4349-44d2-9e6b-696361645f70,rev?*%
%TF.SameCoordinates,Original*%
%TF.FileFunction,Soldermask,Bot*%
%TF.FilePolarity,Negative*%
%FSLAX46Y46*%
G04 Gerber Fmt 4.6, Leading zero omitted, Abs format (unit mm)*
G04 Created by KiCad (PCBNEW 7.0.2-0) date 2023-04-24 01:17:18*
%MOMM*%
%LPD*%
G01*
G04 APERTURE LIST*
G04 APERTURE END LIST*
G36*
X75214226Y-123560000D02*
G01*
X75264594Y-123560000D01*
X75308085Y-123569244D01*
X75346427Y-123573021D01*
X75394603Y-123587634D01*
X75449647Y-123599335D01*
X75484865Y-123615014D01*
X75516081Y-123624484D01*
X75565683Y-123650997D01*
X75622479Y-123676284D01*
X75648887Y-123695470D01*
X75672434Y-123708057D01*
X75720470Y-123747479D01*
X75775534Y-123787486D01*
X75793411Y-123807341D01*
X75809475Y-123820524D01*
X75852639Y-123873119D01*
X75902126Y-123928080D01*
X75912522Y-123946087D01*
X75921942Y-123957565D01*
X75956796Y-124022772D01*
X75996719Y-124091921D01*
X76001310Y-124106052D01*
X76005515Y-124113918D01*
X76028685Y-124190302D01*
X76055182Y-124271849D01*
X76056115Y-124280727D01*
X76056978Y-124283572D01*
X76065382Y-124368902D01*
X76074957Y-124460000D01*
X76065381Y-124551105D01*
X76056978Y-124636427D01*
X76056115Y-124639270D01*
X76055182Y-124648151D01*
X76028680Y-124729711D01*
X76005515Y-124806081D01*
X76001311Y-124813945D01*
X75996719Y-124828079D01*
X75956789Y-124897239D01*
X75921942Y-124962434D01*
X75912524Y-124973909D01*
X75902126Y-124991920D01*
X75852630Y-125046890D01*
X75809475Y-125099475D01*
X75793415Y-125112654D01*
X75775534Y-125132514D01*
X75720459Y-125172528D01*
X75672434Y-125211942D01*
X75648892Y-125224525D01*
X75622479Y-125243716D01*
X75565672Y-125269007D01*
X75516081Y-125295515D01*
X75484872Y-125304981D01*
X75449647Y-125320665D01*
X75394592Y-125332367D01*
X75346427Y-125346978D01*
X75308094Y-125350753D01*
X75264594Y-125360000D01*
X75214215Y-125360000D01*
X75169999Y-125364355D01*
X75125783Y-125360000D01*
X75075406Y-125360000D01*
X75031906Y-125350753D01*
X74993572Y-125346978D01*
X74945404Y-125332366D01*
X74890353Y-125320665D01*
X74855130Y-125304982D01*
X74823918Y-125295515D01*
X74774321Y-125269005D01*
X74717521Y-125243716D01*
X74691110Y-125224527D01*
X74667565Y-125211942D01*
X74619531Y-125172521D01*
X74564466Y-125132514D01*
X74546587Y-125112658D01*
X74530524Y-125099475D01*
X74487358Y-125046877D01*
X74437874Y-124991920D01*
X74427478Y-124973913D01*
X74418057Y-124962434D01*
X74383197Y-124897216D01*
X74343281Y-124828079D01*
X74338690Y-124813950D01*
X74334484Y-124806081D01*
X74311304Y-124729665D01*
X74284818Y-124648151D01*
X74283885Y-124639276D01*
X74283021Y-124636427D01*
X74274602Y-124550953D01*
X74265043Y-124460000D01*
X74274601Y-124369053D01*
X74283021Y-124283572D01*
X74283885Y-124280722D01*
X74284818Y-124271849D01*
X74311299Y-124190348D01*
X74334484Y-124113918D01*
X74338691Y-124106047D01*
X74343281Y-124091921D01*
X74383190Y-124022796D01*
X74418057Y-123957565D01*
X74427479Y-123946083D01*
X74437874Y-123928080D01*
X74487349Y-123873132D01*
X74530524Y-123820524D01*
X74546590Y-123807338D01*
X74564466Y-123787486D01*
X74619518Y-123747488D01*
X74667565Y-123708057D01*
X74691118Y-123695467D01*
X74717522Y-123676284D01*
X74774307Y-123651001D01*
X74823918Y-123624484D01*
X74855137Y-123615013D01*
X74890353Y-123599335D01*
X74945393Y-123587635D01*
X74993572Y-123573021D01*
X75031915Y-123569244D01*
X75075406Y-123560000D01*
X75125774Y-123560000D01*
X75170000Y-123555644D01*
X75214226Y-123560000D01*
G37*
G36*
X80214226Y-123560000D02*
G01*
X80264594Y-123560000D01*
X80308085Y-123569244D01*
X80346427Y-123573021D01*
X80394603Y-123587634D01*
X80449647Y-123599335D01*
X80484865Y-123615014D01*
X80516081Y-123624484D01*
X80565683Y-123650997D01*
X80622479Y-123676284D01*
X80648887Y-123695470D01*
X80672434Y-123708057D01*
X80720470Y-123747479D01*
X80775534Y-123787486D01*
X80793411Y-123807341D01*
X80809475Y-123820524D01*
X80852639Y-123873119D01*
X80902126Y-123928080D01*
X80912522Y-123946087D01*
X80921942Y-123957565D01*
X80956796Y-124022772D01*
X80996719Y-124091921D01*
X81001310Y-124106052D01*
X81005515Y-124113918D01*
X81028685Y-124190302D01*
X81055182Y-124271849D01*
X81056115Y-124280727D01*
X81056978Y-124283572D01*
X81065383Y-124368909D01*
X81074957Y-124460000D01*
X81065380Y-124551112D01*
X81056978Y-124636427D01*
X81056115Y-124639270D01*
X81055182Y-124648151D01*
X81028680Y-124729711D01*
X81005515Y-124806081D01*
X81001311Y-124813945D01*
X80996719Y-124828079D01*
X80956789Y-124897239D01*
X80921942Y-124962434D01*
X80912524Y-124973909D01*
X80902126Y-124991920D01*
X80852630Y-125046890D01*
X80809475Y-125099475D01*
X80793415Y-125112654D01*
X80775534Y-125132514D01*
X80720459Y-125172528D01*
X80672434Y-125211942D01*
X80648892Y-125224525D01*
X80622479Y-125243716D01*
X80565672Y-125269007D01*
X80516081Y-125295515D01*
X80484872Y-125304981D01*
X80449647Y-125320665D01*
X80394592Y-125332367D01*
X80346427Y-125346978D01*
X80308094Y-125350753D01*
X80264594Y-125360000D01*
X80214216Y-125360000D01*
X80170000Y-125364355D01*
X80125784Y-125360000D01*
X80075406Y-125360000D01*
X80031906Y-125350753D01*
X79993572Y-125346978D01*
X79945404Y-125332366D01*
X79890353Y-125320665D01*
X79855130Y-125304982D01*
X79823918Y-125295515D01*
X79774321Y-125269005D01*
X79717521Y-125243716D01*
X79691110Y-125224527D01*
X79667565Y-125211942D01*
X79619531Y-125172521D01*
X79564466Y-125132514D01*
X79546587Y-125112658D01*
X79530524Y-125099475D01*
X79487358Y-125046877D01*
X79437874Y-124991920D01*
X79427478Y-124973913D01*
X79418057Y-124962434D01*
X79383197Y-124897216D01*
X79343281Y-124828079D01*
X79338690Y-124813950D01*
X79334484Y-124806081D01*
X79311304Y-124729665D01*
X79284818Y-124648151D01*
X79283885Y-124639276D01*
X79283021Y-124636427D01*
X79274602Y-124550953D01*
X79265043Y-124460000D01*
X79274601Y-124369053D01*
X79283021Y-124283572D01*
X79283885Y-124280722D01*
X79284818Y-124271849D01*
X79311299Y-124190348D01*
X79334484Y-124113918D01*
X79338691Y-124106047D01*
X79343281Y-124091921D01*
X79383190Y-124022796D01*
X79418057Y-123957565D01*
X79427479Y-123946083D01*
X79437874Y-123928080D01*
X79487349Y-123873132D01*
X79530524Y-123820524D01*
X79546590Y-123807338D01*
X79564466Y-123787486D01*
X79619518Y-123747488D01*
X79667565Y-123708057D01*
X79691118Y-123695467D01*
X79717522Y-123676284D01*
X79774307Y-123651001D01*
X79823918Y-123624484D01*
X79855137Y-123615013D01*
X79890353Y-123599335D01*
X79945393Y-123587635D01*
X79993572Y-123573021D01*
X80031915Y-123569244D01*
X80075406Y-123560000D01*
X80125774Y-123560000D01*
X80170000Y-123555644D01*
X80214226Y-123560000D01*
G37*
G36*
X85214225Y-123560000D02*
G01*
X85264594Y-123560000D01*
X85308085Y-123569244D01*
X85346427Y-123573021D01*
X85394603Y-123587634D01*
X85449647Y-123599335D01*
X85484865Y-123615014D01*
X85516081Y-123624484D01*
X85565683Y-123650997D01*
X85622479Y-123676284D01*
X85648887Y-123695470D01*
X85672434Y-123708057D01*
X85720470Y-123747479D01*
X85775534Y-123787486D01*
X85793411Y-123807341D01*
X85809475Y-123820524D01*
X85852639Y-123873119D01*
X85902126Y-123928080D01*
X85912522Y-123946087D01*
X85921942Y-123957565D01*
X85956796Y-124022772D01*
X85996719Y-124091921D01*
X86001310Y-124106052D01*
X86005515Y-124113918D01*
X86028685Y-124190302D01*
X86055182Y-124271849D01*
X86056115Y-124280727D01*
X86056978Y-124283572D01*
X86065383Y-124368909D01*
X86074957Y-124460000D01*
X86065380Y-124551112D01*
X86056978Y-124636427D01*
X86056115Y-124639270D01*
X86055182Y-124648151D01*
X86028680Y-124729711D01*
X86005515Y-124806081D01*
X86001311Y-124813945D01*
X85996719Y-124828079D01*
X85956789Y-124897239D01*
X85921942Y-124962434D01*
X85912524Y-124973909D01*
X85902126Y-124991920D01*
X85852630Y-125046890D01*
X85809475Y-125099475D01*
X85793415Y-125112654D01*
X85775534Y-125132514D01*
X85720459Y-125172528D01*
X85672434Y-125211942D01*
X85648892Y-125224525D01*
X85622479Y-125243716D01*
X85565672Y-125269007D01*
X85516081Y-125295515D01*
X85484872Y-125304981D01*
X85449647Y-125320665D01*
X85394592Y-125332367D01*
X85346427Y-125346978D01*
X85308094Y-125350753D01*
X85264594Y-125360000D01*
X85214215Y-125360000D01*
X85169999Y-125364355D01*
X85125783Y-125360000D01*
X85075406Y-125360000D01*
X85031906Y-125350753D01*
X84993572Y-125346978D01*
X84945404Y-125332366D01*
X84890353Y-125320665D01*
X84855130Y-125304982D01*
X84823918Y-125295515D01*
X84774321Y-125269005D01*
X84717521Y-125243716D01*
X84691110Y-125224527D01*
X84667565Y-125211942D01*
X84619531Y-125172521D01*
X84564466Y-125132514D01*
X84546587Y-125112658D01*
X84530524Y-125099475D01*
X84487358Y-125046877D01*
X84437874Y-124991920D01*
X84427478Y-124973913D01*
X84418057Y-124962434D01*
X84383197Y-124897216D01*
X84343281Y-124828079D01*
X84338690Y-124813950D01*
X84334484Y-124806081D01*
X84311304Y-124729665D01*
X84284818Y-124648151D01*
X84283885Y-124639276D01*
X84283021Y-124636427D01*
X84274603Y-124550960D01*
X84265043Y-124460000D01*
X84274600Y-124369061D01*
X84283021Y-124283572D01*
X84283885Y-124280722D01*
X84284818Y-124271849D01*
X84311299Y-124190348D01*
X84334484Y-124113918D01*
X84338691Y-124106047D01*
X84343281Y-124091921D01*
X84383190Y-124022796D01*
X84418057Y-123957565D01*
X84427479Y-123946083D01*
X84437874Y-123928080D01*
X84487349Y-123873132D01*
X84530524Y-123820524D01*
X84546590Y-123807338D01*
X84564466Y-123787486D01*
X84619518Y-123747488D01*
X84667565Y-123708057D01*
X84691118Y-123695467D01*
X84717522Y-123676284D01*
X84774307Y-123651001D01*
X84823918Y-123624484D01*
X84855137Y-123615013D01*
X84890353Y-123599335D01*
X84945393Y-123587635D01*
X84993572Y-123573021D01*
X85031915Y-123569244D01*
X85075406Y-123560000D01*
X85125773Y-123560000D01*
X85169999Y-123555644D01*
X85214225Y-123560000D01*
G37*
G36*
X90214226Y-123560000D02*
G01*
X90264594Y-123560000D01*
X90308085Y-123569244D01*
X90346427Y-123573021D01*
X90394603Y-123587634D01*
X90449647Y-123599335D01*
X90484865Y-123615014D01*
X90516081Y-123624484D01*
X90565683Y-123650997D01*
X90622479Y-123676284D01*
X90648887Y-123695470D01*
X90672434Y-123708057D01*
X90720470Y-123747479D01*
X90775534Y-123787486D01*
X90793411Y-123807341D01*
X90809475Y-123820524D01*
X90852639Y-123873119D01*
X90902126Y-123928080D01*
X90912522Y-123946087D01*
X90921942Y-123957565D01*
X90956796Y-124022772D01*
X90996719Y-124091921D01*
X91001310Y-124106052D01*
X91005515Y-124113918D01*
X91028685Y-124190302D01*
X91055182Y-124271849D01*
X91056115Y-124280727D01*
X91056978Y-124283572D01*
X91065382Y-124368902D01*
X91074957Y-124460000D01*
X91065381Y-124551105D01*
X91056978Y-124636427D01*
X91056115Y-124639270D01*
X91055182Y-124648151D01*
X91028680Y-124729711D01*
X91005515Y-124806081D01*
X91001311Y-124813945D01*
X90996719Y-124828079D01*
X90956789Y-124897239D01*
X90921942Y-124962434D01*
X90912524Y-124973909D01*
X90902126Y-124991920D01*
X90852630Y-125046890D01*
X90809475Y-125099475D01*
X90793415Y-125112654D01*
X90775534Y-125132514D01*
X90720459Y-125172528D01*
X90672434Y-125211942D01*
X90648892Y-125224525D01*
X90622479Y-125243716D01*
X90565672Y-125269007D01*
X90516081Y-125295515D01*
X90484872Y-125304981D01*
X90449647Y-125320665D01*
X90394592Y-125332367D01*
X90346427Y-125346978D01*
X90308094Y-125350753D01*
X90264594Y-125360000D01*
X90214215Y-125360000D01*
X90169999Y-125364355D01*
X90125783Y-125360000D01*
X90075406Y-125360000D01*
X90031906Y-125350753D01*
X89993572Y-125346978D01*
X89945404Y-125332366D01*
X89890353Y-125320665D01*
X89855130Y-125304982D01*
X89823918Y-125295515D01*
X89774321Y-125269005D01*
X89717521Y-125243716D01*
X89691110Y-125224527D01*
X89667565Y-125211942D01*
X89619531Y-125172521D01*
X89564466Y-125132514D01*
X89546587Y-125112658D01*
X89530524Y-125099475D01*
X89487358Y-125046877D01*
X89437874Y-124991920D01*
X89427478Y-124973913D01*
X89418057Y-124962434D01*
X89383197Y-124897216D01*
X89343281Y-124828079D01*
X89338690Y-124813950D01*
X89334484Y-124806081D01*
X89311304Y-124729665D01*
X89284818Y-124648151D01*
X89283885Y-124639276D01*
X89283021Y-124636427D01*
X89274603Y-124550960D01*
X89265043Y-124460000D01*
X89274600Y-124369061D01*
X89283021Y-124283572D01*
X89283885Y-124280722D01*
X89284818Y-124271849D01*
X89311299Y-124190348D01*
X89334484Y-124113918D01*
X89338691Y-124106047D01*
X89343281Y-124091921D01*
X89383190Y-124022796D01*
X89418057Y-123957565D01*
X89427479Y-123946083D01*
X89437874Y-123928080D01*
X89487349Y-123873132D01*
X89530524Y-123820524D01*
X89546590Y-123807338D01*
X89564466Y-123787486D01*
X89619518Y-123747488D01*
X89667565Y-123708057D01*
X89691118Y-123695467D01*
X89717522Y-123676284D01*
X89774307Y-123651001D01*
X89823918Y-123624484D01*
X89855137Y-123615013D01*
X89890353Y-123599335D01*
X89945393Y-123587635D01*
X89993572Y-123573021D01*
X90031915Y-123569244D01*
X90075406Y-123560000D01*
X90125774Y-123560000D01*
X90170000Y-123555644D01*
X90214226Y-123560000D01*
G37*
G36*
X95214225Y-123560000D02*
G01*
X95264594Y-123560000D01*
X95308085Y-123569244D01*
X95346427Y-123573021D01*
X95394603Y-123587634D01*
X95449647Y-123599335D01*
X95484865Y-123615014D01*
X95516081Y-123624484D01*
X95565683Y-123650997D01*
X95622479Y-123676284D01*
X95648887Y-123695470D01*
X95672434Y-123708057D01*
X95720470Y-123747479D01*
X95775534Y-123787486D01*
X95793411Y-123807341D01*
X95809475Y-123820524D01*
X95852639Y-123873119D01*
X95902126Y-123928080D01*
X95912522Y-123946087D01*
X95921942Y-123957565D01*
X95956796Y-124022772D01*
X95996719Y-124091921D01*
X96001310Y-124106052D01*
X96005515Y-124113918D01*
X96028685Y-124190302D01*
X96055182Y-124271849D01*
X96056115Y-124280727D01*
X96056978Y-124283572D01*
X96065383Y-124368909D01*
X96074957Y-124460000D01*
X96065380Y-124551112D01*
X96056978Y-124636427D01*
X96056115Y-124639270D01*
X96055182Y-124648151D01*
X96028680Y-124729711D01*
X96005515Y-124806081D01*
X96001311Y-124813945D01*
X95996719Y-124828079D01*
X95956789Y-124897239D01*
X95921942Y-124962434D01*
X95912524Y-124973909D01*
X95902126Y-124991920D01*
X95852630Y-125046890D01*
X95809475Y-125099475D01*
X95793415Y-125112654D01*
X95775534Y-125132514D01*
X95720459Y-125172528D01*
X95672434Y-125211942D01*
X95648892Y-125224525D01*
X95622479Y-125243716D01*
X95565672Y-125269007D01*
X95516081Y-125295515D01*
X95484872Y-125304981D01*
X95449647Y-125320665D01*
X95394592Y-125332367D01*
X95346427Y-125346978D01*
X95308094Y-125350753D01*
X95264594Y-125360000D01*
X95214216Y-125360000D01*
X95170000Y-125364355D01*
X95125784Y-125360000D01*
X95075406Y-125360000D01*
X95031906Y-125350753D01*
X94993572Y-125346978D01*
X94945404Y-125332366D01*
X94890353Y-125320665D01*
X94855130Y-125304982D01*
X94823918Y-125295515D01*
X94774321Y-125269005D01*
X94717521Y-125243716D01*
X94691110Y-125224527D01*
X94667565Y-125211942D01*
X94619531Y-125172521D01*
X94564466Y-125132514D01*
X94546587Y-125112658D01*
X94530524Y-125099475D01*
X94487358Y-125046877D01*
X94437874Y-124991920D01*
X94427478Y-124973913D01*
X94418057Y-124962434D01*
X94383197Y-124897216D01*
X94343281Y-124828079D01*
X94338690Y-124813950D01*
X94334484Y-124806081D01*
X94311304Y-124729665D01*
X94284818Y-124648151D01*
X94283885Y-124639276D01*
X94283021Y-124636427D01*
X94274603Y-124550960D01*
X94265043Y-124460000D01*
X94274600Y-124369061D01*
X94283021Y-124283572D01*
X94283885Y-124280722D01*
X94284818Y-124271849D01*
X94311299Y-124190348D01*
X94334484Y-124113918D01*
X94338691Y-124106047D01*
X94343281Y-124091921D01*
X94383190Y-124022796D01*
X94418057Y-123957565D01*
X94427479Y-123946083D01*
X94437874Y-123928080D01*
X94487349Y-123873132D01*
X94530524Y-123820524D01*
X94546590Y-123807338D01*
X94564466Y-123787486D01*
X94619518Y-123747488D01*
X94667565Y-123708057D01*
X94691118Y-123695467D01*
X94717522Y-123676284D01*
X94774307Y-123651001D01*
X94823918Y-123624484D01*
X94855137Y-123615013D01*
X94890353Y-123599335D01*
X94945393Y-123587635D01*
X94993572Y-123573021D01*
X95031915Y-123569244D01*
X95075406Y-123560000D01*
X95125773Y-123560000D01*
X95169999Y-123555644D01*
X95214225Y-123560000D01*
G37*
G36*
X100214226Y-123560000D02*
G01*
X100264594Y-123560000D01*
X100308085Y-123569244D01*
X100346427Y-123573021D01*
X100394603Y-123587634D01*
X100449647Y-123599335D01*
X100484865Y-123615014D01*
X100516081Y-123624484D01*
X100565683Y-123650997D01*
X100622479Y-123676284D01*
X100648887Y-123695470D01*
X100672434Y-123708057D01*
X100720470Y-123747479D01*
X100775534Y-123787486D01*
X100793411Y-123807341D01*
X100809475Y-123820524D01*
X100852639Y-123873119D01*
X100902126Y-123928080D01*
X100912522Y-123946087D01*
X100921942Y-123957565D01*
X100956796Y-124022772D01*
X100996719Y-124091921D01*
X101001310Y-124106052D01*
X101005515Y-124113918D01*
X101028685Y-124190302D01*
X101055182Y-124271849D01*
X101056115Y-124280727D01*
X101056978Y-124283572D01*
X101065383Y-124368909D01*
X101074957Y-124460000D01*
X101065380Y-124551112D01*
X101056978Y-124636427D01*
X101056115Y-124639270D01*
X101055182Y-124648151D01*
X101028680Y-124729711D01*
X101005515Y-124806081D01*
X101001311Y-124813945D01*
X100996719Y-124828079D01*
X100956789Y-124897239D01*
X100921942Y-124962434D01*
X100912524Y-124973909D01*
X100902126Y-124991920D01*
X100852630Y-125046890D01*
X100809475Y-125099475D01*
X100793415Y-125112654D01*
X100775534Y-125132514D01*
X100720459Y-125172528D01*
X100672434Y-125211942D01*
X100648892Y-125224525D01*
X100622479Y-125243716D01*
X100565672Y-125269007D01*
X100516081Y-125295515D01*
X100484872Y-125304981D01*
X100449647Y-125320665D01*
X100394592Y-125332367D01*
X100346427Y-125346978D01*
X100308094Y-125350753D01*
X100264594Y-125360000D01*
X100214216Y-125360000D01*
X100170000Y-125364355D01*
X100125784Y-125360000D01*
X100075406Y-125360000D01*
X100031906Y-125350753D01*
X99993572Y-125346978D01*
X99945404Y-125332366D01*
X99890353Y-125320665D01*
X99855130Y-125304982D01*
X99823918Y-125295515D01*
X99774321Y-125269005D01*
X99717521Y-125243716D01*
X99691110Y-125224527D01*
X99667565Y-125211942D01*
X99619531Y-125172521D01*
X99564466Y-125132514D01*
X99546587Y-125112658D01*
X99530524Y-125099475D01*
X99487358Y-125046877D01*
X99437874Y-124991920D01*
X99427478Y-124973913D01*
X99418057Y-124962434D01*
X99383197Y-124897216D01*
X99343281Y-124828079D01*
X99338690Y-124813950D01*
X99334484Y-124806081D01*
X99311304Y-124729665D01*
X99284818Y-124648151D01*
X99283885Y-124639276D01*
X99283021Y-124636427D01*
X99274603Y-124550960D01*
X99265043Y-124460000D01*
X99274600Y-124369061D01*
X99283021Y-124283572D01*
X99283885Y-124280722D01*
X99284818Y-124271849D01*
X99311299Y-124190348D01*
X99334484Y-124113918D01*
X99338691Y-124106047D01*
X99343281Y-124091921D01*
X99383190Y-124022796D01*
X99418057Y-123957565D01*
X99427479Y-123946083D01*
X99437874Y-123928080D01*
X99487349Y-123873132D01*
X99530524Y-123820524D01*
X99546590Y-123807338D01*
X99564466Y-123787486D01*
X99619518Y-123747488D01*
X99667565Y-123708057D01*
X99691118Y-123695467D01*
X99717522Y-123676284D01*
X99774307Y-123651001D01*
X99823918Y-123624484D01*
X99855137Y-123615013D01*
X99890353Y-123599335D01*
X99945393Y-123587635D01*
X99993572Y-123573021D01*
X100031915Y-123569244D01*
X100075406Y-123560000D01*
X100125774Y-123560000D01*
X100170000Y-123555644D01*
X100214226Y-123560000D01*
G37*
G36*
X105214225Y-123560000D02*
G01*
X105264594Y-123560000D01*
X105308085Y-123569244D01*
X105346427Y-123573021D01*
X105394603Y-123587634D01*
X105449647Y-123599335D01*
X105484865Y-123615014D01*
X105516081Y-123624484D01*
X105565683Y-123650997D01*
X105622479Y-123676284D01*
X105648887Y-123695470D01*
X105672434Y-123708057D01*
X105720470Y-123747479D01*
X105775534Y-123787486D01*
X105793411Y-123807341D01*
X105809475Y-123820524D01*
X105852639Y-123873119D01*
X105902126Y-123928080D01*
X105912522Y-123946087D01*
X105921942Y-123957565D01*
X105956796Y-124022772D01*
X105996719Y-124091921D01*
X106001310Y-124106052D01*
X106005515Y-124113918D01*
X106028685Y-124190302D01*
X106055182Y-124271849D01*
X106056115Y-124280727D01*
X106056978Y-124283572D01*
X106065383Y-124368909D01*
X106074957Y-124460000D01*
X106065380Y-124551112D01*
X106056978Y-124636427D01*
X106056115Y-124639270D01*
X106055182Y-124648151D01*
X106028680Y-124729711D01*
X106005515Y-124806081D01*
X106001311Y-124813945D01*
X105996719Y-124828079D01*
X105956789Y-124897239D01*
X105921942Y-124962434D01*
X105912524Y-124973909D01*
X105902126Y-124991920D01*
X105852630Y-125046890D01*
X105809475Y-125099475D01*
X105793415Y-125112654D01*
X105775534Y-125132514D01*
X105720459Y-125172528D01*
X105672434Y-125211942D01*
X105648892Y-125224525D01*
X105622479Y-125243716D01*
X105565672Y-125269007D01*
X105516081Y-125295515D01*
X105484872Y-125304981D01*
X105449647Y-125320665D01*
X105394592Y-125332367D01*
X105346427Y-125346978D01*
X105308094Y-125350753D01*
X105264594Y-125360000D01*
X105214215Y-125360000D01*
X105169999Y-125364355D01*
X105125783Y-125360000D01*
X105075406Y-125360000D01*
X105031906Y-125350753D01*
X104993572Y-125346978D01*
X104945404Y-125332366D01*
X104890353Y-125320665D01*
X104855130Y-125304982D01*
X104823918Y-125295515D01*
X104774321Y-125269005D01*
X104717521Y-125243716D01*
X104691110Y-125224527D01*
X104667565Y-125211942D01*
X104619531Y-125172521D01*
X104564466Y-125132514D01*
X104546587Y-125112658D01*
X104530524Y-125099475D01*
X104487358Y-125046877D01*
X104437874Y-124991920D01*
X104427478Y-124973913D01*
X104418057Y-124962434D01*
X104383197Y-124897216D01*
X104343281Y-124828079D01*
X104338690Y-124813950D01*
X104334484Y-124806081D01*
X104311304Y-124729665D01*
X104284818Y-124648151D01*
X104283885Y-124639276D01*
X104283021Y-124636427D01*
X104274602Y-124550953D01*
X104265043Y-124460000D01*
X104274601Y-124369053D01*
X104283021Y-124283572D01*
X104283885Y-124280722D01*
X104284818Y-124271849D01*
X104311299Y-124190348D01*
X104334484Y-124113918D01*
X104338691Y-124106047D01*
X104343281Y-124091921D01*
X104383190Y-124022796D01*
X104418057Y-123957565D01*
X104427479Y-123946083D01*
X104437874Y-123928080D01*
X104487349Y-123873132D01*
X104530524Y-123820524D01*
X104546590Y-123807338D01*
X104564466Y-123787486D01*
X104619518Y-123747488D01*
X104667565Y-123708057D01*
X104691118Y-123695467D01*
X104717522Y-123676284D01*
X104774307Y-123651001D01*
X104823918Y-123624484D01*
X104855137Y-123615013D01*
X104890353Y-123599335D01*
X104945393Y-123587635D01*
X104993572Y-123573021D01*
X105031915Y-123569244D01*
X105075406Y-123560000D01*
X105125773Y-123560000D01*
X105169999Y-123555644D01*
X105214225Y-123560000D01*
G37*
G36*
X110214226Y-123560000D02*
G01*
X110264594Y-123560000D01*
X110308085Y-123569244D01*
X110346427Y-123573021D01*
X110394603Y-123587634D01*
X110449647Y-123599335D01*
X110484865Y-123615014D01*
X110516081Y-123624484D01*
X110565683Y-123650997D01*
X110622479Y-123676284D01*
X110648887Y-123695470D01*
X110672434Y-123708057D01*
X110720470Y-123747479D01*
X110775534Y-123787486D01*
X110793411Y-123807341D01*
X110809475Y-123820524D01*
X110852639Y-123873119D01*
X110902126Y-123928080D01*
X110912522Y-123946087D01*
X110921942Y-123957565D01*
X110956796Y-124022772D01*
X110996719Y-124091921D01*
X111001310Y-124106052D01*
X111005515Y-124113918D01*
X111028685Y-124190302D01*
X111055182Y-124271849D01*
X111056115Y-124280727D01*
X111056978Y-124283572D01*
X111065383Y-124368909D01*
X111074957Y-124460000D01*
X111065380Y-124551112D01*
X111056978Y-124636427D01*
X111056115Y-124639270D01*
X111055182Y-124648151D01*
X111028680Y-124729711D01*
X111005515Y-124806081D01*
X111001311Y-124813945D01*
X110996719Y-124828079D01*
X110956789Y-124897239D01*
X110921942Y-124962434D01*
X110912524Y-124973909D01*
X110902126Y-124991920D01*
X110852630Y-125046890D01*
X110809475Y-125099475D01*
X110793415Y-125112654D01*
X110775534Y-125132514D01*
X110720459Y-125172528D01*
X110672434Y-125211942D01*
X110648892Y-125224525D01*
X110622479Y-125243716D01*
X110565672Y-125269007D01*
X110516081Y-125295515D01*
X110484872Y-125304981D01*
X110449647Y-125320665D01*
X110394592Y-125332367D01*
X110346427Y-125346978D01*
X110308094Y-125350753D01*
X110264594Y-125360000D01*
X110214216Y-125360000D01*
X110170000Y-125364355D01*
X110125784Y-125360000D01*
X110075406Y-125360000D01*
X110031906Y-125350753D01*
X109993572Y-125346978D01*
X109945404Y-125332366D01*
X109890353Y-125320665D01*
X109855130Y-125304982D01*
X109823918Y-125295515D01*
X109774321Y-125269005D01*
X109717521Y-125243716D01*
X109691110Y-125224527D01*
X109667565Y-125211942D01*
X109619531Y-125172521D01*
X109564466Y-125132514D01*
X109546587Y-125112658D01*
X109530524Y-125099475D01*
X109487358Y-125046877D01*
X109437874Y-124991920D01*
X109427478Y-124973913D01*
X109418057Y-124962434D01*
X109383197Y-124897216D01*
X109343281Y-124828079D01*
X109338690Y-124813950D01*
X109334484Y-124806081D01*
X109311304Y-124729665D01*
X109284818Y-124648151D01*
X109283885Y-124639276D01*
X109283021Y-124636427D01*
X109274603Y-124550960D01*
X109265043Y-124460000D01*
X109274600Y-124369061D01*
X109283021Y-124283572D01*
X109283885Y-124280722D01*
X109284818Y-124271849D01*
X109311299Y-124190348D01*
X109334484Y-124113918D01*
X109338691Y-124106047D01*
X109343281Y-124091921D01*
X109383190Y-124022796D01*
X109418057Y-123957565D01*
X109427479Y-123946083D01*
X109437874Y-123928080D01*
X109487349Y-123873132D01*
X109530524Y-123820524D01*
X109546590Y-123807338D01*
X109564466Y-123787486D01*
X109619518Y-123747488D01*
X109667565Y-123708057D01*
X109691118Y-123695467D01*
X109717522Y-123676284D01*
X109774307Y-123651001D01*
X109823918Y-123624484D01*
X109855137Y-123615013D01*
X109890353Y-123599335D01*
X109945393Y-123587635D01*
X109993572Y-123573021D01*
X110031915Y-123569244D01*
X110075406Y-123560000D01*
X110125774Y-123560000D01*
X110170000Y-123555644D01*
X110214226Y-123560000D01*
G37*
G36*
X115214226Y-123560000D02*
G01*
X115264594Y-123560000D01*
X115308085Y-123569244D01*
X115346427Y-123573021D01*
X115394603Y-123587634D01*
X115449647Y-123599335D01*
X115484865Y-123615014D01*
X115516081Y-123624484D01*
X115565683Y-123650997D01*
X115622479Y-123676284D01*
X115648887Y-123695470D01*
X115672434Y-123708057D01*
X115720470Y-123747479D01*
X115775534Y-123787486D01*
X115793411Y-123807341D01*
X115809475Y-123820524D01*
X115852639Y-123873119D01*
X115902126Y-123928080D01*
X115912522Y-123946087D01*
X115921942Y-123957565D01*
X115956796Y-124022772D01*
X115996719Y-124091921D01*
X116001310Y-124106052D01*
X116005515Y-124113918D01*
X116028685Y-124190302D01*
X116055182Y-124271849D01*
X116056115Y-124280727D01*
X116056978Y-124283572D01*
X116065382Y-124368902D01*
X116074957Y-124460000D01*
X116065381Y-124551105D01*
X116056978Y-124636427D01*
X116056115Y-124639270D01*
X116055182Y-124648151D01*
X116028680Y-124729711D01*
X116005515Y-124806081D01*
X116001311Y-124813945D01*
X115996719Y-124828079D01*
X115956789Y-124897239D01*
X115921942Y-124962434D01*
X115912524Y-124973909D01*
X115902126Y-124991920D01*
X115852630Y-125046890D01*
X115809475Y-125099475D01*
X115793415Y-125112654D01*
X115775534Y-125132514D01*
X115720459Y-125172528D01*
X115672434Y-125211942D01*
X115648892Y-125224525D01*
X115622479Y-125243716D01*
X115565672Y-125269007D01*
X115516081Y-125295515D01*
X115484872Y-125304981D01*
X115449647Y-125320665D01*
X115394592Y-125332367D01*
X115346427Y-125346978D01*
X115308094Y-125350753D01*
X115264594Y-125360000D01*
X115214215Y-125360000D01*
X115169999Y-125364355D01*
X115125783Y-125360000D01*
X115075406Y-125360000D01*
X115031906Y-125350753D01*
X114993572Y-125346978D01*
X114945404Y-125332366D01*
X114890353Y-125320665D01*
X114855130Y-125304982D01*
X114823918Y-125295515D01*
X114774321Y-125269005D01*
X114717521Y-125243716D01*
X114691110Y-125224527D01*
X114667565Y-125211942D01*
X114619531Y-125172521D01*
X114564466Y-125132514D01*
X114546587Y-125112658D01*
X114530524Y-125099475D01*
X114487358Y-125046877D01*
X114437874Y-124991920D01*
X114427478Y-124973913D01*
X114418057Y-124962434D01*
X114383197Y-124897216D01*
X114343281Y-124828079D01*
X114338690Y-124813950D01*
X114334484Y-124806081D01*
X114311304Y-124729665D01*
X114284818Y-124648151D01*
X114283885Y-124639276D01*
X114283021Y-124636427D01*
X114274603Y-124550960D01*
X114265043Y-124460000D01*
X114274600Y-124369061D01*
X114283021Y-124283572D01*
X114283885Y-124280722D01*
X114284818Y-124271849D01*
X114311299Y-124190348D01*
X114334484Y-124113918D01*
X114338691Y-124106047D01*
X114343281Y-124091921D01*
X114383190Y-124022796D01*
X114418057Y-123957565D01*
X114427479Y-123946083D01*
X114437874Y-123928080D01*
X114487349Y-123873132D01*
X114530524Y-123820524D01*
X114546590Y-123807338D01*
X114564466Y-123787486D01*
X114619518Y-123747488D01*
X114667565Y-123708057D01*
X114691118Y-123695467D01*
X114717522Y-123676284D01*
X114774307Y-123651001D01*
X114823918Y-123624484D01*
X114855137Y-123615013D01*
X114890353Y-123599335D01*
X114945393Y-123587635D01*
X114993572Y-123573021D01*
X115031915Y-123569244D01*
X115075406Y-123560000D01*
X115125774Y-123560000D01*
X115170000Y-123555644D01*
X115214226Y-123560000D01*
G37*
G36*
X125859226Y-123560000D02*
G01*
X125909594Y-123560000D01*
X125953085Y-123569244D01*
X125991427Y-123573021D01*
X126039603Y-123587634D01*
X126094647Y-123599335D01*
X126129865Y-123615014D01*
X126161081Y-123624484D01*
X126210683Y-123650997D01*
X126267479Y-123676284D01*
X126293887Y-123695470D01*
X126317434Y-123708057D01*
X126365470Y-123747479D01*
X126420534Y-123787486D01*
X126438411Y-123807341D01*
X126454475Y-123820524D01*
X126497639Y-123873119D01*
X126547126Y-123928080D01*
X126557522Y-123946087D01*
X126566942Y-123957565D01*
X126601796Y-124022772D01*
X126641719Y-124091921D01*
X126646310Y-124106052D01*
X126650515Y-124113918D01*
X126673685Y-124190302D01*
X126700182Y-124271849D01*
X126701115Y-124280727D01*
X126701978Y-124283572D01*
X126710383Y-124368909D01*
X126719957Y-124460000D01*
X126710380Y-124551112D01*
X126701978Y-124636427D01*
X126701115Y-124639270D01*
X126700182Y-124648151D01*
X126673680Y-124729711D01*
X126650515Y-124806081D01*
X126646311Y-124813945D01*
X126641719Y-124828079D01*
X126601789Y-124897239D01*
X126566942Y-124962434D01*
X126557524Y-124973909D01*
X126547126Y-124991920D01*
X126497630Y-125046890D01*
X126454475Y-125099475D01*
X126438415Y-125112654D01*
X126420534Y-125132514D01*
X126365459Y-125172528D01*
X126317434Y-125211942D01*
X126293892Y-125224525D01*
X126267479Y-125243716D01*
X126210672Y-125269007D01*
X126161081Y-125295515D01*
X126129872Y-125304981D01*
X126094647Y-125320665D01*
X126039592Y-125332367D01*
X125991427Y-125346978D01*
X125953094Y-125350753D01*
X125909594Y-125360000D01*
X125859216Y-125360000D01*
X125815000Y-125364355D01*
X125770784Y-125360000D01*
X125720406Y-125360000D01*
X125676906Y-125350753D01*
X125638572Y-125346978D01*
X125590404Y-125332366D01*
X125535353Y-125320665D01*
X125500130Y-125304982D01*
X125468918Y-125295515D01*
X125419321Y-125269005D01*
X125362521Y-125243716D01*
X125336110Y-125224527D01*
X125312565Y-125211942D01*
X125264531Y-125172521D01*
X125209466Y-125132514D01*
X125191587Y-125112658D01*
X125175524Y-125099475D01*
X125132358Y-125046877D01*
X125082874Y-124991920D01*
X125072478Y-124973913D01*
X125063057Y-124962434D01*
X125028197Y-124897216D01*
X124988281Y-124828079D01*
X124983690Y-124813950D01*
X124979484Y-124806081D01*
X124956304Y-124729665D01*
X124929818Y-124648151D01*
X124928885Y-124639276D01*
X124928021Y-124636427D01*
X124919603Y-124550960D01*
X124910043Y-124460000D01*
X124919600Y-124369061D01*
X124928021Y-124283572D01*
X124928885Y-124280722D01*
X124929818Y-124271849D01*
X124956299Y-124190348D01*
X124979484Y-124113918D01*
X124983691Y-124106047D01*
X124988281Y-124091921D01*
X125028190Y-124022796D01*
X125063057Y-123957565D01*
X125072479Y-123946083D01*
X125082874Y-123928080D01*
X125132349Y-123873132D01*
X125175524Y-123820524D01*
X125191590Y-123807338D01*
X125209466Y-123787486D01*
X125264518Y-123747488D01*
X125312565Y-123708057D01*
X125336118Y-123695467D01*
X125362522Y-123676284D01*
X125419307Y-123651001D01*
X125468918Y-123624484D01*
X125500137Y-123615013D01*
X125535353Y-123599335D01*
X125590393Y-123587635D01*
X125638572Y-123573021D01*
X125676915Y-123569244D01*
X125720406Y-123560000D01*
X125770774Y-123560000D01*
X125815000Y-123555644D01*
X125859226Y-123560000D01*
G37*
G36*
X130859225Y-123560000D02*
G01*
X130909594Y-123560000D01*
X130953085Y-123569244D01*
X130991427Y-123573021D01*
X131039603Y-123587634D01*
X131094647Y-123599335D01*
X131129865Y-123615014D01*
X131161081Y-123624484D01*
X131210683Y-123650997D01*
X131267479Y-123676284D01*
X131293887Y-123695470D01*
X131317434Y-123708057D01*
X131365470Y-123747479D01*
X131420534Y-123787486D01*
X131438411Y-123807341D01*
X131454475Y-123820524D01*
X131497639Y-123873119D01*
X131547126Y-123928080D01*
X131557522Y-123946087D01*
X131566942Y-123957565D01*
X131601796Y-124022772D01*
X131641719Y-124091921D01*
X131646310Y-124106052D01*
X131650515Y-124113918D01*
X131673685Y-124190302D01*
X131700182Y-124271849D01*
X131701115Y-124280727D01*
X131701978Y-124283572D01*
X131710382Y-124368902D01*
X131719957Y-124460000D01*
X131710381Y-124551105D01*
X131701978Y-124636427D01*
X131701115Y-124639270D01*
X131700182Y-124648151D01*
X131673680Y-124729711D01*
X131650515Y-124806081D01*
X131646311Y-124813945D01*
X131641719Y-124828079D01*
X131601789Y-124897239D01*
X131566942Y-124962434D01*
X131557524Y-124973909D01*
X131547126Y-124991920D01*
X131497630Y-125046890D01*
X131454475Y-125099475D01*
X131438415Y-125112654D01*
X131420534Y-125132514D01*
X131365459Y-125172528D01*
X131317434Y-125211942D01*
X131293892Y-125224525D01*
X131267479Y-125243716D01*
X131210672Y-125269007D01*
X131161081Y-125295515D01*
X131129872Y-125304981D01*
X131094647Y-125320665D01*
X131039592Y-125332367D01*
X130991427Y-125346978D01*
X130953094Y-125350753D01*
X130909594Y-125360000D01*
X130859215Y-125360000D01*
X130814999Y-125364355D01*
X130770783Y-125360000D01*
X130720406Y-125360000D01*
X130676906Y-125350753D01*
X130638572Y-125346978D01*
X130590404Y-125332366D01*
X130535353Y-125320665D01*
X130500130Y-125304982D01*
X130468918Y-125295515D01*
X130419321Y-125269005D01*
X130362521Y-125243716D01*
X130336110Y-125224527D01*
X130312565Y-125211942D01*
X130264531Y-125172521D01*
X130209466Y-125132514D01*
X130191587Y-125112658D01*
X130175524Y-125099475D01*
X130132358Y-125046877D01*
X130082874Y-124991920D01*
X130072478Y-124973913D01*
X130063057Y-124962434D01*
X130028197Y-124897216D01*
X129988281Y-124828079D01*
X129983690Y-124813950D01*
X129979484Y-124806081D01*
X129956304Y-124729665D01*
X129929818Y-124648151D01*
X129928885Y-124639276D01*
X129928021Y-124636427D01*
X129919603Y-124550960D01*
X129910043Y-124460000D01*
X129919600Y-124369061D01*
X129928021Y-124283572D01*
X129928885Y-124280722D01*
X129929818Y-124271849D01*
X129956299Y-124190348D01*
X129979484Y-124113918D01*
X129983691Y-124106047D01*
X129988281Y-124091921D01*
X130028190Y-124022796D01*
X130063057Y-123957565D01*
X130072479Y-123946083D01*
X130082874Y-123928080D01*
X130132349Y-123873132D01*
X130175524Y-123820524D01*
X130191590Y-123807338D01*
X130209466Y-123787486D01*
X130264518Y-123747488D01*
X130312565Y-123708057D01*
X130336118Y-123695467D01*
X130362522Y-123676284D01*
X130419307Y-123651001D01*
X130468918Y-123624484D01*
X130500137Y-123615013D01*
X130535353Y-123599335D01*
X130590393Y-123587635D01*
X130638572Y-123573021D01*
X130676915Y-123569244D01*
X130720406Y-123560000D01*
X130770773Y-123560000D01*
X130814999Y-123555644D01*
X130859225Y-123560000D01*
G37*
G36*
X135859225Y-123560000D02*
G01*
X135909594Y-123560000D01*
X135953085Y-123569244D01*
X135991427Y-123573021D01*
X136039603Y-123587634D01*
X136094647Y-123599335D01*
X136129865Y-123615014D01*
X136161081Y-123624484D01*
X136210683Y-123650997D01*
X136267479Y-123676284D01*
X136293887Y-123695470D01*
X136317434Y-123708057D01*
X136365470Y-123747479D01*
X136420534Y-123787486D01*
X136438411Y-123807341D01*
X136454475Y-123820524D01*
X136497639Y-123873119D01*
X136547126Y-123928080D01*
X136557522Y-123946087D01*
X136566942Y-123957565D01*
X136601796Y-124022772D01*
X136641719Y-124091921D01*
X136646310Y-124106052D01*
X136650515Y-124113918D01*
X136673685Y-124190302D01*
X136700182Y-124271849D01*
X136701115Y-124280727D01*
X136701978Y-124283572D01*
X136710383Y-124368909D01*
X136719957Y-124460000D01*
X136710380Y-124551112D01*
X136701978Y-124636427D01*
X136701115Y-124639270D01*
X136700182Y-124648151D01*
X136673680Y-124729711D01*
X136650515Y-124806081D01*
X136646311Y-124813945D01*
X136641719Y-124828079D01*
X136601789Y-124897239D01*
X136566942Y-124962434D01*
X136557524Y-124973909D01*
X136547126Y-124991920D01*
X136497630Y-125046890D01*
X136454475Y-125099475D01*
X136438415Y-125112654D01*
X136420534Y-125132514D01*
X136365459Y-125172528D01*
X136317434Y-125211942D01*
X136293892Y-125224525D01*
X136267479Y-125243716D01*
X136210672Y-125269007D01*
X136161081Y-125295515D01*
X136129872Y-125304981D01*
X136094647Y-125320665D01*
X136039592Y-125332367D01*
X135991427Y-125346978D01*
X135953094Y-125350753D01*
X135909594Y-125360000D01*
X135859216Y-125360000D01*
X135815000Y-125364355D01*
X135770784Y-125360000D01*
X135720406Y-125360000D01*
X135676906Y-125350753D01*
X135638572Y-125346978D01*
X135590404Y-125332366D01*
X135535353Y-125320665D01*
X135500130Y-125304982D01*
X135468918Y-125295515D01*
X135419321Y-125269005D01*
X135362521Y-125243716D01*
X135336110Y-125224527D01*
X135312565Y-125211942D01*
X135264531Y-125172521D01*
X135209466Y-125132514D01*
X135191587Y-125112658D01*
X135175524Y-125099475D01*
X135132358Y-125046877D01*
X135082874Y-124991920D01*
X135072478Y-124973913D01*
X135063057Y-124962434D01*
X135028197Y-124897216D01*
X134988281Y-124828079D01*
X134983690Y-124813950D01*
X134979484Y-124806081D01*
X134956304Y-124729665D01*
X134929818Y-124648151D01*
X134928885Y-124639276D01*
X134928021Y-124636427D01*
X134919602Y-124550953D01*
X134910043Y-124460000D01*
X134919601Y-124369053D01*
X134928021Y-124283572D01*
X134928885Y-124280722D01*
X134929818Y-124271849D01*
X134956299Y-124190348D01*
X134979484Y-124113918D01*
X134983691Y-124106047D01*
X134988281Y-124091921D01*
X135028190Y-124022796D01*
X135063057Y-123957565D01*
X135072479Y-123946083D01*
X135082874Y-123928080D01*
X135132349Y-123873132D01*
X135175524Y-123820524D01*
X135191590Y-123807338D01*
X135209466Y-123787486D01*
X135264518Y-123747488D01*
X135312565Y-123708057D01*
X135336118Y-123695467D01*
X135362522Y-123676284D01*
X135419307Y-123651001D01*
X135468918Y-123624484D01*
X135500137Y-123615013D01*
X135535353Y-123599335D01*
X135590393Y-123587635D01*
X135638572Y-123573021D01*
X135676915Y-123569244D01*
X135720406Y-123560000D01*
X135770773Y-123560000D01*
X135814999Y-123555644D01*
X135859225Y-123560000D01*
G37*
G36*
X140859226Y-123560000D02*
G01*
X140909594Y-123560000D01*
X140953085Y-123569244D01*
X140991427Y-123573021D01*
X141039603Y-123587634D01*
X141094647Y-123599335D01*
X141129865Y-123615014D01*
X141161081Y-123624484D01*
X141210683Y-123650997D01*
X141267479Y-123676284D01*
X141293887Y-123695470D01*
X141317434Y-123708057D01*
X141365470Y-123747479D01*
X141420534Y-123787486D01*
X141438411Y-123807341D01*
X141454475Y-123820524D01*
X141497639Y-123873119D01*
X141547126Y-123928080D01*
X141557522Y-123946087D01*
X141566942Y-123957565D01*
X141601796Y-124022772D01*
X141641719Y-124091921D01*
X141646310Y-124106052D01*
X141650515Y-124113918D01*
X141673685Y-124190302D01*
X141700182Y-124271849D01*
X141701115Y-124280727D01*
X141701978Y-124283572D01*
X141710383Y-124368909D01*
X141719957Y-124460000D01*
X141710380Y-124551112D01*
X141701978Y-124636427D01*
X141701115Y-124639270D01*
X141700182Y-124648151D01*
X141673680Y-124729711D01*
X141650515Y-124806081D01*
X141646311Y-124813945D01*
X141641719Y-124828079D01*
X141601789Y-124897239D01*
X141566942Y-124962434D01*
X141557524Y-124973909D01*
X141547126Y-124991920D01*
X141497630Y-125046890D01*
X141454475Y-125099475D01*
X141438415Y-125112654D01*
X141420534Y-125132514D01*
X141365459Y-125172528D01*
X141317434Y-125211942D01*
X141293892Y-125224525D01*
X141267479Y-125243716D01*
X141210672Y-125269007D01*
X141161081Y-125295515D01*
X141129872Y-125304981D01*
X141094647Y-125320665D01*
X141039592Y-125332367D01*
X140991427Y-125346978D01*
X140953094Y-125350753D01*
X140909594Y-125360000D01*
X140859215Y-125360000D01*
X140814999Y-125364355D01*
X140770783Y-125360000D01*
X140720406Y-125360000D01*
X140676906Y-125350753D01*
X140638572Y-125346978D01*
X140590404Y-125332366D01*
X140535353Y-125320665D01*
X140500130Y-125304982D01*
X140468918Y-125295515D01*
X140419321Y-125269005D01*
X140362521Y-125243716D01*
X140336110Y-125224527D01*
X140312565Y-125211942D01*
X140264531Y-125172521D01*
X140209466Y-125132514D01*
X140191587Y-125112658D01*
X140175524Y-125099475D01*
X140132358Y-125046877D01*
X140082874Y-124991920D01*
X140072478Y-124973913D01*
X140063057Y-124962434D01*
X140028197Y-124897216D01*
X139988281Y-124828079D01*
X139983690Y-124813950D01*
X139979484Y-124806081D01*
X139956304Y-124729665D01*
X139929818Y-124648151D01*
X139928885Y-124639276D01*
X139928021Y-124636427D01*
X139919602Y-124550953D01*
X139910043Y-124460000D01*
X139919601Y-124369053D01*
X139928021Y-124283572D01*
X139928885Y-124280722D01*
X139929818Y-124271849D01*
X139956299Y-124190348D01*
X139979484Y-124113918D01*
X139983691Y-124106047D01*
X139988281Y-124091921D01*
X140028190Y-124022796D01*
X140063057Y-123957565D01*
X140072479Y-123946083D01*
X140082874Y-123928080D01*
X140132349Y-123873132D01*
X140175524Y-123820524D01*
X140191590Y-123807338D01*
X140209466Y-123787486D01*
X140264518Y-123747488D01*
X140312565Y-123708057D01*
X140336118Y-123695467D01*
X140362522Y-123676284D01*
X140419307Y-123651001D01*
X140468918Y-123624484D01*
X140500137Y-123615013D01*
X140535353Y-123599335D01*
X140590393Y-123587635D01*
X140638572Y-123573021D01*
X140676915Y-123569244D01*
X140720406Y-123560000D01*
X140770774Y-123560000D01*
X140815000Y-123555644D01*
X140859226Y-123560000D01*
G37*
G36*
X145859225Y-123560000D02*
G01*
X145909594Y-123560000D01*
X145953085Y-123569244D01*
X145991427Y-123573021D01*
X146039603Y-123587634D01*
X146094647Y-123599335D01*
X146129865Y-123615014D01*
X146161081Y-123624484D01*
X146210683Y-123650997D01*
X146267479Y-123676284D01*
X146293887Y-123695470D01*
X146317434Y-123708057D01*
X146365470Y-123747479D01*
X146420534Y-123787486D01*
X146438411Y-123807341D01*
X146454475Y-123820524D01*
X146497639Y-123873119D01*
X146547126Y-123928080D01*
X146557522Y-123946087D01*
X146566942Y-123957565D01*
X146601796Y-124022772D01*
X146641719Y-124091921D01*
X146646310Y-124106052D01*
X146650515Y-124113918D01*
X146673685Y-124190302D01*
X146700182Y-124271849D01*
X146701115Y-124280727D01*
X146701978Y-124283572D01*
X146710382Y-124368902D01*
X146719957Y-124460000D01*
X146710381Y-124551105D01*
X146701978Y-124636427D01*
X146701115Y-124639270D01*
X146700182Y-124648151D01*
X146673680Y-124729711D01*
X146650515Y-124806081D01*
X146646311Y-124813945D01*
X146641719Y-124828079D01*
X146601789Y-124897239D01*
X146566942Y-124962434D01*
X146557524Y-124973909D01*
X146547126Y-124991920D01*
X146497630Y-125046890D01*
X146454475Y-125099475D01*
X146438415Y-125112654D01*
X146420534Y-125132514D01*
X146365459Y-125172528D01*
X146317434Y-125211942D01*
X146293892Y-125224525D01*
X146267479Y-125243716D01*
X146210672Y-125269007D01*
X146161081Y-125295515D01*
X146129872Y-125304981D01*
X146094647Y-125320665D01*
X146039592Y-125332367D01*
X145991427Y-125346978D01*
X145953094Y-125350753D01*
X145909594Y-125360000D01*
X145859216Y-125360000D01*
X145815000Y-125364355D01*
X145770784Y-125360000D01*
X145720406Y-125360000D01*
X145676906Y-125350753D01*
X145638572Y-125346978D01*
X145590404Y-125332366D01*
X145535353Y-125320665D01*
X145500130Y-125304982D01*
X145468918Y-125295515D01*
X145419321Y-125269005D01*
X145362521Y-125243716D01*
X145336110Y-125224527D01*
X145312565Y-125211942D01*
X145264531Y-125172521D01*
X145209466Y-125132514D01*
X145191587Y-125112658D01*
X145175524Y-125099475D01*
X145132358Y-125046877D01*
X145082874Y-124991920D01*
X145072478Y-124973913D01*
X145063057Y-124962434D01*
X145028197Y-124897216D01*
X144988281Y-124828079D01*
X144983690Y-124813950D01*
X144979484Y-124806081D01*
X144956304Y-124729665D01*
X144929818Y-124648151D01*
X144928885Y-124639276D01*
X144928021Y-124636427D01*
X144919603Y-124550960D01*
X144910043Y-124460000D01*
X144919600Y-124369061D01*
X144928021Y-124283572D01*
X144928885Y-124280722D01*
X144929818Y-124271849D01*
X144956299Y-124190348D01*
X144979484Y-124113918D01*
X144983691Y-124106047D01*
X144988281Y-124091921D01*
X145028190Y-124022796D01*
X145063057Y-123957565D01*
X145072479Y-123946083D01*
X145082874Y-123928080D01*
X145132349Y-123873132D01*
X145175524Y-123820524D01*
X145191590Y-123807338D01*
X145209466Y-123787486D01*
X145264518Y-123747488D01*
X145312565Y-123708057D01*
X145336118Y-123695467D01*
X145362522Y-123676284D01*
X145419307Y-123651001D01*
X145468918Y-123624484D01*
X145500137Y-123615013D01*
X145535353Y-123599335D01*
X145590393Y-123587635D01*
X145638572Y-123573021D01*
X145676915Y-123569244D01*
X145720406Y-123560000D01*
X145770773Y-123560000D01*
X145814999Y-123555644D01*
X145859225Y-123560000D01*
G37*
G36*
X150859226Y-123560000D02*
G01*
X150909594Y-123560000D01*
X150953085Y-123569244D01*
X150991427Y-123573021D01*
X151039603Y-123587634D01*
X151094647Y-123599335D01*
X151129865Y-123615014D01*
X151161081Y-123624484D01*
X151210683Y-123650997D01*
X151267479Y-123676284D01*
X151293887Y-123695470D01*
X151317434Y-123708057D01*
X151365470Y-123747479D01*
X151420534Y-123787486D01*
X151438411Y-123807341D01*
X151454475Y-123820524D01*
X151497639Y-123873119D01*
X151547126Y-123928080D01*
X151557522Y-123946087D01*
X151566942Y-123957565D01*
X151601796Y-124022772D01*
X151641719Y-124091921D01*
X151646310Y-124106052D01*
X151650515Y-124113918D01*
X151673685Y-124190302D01*
X151700182Y-124271849D01*
X151701115Y-124280727D01*
X151701978Y-124283572D01*
X151710383Y-124368909D01*
X151719957Y-124460000D01*
X151710380Y-124551112D01*
X151701978Y-124636427D01*
X151701115Y-124639270D01*
X151700182Y-124648151D01*
X151673680Y-124729711D01*
X151650515Y-124806081D01*
X151646311Y-124813945D01*
X151641719Y-124828079D01*
X151601789Y-124897239D01*
X151566942Y-124962434D01*
X151557524Y-124973909D01*
X151547126Y-124991920D01*
X151497630Y-125046890D01*
X151454475Y-125099475D01*
X151438415Y-125112654D01*
X151420534Y-125132514D01*
X151365459Y-125172528D01*
X151317434Y-125211942D01*
X151293892Y-125224525D01*
X151267479Y-125243716D01*
X151210672Y-125269007D01*
X151161081Y-125295515D01*
X151129872Y-125304981D01*
X151094647Y-125320665D01*
X151039592Y-125332367D01*
X150991427Y-125346978D01*
X150953094Y-125350753D01*
X150909594Y-125360000D01*
X150859215Y-125360000D01*
X150814999Y-125364355D01*
X150770783Y-125360000D01*
X150720406Y-125360000D01*
X150676906Y-125350753D01*
X150638572Y-125346978D01*
X150590404Y-125332366D01*
X150535353Y-125320665D01*
X150500130Y-125304982D01*
X150468918Y-125295515D01*
X150419321Y-125269005D01*
X150362521Y-125243716D01*
X150336110Y-125224527D01*
X150312565Y-125211942D01*
X150264531Y-125172521D01*
X150209466Y-125132514D01*
X150191587Y-125112658D01*
X150175524Y-125099475D01*
X150132358Y-125046877D01*
X150082874Y-124991920D01*
X150072478Y-124973913D01*
X150063057Y-124962434D01*
X150028197Y-124897216D01*
X149988281Y-124828079D01*
X149983690Y-124813950D01*
X149979484Y-124806081D01*
X149956304Y-124729665D01*
X149929818Y-124648151D01*
X149928885Y-124639276D01*
X149928021Y-124636427D01*
X149919603Y-124550960D01*
X149910043Y-124460000D01*
X149919600Y-124369061D01*
X149928021Y-124283572D01*
X149928885Y-124280722D01*
X149929818Y-124271849D01*
X149956299Y-124190348D01*
X149979484Y-124113918D01*
X149983691Y-124106047D01*
X149988281Y-124091921D01*
X150028190Y-124022796D01*
X150063057Y-123957565D01*
X150072479Y-123946083D01*
X150082874Y-123928080D01*
X150132349Y-123873132D01*
X150175524Y-123820524D01*
X150191590Y-123807338D01*
X150209466Y-123787486D01*
X150264518Y-123747488D01*
X150312565Y-123708057D01*
X150336118Y-123695467D01*
X150362522Y-123676284D01*
X150419307Y-123651001D01*
X150468918Y-123624484D01*
X150500137Y-123615013D01*
X150535353Y-123599335D01*
X150590393Y-123587635D01*
X150638572Y-123573021D01*
X150676915Y-123569244D01*
X150720406Y-123560000D01*
X150770774Y-123560000D01*
X150815000Y-123555644D01*
X150859226Y-123560000D01*
G37*
G36*
X155859226Y-123560000D02*
G01*
X155909594Y-123560000D01*
X155953085Y-123569244D01*
X155991427Y-123573021D01*
X156039603Y-123587634D01*
X156094647Y-123599335D01*
X156129865Y-123615014D01*
X156161081Y-123624484D01*
X156210683Y-123650997D01*
X156267479Y-123676284D01*
X156293887Y-123695470D01*
X156317434Y-123708057D01*
X156365470Y-123747479D01*
X156420534Y-123787486D01*
X156438411Y-123807341D01*
X156454475Y-123820524D01*
X156497639Y-123873119D01*
X156547126Y-123928080D01*
X156557522Y-123946087D01*
X156566942Y-123957565D01*
X156601796Y-124022772D01*
X156641719Y-124091921D01*
X156646310Y-124106052D01*
X156650515Y-124113918D01*
X156673685Y-124190302D01*
X156700182Y-124271849D01*
X156701115Y-124280727D01*
X156701978Y-124283572D01*
X156710383Y-124368909D01*
X156719957Y-124460000D01*
X156710380Y-124551112D01*
X156701978Y-124636427D01*
X156701115Y-124639270D01*
X156700182Y-124648151D01*
X156673680Y-124729711D01*
X156650515Y-124806081D01*
X156646311Y-124813945D01*
X156641719Y-124828079D01*
X156601789Y-124897239D01*
X156566942Y-124962434D01*
X156557524Y-124973909D01*
X156547126Y-124991920D01*
X156497630Y-125046890D01*
X156454475Y-125099475D01*
X156438415Y-125112654D01*
X156420534Y-125132514D01*
X156365459Y-125172528D01*
X156317434Y-125211942D01*
X156293892Y-125224525D01*
X156267479Y-125243716D01*
X156210672Y-125269007D01*
X156161081Y-125295515D01*
X156129872Y-125304981D01*
X156094647Y-125320665D01*
X156039592Y-125332367D01*
X155991427Y-125346978D01*
X155953094Y-125350753D01*
X155909594Y-125360000D01*
X155859215Y-125360000D01*
X155814999Y-125364355D01*
X155770783Y-125360000D01*
X155720406Y-125360000D01*
X155676906Y-125350753D01*
X155638572Y-125346978D01*
X155590404Y-125332366D01*
X155535353Y-125320665D01*
X155500130Y-125304982D01*
X155468918Y-125295515D01*
X155419321Y-125269005D01*
X155362521Y-125243716D01*
X155336110Y-125224527D01*
X155312565Y-125211942D01*
X155264531Y-125172521D01*
X155209466Y-125132514D01*
X155191587Y-125112658D01*
X155175524Y-125099475D01*
X155132358Y-125046877D01*
X155082874Y-124991920D01*
X155072478Y-124973913D01*
X155063057Y-124962434D01*
X155028197Y-124897216D01*
X154988281Y-124828079D01*
X154983690Y-124813950D01*
X154979484Y-124806081D01*
X154956304Y-124729665D01*
X154929818Y-124648151D01*
X154928885Y-124639276D01*
X154928021Y-124636427D01*
X154919603Y-124550960D01*
X154910043Y-124460000D01*
X154919600Y-124369061D01*
X154928021Y-124283572D01*
X154928885Y-124280722D01*
X154929818Y-124271849D01*
X154956299Y-124190348D01*
X154979484Y-124113918D01*
X154983691Y-124106047D01*
X154988281Y-124091921D01*
X155028190Y-124022796D01*
X155063057Y-123957565D01*
X155072479Y-123946083D01*
X155082874Y-123928080D01*
X155132349Y-123873132D01*
X155175524Y-123820524D01*
X155191590Y-123807338D01*
X155209466Y-123787486D01*
X155264518Y-123747488D01*
X155312565Y-123708057D01*
X155336118Y-123695467D01*
X155362522Y-123676284D01*
X155419307Y-123651001D01*
X155468918Y-123624484D01*
X155500137Y-123615013D01*
X155535353Y-123599335D01*
X155590393Y-123587635D01*
X155638572Y-123573021D01*
X155676915Y-123569244D01*
X155720406Y-123560000D01*
X155770774Y-123560000D01*
X155815000Y-123555644D01*
X155859226Y-123560000D01*
G37*
G36*
X160859225Y-123560000D02*
G01*
X160909594Y-123560000D01*
X160953085Y-123569244D01*
X160991427Y-123573021D01*
X161039603Y-123587634D01*
X161094647Y-123599335D01*
X161129865Y-123615014D01*
X161161081Y-123624484D01*
X161210683Y-123650997D01*
X161267479Y-123676284D01*
X161293887Y-123695470D01*
X161317434Y-123708057D01*
X161365470Y-123747479D01*
X161420534Y-123787486D01*
X161438411Y-123807341D01*
X161454475Y-123820524D01*
X161497639Y-123873119D01*
X161547126Y-123928080D01*
X161557522Y-123946087D01*
X161566942Y-123957565D01*
X161601796Y-124022772D01*
X161641719Y-124091921D01*
X161646310Y-124106052D01*
X161650515Y-124113918D01*
X161673685Y-124190302D01*
X161700182Y-124271849D01*
X161701115Y-124280727D01*
X161701978Y-124283572D01*
X161710383Y-124368909D01*
X161719957Y-124460000D01*
X161710380Y-124551112D01*
X161701978Y-124636427D01*
X161701115Y-124639270D01*
X161700182Y-124648151D01*
X161673680Y-124729711D01*
X161650515Y-124806081D01*
X161646311Y-124813945D01*
X161641719Y-124828079D01*
X161601789Y-124897239D01*
X161566942Y-124962434D01*
X161557524Y-124973909D01*
X161547126Y-124991920D01*
X161497630Y-125046890D01*
X161454475Y-125099475D01*
X161438415Y-125112654D01*
X161420534Y-125132514D01*
X161365459Y-125172528D01*
X161317434Y-125211942D01*
X161293892Y-125224525D01*
X161267479Y-125243716D01*
X161210672Y-125269007D01*
X161161081Y-125295515D01*
X161129872Y-125304981D01*
X161094647Y-125320665D01*
X161039592Y-125332367D01*
X160991427Y-125346978D01*
X160953094Y-125350753D01*
X160909594Y-125360000D01*
X160859216Y-125360000D01*
X160815000Y-125364355D01*
X160770784Y-125360000D01*
X160720406Y-125360000D01*
X160676906Y-125350753D01*
X160638572Y-125346978D01*
X160590404Y-125332366D01*
X160535353Y-125320665D01*
X160500130Y-125304982D01*
X160468918Y-125295515D01*
X160419321Y-125269005D01*
X160362521Y-125243716D01*
X160336110Y-125224527D01*
X160312565Y-125211942D01*
X160264531Y-125172521D01*
X160209466Y-125132514D01*
X160191587Y-125112658D01*
X160175524Y-125099475D01*
X160132358Y-125046877D01*
X160082874Y-124991920D01*
X160072478Y-124973913D01*
X160063057Y-124962434D01*
X160028197Y-124897216D01*
X159988281Y-124828079D01*
X159983690Y-124813950D01*
X159979484Y-124806081D01*
X159956304Y-124729665D01*
X159929818Y-124648151D01*
X159928885Y-124639276D01*
X159928021Y-124636427D01*
X159919603Y-124550960D01*
X159910043Y-124460000D01*
X159919600Y-124369061D01*
X159928021Y-124283572D01*
X159928885Y-124280722D01*
X159929818Y-124271849D01*
X159956299Y-124190348D01*
X159979484Y-124113918D01*
X159983691Y-124106047D01*
X159988281Y-124091921D01*
X160028190Y-124022796D01*
X160063057Y-123957565D01*
X160072479Y-123946083D01*
X160082874Y-123928080D01*
X160132349Y-123873132D01*
X160175524Y-123820524D01*
X160191590Y-123807338D01*
X160209466Y-123787486D01*
X160264518Y-123747488D01*
X160312565Y-123708057D01*
X160336118Y-123695467D01*
X160362522Y-123676284D01*
X160419307Y-123651001D01*
X160468918Y-123624484D01*
X160500137Y-123615013D01*
X160535353Y-123599335D01*
X160590393Y-123587635D01*
X160638572Y-123573021D01*
X160676915Y-123569244D01*
X160720406Y-123560000D01*
X160770773Y-123560000D01*
X160814999Y-123555644D01*
X160859225Y-123560000D01*
G37*
G36*
X165859226Y-123560000D02*
G01*
X165909594Y-123560000D01*
X165953085Y-123569244D01*
X165991427Y-123573021D01*
X166039603Y-123587634D01*
X166094647Y-123599335D01*
X166129865Y-123615014D01*
X166161081Y-123624484D01*
X166210683Y-123650997D01*
X166267479Y-123676284D01*
X166293887Y-123695470D01*
X166317434Y-123708057D01*
X166365470Y-123747479D01*
X166420534Y-123787486D01*
X166438411Y-123807341D01*
X166454475Y-123820524D01*
X166497639Y-123873119D01*
X166547126Y-123928080D01*
X166557522Y-123946087D01*
X166566942Y-123957565D01*
X166601796Y-124022772D01*
X166641719Y-124091921D01*
X166646310Y-124106052D01*
X166650515Y-124113918D01*
X166673685Y-124190302D01*
X166700182Y-124271849D01*
X166701115Y-124280727D01*
X166701978Y-124283572D01*
X166710383Y-124368909D01*
X166719957Y-124460000D01*
X166710380Y-124551112D01*
X166701978Y-124636427D01*
X166701115Y-124639270D01*
X166700182Y-124648151D01*
X166673680Y-124729711D01*
X166650515Y-124806081D01*
X166646311Y-124813945D01*
X166641719Y-124828079D01*
X166601789Y-124897239D01*
X166566942Y-124962434D01*
X166557524Y-124973909D01*
X166547126Y-124991920D01*
X166497630Y-125046890D01*
X166454475Y-125099475D01*
X166438415Y-125112654D01*
X166420534Y-125132514D01*
X166365459Y-125172528D01*
X166317434Y-125211942D01*
X166293892Y-125224525D01*
X166267479Y-125243716D01*
X166210672Y-125269007D01*
X166161081Y-125295515D01*
X166129872Y-125304981D01*
X166094647Y-125320665D01*
X166039592Y-125332367D01*
X165991427Y-125346978D01*
X165953094Y-125350753D01*
X165909594Y-125360000D01*
X165859216Y-125360000D01*
X165815000Y-125364355D01*
X165770784Y-125360000D01*
X165720406Y-125360000D01*
X165676906Y-125350753D01*
X165638572Y-125346978D01*
X165590404Y-125332366D01*
X165535353Y-125320665D01*
X165500130Y-125304982D01*
X165468918Y-125295515D01*
X165419321Y-125269005D01*
X165362521Y-125243716D01*
X165336110Y-125224527D01*
X165312565Y-125211942D01*
X165264531Y-125172521D01*
X165209466Y-125132514D01*
X165191587Y-125112658D01*
X165175524Y-125099475D01*
X165132358Y-125046877D01*
X165082874Y-124991920D01*
X165072478Y-124973913D01*
X165063057Y-124962434D01*
X165028197Y-124897216D01*
X164988281Y-124828079D01*
X164983690Y-124813950D01*
X164979484Y-124806081D01*
X164956304Y-124729665D01*
X164929818Y-124648151D01*
X164928885Y-124639276D01*
X164928021Y-124636427D01*
X164919603Y-124550960D01*
X164910043Y-124460000D01*
X164919600Y-124369061D01*
X164928021Y-124283572D01*
X164928885Y-124280722D01*
X164929818Y-124271849D01*
X164956299Y-124190348D01*
X164979484Y-124113918D01*
X164983691Y-124106047D01*
X164988281Y-124091921D01*
X165028190Y-124022796D01*
X165063057Y-123957565D01*
X165072479Y-123946083D01*
X165082874Y-123928080D01*
X165132349Y-123873132D01*
X165175524Y-123820524D01*
X165191590Y-123807338D01*
X165209466Y-123787486D01*
X165264518Y-123747488D01*
X165312565Y-123708057D01*
X165336118Y-123695467D01*
X165362522Y-123676284D01*
X165419307Y-123651001D01*
X165468918Y-123624484D01*
X165500137Y-123615013D01*
X165535353Y-123599335D01*
X165590393Y-123587635D01*
X165638572Y-123573021D01*
X165676915Y-123569244D01*
X165720406Y-123560000D01*
X165770774Y-123560000D01*
X165815000Y-123555644D01*
X165859226Y-123560000D01*
G37*
G36*
X176579225Y-123560000D02*
G01*
X176629594Y-123560000D01*
X176673085Y-123569244D01*
X176711427Y-123573021D01*
X176759603Y-123587634D01*
X176814647Y-123599335D01*
X176849865Y-123615014D01*
X176881081Y-123624484D01*
X176930683Y-123650997D01*
X176987479Y-123676284D01*
X177013887Y-123695470D01*
X177037434Y-123708057D01*
X177085470Y-123747479D01*
X177140534Y-123787486D01*
X177158411Y-123807341D01*
X177174475Y-123820524D01*
X177217639Y-123873119D01*
X177267126Y-123928080D01*
X177277522Y-123946087D01*
X177286942Y-123957565D01*
X177321796Y-124022772D01*
X177361719Y-124091921D01*
X177366310Y-124106052D01*
X177370515Y-124113918D01*
X177393685Y-124190302D01*
X177420182Y-124271849D01*
X177421115Y-124280727D01*
X177421978Y-124283572D01*
X177430382Y-124368902D01*
X177439957Y-124460000D01*
X177430381Y-124551105D01*
X177421978Y-124636427D01*
X177421115Y-124639270D01*
X177420182Y-124648151D01*
X177393680Y-124729711D01*
X177370515Y-124806081D01*
X177366311Y-124813945D01*
X177361719Y-124828079D01*
X177321789Y-124897239D01*
X177286942Y-124962434D01*
X177277524Y-124973909D01*
X177267126Y-124991920D01*
X177217630Y-125046890D01*
X177174475Y-125099475D01*
X177158415Y-125112654D01*
X177140534Y-125132514D01*
X177085459Y-125172528D01*
X177037434Y-125211942D01*
X177013892Y-125224525D01*
X176987479Y-125243716D01*
X176930672Y-125269007D01*
X176881081Y-125295515D01*
X176849872Y-125304981D01*
X176814647Y-125320665D01*
X176759592Y-125332367D01*
X176711427Y-125346978D01*
X176673094Y-125350753D01*
X176629594Y-125360000D01*
X176579216Y-125360000D01*
X176535000Y-125364355D01*
X176490784Y-125360000D01*
X176440406Y-125360000D01*
X176396906Y-125350753D01*
X176358572Y-125346978D01*
X176310404Y-125332366D01*
X176255353Y-125320665D01*
X176220130Y-125304982D01*
X176188918Y-125295515D01*
X176139321Y-125269005D01*
X176082521Y-125243716D01*
X176056110Y-125224527D01*
X176032565Y-125211942D01*
X175984531Y-125172521D01*
X175929466Y-125132514D01*
X175911587Y-125112658D01*
X175895524Y-125099475D01*
X175852358Y-125046877D01*
X175802874Y-124991920D01*
X175792478Y-124973913D01*
X175783057Y-124962434D01*
X175748197Y-124897216D01*
X175708281Y-124828079D01*
X175703690Y-124813950D01*
X175699484Y-124806081D01*
X175676304Y-124729665D01*
X175649818Y-124648151D01*
X175648885Y-124639276D01*
X175648021Y-124636427D01*
X175639603Y-124550960D01*
X175630043Y-124460000D01*
X175639600Y-124369061D01*
X175648021Y-124283572D01*
X175648885Y-124280722D01*
X175649818Y-124271849D01*
X175676299Y-124190348D01*
X175699484Y-124113918D01*
X175703691Y-124106047D01*
X175708281Y-124091921D01*
X175748190Y-124022796D01*
X175783057Y-123957565D01*
X175792479Y-123946083D01*
X175802874Y-123928080D01*
X175852349Y-123873132D01*
X175895524Y-123820524D01*
X175911590Y-123807338D01*
X175929466Y-123787486D01*
X175984518Y-123747488D01*
X176032565Y-123708057D01*
X176056118Y-123695467D01*
X176082522Y-123676284D01*
X176139307Y-123651001D01*
X176188918Y-123624484D01*
X176220137Y-123615013D01*
X176255353Y-123599335D01*
X176310393Y-123587635D01*
X176358572Y-123573021D01*
X176396915Y-123569244D01*
X176440406Y-123560000D01*
X176490773Y-123560000D01*
X176534999Y-123555644D01*
X176579225Y-123560000D01*
G37*
G36*
X181579226Y-123560000D02*
G01*
X181629594Y-123560000D01*
X181673085Y-123569244D01*
X181711427Y-123573021D01*
X181759603Y-123587634D01*
X181814647Y-123599335D01*
X181849865Y-123615014D01*
X181881081Y-123624484D01*
X181930683Y-123650997D01*
X181987479Y-123676284D01*
X182013887Y-123695470D01*
X182037434Y-123708057D01*
X182085470Y-123747479D01*
X182140534Y-123787486D01*
X182158411Y-123807341D01*
X182174475Y-123820524D01*
X182217639Y-123873119D01*
X182267126Y-123928080D01*
X182277522Y-123946087D01*
X182286942Y-123957565D01*
X182321796Y-124022772D01*
X182361719Y-124091921D01*
X182366310Y-124106052D01*
X182370515Y-124113918D01*
X182393685Y-124190302D01*
X182420182Y-124271849D01*
X182421115Y-124280727D01*
X182421978Y-124283572D01*
X182430383Y-124368909D01*
X182439957Y-124460000D01*
X182430380Y-124551112D01*
X182421978Y-124636427D01*
X182421115Y-124639270D01*
X182420182Y-124648151D01*
X182393680Y-124729711D01*
X182370515Y-124806081D01*
X182366311Y-124813945D01*
X182361719Y-124828079D01*
X182321789Y-124897239D01*
X182286942Y-124962434D01*
X182277524Y-124973909D01*
X182267126Y-124991920D01*
X182217630Y-125046890D01*
X182174475Y-125099475D01*
X182158415Y-125112654D01*
X182140534Y-125132514D01*
X182085459Y-125172528D01*
X182037434Y-125211942D01*
X182013892Y-125224525D01*
X181987479Y-125243716D01*
X181930672Y-125269007D01*
X181881081Y-125295515D01*
X181849872Y-125304981D01*
X181814647Y-125320665D01*
X181759592Y-125332367D01*
X181711427Y-125346978D01*
X181673094Y-125350753D01*
X181629594Y-125360000D01*
X181579215Y-125360000D01*
X181534999Y-125364355D01*
X181490783Y-125360000D01*
X181440406Y-125360000D01*
X181396906Y-125350753D01*
X181358572Y-125346978D01*
X181310404Y-125332366D01*
X181255353Y-125320665D01*
X181220130Y-125304982D01*
X181188918Y-125295515D01*
X181139321Y-125269005D01*
X181082521Y-125243716D01*
X181056110Y-125224527D01*
X181032565Y-125211942D01*
X180984531Y-125172521D01*
X180929466Y-125132514D01*
X180911587Y-125112658D01*
X180895524Y-125099475D01*
X180852358Y-125046877D01*
X180802874Y-124991920D01*
X180792478Y-124973913D01*
X180783057Y-124962434D01*
X180748197Y-124897216D01*
X180708281Y-124828079D01*
X180703690Y-124813950D01*
X180699484Y-124806081D01*
X180676304Y-124729665D01*
X180649818Y-124648151D01*
X180648885Y-124639276D01*
X180648021Y-124636427D01*
X180639603Y-124550960D01*
X180630043Y-124460000D01*
X180639600Y-124369061D01*
X180648021Y-124283572D01*
X180648885Y-124280722D01*
X180649818Y-124271849D01*
X180676299Y-124190348D01*
X180699484Y-124113918D01*
X180703691Y-124106047D01*
X180708281Y-124091921D01*
X180748190Y-124022796D01*
X180783057Y-123957565D01*
X180792479Y-123946083D01*
X180802874Y-123928080D01*
X180852349Y-123873132D01*
X180895524Y-123820524D01*
X180911590Y-123807338D01*
X180929466Y-123787486D01*
X180984518Y-123747488D01*
X181032565Y-123708057D01*
X181056118Y-123695467D01*
X181082522Y-123676284D01*
X181139307Y-123651001D01*
X181188918Y-123624484D01*
X181220137Y-123615013D01*
X181255353Y-123599335D01*
X181310393Y-123587635D01*
X181358572Y-123573021D01*
X181396915Y-123569244D01*
X181440406Y-123560000D01*
X181490774Y-123560000D01*
X181535000Y-123555644D01*
X181579226Y-123560000D01*
G37*
G36*
X186579226Y-123560000D02*
G01*
X186629594Y-123560000D01*
X186673085Y-123569244D01*
X186711427Y-123573021D01*
X186759603Y-123587634D01*
X186814647Y-123599335D01*
X186849865Y-123615014D01*
X186881081Y-123624484D01*
X186930683Y-123650997D01*
X186987479Y-123676284D01*
X187013887Y-123695470D01*
X187037434Y-123708057D01*
X187085470Y-123747479D01*
X187140534Y-123787486D01*
X187158411Y-123807341D01*
X187174475Y-123820524D01*
X187217639Y-123873119D01*
X187267126Y-123928080D01*
X187277522Y-123946087D01*
X187286942Y-123957565D01*
X187321796Y-124022772D01*
X187361719Y-124091921D01*
X187366310Y-124106052D01*
X187370515Y-124113918D01*
X187393685Y-124190302D01*
X187420182Y-124271849D01*
X187421115Y-124280727D01*
X187421978Y-124283572D01*
X187430383Y-124368909D01*
X187439957Y-124460000D01*
X187430380Y-124551112D01*
X187421978Y-124636427D01*
X187421115Y-124639270D01*
X187420182Y-124648151D01*
X187393680Y-124729711D01*
X187370515Y-124806081D01*
X187366311Y-124813945D01*
X187361719Y-124828079D01*
X187321789Y-124897239D01*
X187286942Y-124962434D01*
X187277524Y-124973909D01*
X187267126Y-124991920D01*
X187217630Y-125046890D01*
X187174475Y-125099475D01*
X187158415Y-125112654D01*
X187140534Y-125132514D01*
X187085459Y-125172528D01*
X187037434Y-125211942D01*
X187013892Y-125224525D01*
X186987479Y-125243716D01*
X186930672Y-125269007D01*
X186881081Y-125295515D01*
X186849872Y-125304981D01*
X186814647Y-125320665D01*
X186759592Y-125332367D01*
X186711427Y-125346978D01*
X186673094Y-125350753D01*
X186629594Y-125360000D01*
X186579215Y-125360000D01*
X186534999Y-125364355D01*
X186490783Y-125360000D01*
X186440406Y-125360000D01*
X186396906Y-125350753D01*
X186358572Y-125346978D01*
X186310404Y-125332366D01*
X186255353Y-125320665D01*
X186220130Y-125304982D01*
X186188918Y-125295515D01*
X186139321Y-125269005D01*
X186082521Y-125243716D01*
X186056110Y-125224527D01*
X186032565Y-125211942D01*
X185984531Y-125172521D01*
X185929466Y-125132514D01*
X185911587Y-125112658D01*
X185895524Y-125099475D01*
X185852358Y-125046877D01*
X185802874Y-124991920D01*
X185792478Y-124973913D01*
X185783057Y-124962434D01*
X185748197Y-124897216D01*
X185708281Y-124828079D01*
X185703690Y-124813950D01*
X185699484Y-124806081D01*
X185676304Y-124729665D01*
X185649818Y-124648151D01*
X185648885Y-124639276D01*
X185648021Y-124636427D01*
X185639603Y-124550960D01*
X185630043Y-124460000D01*
X185639600Y-124369061D01*
X185648021Y-124283572D01*
X185648885Y-124280722D01*
X185649818Y-124271849D01*
X185676299Y-124190348D01*
X185699484Y-124113918D01*
X185703691Y-124106047D01*
X185708281Y-124091921D01*
X185748190Y-124022796D01*
X185783057Y-123957565D01*
X185792479Y-123946083D01*
X185802874Y-123928080D01*
X185852349Y-123873132D01*
X185895524Y-123820524D01*
X185911590Y-123807338D01*
X185929466Y-123787486D01*
X185984518Y-123747488D01*
X186032565Y-123708057D01*
X186056118Y-123695467D01*
X186082522Y-123676284D01*
X186139307Y-123651001D01*
X186188918Y-123624484D01*
X186220137Y-123615013D01*
X186255353Y-123599335D01*
X186310393Y-123587635D01*
X186358572Y-123573021D01*
X186396915Y-123569244D01*
X186440406Y-123560000D01*
X186490774Y-123560000D01*
X186535000Y-123555644D01*
X186579226Y-123560000D01*
G37*
G36*
X191579225Y-123560000D02*
G01*
X191629594Y-123560000D01*
X191673085Y-123569244D01*
X191711427Y-123573021D01*
X191759603Y-123587634D01*
X191814647Y-123599335D01*
X191849865Y-123615014D01*
X191881081Y-123624484D01*
X191930683Y-123650997D01*
X191987479Y-123676284D01*
X192013887Y-123695470D01*
X192037434Y-123708057D01*
X192085470Y-123747479D01*
X192140534Y-123787486D01*
X192158411Y-123807341D01*
X192174475Y-123820524D01*
X192217639Y-123873119D01*
X192267126Y-123928080D01*
X192277522Y-123946087D01*
X192286942Y-123957565D01*
X192321796Y-124022772D01*
X192361719Y-124091921D01*
X192366310Y-124106052D01*
X192370515Y-124113918D01*
X192393685Y-124190302D01*
X192420182Y-124271849D01*
X192421115Y-124280727D01*
X192421978Y-124283572D01*
X192430383Y-124368909D01*
X192439957Y-124460000D01*
X192430380Y-124551112D01*
X192421978Y-124636427D01*
X192421115Y-124639270D01*
X192420182Y-124648151D01*
X192393680Y-124729711D01*
X192370515Y-124806081D01*
X192366311Y-124813945D01*
X192361719Y-124828079D01*
X192321789Y-124897239D01*
X192286942Y-124962434D01*
X192277524Y-124973909D01*
X192267126Y-124991920D01*
X192217630Y-125046890D01*
X192174475Y-125099475D01*
X192158415Y-125112654D01*
X192140534Y-125132514D01*
X192085459Y-125172528D01*
X192037434Y-125211942D01*
X192013892Y-125224525D01*
X191987479Y-125243716D01*
X191930672Y-125269007D01*
X191881081Y-125295515D01*
X191849872Y-125304981D01*
X191814647Y-125320665D01*
X191759592Y-125332367D01*
X191711427Y-125346978D01*
X191673094Y-125350753D01*
X191629594Y-125360000D01*
X191579216Y-125360000D01*
X191535000Y-125364355D01*
X191490784Y-125360000D01*
X191440406Y-125360000D01*
X191396906Y-125350753D01*
X191358572Y-125346978D01*
X191310404Y-125332366D01*
X191255353Y-125320665D01*
X191220130Y-125304982D01*
X191188918Y-125295515D01*
X191139321Y-125269005D01*
X191082521Y-125243716D01*
X191056110Y-125224527D01*
X191032565Y-125211942D01*
X190984531Y-125172521D01*
X190929466Y-125132514D01*
X190911587Y-125112658D01*
X190895524Y-125099475D01*
X190852358Y-125046877D01*
X190802874Y-124991920D01*
X190792478Y-124973913D01*
X190783057Y-124962434D01*
X190748197Y-124897216D01*
X190708281Y-124828079D01*
X190703690Y-124813950D01*
X190699484Y-124806081D01*
X190676304Y-124729665D01*
X190649818Y-124648151D01*
X190648885Y-124639276D01*
X190648021Y-124636427D01*
X190639603Y-124550960D01*
X190630043Y-124460000D01*
X190639600Y-124369061D01*
X190648021Y-124283572D01*
X190648885Y-124280722D01*
X190649818Y-124271849D01*
X190676299Y-124190348D01*
X190699484Y-124113918D01*
X190703691Y-124106047D01*
X190708281Y-124091921D01*
X190748190Y-124022796D01*
X190783057Y-123957565D01*
X190792479Y-123946083D01*
X190802874Y-123928080D01*
X190852349Y-123873132D01*
X190895524Y-123820524D01*
X190911590Y-123807338D01*
X190929466Y-123787486D01*
X190984518Y-123747488D01*
X191032565Y-123708057D01*
X191056118Y-123695467D01*
X191082522Y-123676284D01*
X191139307Y-123651001D01*
X191188918Y-123624484D01*
X191220137Y-123615013D01*
X191255353Y-123599335D01*
X191310393Y-123587635D01*
X191358572Y-123573021D01*
X191396915Y-123569244D01*
X191440406Y-123560000D01*
X191490773Y-123560000D01*
X191534999Y-123555644D01*
X191579225Y-123560000D01*
G37*
G36*
X196579226Y-123560000D02*
G01*
X196629594Y-123560000D01*
X196673085Y-123569244D01*
X196711427Y-123573021D01*
X196759603Y-123587634D01*
X196814647Y-123599335D01*
X196849865Y-123615014D01*
X196881081Y-123624484D01*
X196930683Y-123650997D01*
X196987479Y-123676284D01*
X197013887Y-123695470D01*
X197037434Y-123708057D01*
X197085470Y-123747479D01*
X197140534Y-123787486D01*
X197158411Y-123807341D01*
X197174475Y-123820524D01*
X197217639Y-123873119D01*
X197267126Y-123928080D01*
X197277522Y-123946087D01*
X197286942Y-123957565D01*
X197321796Y-124022772D01*
X197361719Y-124091921D01*
X197366310Y-124106052D01*
X197370515Y-124113918D01*
X197393685Y-124190302D01*
X197420182Y-124271849D01*
X197421115Y-124280727D01*
X197421978Y-124283572D01*
X197430383Y-124368909D01*
X197439957Y-124460000D01*
X197430380Y-124551112D01*
X197421978Y-124636427D01*
X197421115Y-124639270D01*
X197420182Y-124648151D01*
X197393680Y-124729711D01*
X197370515Y-124806081D01*
X197366311Y-124813945D01*
X197361719Y-124828079D01*
X197321789Y-124897239D01*
X197286942Y-124962434D01*
X197277524Y-124973909D01*
X197267126Y-124991920D01*
X197217630Y-125046890D01*
X197174475Y-125099475D01*
X197158415Y-125112654D01*
X197140534Y-125132514D01*
X197085459Y-125172528D01*
X197037434Y-125211942D01*
X197013892Y-125224525D01*
X196987479Y-125243716D01*
X196930672Y-125269007D01*
X196881081Y-125295515D01*
X196849872Y-125304981D01*
X196814647Y-125320665D01*
X196759592Y-125332367D01*
X196711427Y-125346978D01*
X196673094Y-125350753D01*
X196629594Y-125360000D01*
X196579216Y-125360000D01*
X196535000Y-125364355D01*
X196490784Y-125360000D01*
X196440406Y-125360000D01*
X196396906Y-125350753D01*
X196358572Y-125346978D01*
X196310404Y-125332366D01*
X196255353Y-125320665D01*
X196220130Y-125304982D01*
X196188918Y-125295515D01*
X196139321Y-125269005D01*
X196082521Y-125243716D01*
X196056110Y-125224527D01*
X196032565Y-125211942D01*
X195984531Y-125172521D01*
X195929466Y-125132514D01*
X195911587Y-125112658D01*
X195895524Y-125099475D01*
X195852358Y-125046877D01*
X195802874Y-124991920D01*
X195792478Y-124973913D01*
X195783057Y-124962434D01*
X195748197Y-124897216D01*
X195708281Y-124828079D01*
X195703690Y-124813950D01*
X195699484Y-124806081D01*
X195676304Y-124729665D01*
X195649818Y-124648151D01*
X195648885Y-124639276D01*
X195648021Y-124636427D01*
X195639603Y-124550960D01*
X195630043Y-124460000D01*
X195639600Y-124369061D01*
X195648021Y-124283572D01*
X195648885Y-124280722D01*
X195649818Y-124271849D01*
X195676299Y-124190348D01*
X195699484Y-124113918D01*
X195703691Y-124106047D01*
X195708281Y-124091921D01*
X195748190Y-124022796D01*
X195783057Y-123957565D01*
X195792479Y-123946083D01*
X195802874Y-123928080D01*
X195852349Y-123873132D01*
X195895524Y-123820524D01*
X195911590Y-123807338D01*
X195929466Y-123787486D01*
X195984518Y-123747488D01*
X196032565Y-123708057D01*
X196056118Y-123695467D01*
X196082522Y-123676284D01*
X196139307Y-123651001D01*
X196188918Y-123624484D01*
X196220137Y-123615013D01*
X196255353Y-123599335D01*
X196310393Y-123587635D01*
X196358572Y-123573021D01*
X196396915Y-123569244D01*
X196440406Y-123560000D01*
X196490774Y-123560000D01*
X196535000Y-123555644D01*
X196579226Y-123560000D01*
G37*
G36*
X201579225Y-123560000D02*
G01*
X201629594Y-123560000D01*
X201673085Y-123569244D01*
X201711427Y-123573021D01*
X201759603Y-123587634D01*
X201814647Y-123599335D01*
X201849865Y-123615014D01*
X201881081Y-123624484D01*
X201930683Y-123650997D01*
X201987479Y-123676284D01*
X202013887Y-123695470D01*
X202037434Y-123708057D01*
X202085470Y-123747479D01*
X202140534Y-123787486D01*
X202158411Y-123807341D01*
X202174475Y-123820524D01*
X202217639Y-123873119D01*
X202267126Y-123928080D01*
X202277522Y-123946087D01*
X202286942Y-123957565D01*
X202321796Y-124022772D01*
X202361719Y-124091921D01*
X202366310Y-124106052D01*
X202370515Y-124113918D01*
X202393685Y-124190302D01*
X202420182Y-124271849D01*
X202421115Y-124280727D01*
X202421978Y-124283572D01*
X202430383Y-124368909D01*
X202439957Y-124460000D01*
X202430380Y-124551112D01*
X202421978Y-124636427D01*
X202421115Y-124639270D01*
X202420182Y-124648151D01*
X202393680Y-124729711D01*
X202370515Y-124806081D01*
X202366311Y-124813945D01*
X202361719Y-124828079D01*
X202321789Y-124897239D01*
X202286942Y-124962434D01*
X202277524Y-124973909D01*
X202267126Y-124991920D01*
X202217630Y-125046890D01*
X202174475Y-125099475D01*
X202158415Y-125112654D01*
X202140534Y-125132514D01*
X202085459Y-125172528D01*
X202037434Y-125211942D01*
X202013892Y-125224525D01*
X201987479Y-125243716D01*
X201930672Y-125269007D01*
X201881081Y-125295515D01*
X201849872Y-125304981D01*
X201814647Y-125320665D01*
X201759592Y-125332367D01*
X201711427Y-125346978D01*
X201673094Y-125350753D01*
X201629594Y-125360000D01*
X201579215Y-125360000D01*
X201534999Y-125364355D01*
X201490783Y-125360000D01*
X201440406Y-125360000D01*
X201396906Y-125350753D01*
X201358572Y-125346978D01*
X201310404Y-125332366D01*
X201255353Y-125320665D01*
X201220130Y-125304982D01*
X201188918Y-125295515D01*
X201139321Y-125269005D01*
X201082521Y-125243716D01*
X201056110Y-125224527D01*
X201032565Y-125211942D01*
X200984531Y-125172521D01*
X200929466Y-125132514D01*
X200911587Y-125112658D01*
X200895524Y-125099475D01*
X200852358Y-125046877D01*
X200802874Y-124991920D01*
X200792478Y-124973913D01*
X200783057Y-124962434D01*
X200748197Y-124897216D01*
X200708281Y-124828079D01*
X200703690Y-124813950D01*
X200699484Y-124806081D01*
X200676304Y-124729665D01*
X200649818Y-124648151D01*
X200648885Y-124639276D01*
X200648021Y-124636427D01*
X200639603Y-124550960D01*
X200630043Y-124460000D01*
X200639600Y-124369061D01*
X200648021Y-124283572D01*
X200648885Y-124280722D01*
X200649818Y-124271849D01*
X200676299Y-124190348D01*
X200699484Y-124113918D01*
X200703691Y-124106047D01*
X200708281Y-124091921D01*
X200748190Y-124022796D01*
X200783057Y-123957565D01*
X200792479Y-123946083D01*
X200802874Y-123928080D01*
X200852349Y-123873132D01*
X200895524Y-123820524D01*
X200911590Y-123807338D01*
X200929466Y-123787486D01*
X200984518Y-123747488D01*
X201032565Y-123708057D01*
X201056118Y-123695467D01*
X201082522Y-123676284D01*
X201139307Y-123651001D01*
X201188918Y-123624484D01*
X201220137Y-123615013D01*
X201255353Y-123599335D01*
X201310393Y-123587635D01*
X201358572Y-123573021D01*
X201396915Y-123569244D01*
X201440406Y-123560000D01*
X201490773Y-123560000D01*
X201534999Y-123555644D01*
X201579225Y-123560000D01*
G37*
G36*
X206579225Y-123560000D02*
G01*
X206629594Y-123560000D01*
X206673085Y-123569244D01*
X206711427Y-123573021D01*
X206759603Y-123587634D01*
X206814647Y-123599335D01*
X206849865Y-123615014D01*
X206881081Y-123624484D01*
X206930683Y-123650997D01*
X206987479Y-123676284D01*
X207013887Y-123695470D01*
X207037434Y-123708057D01*
X207085470Y-123747479D01*
X207140534Y-123787486D01*
X207158411Y-123807341D01*
X207174475Y-123820524D01*
X207217639Y-123873119D01*
X207267126Y-123928080D01*
X207277522Y-123946087D01*
X207286942Y-123957565D01*
X207321796Y-124022772D01*
X207361719Y-124091921D01*
X207366310Y-124106052D01*
X207370515Y-124113918D01*
X207393685Y-124190302D01*
X207420182Y-124271849D01*
X207421115Y-124280727D01*
X207421978Y-124283572D01*
X207430383Y-124368909D01*
X207439957Y-124460000D01*
X207430380Y-124551112D01*
X207421978Y-124636427D01*
X207421115Y-124639270D01*
X207420182Y-124648151D01*
X207393680Y-124729711D01*
X207370515Y-124806081D01*
X207366311Y-124813945D01*
X207361719Y-124828079D01*
X207321789Y-124897239D01*
X207286942Y-124962434D01*
X207277524Y-124973909D01*
X207267126Y-124991920D01*
X207217630Y-125046890D01*
X207174475Y-125099475D01*
X207158415Y-125112654D01*
X207140534Y-125132514D01*
X207085459Y-125172528D01*
X207037434Y-125211942D01*
X207013892Y-125224525D01*
X206987479Y-125243716D01*
X206930672Y-125269007D01*
X206881081Y-125295515D01*
X206849872Y-125304981D01*
X206814647Y-125320665D01*
X206759592Y-125332367D01*
X206711427Y-125346978D01*
X206673094Y-125350753D01*
X206629594Y-125360000D01*
X206579216Y-125360000D01*
X206535000Y-125364355D01*
X206490784Y-125360000D01*
X206440406Y-125360000D01*
X206396906Y-125350753D01*
X206358572Y-125346978D01*
X206310404Y-125332366D01*
X206255353Y-125320665D01*
X206220130Y-125304982D01*
X206188918Y-125295515D01*
X206139321Y-125269005D01*
X206082521Y-125243716D01*
X206056110Y-125224527D01*
X206032565Y-125211942D01*
X205984531Y-125172521D01*
X205929466Y-125132514D01*
X205911587Y-125112658D01*
X205895524Y-125099475D01*
X205852358Y-125046877D01*
X205802874Y-124991920D01*
X205792478Y-124973913D01*
X205783057Y-124962434D01*
X205748197Y-124897216D01*
X205708281Y-124828079D01*
X205703690Y-124813950D01*
X205699484Y-124806081D01*
X205676304Y-124729665D01*
X205649818Y-124648151D01*
X205648885Y-124639276D01*
X205648021Y-124636427D01*
X205639603Y-124550960D01*
X205630043Y-124460000D01*
X205639600Y-124369061D01*
X205648021Y-124283572D01*
X205648885Y-124280722D01*
X205649818Y-124271849D01*
X205676299Y-124190348D01*
X205699484Y-124113918D01*
X205703691Y-124106047D01*
X205708281Y-124091921D01*
X205748190Y-124022796D01*
X205783057Y-123957565D01*
X205792479Y-123946083D01*
X205802874Y-123928080D01*
X205852349Y-123873132D01*
X205895524Y-123820524D01*
X205911590Y-123807338D01*
X205929466Y-123787486D01*
X205984518Y-123747488D01*
X206032565Y-123708057D01*
X206056118Y-123695467D01*
X206082522Y-123676284D01*
X206139307Y-123651001D01*
X206188918Y-123624484D01*
X206220137Y-123615013D01*
X206255353Y-123599335D01*
X206310393Y-123587635D01*
X206358572Y-123573021D01*
X206396915Y-123569244D01*
X206440406Y-123560000D01*
X206490773Y-123560000D01*
X206534999Y-123555644D01*
X206579225Y-123560000D01*
G37*
G36*
X211579226Y-123560000D02*
G01*
X211629594Y-123560000D01*
X211673085Y-123569244D01*
X211711427Y-123573021D01*
X211759603Y-123587634D01*
X211814647Y-123599335D01*
X211849865Y-123615014D01*
X211881081Y-123624484D01*
X211930683Y-123650997D01*
X211987479Y-123676284D01*
X212013887Y-123695470D01*
X212037434Y-123708057D01*
X212085470Y-123747479D01*
X212140534Y-123787486D01*
X212158411Y-123807341D01*
X212174475Y-123820524D01*
X212217639Y-123873119D01*
X212267126Y-123928080D01*
X212277522Y-123946087D01*
X212286942Y-123957565D01*
X212321796Y-124022772D01*
X212361719Y-124091921D01*
X212366310Y-124106052D01*
X212370515Y-124113918D01*
X212393685Y-124190302D01*
X212420182Y-124271849D01*
X212421115Y-124280727D01*
X212421978Y-124283572D01*
X212430383Y-124368909D01*
X212439957Y-124460000D01*
X212430380Y-124551112D01*
X212421978Y-124636427D01*
X212421115Y-124639270D01*
X212420182Y-124648151D01*
X212393680Y-124729711D01*
X212370515Y-124806081D01*
X212366311Y-124813945D01*
X212361719Y-124828079D01*
X212321789Y-124897239D01*
X212286942Y-124962434D01*
X212277524Y-124973909D01*
X212267126Y-124991920D01*
X212217630Y-125046890D01*
X212174475Y-125099475D01*
X212158415Y-125112654D01*
X212140534Y-125132514D01*
X212085459Y-125172528D01*
X212037434Y-125211942D01*
X212013892Y-125224525D01*
X211987479Y-125243716D01*
X211930672Y-125269007D01*
X211881081Y-125295515D01*
X211849872Y-125304981D01*
X211814647Y-125320665D01*
X211759592Y-125332367D01*
X211711427Y-125346978D01*
X211673094Y-125350753D01*
X211629594Y-125360000D01*
X211579215Y-125360000D01*
X211534999Y-125364355D01*
X211490783Y-125360000D01*
X211440406Y-125360000D01*
X211396906Y-125350753D01*
X211358572Y-125346978D01*
X211310404Y-125332366D01*
X211255353Y-125320665D01*
X211220130Y-125304982D01*
X211188918Y-125295515D01*
X211139321Y-125269005D01*
X211082521Y-125243716D01*
X211056110Y-125224527D01*
X211032565Y-125211942D01*
X210984531Y-125172521D01*
X210929466Y-125132514D01*
X210911587Y-125112658D01*
X210895524Y-125099475D01*
X210852358Y-125046877D01*
X210802874Y-124991920D01*
X210792478Y-124973913D01*
X210783057Y-124962434D01*
X210748197Y-124897216D01*
X210708281Y-124828079D01*
X210703690Y-124813950D01*
X210699484Y-124806081D01*
X210676304Y-124729665D01*
X210649818Y-124648151D01*
X210648885Y-124639276D01*
X210648021Y-124636427D01*
X210639603Y-124550960D01*
X210630043Y-124460000D01*
X210639600Y-124369061D01*
X210648021Y-124283572D01*
X210648885Y-124280722D01*
X210649818Y-124271849D01*
X210676299Y-124190348D01*
X210699484Y-124113918D01*
X210703691Y-124106047D01*
X210708281Y-124091921D01*
X210748190Y-124022796D01*
X210783057Y-123957565D01*
X210792479Y-123946083D01*
X210802874Y-123928080D01*
X210852349Y-123873132D01*
X210895524Y-123820524D01*
X210911590Y-123807338D01*
X210929466Y-123787486D01*
X210984518Y-123747488D01*
X211032565Y-123708057D01*
X211056118Y-123695467D01*
X211082522Y-123676284D01*
X211139307Y-123651001D01*
X211188918Y-123624484D01*
X211220137Y-123615013D01*
X211255353Y-123599335D01*
X211310393Y-123587635D01*
X211358572Y-123573021D01*
X211396915Y-123569244D01*
X211440406Y-123560000D01*
X211490774Y-123560000D01*
X211535000Y-123555644D01*
X211579226Y-123560000D01*
G37*
G36*
X216579225Y-123560000D02*
G01*
X216629594Y-123560000D01*
X216673085Y-123569244D01*
X216711427Y-123573021D01*
X216759603Y-123587634D01*
X216814647Y-123599335D01*
X216849865Y-123615014D01*
X216881081Y-123624484D01*
X216930683Y-123650997D01*
X216987479Y-123676284D01*
X217013887Y-123695470D01*
X217037434Y-123708057D01*
X217085470Y-123747479D01*
X217140534Y-123787486D01*
X217158411Y-123807341D01*
X217174475Y-123820524D01*
X217217639Y-123873119D01*
X217267126Y-123928080D01*
X217277522Y-123946087D01*
X217286942Y-123957565D01*
X217321796Y-124022772D01*
X217361719Y-124091921D01*
X217366310Y-124106052D01*
X217370515Y-124113918D01*
X217393685Y-124190302D01*
X217420182Y-124271849D01*
X217421115Y-124280727D01*
X217421978Y-124283572D01*
X217430383Y-124368909D01*
X217439957Y-124460000D01*
X217430380Y-124551112D01*
X217421978Y-124636427D01*
X217421115Y-124639270D01*
X217420182Y-124648151D01*
X217393680Y-124729711D01*
X217370515Y-124806081D01*
X217366311Y-124813945D01*
X217361719Y-124828079D01*
X217321789Y-124897239D01*
X217286942Y-124962434D01*
X217277524Y-124973909D01*
X217267126Y-124991920D01*
X217217630Y-125046890D01*
X217174475Y-125099475D01*
X217158415Y-125112654D01*
X217140534Y-125132514D01*
X217085459Y-125172528D01*
X217037434Y-125211942D01*
X217013892Y-125224525D01*
X216987479Y-125243716D01*
X216930672Y-125269007D01*
X216881081Y-125295515D01*
X216849872Y-125304981D01*
X216814647Y-125320665D01*
X216759592Y-125332367D01*
X216711427Y-125346978D01*
X216673094Y-125350753D01*
X216629594Y-125360000D01*
X216579216Y-125360000D01*
X216535000Y-125364355D01*
X216490784Y-125360000D01*
X216440406Y-125360000D01*
X216396906Y-125350753D01*
X216358572Y-125346978D01*
X216310404Y-125332366D01*
X216255353Y-125320665D01*
X216220130Y-125304982D01*
X216188918Y-125295515D01*
X216139321Y-125269005D01*
X216082521Y-125243716D01*
X216056110Y-125224527D01*
X216032565Y-125211942D01*
X215984531Y-125172521D01*
X215929466Y-125132514D01*
X215911587Y-125112658D01*
X215895524Y-125099475D01*
X215852358Y-125046877D01*
X215802874Y-124991920D01*
X215792478Y-124973913D01*
X215783057Y-124962434D01*
X215748197Y-124897216D01*
X215708281Y-124828079D01*
X215703690Y-124813950D01*
X215699484Y-124806081D01*
X215676304Y-124729665D01*
X215649818Y-124648151D01*
X215648885Y-124639276D01*
X215648021Y-124636427D01*
X215639603Y-124550960D01*
X215630043Y-124460000D01*
X215639600Y-124369061D01*
X215648021Y-124283572D01*
X215648885Y-124280722D01*
X215649818Y-124271849D01*
X215676299Y-124190348D01*
X215699484Y-124113918D01*
X215703691Y-124106047D01*
X215708281Y-124091921D01*
X215748190Y-124022796D01*
X215783057Y-123957565D01*
X215792479Y-123946083D01*
X215802874Y-123928080D01*
X215852349Y-123873132D01*
X215895524Y-123820524D01*
X215911590Y-123807338D01*
X215929466Y-123787486D01*
X215984518Y-123747488D01*
X216032565Y-123708057D01*
X216056118Y-123695467D01*
X216082522Y-123676284D01*
X216139307Y-123651001D01*
X216188918Y-123624484D01*
X216220137Y-123615013D01*
X216255353Y-123599335D01*
X216310393Y-123587635D01*
X216358572Y-123573021D01*
X216396915Y-123569244D01*
X216440406Y-123560000D01*
X216490773Y-123560000D01*
X216534999Y-123555644D01*
X216579225Y-123560000D01*
G37*
G36*
X121070000Y-125360000D02*
G01*
X119270000Y-125360000D01*
X119270000Y-123560000D01*
X121070000Y-123560000D01*
X121070000Y-125360000D01*
G37*
G36*
X171715000Y-125360000D02*
G01*
X169915000Y-125360000D01*
X169915000Y-123560000D01*
X171715000Y-123560000D01*
X171715000Y-125360000D01*
G37*
G36*
X222435000Y-125360000D02*
G01*
X220635000Y-125360000D01*
X220635000Y-123560000D01*
X222435000Y-123560000D01*
X222435000Y-125360000D01*
G37*
G36*
X88875500Y-113472000D02*
G01*
X87400500Y-113472000D01*
X87400500Y-113022000D01*
X88875500Y-113022000D01*
X88875500Y-113472000D01*
G37*
G36*
X94751500Y-113472000D02*
G01*
X93276500Y-113472000D01*
X93276500Y-113022000D01*
X94751500Y-113022000D01*
X94751500Y-113472000D01*
G37*
G36*
X217319215Y-113427202D02*
G01*
X217613320Y-113485704D01*
X217897267Y-113582091D01*
X218166204Y-113714716D01*
X218415530Y-113881310D01*
X218555285Y-114003873D01*
X218640977Y-114079022D01*
X218678667Y-114122000D01*
X218838690Y-114304470D01*
X219005284Y-114553796D01*
X219137909Y-114822733D01*
X219234296Y-115106681D01*
X219269332Y-115282823D01*
X219292797Y-115400784D01*
X219312408Y-115700000D01*
X219292797Y-115999215D01*
X219292796Y-115999219D01*
X219234296Y-116293319D01*
X219137909Y-116577267D01*
X219005284Y-116846204D01*
X218838690Y-117095530D01*
X218640977Y-117320977D01*
X218415530Y-117518690D01*
X218166204Y-117685284D01*
X217897267Y-117817909D01*
X217613319Y-117914296D01*
X217378990Y-117960906D01*
X217319215Y-117972797D01*
X217044410Y-117990808D01*
X217020000Y-117992408D01*
X217019999Y-117992407D01*
X217019999Y-117992408D01*
X216720784Y-117972797D01*
X216602823Y-117949332D01*
X216426681Y-117914296D01*
X216142733Y-117817909D01*
X215873796Y-117685284D01*
X215624470Y-117518690D01*
X215474171Y-117386881D01*
X215399022Y-117320977D01*
X215311325Y-117220977D01*
X215201310Y-117095530D01*
X215034716Y-116846204D01*
X214902091Y-116577267D01*
X214805704Y-116293319D01*
X214747202Y-115999215D01*
X214727591Y-115700000D01*
X214747202Y-115400784D01*
X214805704Y-115106679D01*
X214902091Y-114822732D01*
X215034716Y-114553796D01*
X215201309Y-114304472D01*
X215201310Y-114304470D01*
X215289008Y-114204470D01*
X215399022Y-114079022D01*
X215559863Y-113937968D01*
X215624470Y-113881310D01*
X215873796Y-113714716D01*
X215960413Y-113672001D01*
X216142732Y-113582091D01*
X216426679Y-113485704D01*
X216720784Y-113427202D01*
X217019999Y-113407591D01*
X217319215Y-113427202D01*
G37*
G36*
X80159215Y-113327202D02*
G01*
X80453320Y-113385704D01*
X80575569Y-113427202D01*
X80737267Y-113482091D01*
X81006204Y-113614716D01*
X81255530Y-113781310D01*
X81369556Y-113881309D01*
X81480977Y-113979022D01*
X81546881Y-114054171D01*
X81678690Y-114204470D01*
X81845284Y-114453796D01*
X81977909Y-114722733D01*
X82074296Y-115006681D01*
X82094187Y-115106679D01*
X82132797Y-115300784D01*
X82152408Y-115600000D01*
X82132797Y-115899215D01*
X82132796Y-115899219D01*
X82074296Y-116193319D01*
X81977909Y-116477267D01*
X81845284Y-116746204D01*
X81678690Y-116995530D01*
X81480977Y-117220977D01*
X81255530Y-117418690D01*
X81006204Y-117585284D01*
X80737267Y-117717909D01*
X80453319Y-117814296D01*
X80218990Y-117860906D01*
X80159215Y-117872797D01*
X79860000Y-117892408D01*
X79560784Y-117872797D01*
X79442823Y-117849332D01*
X79266681Y-117814296D01*
X78982733Y-117717909D01*
X78713796Y-117585284D01*
X78464470Y-117418690D01*
X78314171Y-117286881D01*
X78239022Y-117220977D01*
X78163872Y-117135285D01*
X78041310Y-116995530D01*
X77874716Y-116746204D01*
X77742091Y-116477267D01*
X77645704Y-116193320D01*
X77587202Y-115899215D01*
X77567591Y-115600000D01*
X77587202Y-115300784D01*
X77645704Y-115006679D01*
X77742091Y-114722732D01*
X77874716Y-114453796D01*
X77874715Y-114453796D01*
X78041310Y-114204470D01*
X78113635Y-114122000D01*
X78239022Y-113979022D01*
X78399863Y-113837968D01*
X78464470Y-113781310D01*
X78713796Y-113614716D01*
X78779953Y-113582091D01*
X78982732Y-113482091D01*
X79266679Y-113385704D01*
X79560784Y-113327202D01*
X79860000Y-113307591D01*
X80159215Y-113327202D01*
G37*
G36*
X88875500Y-116722000D02*
G01*
X87400500Y-116722000D01*
X87400500Y-116272000D01*
X88875500Y-116272000D01*
X88875500Y-116722000D01*
G37*
G36*
X94751500Y-116722000D02*
G01*
X93276500Y-116722000D01*
X93276500Y-116272000D01*
X94751500Y-116272000D01*
X94751500Y-116722000D01*
G37*
G36*
X88875500Y-116072000D02*
G01*
X87400500Y-116072000D01*
X87400500Y-115622000D01*
X88875500Y-115622000D01*
X88875500Y-116072000D01*
G37*
G36*
X94751500Y-116072000D02*
G01*
X93276500Y-116072000D01*
X93276500Y-115622000D01*
X94751500Y-115622000D01*
X94751500Y-116072000D01*
G37*
G36*
X88875500Y-115422000D02*
G01*
X87400500Y-115422000D01*
X87400500Y-114972000D01*
X88875500Y-114972000D01*
X88875500Y-115422000D01*
G37*
G36*
X94751500Y-115422000D02*
G01*
X93276500Y-115422000D01*
X93276500Y-114972000D01*
X94751500Y-114972000D01*
X94751500Y-115422000D01*
G37*
G36*
X88875500Y-114772000D02*
G01*
X87400500Y-114772000D01*
X87400500Y-114322000D01*
X88875500Y-114322000D01*
X88875500Y-114772000D01*
G37*
G36*
X94751500Y-114772000D02*
G01*
X93276500Y-114772000D01*
X93276500Y-114322000D01*
X94751500Y-114322000D01*
X94751500Y-114772000D01*
G37*
G36*
X88875500Y-114122000D02*
G01*
X87400500Y-114122000D01*
X87400500Y-113672000D01*
X88875500Y-113672000D01*
X88875500Y-114122000D01*
G37*
G36*
X94751500Y-114122000D02*
G01*
X93276500Y-114122000D01*
X93276500Y-113672000D01*
X94751500Y-113672000D01*
X94751500Y-114122000D01*
G37*
G36*
X88875500Y-112822000D02*
G01*
X87400500Y-112822000D01*
X87400500Y-112372000D01*
X88875500Y-112372000D01*
X88875500Y-112822000D01*
G37*
G36*
X94751500Y-112822000D02*
G01*
X93276500Y-112822000D01*
X93276500Y-112372000D01*
X94751500Y-112372000D01*
X94751500Y-112822000D01*
G37*
G36*
X88875500Y-112172000D02*
G01*
X87400500Y-112172000D01*
X87400500Y-111722000D01*
X88875500Y-111722000D01*
X88875500Y-112172000D01*
G37*
G36*
X94751500Y-112172000D02*
G01*
X93276500Y-112172000D01*
X93276500Y-111722000D01*
X94751500Y-111722000D01*
X94751500Y-112172000D01*
G37*
G36*
X88875500Y-111522000D02*
G01*
X87400500Y-111522000D01*
X87400500Y-111072000D01*
X88875500Y-111072000D01*
X88875500Y-111522000D01*
G37*
G36*
X94751500Y-111522000D02*
G01*
X93276500Y-111522000D01*
X93276500Y-111072000D01*
X94751500Y-111072000D01*
X94751500Y-111522000D01*
G37*
G36*
X88875500Y-110872000D02*
G01*
X87400500Y-110872000D01*
X87400500Y-110422000D01*
X88875500Y-110422000D01*
X88875500Y-110872000D01*
G37*
G36*
X94751500Y-110872000D02*
G01*
X93276500Y-110872000D01*
X93276500Y-110422000D01*
X94751500Y-110422000D01*
X94751500Y-110872000D01*
G37*
G36*
X88875500Y-110222000D02*
G01*
X87400500Y-110222000D01*
X87400500Y-109772000D01*
X88875500Y-109772000D01*
X88875500Y-110222000D01*
G37*
G36*
X94751500Y-110222000D02*
G01*
X93276500Y-110222000D01*
X93276500Y-109772000D01*
X94751500Y-109772000D01*
X94751500Y-110222000D01*
G37*
G36*
X78483808Y-106435000D02*
G01*
X78521980Y-106435000D01*
X78565039Y-106444152D01*
X78614665Y-106449744D01*
X78650751Y-106462371D01*
X78682361Y-106469090D01*
X78727915Y-106489372D01*
X78780571Y-106507797D01*
X78807978Y-106525017D01*
X78832148Y-106535779D01*
X78877217Y-106568523D01*
X78929400Y-106601312D01*
X78948139Y-106620051D01*
X78964796Y-106632153D01*
X79005974Y-106677886D01*
X79053688Y-106725600D01*
X79064663Y-106743066D01*
X79074510Y-106754003D01*
X79108197Y-106812351D01*
X79147203Y-106874429D01*
X79152073Y-106888347D01*
X79156488Y-106895994D01*
X79179097Y-106965577D01*
X79205256Y-107040335D01*
X79206247Y-107049137D01*
X79207157Y-107051936D01*
X79215399Y-107130363D01*
X79224936Y-107215000D01*
X79215397Y-107299656D01*
X79207157Y-107378063D01*
X79206248Y-107380860D01*
X79205256Y-107389665D01*
X79179092Y-107464435D01*
X79156488Y-107534005D01*
X79152074Y-107541650D01*
X79147203Y-107555571D01*
X79108190Y-107617660D01*
X79074510Y-107675996D01*
X79064665Y-107686929D01*
X79053688Y-107704400D01*
X79005965Y-107752122D01*
X78964796Y-107797846D01*
X78948142Y-107809945D01*
X78929400Y-107828688D01*
X78877206Y-107861482D01*
X78832148Y-107894220D01*
X78807983Y-107904978D01*
X78780571Y-107922203D01*
X78727905Y-107940631D01*
X78682361Y-107960909D01*
X78650757Y-107967626D01*
X78614665Y-107980256D01*
X78565036Y-107985847D01*
X78521980Y-107995000D01*
X78483808Y-107995000D01*
X78440000Y-107999936D01*
X78396192Y-107995000D01*
X78358020Y-107995000D01*
X78314962Y-107985847D01*
X78265335Y-107980256D01*
X78229243Y-107967627D01*
X78197638Y-107960909D01*
X78152090Y-107940629D01*
X78099429Y-107922203D01*
X78072018Y-107904980D01*
X78047851Y-107894220D01*
X78002785Y-107861478D01*
X77950600Y-107828688D01*
X77931859Y-107809947D01*
X77915203Y-107797846D01*
X77874024Y-107752112D01*
X77826312Y-107704400D01*
X77815337Y-107686933D01*
X77805489Y-107675996D01*
X77771797Y-107617640D01*
X77732797Y-107555571D01*
X77727927Y-107541654D01*
X77723511Y-107534005D01*
X77700893Y-107464395D01*
X77674744Y-107389665D01*
X77673752Y-107380865D01*
X77672842Y-107378063D01*
X77664587Y-107299524D01*
X77655064Y-107215000D01*
X77664585Y-107130495D01*
X77672842Y-107051936D01*
X77673752Y-107049133D01*
X77674744Y-107040335D01*
X77700888Y-106965617D01*
X77723511Y-106895994D01*
X77727928Y-106888342D01*
X77732797Y-106874429D01*
X77771790Y-106812370D01*
X77805489Y-106754003D01*
X77815339Y-106743063D01*
X77826312Y-106725600D01*
X77874015Y-106677896D01*
X77915203Y-106632153D01*
X77931863Y-106620048D01*
X77950600Y-106601312D01*
X78002780Y-106568525D01*
X78047852Y-106535779D01*
X78072022Y-106525017D01*
X78099429Y-106507797D01*
X78152081Y-106489373D01*
X78197638Y-106469090D01*
X78229249Y-106462370D01*
X78265335Y-106449744D01*
X78314960Y-106444152D01*
X78358020Y-106435000D01*
X78396192Y-106435000D01*
X78440000Y-106430064D01*
X78483808Y-106435000D01*
G37*
G36*
X81323808Y-107805000D02*
G01*
X81361980Y-107805000D01*
X81405039Y-107814152D01*
X81454665Y-107819744D01*
X81490751Y-107832371D01*
X81522361Y-107839090D01*
X81567915Y-107859372D01*
X81620571Y-107877797D01*
X81647978Y-107895017D01*
X81672148Y-107905779D01*
X81717217Y-107938523D01*
X81769400Y-107971312D01*
X81788139Y-107990051D01*
X81804796Y-108002153D01*
X81845974Y-108047886D01*
X81893688Y-108095600D01*
X81904663Y-108113066D01*
X81914510Y-108124003D01*
X81948197Y-108182351D01*
X81987203Y-108244429D01*
X81992073Y-108258347D01*
X81996488Y-108265994D01*
X82019097Y-108335577D01*
X82045256Y-108410335D01*
X82046247Y-108419137D01*
X82047157Y-108421936D01*
X82055399Y-108500363D01*
X82064936Y-108585000D01*
X82055397Y-108669656D01*
X82047157Y-108748063D01*
X82046248Y-108750860D01*
X82045256Y-108759665D01*
X82019092Y-108834435D01*
X81996488Y-108904005D01*
X81992074Y-108911650D01*
X81987203Y-108925571D01*
X81948190Y-108987660D01*
X81914510Y-109045996D01*
X81904665Y-109056929D01*
X81893688Y-109074400D01*
X81845965Y-109122122D01*
X81804796Y-109167846D01*
X81788142Y-109179945D01*
X81769400Y-109198688D01*
X81717206Y-109231482D01*
X81672148Y-109264220D01*
X81647983Y-109274978D01*
X81620571Y-109292203D01*
X81567905Y-109310631D01*
X81522361Y-109330909D01*
X81490757Y-109337626D01*
X81454665Y-109350256D01*
X81405036Y-109355847D01*
X81361980Y-109365000D01*
X81323808Y-109365000D01*
X81280000Y-109369936D01*
X81236192Y-109365000D01*
X81198020Y-109365000D01*
X81154962Y-109355847D01*
X81105335Y-109350256D01*
X81069243Y-109337627D01*
X81037638Y-109330909D01*
X80992090Y-109310629D01*
X80939429Y-109292203D01*
X80912018Y-109274980D01*
X80887851Y-109264220D01*
X80842785Y-109231478D01*
X80790600Y-109198688D01*
X80771859Y-109179947D01*
X80755203Y-109167846D01*
X80714024Y-109122112D01*
X80666312Y-109074400D01*
X80655337Y-109056933D01*
X80645489Y-109045996D01*
X80611797Y-108987640D01*
X80572797Y-108925571D01*
X80567927Y-108911654D01*
X80563511Y-108904005D01*
X80540893Y-108834395D01*
X80514744Y-108759665D01*
X80513752Y-108750865D01*
X80512842Y-108748063D01*
X80504587Y-108669524D01*
X80495064Y-108585000D01*
X80504585Y-108500495D01*
X80512842Y-108421936D01*
X80513752Y-108419133D01*
X80514744Y-108410335D01*
X80540888Y-108335617D01*
X80563511Y-108265994D01*
X80567928Y-108258342D01*
X80572797Y-108244429D01*
X80611790Y-108182370D01*
X80645489Y-108124003D01*
X80655339Y-108113063D01*
X80666312Y-108095600D01*
X80714015Y-108047896D01*
X80755203Y-108002153D01*
X80771863Y-107990048D01*
X80790600Y-107971312D01*
X80842780Y-107938525D01*
X80887852Y-107905779D01*
X80912022Y-107895017D01*
X80939429Y-107877797D01*
X80992081Y-107859373D01*
X81037638Y-107839090D01*
X81069249Y-107832370D01*
X81105335Y-107819744D01*
X81154960Y-107814152D01*
X81198020Y-107805000D01*
X81236192Y-107805000D01*
X81280000Y-107800064D01*
X81323808Y-107805000D01*
G37*
G36*
X88875500Y-109572000D02*
G01*
X87400500Y-109572000D01*
X87400500Y-109122000D01*
X88875500Y-109122000D01*
X88875500Y-109572000D01*
G37*
G36*
X94751500Y-109572000D02*
G01*
X93276500Y-109572000D01*
X93276500Y-109122000D01*
X94751500Y-109122000D01*
X94751500Y-109572000D01*
G37*
G36*
X215643808Y-107905000D02*
G01*
X215681980Y-107905000D01*
X215725039Y-107914152D01*
X215774665Y-107919744D01*
X215810751Y-107932371D01*
X215842361Y-107939090D01*
X215887915Y-107959372D01*
X215940571Y-107977797D01*
X215967978Y-107995017D01*
X215992148Y-108005779D01*
X216037217Y-108038523D01*
X216089400Y-108071312D01*
X216108139Y-108090051D01*
X216124796Y-108102153D01*
X216165974Y-108147886D01*
X216213688Y-108195600D01*
X216224663Y-108213066D01*
X216234510Y-108224003D01*
X216268197Y-108282351D01*
X216307203Y-108344429D01*
X216312073Y-108358347D01*
X216316488Y-108365994D01*
X216339097Y-108435577D01*
X216365256Y-108510335D01*
X216366247Y-108519137D01*
X216367157Y-108521936D01*
X216375399Y-108600357D01*
X216384936Y-108685000D01*
X216375398Y-108769650D01*
X216367157Y-108848063D01*
X216366248Y-108850860D01*
X216365256Y-108859665D01*
X216339092Y-108934435D01*
X216316488Y-109004005D01*
X216312074Y-109011650D01*
X216307203Y-109025571D01*
X216268190Y-109087660D01*
X216234510Y-109145996D01*
X216224665Y-109156929D01*
X216213688Y-109174400D01*
X216165965Y-109222122D01*
X216124796Y-109267846D01*
X216108142Y-109279945D01*
X216089400Y-109298688D01*
X216037206Y-109331482D01*
X215992148Y-109364220D01*
X215967983Y-109374978D01*
X215940571Y-109392203D01*
X215887905Y-109410631D01*
X215842361Y-109430909D01*
X215810757Y-109437626D01*
X215774665Y-109450256D01*
X215725036Y-109455847D01*
X215681980Y-109465000D01*
X215643808Y-109465000D01*
X215600000Y-109469936D01*
X215556192Y-109465000D01*
X215518020Y-109465000D01*
X215474962Y-109455847D01*
X215425335Y-109450256D01*
X215389243Y-109437627D01*
X215357638Y-109430909D01*
X215312090Y-109410629D01*
X215259429Y-109392203D01*
X215232018Y-109374980D01*
X215207851Y-109364220D01*
X215162785Y-109331478D01*
X215110600Y-109298688D01*
X215091859Y-109279947D01*
X215075203Y-109267846D01*
X215034024Y-109222112D01*
X214986312Y-109174400D01*
X214975337Y-109156933D01*
X214965489Y-109145996D01*
X214931797Y-109087640D01*
X214892797Y-109025571D01*
X214887927Y-109011654D01*
X214883511Y-109004005D01*
X214860893Y-108934395D01*
X214834744Y-108859665D01*
X214833752Y-108850865D01*
X214832842Y-108848063D01*
X214824586Y-108769518D01*
X214815064Y-108685000D01*
X214824586Y-108600489D01*
X214832842Y-108521936D01*
X214833752Y-108519133D01*
X214834744Y-108510335D01*
X214860888Y-108435617D01*
X214883511Y-108365994D01*
X214887928Y-108358342D01*
X214892797Y-108344429D01*
X214931790Y-108282370D01*
X214965489Y-108224003D01*
X214975339Y-108213063D01*
X214986312Y-108195600D01*
X215034015Y-108147896D01*
X215075203Y-108102153D01*
X215091863Y-108090048D01*
X215110600Y-108071312D01*
X215162780Y-108038525D01*
X215207852Y-108005779D01*
X215232022Y-107995017D01*
X215259429Y-107977797D01*
X215312081Y-107959373D01*
X215357638Y-107939090D01*
X215389249Y-107932370D01*
X215425335Y-107919744D01*
X215474960Y-107914152D01*
X215518020Y-107905000D01*
X215556192Y-107905000D01*
X215600000Y-107900064D01*
X215643808Y-107905000D01*
G37*
G36*
X78483808Y-103695000D02*
G01*
X78521980Y-103695000D01*
X78565039Y-103704152D01*
X78614665Y-103709744D01*
X78650751Y-103722371D01*
X78682361Y-103729090D01*
X78727915Y-103749372D01*
X78780571Y-103767797D01*
X78807978Y-103785017D01*
X78832148Y-103795779D01*
X78877217Y-103828523D01*
X78929400Y-103861312D01*
X78948139Y-103880051D01*
X78964796Y-103892153D01*
X79005974Y-103937886D01*
X79053688Y-103985600D01*
X79064663Y-104003066D01*
X79074510Y-104014003D01*
X79108197Y-104072351D01*
X79147203Y-104134429D01*
X79152073Y-104148347D01*
X79156488Y-104155994D01*
X79179097Y-104225577D01*
X79205256Y-104300335D01*
X79206247Y-104309137D01*
X79207157Y-104311936D01*
X79215399Y-104390363D01*
X79224936Y-104475000D01*
X79215397Y-104559656D01*
X79207157Y-104638063D01*
X79206248Y-104640860D01*
X79205256Y-104649665D01*
X79179092Y-104724435D01*
X79156488Y-104794005D01*
X79152074Y-104801650D01*
X79147203Y-104815571D01*
X79108190Y-104877660D01*
X79074510Y-104935996D01*
X79064665Y-104946929D01*
X79053688Y-104964400D01*
X79005965Y-105012122D01*
X78964796Y-105057846D01*
X78948142Y-105069945D01*
X78929400Y-105088688D01*
X78877206Y-105121482D01*
X78832148Y-105154220D01*
X78807983Y-105164978D01*
X78780571Y-105182203D01*
X78727905Y-105200631D01*
X78682361Y-105220909D01*
X78650757Y-105227626D01*
X78614665Y-105240256D01*
X78565036Y-105245847D01*
X78521980Y-105255000D01*
X78483808Y-105255000D01*
X78440000Y-105259936D01*
X78396192Y-105255000D01*
X78358020Y-105255000D01*
X78314962Y-105245847D01*
X78265335Y-105240256D01*
X78229243Y-105227627D01*
X78197638Y-105220909D01*
X78152090Y-105200629D01*
X78099429Y-105182203D01*
X78072018Y-105164980D01*
X78047851Y-105154220D01*
X78002785Y-105121478D01*
X77950600Y-105088688D01*
X77931859Y-105069947D01*
X77915203Y-105057846D01*
X77874024Y-105012112D01*
X77826312Y-104964400D01*
X77815337Y-104946933D01*
X77805489Y-104935996D01*
X77771797Y-104877640D01*
X77732797Y-104815571D01*
X77727927Y-104801654D01*
X77723511Y-104794005D01*
X77700893Y-104724395D01*
X77674744Y-104649665D01*
X77673752Y-104640865D01*
X77672842Y-104638063D01*
X77664587Y-104559524D01*
X77655064Y-104475000D01*
X77664585Y-104390495D01*
X77672842Y-104311936D01*
X77673752Y-104309133D01*
X77674744Y-104300335D01*
X77700888Y-104225617D01*
X77723511Y-104155994D01*
X77727928Y-104148342D01*
X77732797Y-104134429D01*
X77771790Y-104072370D01*
X77805489Y-104014003D01*
X77815339Y-104003063D01*
X77826312Y-103985600D01*
X77874015Y-103937896D01*
X77915203Y-103892153D01*
X77931863Y-103880048D01*
X77950600Y-103861312D01*
X78002780Y-103828525D01*
X78047852Y-103795779D01*
X78072022Y-103785017D01*
X78099429Y-103767797D01*
X78152081Y-103749373D01*
X78197638Y-103729090D01*
X78229249Y-103722370D01*
X78265335Y-103709744D01*
X78314960Y-103704152D01*
X78358020Y-103695000D01*
X78396192Y-103695000D01*
X78440000Y-103690064D01*
X78483808Y-103695000D01*
G37*
G36*
X204411500Y-105508000D02*
G01*
X202936500Y-105508000D01*
X202936500Y-105058000D01*
X204411500Y-105058000D01*
X204411500Y-105508000D01*
G37*
G36*
X210287500Y-105508000D02*
G01*
X208812500Y-105508000D01*
X208812500Y-105058000D01*
X210287500Y-105058000D01*
X210287500Y-105508000D01*
G37*
G36*
X215643808Y-105165000D02*
G01*
X215681980Y-105165000D01*
X215725039Y-105174152D01*
X215774665Y-105179744D01*
X215810751Y-105192371D01*
X215842361Y-105199090D01*
X215887915Y-105219372D01*
X215940571Y-105237797D01*
X215967978Y-105255017D01*
X215992148Y-105265779D01*
X216037217Y-105298523D01*
X216089400Y-105331312D01*
X216108139Y-105350051D01*
X216124796Y-105362153D01*
X216165974Y-105407886D01*
X216213688Y-105455600D01*
X216224663Y-105473066D01*
X216234510Y-105484003D01*
X216268197Y-105542351D01*
X216307203Y-105604429D01*
X216312073Y-105618347D01*
X216316488Y-105625994D01*
X216339097Y-105695577D01*
X216365256Y-105770335D01*
X216366247Y-105779137D01*
X216367157Y-105781936D01*
X216375399Y-105860357D01*
X216384936Y-105945000D01*
X216375398Y-106029650D01*
X216367157Y-106108063D01*
X216366248Y-106110860D01*
X216365256Y-106119665D01*
X216339092Y-106194435D01*
X216316488Y-106264005D01*
X216312074Y-106271650D01*
X216307203Y-106285571D01*
X216268190Y-106347660D01*
X216234510Y-106405996D01*
X216224665Y-106416929D01*
X216213688Y-106434400D01*
X216165965Y-106482122D01*
X216124796Y-106527846D01*
X216108142Y-106539945D01*
X216089400Y-106558688D01*
X216037206Y-106591482D01*
X215992148Y-106624220D01*
X215967983Y-106634978D01*
X215940571Y-106652203D01*
X215887905Y-106670631D01*
X215842361Y-106690909D01*
X215810757Y-106697626D01*
X215774665Y-106710256D01*
X215725036Y-106715847D01*
X215681980Y-106725000D01*
X215643808Y-106725000D01*
X215600000Y-106729936D01*
X215556192Y-106725000D01*
X215518020Y-106725000D01*
X215474962Y-106715847D01*
X215425335Y-106710256D01*
X215389243Y-106697627D01*
X215357638Y-106690909D01*
X215312090Y-106670629D01*
X215259429Y-106652203D01*
X215232018Y-106634980D01*
X215207851Y-106624220D01*
X215162785Y-106591478D01*
X215110600Y-106558688D01*
X215091859Y-106539947D01*
X215075203Y-106527846D01*
X215034024Y-106482112D01*
X214986312Y-106434400D01*
X214975337Y-106416933D01*
X214965489Y-106405996D01*
X214931797Y-106347640D01*
X214892797Y-106285571D01*
X214887927Y-106271654D01*
X214883511Y-106264005D01*
X214860893Y-106194395D01*
X214834744Y-106119665D01*
X214833752Y-106110865D01*
X214832842Y-106108063D01*
X214824586Y-106029518D01*
X214815064Y-105945000D01*
X214824586Y-105860489D01*
X214832842Y-105781936D01*
X214833752Y-105779133D01*
X214834744Y-105770335D01*
X214860888Y-105695617D01*
X214883511Y-105625994D01*
X214887928Y-105618342D01*
X214892797Y-105604429D01*
X214931790Y-105542370D01*
X214965489Y-105484003D01*
X214975339Y-105473063D01*
X214986312Y-105455600D01*
X215034015Y-105407896D01*
X215075203Y-105362153D01*
X215091863Y-105350048D01*
X215110600Y-105331312D01*
X215162780Y-105298525D01*
X215207852Y-105265779D01*
X215232022Y-105255017D01*
X215259429Y-105237797D01*
X215312081Y-105219373D01*
X215357638Y-105199090D01*
X215389249Y-105192370D01*
X215425335Y-105179744D01*
X215474960Y-105174152D01*
X215518020Y-105165000D01*
X215556192Y-105165000D01*
X215600000Y-105160064D01*
X215643808Y-105165000D01*
G37*
G36*
X218483808Y-106535000D02*
G01*
X218521980Y-106535000D01*
X218565039Y-106544152D01*
X218614665Y-106549744D01*
X218650751Y-106562371D01*
X218682361Y-106569090D01*
X218727915Y-106589372D01*
X218780571Y-106607797D01*
X218807978Y-106625017D01*
X218832148Y-106635779D01*
X218877217Y-106668523D01*
X218929400Y-106701312D01*
X218948139Y-106720051D01*
X218964796Y-106732153D01*
X219005974Y-106777886D01*
X219053688Y-106825600D01*
X219064663Y-106843066D01*
X219074510Y-106854003D01*
X219108197Y-106912351D01*
X219147203Y-106974429D01*
X219152073Y-106988347D01*
X219156488Y-106995994D01*
X219179097Y-107065577D01*
X219205256Y-107140335D01*
X219206247Y-107149137D01*
X219207157Y-107151936D01*
X219215399Y-107230363D01*
X219224936Y-107315000D01*
X219215397Y-107399656D01*
X219207157Y-107478063D01*
X219206248Y-107480860D01*
X219205256Y-107489665D01*
X219179092Y-107564435D01*
X219156488Y-107634005D01*
X219152074Y-107641650D01*
X219147203Y-107655571D01*
X219108190Y-107717660D01*
X219074510Y-107775996D01*
X219064665Y-107786929D01*
X219053688Y-107804400D01*
X219005965Y-107852122D01*
X218964796Y-107897846D01*
X218948142Y-107909945D01*
X218929400Y-107928688D01*
X218877206Y-107961482D01*
X218832148Y-107994220D01*
X218807983Y-108004978D01*
X218780571Y-108022203D01*
X218727905Y-108040631D01*
X218682361Y-108060909D01*
X218650757Y-108067626D01*
X218614665Y-108080256D01*
X218565036Y-108085847D01*
X218521980Y-108095000D01*
X218483808Y-108095000D01*
X218440000Y-108099936D01*
X218396192Y-108095000D01*
X218358020Y-108095000D01*
X218314962Y-108085847D01*
X218265335Y-108080256D01*
X218229243Y-108067627D01*
X218197638Y-108060909D01*
X218152090Y-108040629D01*
X218099429Y-108022203D01*
X218072018Y-108004980D01*
X218047851Y-107994220D01*
X218002785Y-107961478D01*
X217950600Y-107928688D01*
X217931859Y-107909947D01*
X217915203Y-107897846D01*
X217874024Y-107852112D01*
X217826312Y-107804400D01*
X217815337Y-107786933D01*
X217805489Y-107775996D01*
X217771797Y-107717640D01*
X217732797Y-107655571D01*
X217727927Y-107641654D01*
X217723511Y-107634005D01*
X217700893Y-107564395D01*
X217674744Y-107489665D01*
X217673752Y-107480865D01*
X217672842Y-107478063D01*
X217664587Y-107399524D01*
X217655064Y-107315000D01*
X217664585Y-107230495D01*
X217672842Y-107151936D01*
X217673752Y-107149133D01*
X217674744Y-107140335D01*
X217700888Y-107065617D01*
X217723511Y-106995994D01*
X217727928Y-106988342D01*
X217732797Y-106974429D01*
X217771790Y-106912370D01*
X217805489Y-106854003D01*
X217815339Y-106843063D01*
X217826312Y-106825600D01*
X217874015Y-106777896D01*
X217915203Y-106732153D01*
X217931863Y-106720048D01*
X217950600Y-106701312D01*
X218002780Y-106668525D01*
X218047852Y-106635779D01*
X218072022Y-106625017D01*
X218099429Y-106607797D01*
X218152081Y-106589373D01*
X218197638Y-106569090D01*
X218229249Y-106562370D01*
X218265335Y-106549744D01*
X218314960Y-106544152D01*
X218358020Y-106535000D01*
X218396192Y-106535000D01*
X218440000Y-106530064D01*
X218483808Y-106535000D01*
G37*
G36*
X81323808Y-105065000D02*
G01*
X81361980Y-105065000D01*
X81405039Y-105074152D01*
X81454665Y-105079744D01*
X81490751Y-105092371D01*
X81522361Y-105099090D01*
X81567915Y-105119372D01*
X81620571Y-105137797D01*
X81647978Y-105155017D01*
X81672148Y-105165779D01*
X81717217Y-105198523D01*
X81769400Y-105231312D01*
X81788139Y-105250051D01*
X81804796Y-105262153D01*
X81845974Y-105307886D01*
X81893688Y-105355600D01*
X81904663Y-105373066D01*
X81914510Y-105384003D01*
X81948197Y-105442351D01*
X81987203Y-105504429D01*
X81992073Y-105518347D01*
X81996488Y-105525994D01*
X82019097Y-105595577D01*
X82045256Y-105670335D01*
X82046247Y-105679137D01*
X82047157Y-105681936D01*
X82055399Y-105760357D01*
X82064936Y-105845000D01*
X82055398Y-105929650D01*
X82047157Y-106008063D01*
X82046248Y-106010860D01*
X82045256Y-106019665D01*
X82019092Y-106094435D01*
X81996488Y-106164005D01*
X81992074Y-106171650D01*
X81987203Y-106185571D01*
X81948190Y-106247660D01*
X81914510Y-106305996D01*
X81904665Y-106316929D01*
X81893688Y-106334400D01*
X81845965Y-106382122D01*
X81804796Y-106427846D01*
X81788142Y-106439945D01*
X81769400Y-106458688D01*
X81717206Y-106491482D01*
X81672148Y-106524220D01*
X81647983Y-106534978D01*
X81620571Y-106552203D01*
X81567905Y-106570631D01*
X81522361Y-106590909D01*
X81490757Y-106597626D01*
X81454665Y-106610256D01*
X81405036Y-106615847D01*
X81361980Y-106625000D01*
X81323808Y-106625000D01*
X81280000Y-106629936D01*
X81236192Y-106625000D01*
X81198020Y-106625000D01*
X81154962Y-106615847D01*
X81105335Y-106610256D01*
X81069243Y-106597627D01*
X81037638Y-106590909D01*
X80992090Y-106570629D01*
X80939429Y-106552203D01*
X80912018Y-106534980D01*
X80887851Y-106524220D01*
X80842785Y-106491478D01*
X80790600Y-106458688D01*
X80771859Y-106439947D01*
X80755203Y-106427846D01*
X80714024Y-106382112D01*
X80666312Y-106334400D01*
X80655337Y-106316933D01*
X80645489Y-106305996D01*
X80611797Y-106247640D01*
X80572797Y-106185571D01*
X80567927Y-106171654D01*
X80563511Y-106164005D01*
X80540893Y-106094395D01*
X80514744Y-106019665D01*
X80513752Y-106010865D01*
X80512842Y-106008063D01*
X80504586Y-105929518D01*
X80495064Y-105845000D01*
X80504586Y-105760489D01*
X80512842Y-105681936D01*
X80513752Y-105679133D01*
X80514744Y-105670335D01*
X80540888Y-105595617D01*
X80563511Y-105525994D01*
X80567928Y-105518342D01*
X80572797Y-105504429D01*
X80611790Y-105442370D01*
X80645489Y-105384003D01*
X80655339Y-105373063D01*
X80666312Y-105355600D01*
X80714015Y-105307896D01*
X80755203Y-105262153D01*
X80771863Y-105250048D01*
X80790600Y-105231312D01*
X80842780Y-105198525D01*
X80887852Y-105165779D01*
X80912022Y-105155017D01*
X80939429Y-105137797D01*
X80992081Y-105119373D01*
X81037638Y-105099090D01*
X81069249Y-105092370D01*
X81105335Y-105079744D01*
X81154960Y-105074152D01*
X81198020Y-105065000D01*
X81236192Y-105065000D01*
X81280000Y-105060064D01*
X81323808Y-105065000D01*
G37*
G36*
X204411500Y-106158000D02*
G01*
X202936500Y-106158000D01*
X202936500Y-105708000D01*
X204411500Y-105708000D01*
X204411500Y-106158000D01*
G37*
G36*
X210287500Y-106158000D02*
G01*
X208812500Y-106158000D01*
X208812500Y-105708000D01*
X210287500Y-105708000D01*
X210287500Y-106158000D01*
G37*
G36*
X78483808Y-100955000D02*
G01*
X78521980Y-100955000D01*
X78565039Y-100964152D01*
X78614665Y-100969744D01*
X78650751Y-100982371D01*
X78682361Y-100989090D01*
X78727915Y-101009372D01*
X78780571Y-101027797D01*
X78807978Y-101045017D01*
X78832148Y-101055779D01*
X78877217Y-101088523D01*
X78929400Y-101121312D01*
X78948139Y-101140051D01*
X78964796Y-101152153D01*
X79005974Y-101197886D01*
X79053688Y-101245600D01*
X79064663Y-101263066D01*
X79074510Y-101274003D01*
X79108197Y-101332351D01*
X79147203Y-101394429D01*
X79152073Y-101408347D01*
X79156488Y-101415994D01*
X79179097Y-101485577D01*
X79205256Y-101560335D01*
X79206247Y-101569137D01*
X79207157Y-101571936D01*
X79215399Y-101650357D01*
X79224936Y-101735000D01*
X79215398Y-101819650D01*
X79207157Y-101898063D01*
X79206248Y-101900860D01*
X79205256Y-101909665D01*
X79179092Y-101984435D01*
X79156488Y-102054005D01*
X79152074Y-102061650D01*
X79147203Y-102075571D01*
X79108190Y-102137660D01*
X79074510Y-102195996D01*
X79064665Y-102206929D01*
X79053688Y-102224400D01*
X79005965Y-102272122D01*
X78964796Y-102317846D01*
X78948142Y-102329945D01*
X78929400Y-102348688D01*
X78877206Y-102381482D01*
X78832148Y-102414220D01*
X78807983Y-102424978D01*
X78780571Y-102442203D01*
X78727905Y-102460631D01*
X78682361Y-102480909D01*
X78650757Y-102487626D01*
X78614665Y-102500256D01*
X78565036Y-102505847D01*
X78521980Y-102515000D01*
X78483808Y-102515000D01*
X78440000Y-102519936D01*
X78396192Y-102515000D01*
X78358020Y-102515000D01*
X78314962Y-102505847D01*
X78265335Y-102500256D01*
X78229243Y-102487627D01*
X78197638Y-102480909D01*
X78152090Y-102460629D01*
X78099429Y-102442203D01*
X78072018Y-102424980D01*
X78047851Y-102414220D01*
X78002785Y-102381478D01*
X77950600Y-102348688D01*
X77931859Y-102329947D01*
X77915203Y-102317846D01*
X77874024Y-102272112D01*
X77826312Y-102224400D01*
X77815337Y-102206933D01*
X77805489Y-102195996D01*
X77771797Y-102137640D01*
X77732797Y-102075571D01*
X77727927Y-102061654D01*
X77723511Y-102054005D01*
X77700893Y-101984395D01*
X77674744Y-101909665D01*
X77673752Y-101900865D01*
X77672842Y-101898063D01*
X77664586Y-101819518D01*
X77655064Y-101735000D01*
X77664586Y-101650489D01*
X77672842Y-101571936D01*
X77673752Y-101569133D01*
X77674744Y-101560335D01*
X77700888Y-101485617D01*
X77723511Y-101415994D01*
X77727928Y-101408342D01*
X77732797Y-101394429D01*
X77771790Y-101332370D01*
X77805489Y-101274003D01*
X77815339Y-101263063D01*
X77826312Y-101245600D01*
X77874015Y-101197896D01*
X77915203Y-101152153D01*
X77931863Y-101140048D01*
X77950600Y-101121312D01*
X78002780Y-101088525D01*
X78047852Y-101055779D01*
X78072022Y-101045017D01*
X78099429Y-101027797D01*
X78152081Y-101009373D01*
X78197638Y-100989090D01*
X78229249Y-100982370D01*
X78265335Y-100969744D01*
X78314960Y-100964152D01*
X78358020Y-100955000D01*
X78396192Y-100955000D01*
X78440000Y-100950064D01*
X78483808Y-100955000D01*
G37*
G36*
X81323808Y-102325000D02*
G01*
X81361980Y-102325000D01*
X81405039Y-102334152D01*
X81454665Y-102339744D01*
X81490751Y-102352371D01*
X81522361Y-102359090D01*
X81567915Y-102379372D01*
X81620571Y-102397797D01*
X81647978Y-102415017D01*
X81672148Y-102425779D01*
X81717217Y-102458523D01*
X81769400Y-102491312D01*
X81788139Y-102510051D01*
X81804796Y-102522153D01*
X81845974Y-102567886D01*
X81893688Y-102615600D01*
X81904663Y-102633066D01*
X81914510Y-102644003D01*
X81948197Y-102702351D01*
X81987203Y-102764429D01*
X81992073Y-102778347D01*
X81996488Y-102785994D01*
X82019097Y-102855577D01*
X82045256Y-102930335D01*
X82046247Y-102939137D01*
X82047157Y-102941936D01*
X82055399Y-103020357D01*
X82064936Y-103105000D01*
X82055398Y-103189650D01*
X82047157Y-103268063D01*
X82046248Y-103270860D01*
X82045256Y-103279665D01*
X82019092Y-103354435D01*
X81996488Y-103424005D01*
X81992074Y-103431650D01*
X81987203Y-103445571D01*
X81948190Y-103507660D01*
X81914510Y-103565996D01*
X81904665Y-103576929D01*
X81893688Y-103594400D01*
X81845965Y-103642122D01*
X81804796Y-103687846D01*
X81788142Y-103699945D01*
X81769400Y-103718688D01*
X81717206Y-103751482D01*
X81672148Y-103784220D01*
X81647983Y-103794978D01*
X81620571Y-103812203D01*
X81567905Y-103830631D01*
X81522361Y-103850909D01*
X81490757Y-103857626D01*
X81454665Y-103870256D01*
X81405036Y-103875847D01*
X81361980Y-103885000D01*
X81323808Y-103885000D01*
X81280000Y-103889936D01*
X81236192Y-103885000D01*
X81198020Y-103885000D01*
X81154962Y-103875847D01*
X81105335Y-103870256D01*
X81069243Y-103857627D01*
X81037638Y-103850909D01*
X80992090Y-103830629D01*
X80939429Y-103812203D01*
X80912018Y-103794980D01*
X80887851Y-103784220D01*
X80842785Y-103751478D01*
X80790600Y-103718688D01*
X80771859Y-103699947D01*
X80755203Y-103687846D01*
X80714024Y-103642112D01*
X80666312Y-103594400D01*
X80655337Y-103576933D01*
X80645489Y-103565996D01*
X80611797Y-103507640D01*
X80572797Y-103445571D01*
X80567927Y-103431654D01*
X80563511Y-103424005D01*
X80540893Y-103354395D01*
X80514744Y-103279665D01*
X80513752Y-103270865D01*
X80512842Y-103268063D01*
X80504586Y-103189518D01*
X80495064Y-103105000D01*
X80504586Y-103020489D01*
X80512842Y-102941936D01*
X80513752Y-102939133D01*
X80514744Y-102930335D01*
X80540888Y-102855617D01*
X80563511Y-102785994D01*
X80567928Y-102778342D01*
X80572797Y-102764429D01*
X80611790Y-102702370D01*
X80645489Y-102644003D01*
X80655339Y-102633063D01*
X80666312Y-102615600D01*
X80714015Y-102567896D01*
X80755203Y-102522153D01*
X80771863Y-102510048D01*
X80790600Y-102491312D01*
X80842780Y-102458525D01*
X80887852Y-102425779D01*
X80912022Y-102415017D01*
X80939429Y-102397797D01*
X80992081Y-102379373D01*
X81037638Y-102359090D01*
X81069249Y-102352370D01*
X81105335Y-102339744D01*
X81154960Y-102334152D01*
X81198020Y-102325000D01*
X81236192Y-102325000D01*
X81280000Y-102320064D01*
X81323808Y-102325000D01*
G37*
G36*
X215643808Y-102425000D02*
G01*
X215681980Y-102425000D01*
X215725039Y-102434152D01*
X215774665Y-102439744D01*
X215810751Y-102452371D01*
X215842361Y-102459090D01*
X215887915Y-102479372D01*
X215940571Y-102497797D01*
X215967978Y-102515017D01*
X215992148Y-102525779D01*
X216037217Y-102558523D01*
X216089400Y-102591312D01*
X216108139Y-102610051D01*
X216124796Y-102622153D01*
X216165974Y-102667886D01*
X216213688Y-102715600D01*
X216224663Y-102733066D01*
X216234510Y-102744003D01*
X216268197Y-102802351D01*
X216307203Y-102864429D01*
X216312073Y-102878347D01*
X216316488Y-102885994D01*
X216339097Y-102955577D01*
X216365256Y-103030335D01*
X216366247Y-103039137D01*
X216367157Y-103041936D01*
X216375399Y-103120363D01*
X216384936Y-103205000D01*
X216375397Y-103289656D01*
X216367157Y-103368063D01*
X216366248Y-103370860D01*
X216365256Y-103379665D01*
X216339092Y-103454435D01*
X216316488Y-103524005D01*
X216312074Y-103531650D01*
X216307203Y-103545571D01*
X216268190Y-103607660D01*
X216234510Y-103665996D01*
X216224665Y-103676929D01*
X216213688Y-103694400D01*
X216165965Y-103742122D01*
X216124796Y-103787846D01*
X216108142Y-103799945D01*
X216089400Y-103818688D01*
X216037206Y-103851482D01*
X215992148Y-103884220D01*
X215967983Y-103894978D01*
X215940571Y-103912203D01*
X215887905Y-103930631D01*
X215842361Y-103950909D01*
X215810757Y-103957626D01*
X215774665Y-103970256D01*
X215725036Y-103975847D01*
X215681980Y-103985000D01*
X215643808Y-103985000D01*
X215600000Y-103989936D01*
X215556192Y-103985000D01*
X215518020Y-103985000D01*
X215474962Y-103975847D01*
X215425335Y-103970256D01*
X215389243Y-103957627D01*
X215357638Y-103950909D01*
X215312090Y-103930629D01*
X215259429Y-103912203D01*
X215232018Y-103894980D01*
X215207851Y-103884220D01*
X215162785Y-103851478D01*
X215110600Y-103818688D01*
X215091859Y-103799947D01*
X215075203Y-103787846D01*
X215034024Y-103742112D01*
X214986312Y-103694400D01*
X214975337Y-103676933D01*
X214965489Y-103665996D01*
X214931797Y-103607640D01*
X214892797Y-103545571D01*
X214887927Y-103531654D01*
X214883511Y-103524005D01*
X214860893Y-103454395D01*
X214834744Y-103379665D01*
X214833752Y-103370865D01*
X214832842Y-103368063D01*
X214824587Y-103289524D01*
X214815064Y-103205000D01*
X214824585Y-103120495D01*
X214832842Y-103041936D01*
X214833752Y-103039133D01*
X214834744Y-103030335D01*
X214860888Y-102955617D01*
X214883511Y-102885994D01*
X214887928Y-102878342D01*
X214892797Y-102864429D01*
X214931790Y-102802370D01*
X214965489Y-102744003D01*
X214975339Y-102733063D01*
X214986312Y-102715600D01*
X215034015Y-102667896D01*
X215075203Y-102622153D01*
X215091863Y-102610048D01*
X215110600Y-102591312D01*
X215162780Y-102558525D01*
X215207852Y-102525779D01*
X215232022Y-102515017D01*
X215259429Y-102497797D01*
X215312081Y-102479373D01*
X215357638Y-102459090D01*
X215389249Y-102452370D01*
X215425335Y-102439744D01*
X215474960Y-102434152D01*
X215518020Y-102425000D01*
X215556192Y-102425000D01*
X215600000Y-102420064D01*
X215643808Y-102425000D01*
G37*
G36*
X218483808Y-103795000D02*
G01*
X218521980Y-103795000D01*
X218565039Y-103804152D01*
X218614665Y-103809744D01*
X218650751Y-103822371D01*
X218682361Y-103829090D01*
X218727915Y-103849372D01*
X218780571Y-103867797D01*
X218807978Y-103885017D01*
X218832148Y-103895779D01*
X218877217Y-103928523D01*
X218929400Y-103961312D01*
X218948139Y-103980051D01*
X218964796Y-103992153D01*
X219005974Y-104037886D01*
X219053688Y-104085600D01*
X219064663Y-104103066D01*
X219074510Y-104114003D01*
X219108197Y-104172351D01*
X219147203Y-104234429D01*
X219152073Y-104248347D01*
X219156488Y-104255994D01*
X219179097Y-104325577D01*
X219205256Y-104400335D01*
X219206247Y-104409137D01*
X219207157Y-104411936D01*
X219215399Y-104490357D01*
X219224936Y-104575000D01*
X219215398Y-104659650D01*
X219207157Y-104738063D01*
X219206248Y-104740860D01*
X219205256Y-104749665D01*
X219179092Y-104824435D01*
X219156488Y-104894005D01*
X219152074Y-104901650D01*
X219147203Y-104915571D01*
X219108190Y-104977660D01*
X219074510Y-105035996D01*
X219064665Y-105046929D01*
X219053688Y-105064400D01*
X219005965Y-105112122D01*
X218964796Y-105157846D01*
X218948142Y-105169945D01*
X218929400Y-105188688D01*
X218877206Y-105221482D01*
X218832148Y-105254220D01*
X218807983Y-105264978D01*
X218780571Y-105282203D01*
X218727905Y-105300631D01*
X218682361Y-105320909D01*
X218650757Y-105327626D01*
X218614665Y-105340256D01*
X218565036Y-105345847D01*
X218521980Y-105355000D01*
X218483808Y-105355000D01*
X218440000Y-105359936D01*
X218396192Y-105355000D01*
X218358020Y-105355000D01*
X218314962Y-105345847D01*
X218265335Y-105340256D01*
X218229243Y-105327627D01*
X218197638Y-105320909D01*
X218152090Y-105300629D01*
X218099429Y-105282203D01*
X218072018Y-105264980D01*
X218047851Y-105254220D01*
X218002785Y-105221478D01*
X217950600Y-105188688D01*
X217931859Y-105169947D01*
X217915203Y-105157846D01*
X217874024Y-105112112D01*
X217826312Y-105064400D01*
X217815337Y-105046933D01*
X217805489Y-105035996D01*
X217771797Y-104977640D01*
X217732797Y-104915571D01*
X217727927Y-104901654D01*
X217723511Y-104894005D01*
X217700893Y-104824395D01*
X217674744Y-104749665D01*
X217673752Y-104740865D01*
X217672842Y-104738063D01*
X217664586Y-104659518D01*
X217655064Y-104575000D01*
X217664586Y-104490489D01*
X217672842Y-104411936D01*
X217673752Y-104409133D01*
X217674744Y-104400335D01*
X217700888Y-104325617D01*
X217723511Y-104255994D01*
X217727928Y-104248342D01*
X217732797Y-104234429D01*
X217771790Y-104172370D01*
X217805489Y-104114003D01*
X217815339Y-104103063D01*
X217826312Y-104085600D01*
X217874015Y-104037896D01*
X217915203Y-103992153D01*
X217931863Y-103980048D01*
X217950600Y-103961312D01*
X218002780Y-103928525D01*
X218047852Y-103895779D01*
X218072022Y-103885017D01*
X218099429Y-103867797D01*
X218152081Y-103849373D01*
X218197638Y-103829090D01*
X218229249Y-103822370D01*
X218265335Y-103809744D01*
X218314960Y-103804152D01*
X218358020Y-103795000D01*
X218396192Y-103795000D01*
X218440000Y-103790064D01*
X218483808Y-103795000D01*
G37*
G36*
X204411500Y-104858000D02*
G01*
X202936500Y-104858000D01*
X202936500Y-104408000D01*
X204411500Y-104408000D01*
X204411500Y-104858000D01*
G37*
G36*
X210287500Y-104858000D02*
G01*
X208812500Y-104858000D01*
X208812500Y-104408000D01*
X210287500Y-104408000D01*
X210287500Y-104858000D01*
G37*
G36*
X204411500Y-104208000D02*
G01*
X202936500Y-104208000D01*
X202936500Y-103758000D01*
X204411500Y-103758000D01*
X204411500Y-104208000D01*
G37*
G36*
X210287500Y-104208000D02*
G01*
X208812500Y-104208000D01*
X208812500Y-103758000D01*
X210287500Y-103758000D01*
X210287500Y-104208000D01*
G37*
G36*
X204411500Y-103558000D02*
G01*
X202936500Y-103558000D01*
X202936500Y-103108000D01*
X204411500Y-103108000D01*
X204411500Y-103558000D01*
G37*
G36*
X210287500Y-103558000D02*
G01*
X208812500Y-103558000D01*
X208812500Y-103108000D01*
X210287500Y-103108000D01*
X210287500Y-103558000D01*
G37*
G36*
X204411500Y-102908000D02*
G01*
X202936500Y-102908000D01*
X202936500Y-102458000D01*
X204411500Y-102458000D01*
X204411500Y-102908000D01*
G37*
G36*
X210287500Y-102908000D02*
G01*
X208812500Y-102908000D01*
X208812500Y-102458000D01*
X210287500Y-102458000D01*
X210287500Y-102908000D01*
G37*
G36*
X78483808Y-98215000D02*
G01*
X78521980Y-98215000D01*
X78565039Y-98224152D01*
X78614665Y-98229744D01*
X78650751Y-98242371D01*
X78682361Y-98249090D01*
X78727915Y-98269372D01*
X78780571Y-98287797D01*
X78807978Y-98305017D01*
X78832148Y-98315779D01*
X78877217Y-98348523D01*
X78929400Y-98381312D01*
X78948139Y-98400051D01*
X78964796Y-98412153D01*
X79005974Y-98457886D01*
X79053688Y-98505600D01*
X79064663Y-98523066D01*
X79074510Y-98534003D01*
X79108197Y-98592351D01*
X79147203Y-98654429D01*
X79152073Y-98668347D01*
X79156488Y-98675994D01*
X79179097Y-98745577D01*
X79205256Y-98820335D01*
X79206247Y-98829137D01*
X79207157Y-98831936D01*
X79215399Y-98910357D01*
X79224936Y-98995000D01*
X79215398Y-99079650D01*
X79207157Y-99158063D01*
X79206248Y-99160860D01*
X79205256Y-99169665D01*
X79179092Y-99244435D01*
X79156488Y-99314005D01*
X79152074Y-99321650D01*
X79147203Y-99335571D01*
X79108190Y-99397660D01*
X79074510Y-99455996D01*
X79064665Y-99466929D01*
X79053688Y-99484400D01*
X79005965Y-99532122D01*
X78964796Y-99577846D01*
X78948142Y-99589945D01*
X78929400Y-99608688D01*
X78877206Y-99641482D01*
X78832148Y-99674220D01*
X78807983Y-99684978D01*
X78780571Y-99702203D01*
X78727905Y-99720631D01*
X78682361Y-99740909D01*
X78650757Y-99747626D01*
X78614665Y-99760256D01*
X78565036Y-99765847D01*
X78521980Y-99775000D01*
X78483808Y-99775000D01*
X78440000Y-99779936D01*
X78396192Y-99775000D01*
X78358020Y-99775000D01*
X78314962Y-99765847D01*
X78265335Y-99760256D01*
X78229243Y-99747627D01*
X78197638Y-99740909D01*
X78152090Y-99720629D01*
X78099429Y-99702203D01*
X78072018Y-99684980D01*
X78047851Y-99674220D01*
X78002785Y-99641478D01*
X77950600Y-99608688D01*
X77931859Y-99589947D01*
X77915203Y-99577846D01*
X77874024Y-99532112D01*
X77826312Y-99484400D01*
X77815337Y-99466933D01*
X77805489Y-99455996D01*
X77771797Y-99397640D01*
X77732797Y-99335571D01*
X77727927Y-99321654D01*
X77723511Y-99314005D01*
X77700893Y-99244395D01*
X77674744Y-99169665D01*
X77673752Y-99160865D01*
X77672842Y-99158063D01*
X77664586Y-99079518D01*
X77655064Y-98995000D01*
X77664586Y-98910489D01*
X77672842Y-98831936D01*
X77673752Y-98829133D01*
X77674744Y-98820335D01*
X77700888Y-98745617D01*
X77723511Y-98675994D01*
X77727928Y-98668342D01*
X77732797Y-98654429D01*
X77771790Y-98592370D01*
X77805489Y-98534003D01*
X77815339Y-98523063D01*
X77826312Y-98505600D01*
X77874015Y-98457896D01*
X77915203Y-98412153D01*
X77931863Y-98400048D01*
X77950600Y-98381312D01*
X78002780Y-98348525D01*
X78047852Y-98315779D01*
X78072022Y-98305017D01*
X78099429Y-98287797D01*
X78152081Y-98269373D01*
X78197638Y-98249090D01*
X78229249Y-98242370D01*
X78265335Y-98229744D01*
X78314960Y-98224152D01*
X78358020Y-98215000D01*
X78396192Y-98215000D01*
X78440000Y-98210064D01*
X78483808Y-98215000D01*
G37*
G36*
X81323808Y-99585000D02*
G01*
X81361980Y-99585000D01*
X81405039Y-99594152D01*
X81454665Y-99599744D01*
X81490751Y-99612371D01*
X81522361Y-99619090D01*
X81567915Y-99639372D01*
X81620571Y-99657797D01*
X81647978Y-99675017D01*
X81672148Y-99685779D01*
X81717217Y-99718523D01*
X81769400Y-99751312D01*
X81788139Y-99770051D01*
X81804796Y-99782153D01*
X81845974Y-99827886D01*
X81893688Y-99875600D01*
X81904663Y-99893066D01*
X81914510Y-99904003D01*
X81948197Y-99962351D01*
X81987203Y-100024429D01*
X81992073Y-100038347D01*
X81996488Y-100045994D01*
X82019097Y-100115577D01*
X82045256Y-100190335D01*
X82046247Y-100199137D01*
X82047157Y-100201936D01*
X82055399Y-100280363D01*
X82064936Y-100365000D01*
X82055397Y-100449656D01*
X82047157Y-100528063D01*
X82046248Y-100530860D01*
X82045256Y-100539665D01*
X82019092Y-100614435D01*
X81996488Y-100684005D01*
X81992074Y-100691650D01*
X81987203Y-100705571D01*
X81948190Y-100767660D01*
X81914510Y-100825996D01*
X81904665Y-100836929D01*
X81893688Y-100854400D01*
X81845965Y-100902122D01*
X81804796Y-100947846D01*
X81788142Y-100959945D01*
X81769400Y-100978688D01*
X81717206Y-101011482D01*
X81672148Y-101044220D01*
X81647983Y-101054978D01*
X81620571Y-101072203D01*
X81567905Y-101090631D01*
X81522361Y-101110909D01*
X81490757Y-101117626D01*
X81454665Y-101130256D01*
X81405036Y-101135847D01*
X81361980Y-101145000D01*
X81323808Y-101145000D01*
X81280000Y-101149936D01*
X81236192Y-101145000D01*
X81198020Y-101145000D01*
X81154962Y-101135847D01*
X81105335Y-101130256D01*
X81069243Y-101117627D01*
X81037638Y-101110909D01*
X80992090Y-101090629D01*
X80939429Y-101072203D01*
X80912018Y-101054980D01*
X80887851Y-101044220D01*
X80842785Y-101011478D01*
X80790600Y-100978688D01*
X80771859Y-100959947D01*
X80755203Y-100947846D01*
X80714024Y-100902112D01*
X80666312Y-100854400D01*
X80655337Y-100836933D01*
X80645489Y-100825996D01*
X80611797Y-100767640D01*
X80572797Y-100705571D01*
X80567927Y-100691654D01*
X80563511Y-100684005D01*
X80540893Y-100614395D01*
X80514744Y-100539665D01*
X80513752Y-100530865D01*
X80512842Y-100528063D01*
X80504587Y-100449524D01*
X80495064Y-100365000D01*
X80504585Y-100280495D01*
X80512842Y-100201936D01*
X80513752Y-100199133D01*
X80514744Y-100190335D01*
X80540888Y-100115617D01*
X80563511Y-100045994D01*
X80567928Y-100038342D01*
X80572797Y-100024429D01*
X80611790Y-99962370D01*
X80645489Y-99904003D01*
X80655339Y-99893063D01*
X80666312Y-99875600D01*
X80714015Y-99827896D01*
X80755203Y-99782153D01*
X80771863Y-99770048D01*
X80790600Y-99751312D01*
X80842780Y-99718525D01*
X80887852Y-99685779D01*
X80912022Y-99675017D01*
X80939429Y-99657797D01*
X80992081Y-99639373D01*
X81037638Y-99619090D01*
X81069249Y-99612370D01*
X81105335Y-99599744D01*
X81154960Y-99594152D01*
X81198020Y-99585000D01*
X81236192Y-99585000D01*
X81280000Y-99580064D01*
X81323808Y-99585000D01*
G37*
G36*
X215643808Y-99685000D02*
G01*
X215681980Y-99685000D01*
X215725039Y-99694152D01*
X215774665Y-99699744D01*
X215810751Y-99712371D01*
X215842361Y-99719090D01*
X215887915Y-99739372D01*
X215940571Y-99757797D01*
X215967978Y-99775017D01*
X215992148Y-99785779D01*
X216037217Y-99818523D01*
X216089400Y-99851312D01*
X216108139Y-99870051D01*
X216124796Y-99882153D01*
X216165974Y-99927886D01*
X216213688Y-99975600D01*
X216224663Y-99993066D01*
X216234510Y-100004003D01*
X216268197Y-100062351D01*
X216307203Y-100124429D01*
X216312073Y-100138347D01*
X216316488Y-100145994D01*
X216339097Y-100215577D01*
X216365256Y-100290335D01*
X216366247Y-100299137D01*
X216367157Y-100301936D01*
X216375399Y-100380363D01*
X216384936Y-100465000D01*
X216375397Y-100549656D01*
X216367157Y-100628063D01*
X216366248Y-100630860D01*
X216365256Y-100639665D01*
X216339092Y-100714435D01*
X216316488Y-100784005D01*
X216312074Y-100791650D01*
X216307203Y-100805571D01*
X216268190Y-100867660D01*
X216234510Y-100925996D01*
X216224665Y-100936929D01*
X216213688Y-100954400D01*
X216165965Y-101002122D01*
X216124796Y-101047846D01*
X216108142Y-101059945D01*
X216089400Y-101078688D01*
X216037206Y-101111482D01*
X215992148Y-101144220D01*
X215967983Y-101154978D01*
X215940571Y-101172203D01*
X215887905Y-101190631D01*
X215842361Y-101210909D01*
X215810757Y-101217626D01*
X215774665Y-101230256D01*
X215725036Y-101235847D01*
X215681980Y-101245000D01*
X215643808Y-101245000D01*
X215600000Y-101249936D01*
X215556192Y-101245000D01*
X215518020Y-101245000D01*
X215474962Y-101235847D01*
X215425335Y-101230256D01*
X215389243Y-101217627D01*
X215357638Y-101210909D01*
X215312090Y-101190629D01*
X215259429Y-101172203D01*
X215232018Y-101154980D01*
X215207851Y-101144220D01*
X215162785Y-101111478D01*
X215110600Y-101078688D01*
X215091859Y-101059947D01*
X215075203Y-101047846D01*
X215034024Y-101002112D01*
X214986312Y-100954400D01*
X214975337Y-100936933D01*
X214965489Y-100925996D01*
X214931797Y-100867640D01*
X214892797Y-100805571D01*
X214887927Y-100791654D01*
X214883511Y-100784005D01*
X214860893Y-100714395D01*
X214834744Y-100639665D01*
X214833752Y-100630865D01*
X214832842Y-100628063D01*
X214824587Y-100549524D01*
X214815064Y-100465000D01*
X214824585Y-100380495D01*
X214832842Y-100301936D01*
X214833752Y-100299133D01*
X214834744Y-100290335D01*
X214860888Y-100215617D01*
X214883511Y-100145994D01*
X214887928Y-100138342D01*
X214892797Y-100124429D01*
X214931790Y-100062370D01*
X214965489Y-100004003D01*
X214975339Y-99993063D01*
X214986312Y-99975600D01*
X215034015Y-99927896D01*
X215075203Y-99882153D01*
X215091863Y-99870048D01*
X215110600Y-99851312D01*
X215162780Y-99818525D01*
X215207852Y-99785779D01*
X215232022Y-99775017D01*
X215259429Y-99757797D01*
X215312081Y-99739373D01*
X215357638Y-99719090D01*
X215389249Y-99712370D01*
X215425335Y-99699744D01*
X215474960Y-99694152D01*
X215518020Y-99685000D01*
X215556192Y-99685000D01*
X215600000Y-99680064D01*
X215643808Y-99685000D01*
G37*
G36*
X218483808Y-101055000D02*
G01*
X218521980Y-101055000D01*
X218565039Y-101064152D01*
X218614665Y-101069744D01*
X218650751Y-101082371D01*
X218682361Y-101089090D01*
X218727915Y-101109372D01*
X218780571Y-101127797D01*
X218807978Y-101145017D01*
X218832148Y-101155779D01*
X218877217Y-101188523D01*
X218929400Y-101221312D01*
X218948139Y-101240051D01*
X218964796Y-101252153D01*
X219005974Y-101297886D01*
X219053688Y-101345600D01*
X219064663Y-101363066D01*
X219074510Y-101374003D01*
X219108197Y-101432351D01*
X219147203Y-101494429D01*
X219152073Y-101508347D01*
X219156488Y-101515994D01*
X219179097Y-101585577D01*
X219205256Y-101660335D01*
X219206247Y-101669137D01*
X219207157Y-101671936D01*
X219215399Y-101750357D01*
X219224936Y-101835000D01*
X219215398Y-101919650D01*
X219207157Y-101998063D01*
X219206248Y-102000860D01*
X219205256Y-102009665D01*
X219179092Y-102084435D01*
X219156488Y-102154005D01*
X219152074Y-102161650D01*
X219147203Y-102175571D01*
X219108190Y-102237660D01*
X219074510Y-102295996D01*
X219064665Y-102306929D01*
X219053688Y-102324400D01*
X219005965Y-102372122D01*
X218964796Y-102417846D01*
X218948142Y-102429945D01*
X218929400Y-102448688D01*
X218877206Y-102481482D01*
X218832148Y-102514220D01*
X218807983Y-102524978D01*
X218780571Y-102542203D01*
X218727905Y-102560631D01*
X218682361Y-102580909D01*
X218650757Y-102587626D01*
X218614665Y-102600256D01*
X218565036Y-102605847D01*
X218521980Y-102615000D01*
X218483808Y-102615000D01*
X218440000Y-102619936D01*
X218396192Y-102615000D01*
X218358020Y-102615000D01*
X218314962Y-102605847D01*
X218265335Y-102600256D01*
X218229243Y-102587627D01*
X218197638Y-102580909D01*
X218152090Y-102560629D01*
X218099429Y-102542203D01*
X218072018Y-102524980D01*
X218047851Y-102514220D01*
X218002785Y-102481478D01*
X217950600Y-102448688D01*
X217931859Y-102429947D01*
X217915203Y-102417846D01*
X217874024Y-102372112D01*
X217826312Y-102324400D01*
X217815337Y-102306933D01*
X217805489Y-102295996D01*
X217771797Y-102237640D01*
X217732797Y-102175571D01*
X217727927Y-102161654D01*
X217723511Y-102154005D01*
X217700893Y-102084395D01*
X217674744Y-102009665D01*
X217673752Y-102000865D01*
X217672842Y-101998063D01*
X217664586Y-101919518D01*
X217655064Y-101835000D01*
X217664586Y-101750489D01*
X217672842Y-101671936D01*
X217673752Y-101669133D01*
X217674744Y-101660335D01*
X217700888Y-101585617D01*
X217723511Y-101515994D01*
X217727928Y-101508342D01*
X217732797Y-101494429D01*
X217771790Y-101432370D01*
X217805489Y-101374003D01*
X217815339Y-101363063D01*
X217826312Y-101345600D01*
X217874015Y-101297896D01*
X217915203Y-101252153D01*
X217931863Y-101240048D01*
X217950600Y-101221312D01*
X218002780Y-101188525D01*
X218047852Y-101155779D01*
X218072022Y-101145017D01*
X218099429Y-101127797D01*
X218152081Y-101109373D01*
X218197638Y-101089090D01*
X218229249Y-101082370D01*
X218265335Y-101069744D01*
X218314960Y-101064152D01*
X218358020Y-101055000D01*
X218396192Y-101055000D01*
X218440000Y-101050064D01*
X218483808Y-101055000D01*
G37*
G36*
X204411500Y-102258000D02*
G01*
X202936500Y-102258000D01*
X202936500Y-101808000D01*
X204411500Y-101808000D01*
X204411500Y-102258000D01*
G37*
G36*
X210287500Y-102258000D02*
G01*
X208812500Y-102258000D01*
X208812500Y-101808000D01*
X210287500Y-101808000D01*
X210287500Y-102258000D01*
G37*
G36*
X204411500Y-101608000D02*
G01*
X202936500Y-101608000D01*
X202936500Y-101158000D01*
X204411500Y-101158000D01*
X204411500Y-101608000D01*
G37*
G36*
X210287500Y-101608000D02*
G01*
X208812500Y-101608000D01*
X208812500Y-101158000D01*
X210287500Y-101158000D01*
X210287500Y-101608000D01*
G37*
G36*
X204411500Y-100958000D02*
G01*
X202936500Y-100958000D01*
X202936500Y-100508000D01*
X204411500Y-100508000D01*
X204411500Y-100958000D01*
G37*
G36*
X210287500Y-100958000D02*
G01*
X208812500Y-100958000D01*
X208812500Y-100508000D01*
X210287500Y-100508000D01*
X210287500Y-100958000D01*
G37*
G36*
X204411500Y-100308000D02*
G01*
X202936500Y-100308000D01*
X202936500Y-99858000D01*
X204411500Y-99858000D01*
X204411500Y-100308000D01*
G37*
G36*
X210287500Y-100308000D02*
G01*
X208812500Y-100308000D01*
X208812500Y-99858000D01*
X210287500Y-99858000D01*
X210287500Y-100308000D01*
G37*
G36*
X81323808Y-96845000D02*
G01*
X81361980Y-96845000D01*
X81405039Y-96854152D01*
X81454665Y-96859744D01*
X81490751Y-96872371D01*
X81522361Y-96879090D01*
X81567915Y-96899372D01*
X81620571Y-96917797D01*
X81647978Y-96935017D01*
X81672148Y-96945779D01*
X81717217Y-96978523D01*
X81769400Y-97011312D01*
X81788139Y-97030051D01*
X81804796Y-97042153D01*
X81845974Y-97087886D01*
X81893688Y-97135600D01*
X81904663Y-97153066D01*
X81914510Y-97164003D01*
X81948197Y-97222351D01*
X81987203Y-97284429D01*
X81992073Y-97298347D01*
X81996488Y-97305994D01*
X82019097Y-97375577D01*
X82045256Y-97450335D01*
X82046247Y-97459137D01*
X82047157Y-97461936D01*
X82055399Y-97540363D01*
X82064936Y-97625000D01*
X82055397Y-97709656D01*
X82047157Y-97788063D01*
X82046248Y-97790860D01*
X82045256Y-97799665D01*
X82019092Y-97874435D01*
X81996488Y-97944005D01*
X81992074Y-97951650D01*
X81987203Y-97965571D01*
X81948190Y-98027660D01*
X81914510Y-98085996D01*
X81904665Y-98096929D01*
X81893688Y-98114400D01*
X81845965Y-98162122D01*
X81804796Y-98207846D01*
X81788142Y-98219945D01*
X81769400Y-98238688D01*
X81717206Y-98271482D01*
X81672148Y-98304220D01*
X81647983Y-98314978D01*
X81620571Y-98332203D01*
X81567905Y-98350631D01*
X81522361Y-98370909D01*
X81490757Y-98377626D01*
X81454665Y-98390256D01*
X81405036Y-98395847D01*
X81361980Y-98405000D01*
X81323808Y-98405000D01*
X81280000Y-98409936D01*
X81236192Y-98405000D01*
X81198020Y-98405000D01*
X81154962Y-98395847D01*
X81105335Y-98390256D01*
X81069243Y-98377627D01*
X81037638Y-98370909D01*
X80992090Y-98350629D01*
X80939429Y-98332203D01*
X80912018Y-98314980D01*
X80887851Y-98304220D01*
X80842785Y-98271478D01*
X80790600Y-98238688D01*
X80771859Y-98219947D01*
X80755203Y-98207846D01*
X80714024Y-98162112D01*
X80666312Y-98114400D01*
X80655337Y-98096933D01*
X80645489Y-98085996D01*
X80611797Y-98027640D01*
X80572797Y-97965571D01*
X80567927Y-97951654D01*
X80563511Y-97944005D01*
X80540893Y-97874395D01*
X80514744Y-97799665D01*
X80513752Y-97790865D01*
X80512842Y-97788063D01*
X80504587Y-97709524D01*
X80495064Y-97625000D01*
X80504585Y-97540495D01*
X80512842Y-97461936D01*
X80513752Y-97459133D01*
X80514744Y-97450335D01*
X80540888Y-97375617D01*
X80563511Y-97305994D01*
X80567928Y-97298342D01*
X80572797Y-97284429D01*
X80611790Y-97222370D01*
X80645489Y-97164003D01*
X80655339Y-97153063D01*
X80666312Y-97135600D01*
X80714015Y-97087896D01*
X80755203Y-97042153D01*
X80771863Y-97030048D01*
X80790600Y-97011312D01*
X80842780Y-96978525D01*
X80887852Y-96945779D01*
X80912022Y-96935017D01*
X80939429Y-96917797D01*
X80992081Y-96899373D01*
X81037638Y-96879090D01*
X81069249Y-96872370D01*
X81105335Y-96859744D01*
X81154960Y-96854152D01*
X81198020Y-96845000D01*
X81236192Y-96845000D01*
X81280000Y-96840064D01*
X81323808Y-96845000D01*
G37*
G36*
X215643808Y-96945000D02*
G01*
X215681980Y-96945000D01*
X215725039Y-96954152D01*
X215774665Y-96959744D01*
X215810751Y-96972371D01*
X215842361Y-96979090D01*
X215887915Y-96999372D01*
X215940571Y-97017797D01*
X215967978Y-97035017D01*
X215992148Y-97045779D01*
X216037217Y-97078523D01*
X216089400Y-97111312D01*
X216108139Y-97130051D01*
X216124796Y-97142153D01*
X216165974Y-97187886D01*
X216213688Y-97235600D01*
X216224663Y-97253066D01*
X216234510Y-97264003D01*
X216268197Y-97322351D01*
X216307203Y-97384429D01*
X216312073Y-97398347D01*
X216316488Y-97405994D01*
X216339097Y-97475577D01*
X216365256Y-97550335D01*
X216366247Y-97559137D01*
X216367157Y-97561936D01*
X216375399Y-97640357D01*
X216384936Y-97725000D01*
X216375398Y-97809650D01*
X216367157Y-97888063D01*
X216366248Y-97890860D01*
X216365256Y-97899665D01*
X216339092Y-97974435D01*
X216316488Y-98044005D01*
X216312074Y-98051650D01*
X216307203Y-98065571D01*
X216268190Y-98127660D01*
X216234510Y-98185996D01*
X216224665Y-98196929D01*
X216213688Y-98214400D01*
X216165965Y-98262122D01*
X216124796Y-98307846D01*
X216108142Y-98319945D01*
X216089400Y-98338688D01*
X216037206Y-98371482D01*
X215992148Y-98404220D01*
X215967983Y-98414978D01*
X215940571Y-98432203D01*
X215887905Y-98450631D01*
X215842361Y-98470909D01*
X215810757Y-98477626D01*
X215774665Y-98490256D01*
X215725036Y-98495847D01*
X215681980Y-98505000D01*
X215643808Y-98505000D01*
X215600000Y-98509936D01*
X215556192Y-98505000D01*
X215518020Y-98505000D01*
X215474962Y-98495847D01*
X215425335Y-98490256D01*
X215389243Y-98477627D01*
X215357638Y-98470909D01*
X215312090Y-98450629D01*
X215259429Y-98432203D01*
X215232018Y-98414980D01*
X215207851Y-98404220D01*
X215162785Y-98371478D01*
X215110600Y-98338688D01*
X215091859Y-98319947D01*
X215075203Y-98307846D01*
X215034024Y-98262112D01*
X214986312Y-98214400D01*
X214975337Y-98196933D01*
X214965489Y-98185996D01*
X214931797Y-98127640D01*
X214892797Y-98065571D01*
X214887927Y-98051654D01*
X214883511Y-98044005D01*
X214860893Y-97974395D01*
X214834744Y-97899665D01*
X214833752Y-97890865D01*
X214832842Y-97888063D01*
X214824586Y-97809518D01*
X214815064Y-97725000D01*
X214824586Y-97640489D01*
X214832842Y-97561936D01*
X214833752Y-97559133D01*
X214834744Y-97550335D01*
X214860888Y-97475617D01*
X214883511Y-97405994D01*
X214887928Y-97398342D01*
X214892797Y-97384429D01*
X214931790Y-97322370D01*
X214965489Y-97264003D01*
X214975339Y-97253063D01*
X214986312Y-97235600D01*
X215034015Y-97187896D01*
X215075203Y-97142153D01*
X215091863Y-97130048D01*
X215110600Y-97111312D01*
X215162780Y-97078525D01*
X215207852Y-97045779D01*
X215232022Y-97035017D01*
X215259429Y-97017797D01*
X215312081Y-96999373D01*
X215357638Y-96979090D01*
X215389249Y-96972370D01*
X215425335Y-96959744D01*
X215474960Y-96954152D01*
X215518020Y-96945000D01*
X215556192Y-96945000D01*
X215600000Y-96940064D01*
X215643808Y-96945000D01*
G37*
G36*
X218483808Y-98315000D02*
G01*
X218521980Y-98315000D01*
X218565039Y-98324152D01*
X218614665Y-98329744D01*
X218650751Y-98342371D01*
X218682361Y-98349090D01*
X218727915Y-98369372D01*
X218780571Y-98387797D01*
X218807978Y-98405017D01*
X218832148Y-98415779D01*
X218877217Y-98448523D01*
X218929400Y-98481312D01*
X218948139Y-98500051D01*
X218964796Y-98512153D01*
X219005974Y-98557886D01*
X219053688Y-98605600D01*
X219064663Y-98623066D01*
X219074510Y-98634003D01*
X219108197Y-98692351D01*
X219147203Y-98754429D01*
X219152073Y-98768347D01*
X219156488Y-98775994D01*
X219179097Y-98845577D01*
X219205256Y-98920335D01*
X219206247Y-98929137D01*
X219207157Y-98931936D01*
X219215399Y-99010363D01*
X219224936Y-99095000D01*
X219215397Y-99179656D01*
X219207157Y-99258063D01*
X219206248Y-99260860D01*
X219205256Y-99269665D01*
X219179092Y-99344435D01*
X219156488Y-99414005D01*
X219152074Y-99421650D01*
X219147203Y-99435571D01*
X219108190Y-99497660D01*
X219074510Y-99555996D01*
X219064665Y-99566929D01*
X219053688Y-99584400D01*
X219005965Y-99632122D01*
X218964796Y-99677846D01*
X218948142Y-99689945D01*
X218929400Y-99708688D01*
X218877206Y-99741482D01*
X218832148Y-99774220D01*
X218807983Y-99784978D01*
X218780571Y-99802203D01*
X218727905Y-99820631D01*
X218682361Y-99840909D01*
X218650757Y-99847626D01*
X218614665Y-99860256D01*
X218565036Y-99865847D01*
X218521980Y-99875000D01*
X218483808Y-99875000D01*
X218440000Y-99879936D01*
X218396192Y-99875000D01*
X218358020Y-99875000D01*
X218314962Y-99865847D01*
X218265335Y-99860256D01*
X218229243Y-99847627D01*
X218197638Y-99840909D01*
X218152090Y-99820629D01*
X218099429Y-99802203D01*
X218072018Y-99784980D01*
X218047851Y-99774220D01*
X218002785Y-99741478D01*
X217950600Y-99708688D01*
X217931859Y-99689947D01*
X217915203Y-99677846D01*
X217874024Y-99632112D01*
X217826312Y-99584400D01*
X217815337Y-99566933D01*
X217805489Y-99555996D01*
X217771797Y-99497640D01*
X217732797Y-99435571D01*
X217727927Y-99421654D01*
X217723511Y-99414005D01*
X217700893Y-99344395D01*
X217674744Y-99269665D01*
X217673752Y-99260865D01*
X217672842Y-99258063D01*
X217664587Y-99179524D01*
X217655064Y-99095000D01*
X217664585Y-99010495D01*
X217672842Y-98931936D01*
X217673752Y-98929133D01*
X217674744Y-98920335D01*
X217700888Y-98845617D01*
X217723511Y-98775994D01*
X217727928Y-98768342D01*
X217732797Y-98754429D01*
X217771790Y-98692370D01*
X217805489Y-98634003D01*
X217815339Y-98623063D01*
X217826312Y-98605600D01*
X217874015Y-98557896D01*
X217915203Y-98512153D01*
X217931863Y-98500048D01*
X217950600Y-98481312D01*
X218002780Y-98448525D01*
X218047852Y-98415779D01*
X218072022Y-98405017D01*
X218099429Y-98387797D01*
X218152081Y-98369373D01*
X218197638Y-98349090D01*
X218229249Y-98342370D01*
X218265335Y-98329744D01*
X218314960Y-98324152D01*
X218358020Y-98315000D01*
X218396192Y-98315000D01*
X218440000Y-98310064D01*
X218483808Y-98315000D01*
G37*
G36*
X204411500Y-99658000D02*
G01*
X202936500Y-99658000D01*
X202936500Y-99208000D01*
X204411500Y-99208000D01*
X204411500Y-99658000D01*
G37*
G36*
X210287500Y-99658000D02*
G01*
X208812500Y-99658000D01*
X208812500Y-99208000D01*
X210287500Y-99208000D01*
X210287500Y-99658000D01*
G37*
G36*
X204411500Y-99008000D02*
G01*
X202936500Y-99008000D01*
X202936500Y-98558000D01*
X204411500Y-98558000D01*
X204411500Y-99008000D01*
G37*
G36*
X210287500Y-99008000D02*
G01*
X208812500Y-99008000D01*
X208812500Y-98558000D01*
X210287500Y-98558000D01*
X210287500Y-99008000D01*
G37*
G36*
X80159215Y-88337202D02*
G01*
X80453320Y-88395704D01*
X80575569Y-88437202D01*
X80737267Y-88492091D01*
X81006204Y-88624716D01*
X81255530Y-88791310D01*
X81369556Y-88891309D01*
X81480977Y-88989022D01*
X81546881Y-89064172D01*
X81678690Y-89214470D01*
X81845284Y-89463796D01*
X81977909Y-89732733D01*
X82074296Y-90016681D01*
X82094187Y-90116679D01*
X82132797Y-90310784D01*
X82152408Y-90610000D01*
X82132797Y-90909215D01*
X82132796Y-90909219D01*
X82074296Y-91203319D01*
X81977909Y-91487267D01*
X81845284Y-91756204D01*
X81678690Y-92005530D01*
X81480977Y-92230977D01*
X81255530Y-92428690D01*
X81006204Y-92595284D01*
X80737267Y-92727909D01*
X80453319Y-92824296D01*
X80218990Y-92870906D01*
X80159215Y-92882797D01*
X79884410Y-92900808D01*
X79860000Y-92902408D01*
X79859999Y-92902407D01*
X79859999Y-92902408D01*
X79560784Y-92882797D01*
X79442823Y-92859332D01*
X79266681Y-92824296D01*
X78982733Y-92727909D01*
X78713796Y-92595284D01*
X78464470Y-92428690D01*
X78314172Y-92296881D01*
X78239022Y-92230977D01*
X78163872Y-92145285D01*
X78041310Y-92005530D01*
X77874716Y-91756204D01*
X77742091Y-91487267D01*
X77742090Y-91487267D01*
X77645704Y-91203320D01*
X77587202Y-90909215D01*
X77567591Y-90610000D01*
X77587202Y-90310784D01*
X77645704Y-90016679D01*
X77742091Y-89732732D01*
X77874716Y-89463796D01*
X78041309Y-89214472D01*
X78041310Y-89214470D01*
X78097968Y-89149863D01*
X78239022Y-88989022D01*
X78399863Y-88847968D01*
X78464470Y-88791310D01*
X78713796Y-88624716D01*
X78779953Y-88592091D01*
X78982732Y-88492091D01*
X79266679Y-88395704D01*
X79560784Y-88337202D01*
X79859999Y-88317591D01*
X80159215Y-88337202D01*
G37*
G36*
X217319215Y-88437202D02*
G01*
X217613320Y-88495704D01*
X217897266Y-88592091D01*
X217897267Y-88592091D01*
X218166204Y-88724716D01*
X218415530Y-88891310D01*
X218555285Y-89013872D01*
X218640977Y-89089022D01*
X218706881Y-89164172D01*
X218838690Y-89314470D01*
X219005284Y-89563796D01*
X219137909Y-89832733D01*
X219234296Y-90116681D01*
X219269332Y-90292823D01*
X219292797Y-90410784D01*
X219312408Y-90709999D01*
X219292797Y-91009215D01*
X219292796Y-91009219D01*
X219234296Y-91303319D01*
X219137909Y-91587267D01*
X219005284Y-91856204D01*
X218838690Y-92105530D01*
X218640977Y-92330977D01*
X218415530Y-92528690D01*
X218166204Y-92695284D01*
X217897267Y-92827909D01*
X217613319Y-92924296D01*
X217378990Y-92970906D01*
X217319215Y-92982797D01*
X217044410Y-93000808D01*
X217020000Y-93002408D01*
X217019999Y-93002407D01*
X217019999Y-93002408D01*
X216720784Y-92982797D01*
X216602823Y-92959332D01*
X216426681Y-92924296D01*
X216142733Y-92827909D01*
X215873796Y-92695284D01*
X215624470Y-92528690D01*
X215474171Y-92396881D01*
X215399022Y-92330977D01*
X215311325Y-92230977D01*
X215201310Y-92105530D01*
X215034716Y-91856204D01*
X214902091Y-91587267D01*
X214805704Y-91303319D01*
X214747202Y-91009215D01*
X214727591Y-90709999D01*
X214747202Y-90410784D01*
X214805704Y-90116679D01*
X214902091Y-89832732D01*
X215034716Y-89563796D01*
X215201309Y-89314472D01*
X215201310Y-89314470D01*
X215289008Y-89214470D01*
X215399022Y-89089022D01*
X215559863Y-88947968D01*
X215624470Y-88891310D01*
X215873796Y-88724716D01*
X215873795Y-88724716D01*
X216142732Y-88592091D01*
X216426679Y-88495704D01*
X216720784Y-88437202D01*
X217020000Y-88417591D01*
X217319215Y-88437202D01*
G37*
G36*
X120498108Y-69575161D02*
G01*
X120660819Y-69632096D01*
X120660820Y-69632096D01*
X120660821Y-69632097D01*
X120806788Y-69723814D01*
X120928686Y-69845712D01*
X121020403Y-69991679D01*
X121077339Y-70154394D01*
X121096641Y-70325700D01*
X121077339Y-70497006D01*
X121020403Y-70659721D01*
X120928686Y-70805688D01*
X120806788Y-70927586D01*
X120660821Y-71019303D01*
X120498106Y-71076239D01*
X120326800Y-71095541D01*
X120155494Y-71076239D01*
X119992779Y-71019303D01*
X119846812Y-70927586D01*
X119724914Y-70805688D01*
X119633197Y-70659721D01*
X119633196Y-70659719D01*
X119576261Y-70497008D01*
X119556959Y-70325700D01*
X119576261Y-70154391D01*
X119633196Y-69991680D01*
X119724916Y-69845709D01*
X119846809Y-69723816D01*
X119992780Y-69632096D01*
X120155491Y-69575161D01*
X120326800Y-69555859D01*
X120498108Y-69575161D01*
G37*
G36*
X123038108Y-69575161D02*
G01*
X123200819Y-69632096D01*
X123200820Y-69632096D01*
X123200821Y-69632097D01*
X123346788Y-69723814D01*
X123468686Y-69845712D01*
X123560403Y-69991679D01*
X123617339Y-70154394D01*
X123636641Y-70325700D01*
X123617339Y-70497006D01*
X123560403Y-70659721D01*
X123468686Y-70805688D01*
X123346788Y-70927586D01*
X123200821Y-71019303D01*
X123038106Y-71076239D01*
X122866800Y-71095541D01*
X122695494Y-71076239D01*
X122532779Y-71019303D01*
X122386812Y-70927586D01*
X122264914Y-70805688D01*
X122173197Y-70659721D01*
X122173196Y-70659719D01*
X122116261Y-70497008D01*
X122096959Y-70325700D01*
X122116261Y-70154391D01*
X122173196Y-69991680D01*
X122264916Y-69845709D01*
X122386809Y-69723816D01*
X122532780Y-69632096D01*
X122695491Y-69575161D01*
X122866800Y-69555859D01*
X123038108Y-69575161D01*
G37*
G36*
X125578108Y-69575161D02*
G01*
X125740819Y-69632096D01*
X125740820Y-69632096D01*
X125740821Y-69632097D01*
X125886788Y-69723814D01*
X126008686Y-69845712D01*
X126100403Y-69991679D01*
X126157339Y-70154394D01*
X126176641Y-70325700D01*
X126157339Y-70497006D01*
X126100403Y-70659721D01*
X126008686Y-70805688D01*
X125886788Y-70927586D01*
X125740821Y-71019303D01*
X125578106Y-71076239D01*
X125406800Y-71095541D01*
X125235494Y-71076239D01*
X125072779Y-71019303D01*
X124926812Y-70927586D01*
X124804914Y-70805688D01*
X124713197Y-70659721D01*
X124713196Y-70659719D01*
X124656261Y-70497008D01*
X124636959Y-70325699D01*
X124656261Y-70154391D01*
X124713196Y-69991680D01*
X124804916Y-69845709D01*
X124926809Y-69723816D01*
X125072780Y-69632096D01*
X125235491Y-69575161D01*
X125406800Y-69555859D01*
X125578108Y-69575161D01*
G37*
G36*
X128118108Y-69575161D02*
G01*
X128280819Y-69632096D01*
X128280820Y-69632096D01*
X128280821Y-69632097D01*
X128426788Y-69723814D01*
X128548686Y-69845712D01*
X128640403Y-69991679D01*
X128697339Y-70154394D01*
X128716641Y-70325700D01*
X128697339Y-70497006D01*
X128640403Y-70659721D01*
X128548686Y-70805688D01*
X128426788Y-70927586D01*
X128280821Y-71019303D01*
X128118106Y-71076239D01*
X127946800Y-71095541D01*
X127775494Y-71076239D01*
X127612779Y-71019303D01*
X127466812Y-70927586D01*
X127344914Y-70805688D01*
X127253197Y-70659721D01*
X127253196Y-70659719D01*
X127196261Y-70497008D01*
X127176959Y-70325699D01*
X127196261Y-70154391D01*
X127253196Y-69991680D01*
X127344916Y-69845709D01*
X127466809Y-69723816D01*
X127612780Y-69632096D01*
X127775491Y-69575161D01*
X127946800Y-69555859D01*
X128118108Y-69575161D01*
G37*
G36*
X130658108Y-69575161D02*
G01*
X130820819Y-69632096D01*
X130820820Y-69632096D01*
X130820821Y-69632097D01*
X130966788Y-69723814D01*
X131088686Y-69845712D01*
X131180403Y-69991679D01*
X131237339Y-70154394D01*
X131256641Y-70325700D01*
X131237339Y-70497006D01*
X131180403Y-70659721D01*
X131088686Y-70805688D01*
X130966788Y-70927586D01*
X130820821Y-71019303D01*
X130658106Y-71076239D01*
X130486800Y-71095541D01*
X130315494Y-71076239D01*
X130152779Y-71019303D01*
X130006812Y-70927586D01*
X129884914Y-70805688D01*
X129793197Y-70659721D01*
X129793196Y-70659719D01*
X129736261Y-70497008D01*
X129716959Y-70325699D01*
X129736261Y-70154391D01*
X129793196Y-69991680D01*
X129884916Y-69845709D01*
X130006809Y-69723816D01*
X130152780Y-69632096D01*
X130315491Y-69575161D01*
X130486800Y-69555859D01*
X130658108Y-69575161D01*
G37*
G36*
X133198108Y-69575161D02*
G01*
X133360819Y-69632096D01*
X133360820Y-69632096D01*
X133360821Y-69632097D01*
X133506788Y-69723814D01*
X133628686Y-69845712D01*
X133720403Y-69991679D01*
X133777339Y-70154394D01*
X133796641Y-70325700D01*
X133777339Y-70497006D01*
X133720403Y-70659721D01*
X133628686Y-70805688D01*
X133506788Y-70927586D01*
X133360821Y-71019303D01*
X133198106Y-71076239D01*
X133026800Y-71095541D01*
X132855494Y-71076239D01*
X132692779Y-71019303D01*
X132546812Y-70927586D01*
X132424914Y-70805688D01*
X132333197Y-70659721D01*
X132333196Y-70659719D01*
X132276261Y-70497008D01*
X132256959Y-70325700D01*
X132276261Y-70154391D01*
X132333196Y-69991680D01*
X132424916Y-69845709D01*
X132546809Y-69723816D01*
X132692780Y-69632096D01*
X132855491Y-69575161D01*
X133026800Y-69555859D01*
X133198108Y-69575161D01*
G37*
G36*
X135738108Y-69575161D02*
G01*
X135900819Y-69632096D01*
X135900820Y-69632096D01*
X135900821Y-69632097D01*
X136046788Y-69723814D01*
X136168686Y-69845712D01*
X136260403Y-69991679D01*
X136317339Y-70154394D01*
X136336641Y-70325700D01*
X136317339Y-70497006D01*
X136260403Y-70659721D01*
X136168686Y-70805688D01*
X136046788Y-70927586D01*
X135900821Y-71019303D01*
X135738106Y-71076239D01*
X135566800Y-71095541D01*
X135395494Y-71076239D01*
X135232779Y-71019303D01*
X135086812Y-70927586D01*
X134964914Y-70805688D01*
X134873197Y-70659721D01*
X134873196Y-70659719D01*
X134816261Y-70497008D01*
X134796959Y-70325700D01*
X134816261Y-70154391D01*
X134873196Y-69991680D01*
X134964916Y-69845709D01*
X135086809Y-69723816D01*
X135232780Y-69632096D01*
X135395491Y-69575161D01*
X135566800Y-69555859D01*
X135738108Y-69575161D01*
G37*
G36*
X138278108Y-69575161D02*
G01*
X138440819Y-69632096D01*
X138440820Y-69632096D01*
X138440821Y-69632097D01*
X138586788Y-69723814D01*
X138708686Y-69845712D01*
X138800403Y-69991679D01*
X138857339Y-70154394D01*
X138876641Y-70325700D01*
X138857339Y-70497006D01*
X138800403Y-70659721D01*
X138708686Y-70805688D01*
X138586788Y-70927586D01*
X138440821Y-71019303D01*
X138278106Y-71076239D01*
X138106800Y-71095541D01*
X137935494Y-71076239D01*
X137772779Y-71019303D01*
X137626812Y-70927586D01*
X137504914Y-70805688D01*
X137413197Y-70659721D01*
X137413196Y-70659719D01*
X137356261Y-70497008D01*
X137336959Y-70325700D01*
X137356261Y-70154391D01*
X137413196Y-69991680D01*
X137504916Y-69845709D01*
X137626809Y-69723816D01*
X137772780Y-69632096D01*
X137935491Y-69575161D01*
X138106800Y-69555859D01*
X138278108Y-69575161D01*
G37*
G36*
X140818108Y-69575161D02*
G01*
X140980819Y-69632096D01*
X140980820Y-69632096D01*
X140980821Y-69632097D01*
X141126788Y-69723814D01*
X141248686Y-69845712D01*
X141340403Y-69991679D01*
X141397339Y-70154394D01*
X141416641Y-70325700D01*
X141397339Y-70497006D01*
X141340403Y-70659721D01*
X141248686Y-70805688D01*
X141126788Y-70927586D01*
X140980821Y-71019303D01*
X140818106Y-71076239D01*
X140646800Y-71095541D01*
X140475494Y-71076239D01*
X140312779Y-71019303D01*
X140166812Y-70927586D01*
X140044914Y-70805688D01*
X139953197Y-70659721D01*
X139953196Y-70659719D01*
X139896261Y-70497008D01*
X139876959Y-70325700D01*
X139896261Y-70154391D01*
X139953196Y-69991680D01*
X140044916Y-69845709D01*
X140166809Y-69723816D01*
X140312780Y-69632096D01*
X140475491Y-69575161D01*
X140646800Y-69555859D01*
X140818108Y-69575161D01*
G37*
G36*
X143358108Y-69575161D02*
G01*
X143520819Y-69632096D01*
X143520820Y-69632096D01*
X143520821Y-69632097D01*
X143666788Y-69723814D01*
X143788686Y-69845712D01*
X143880403Y-69991679D01*
X143937339Y-70154394D01*
X143956641Y-70325700D01*
X143937339Y-70497006D01*
X143880403Y-70659721D01*
X143788686Y-70805688D01*
X143666788Y-70927586D01*
X143520821Y-71019303D01*
X143358106Y-71076239D01*
X143186800Y-71095541D01*
X143015494Y-71076239D01*
X142852779Y-71019303D01*
X142706812Y-70927586D01*
X142584914Y-70805688D01*
X142493197Y-70659721D01*
X142493196Y-70659719D01*
X142436261Y-70497008D01*
X142416959Y-70325700D01*
X142436261Y-70154391D01*
X142493196Y-69991680D01*
X142584916Y-69845709D01*
X142706809Y-69723816D01*
X142852780Y-69632096D01*
X143015491Y-69575161D01*
X143186800Y-69555859D01*
X143358108Y-69575161D01*
G37*
G36*
X145898108Y-69575161D02*
G01*
X146060819Y-69632096D01*
X146060820Y-69632096D01*
X146060821Y-69632097D01*
X146206788Y-69723814D01*
X146328686Y-69845712D01*
X146420403Y-69991679D01*
X146477339Y-70154394D01*
X146496641Y-70325700D01*
X146477339Y-70497006D01*
X146420403Y-70659721D01*
X146328686Y-70805688D01*
X146206788Y-70927586D01*
X146060821Y-71019303D01*
X145898106Y-71076239D01*
X145726800Y-71095541D01*
X145555494Y-71076239D01*
X145392779Y-71019303D01*
X145246812Y-70927586D01*
X145124914Y-70805688D01*
X145033197Y-70659721D01*
X145033196Y-70659719D01*
X144976261Y-70497008D01*
X144956959Y-70325699D01*
X144976261Y-70154391D01*
X145033196Y-69991680D01*
X145124916Y-69845709D01*
X145246809Y-69723816D01*
X145392780Y-69632096D01*
X145555491Y-69575161D01*
X145726800Y-69555859D01*
X145898108Y-69575161D01*
G37*
G36*
X148323901Y-69562292D02*
G01*
X148438108Y-69575161D01*
X148600819Y-69632096D01*
X148600820Y-69632096D01*
X148600821Y-69632097D01*
X148746788Y-69723814D01*
X148868686Y-69845712D01*
X148960403Y-69991679D01*
X149017339Y-70154394D01*
X149036641Y-70325700D01*
X149017339Y-70497006D01*
X148960403Y-70659721D01*
X148868686Y-70805688D01*
X148746788Y-70927586D01*
X148600821Y-71019303D01*
X148438106Y-71076239D01*
X148266800Y-71095541D01*
X148095494Y-71076239D01*
X147932779Y-71019303D01*
X147786812Y-70927586D01*
X147664914Y-70805688D01*
X147573197Y-70659721D01*
X147573196Y-70659719D01*
X147516261Y-70497008D01*
X147496959Y-70325699D01*
X147516261Y-70154391D01*
X147573196Y-69991680D01*
X147664916Y-69845709D01*
X147786809Y-69723816D01*
X147932780Y-69632096D01*
X148095491Y-69575161D01*
X148266799Y-69555859D01*
X148266800Y-69555859D01*
X148323901Y-69562292D01*
G37*
G36*
X150863902Y-69562292D02*
G01*
X150978108Y-69575161D01*
X151140819Y-69632096D01*
X151140820Y-69632096D01*
X151140821Y-69632097D01*
X151286788Y-69723814D01*
X151408686Y-69845712D01*
X151500403Y-69991679D01*
X151557339Y-70154394D01*
X151576641Y-70325700D01*
X151557339Y-70497006D01*
X151500403Y-70659721D01*
X151408686Y-70805688D01*
X151286788Y-70927586D01*
X151140821Y-71019303D01*
X150978106Y-71076239D01*
X150806800Y-71095541D01*
X150635494Y-71076239D01*
X150472779Y-71019303D01*
X150326812Y-70927586D01*
X150204914Y-70805688D01*
X150113197Y-70659721D01*
X150113196Y-70659719D01*
X150056261Y-70497008D01*
X150036959Y-70325699D01*
X150056261Y-70154391D01*
X150113196Y-69991680D01*
X150204916Y-69845709D01*
X150326809Y-69723816D01*
X150472780Y-69632096D01*
X150635491Y-69575161D01*
X150806799Y-69555859D01*
X150806800Y-69555859D01*
X150863902Y-69562292D01*
G37*
G36*
X153403902Y-69562292D02*
G01*
X153518108Y-69575161D01*
X153680819Y-69632096D01*
X153680820Y-69632096D01*
X153680821Y-69632097D01*
X153826788Y-69723814D01*
X153948686Y-69845712D01*
X154040403Y-69991679D01*
X154097339Y-70154394D01*
X154116641Y-70325700D01*
X154097339Y-70497006D01*
X154040403Y-70659721D01*
X153948686Y-70805688D01*
X153826788Y-70927586D01*
X153680821Y-71019303D01*
X153518106Y-71076239D01*
X153346800Y-71095541D01*
X153175494Y-71076239D01*
X153012779Y-71019303D01*
X152866812Y-70927586D01*
X152744914Y-70805688D01*
X152653197Y-70659721D01*
X152653196Y-70659719D01*
X152596261Y-70497008D01*
X152576959Y-70325699D01*
X152596261Y-70154391D01*
X152653196Y-69991680D01*
X152744916Y-69845709D01*
X152866809Y-69723816D01*
X153012780Y-69632096D01*
X153175491Y-69575161D01*
X153346799Y-69555859D01*
X153346800Y-69555859D01*
X153403902Y-69562292D01*
G37*
G36*
X156058108Y-69575161D02*
G01*
X156220819Y-69632096D01*
X156220820Y-69632096D01*
X156220821Y-69632097D01*
X156366788Y-69723814D01*
X156488686Y-69845712D01*
X156580403Y-69991679D01*
X156637339Y-70154394D01*
X156656641Y-70325700D01*
X156637339Y-70497006D01*
X156580403Y-70659721D01*
X156488686Y-70805688D01*
X156366788Y-70927586D01*
X156220821Y-71019303D01*
X156058106Y-71076239D01*
X155886800Y-71095541D01*
X155715494Y-71076239D01*
X155552779Y-71019303D01*
X155406812Y-70927586D01*
X155284914Y-70805688D01*
X155193197Y-70659721D01*
X155193196Y-70659719D01*
X155136261Y-70497008D01*
X155116959Y-70325699D01*
X155136261Y-70154391D01*
X155193196Y-69991680D01*
X155284916Y-69845709D01*
X155406809Y-69723816D01*
X155552780Y-69632096D01*
X155715491Y-69575161D01*
X155886800Y-69555859D01*
X156058108Y-69575161D01*
G37*
G36*
X158483901Y-69562292D02*
G01*
X158598108Y-69575161D01*
X158760819Y-69632096D01*
X158760820Y-69632096D01*
X158760821Y-69632097D01*
X158906788Y-69723814D01*
X159028686Y-69845712D01*
X159120403Y-69991679D01*
X159177339Y-70154394D01*
X159196641Y-70325700D01*
X159177339Y-70497006D01*
X159120403Y-70659721D01*
X159028686Y-70805688D01*
X158906788Y-70927586D01*
X158760821Y-71019303D01*
X158598106Y-71076239D01*
X158426800Y-71095541D01*
X158255494Y-71076239D01*
X158092779Y-71019303D01*
X157946812Y-70927586D01*
X157824914Y-70805688D01*
X157733197Y-70659721D01*
X157733196Y-70659719D01*
X157676261Y-70497008D01*
X157656959Y-70325699D01*
X157676261Y-70154391D01*
X157733196Y-69991680D01*
X157824916Y-69845709D01*
X157946809Y-69723816D01*
X158092780Y-69632096D01*
X158255491Y-69575161D01*
X158426799Y-69555859D01*
X158426800Y-69555859D01*
X158483901Y-69562292D01*
G37*
G36*
X161138108Y-69575161D02*
G01*
X161300819Y-69632096D01*
X161300820Y-69632096D01*
X161300821Y-69632097D01*
X161446788Y-69723814D01*
X161568686Y-69845712D01*
X161660403Y-69991679D01*
X161717339Y-70154394D01*
X161736641Y-70325700D01*
X161717339Y-70497006D01*
X161660403Y-70659721D01*
X161568686Y-70805688D01*
X161446788Y-70927586D01*
X161300821Y-71019303D01*
X161138106Y-71076239D01*
X160966800Y-71095541D01*
X160795494Y-71076239D01*
X160632779Y-71019303D01*
X160486812Y-70927586D01*
X160364914Y-70805688D01*
X160273197Y-70659721D01*
X160273196Y-70659719D01*
X160216261Y-70497008D01*
X160196959Y-70325699D01*
X160216261Y-70154391D01*
X160273196Y-69991680D01*
X160364916Y-69845709D01*
X160486809Y-69723816D01*
X160632780Y-69632096D01*
X160795491Y-69575161D01*
X160966800Y-69555859D01*
X161138108Y-69575161D01*
G37*
G36*
X163678108Y-69575161D02*
G01*
X163840819Y-69632096D01*
X163840820Y-69632096D01*
X163840821Y-69632097D01*
X163986788Y-69723814D01*
X164108686Y-69845712D01*
X164200403Y-69991679D01*
X164257339Y-70154394D01*
X164276641Y-70325700D01*
X164257339Y-70497006D01*
X164200403Y-70659721D01*
X164108686Y-70805688D01*
X163986788Y-70927586D01*
X163840821Y-71019303D01*
X163678106Y-71076239D01*
X163506800Y-71095541D01*
X163335494Y-71076239D01*
X163172779Y-71019303D01*
X163026812Y-70927586D01*
X162904914Y-70805688D01*
X162813197Y-70659721D01*
X162813196Y-70659719D01*
X162756261Y-70497008D01*
X162736959Y-70325699D01*
X162756261Y-70154391D01*
X162813196Y-69991680D01*
X162904916Y-69845709D01*
X163026809Y-69723816D01*
X163172780Y-69632096D01*
X163335491Y-69575161D01*
X163506800Y-69555859D01*
X163678108Y-69575161D01*
G37*
G36*
X166218108Y-69575161D02*
G01*
X166380819Y-69632096D01*
X166380820Y-69632096D01*
X166380821Y-69632097D01*
X166526788Y-69723814D01*
X166648686Y-69845712D01*
X166740403Y-69991679D01*
X166797339Y-70154394D01*
X166816641Y-70325700D01*
X166797339Y-70497006D01*
X166740403Y-70659721D01*
X166648686Y-70805688D01*
X166526788Y-70927586D01*
X166380821Y-71019303D01*
X166218106Y-71076239D01*
X166046800Y-71095541D01*
X165875494Y-71076239D01*
X165712779Y-71019303D01*
X165566812Y-70927586D01*
X165444914Y-70805688D01*
X165353197Y-70659721D01*
X165353196Y-70659719D01*
X165296261Y-70497008D01*
X165276959Y-70325699D01*
X165296261Y-70154391D01*
X165353196Y-69991680D01*
X165444916Y-69845709D01*
X165566809Y-69723816D01*
X165712780Y-69632096D01*
X165875491Y-69575161D01*
X166046800Y-69555859D01*
X166218108Y-69575161D01*
G37*
G36*
X120369764Y-44160700D02*
G01*
X120498108Y-44175161D01*
X120660819Y-44232096D01*
X120660820Y-44232096D01*
X120660821Y-44232097D01*
X120806788Y-44323814D01*
X120928686Y-44445712D01*
X121020403Y-44591679D01*
X121077339Y-44754394D01*
X121096641Y-44925700D01*
X121077339Y-45097006D01*
X121020403Y-45259721D01*
X120928686Y-45405688D01*
X120806788Y-45527586D01*
X120660821Y-45619303D01*
X120498106Y-45676239D01*
X120326800Y-45695541D01*
X120155494Y-45676239D01*
X119992779Y-45619303D01*
X119846812Y-45527586D01*
X119724914Y-45405688D01*
X119633197Y-45259721D01*
X119633196Y-45259719D01*
X119576261Y-45097008D01*
X119556959Y-44925699D01*
X119576261Y-44754391D01*
X119633196Y-44591680D01*
X119724916Y-44445709D01*
X119846809Y-44323816D01*
X119992780Y-44232096D01*
X120155491Y-44175161D01*
X120326799Y-44155859D01*
X120326800Y-44155859D01*
X120369764Y-44160700D01*
G37*
G36*
X122909764Y-44160700D02*
G01*
X123038108Y-44175161D01*
X123200819Y-44232096D01*
X123200820Y-44232096D01*
X123200821Y-44232097D01*
X123346788Y-44323814D01*
X123468686Y-44445712D01*
X123560403Y-44591679D01*
X123617339Y-44754394D01*
X123636641Y-44925700D01*
X123617339Y-45097006D01*
X123560403Y-45259721D01*
X123468686Y-45405688D01*
X123346788Y-45527586D01*
X123200821Y-45619303D01*
X123038106Y-45676239D01*
X122866800Y-45695541D01*
X122695494Y-45676239D01*
X122532779Y-45619303D01*
X122386812Y-45527586D01*
X122264914Y-45405688D01*
X122173197Y-45259721D01*
X122173196Y-45259719D01*
X122116261Y-45097008D01*
X122096959Y-44925699D01*
X122116261Y-44754391D01*
X122173196Y-44591680D01*
X122264916Y-44445709D01*
X122386809Y-44323816D01*
X122532780Y-44232096D01*
X122695491Y-44175161D01*
X122866799Y-44155859D01*
X122866800Y-44155859D01*
X122909764Y-44160700D01*
G37*
G36*
X125578108Y-44175161D02*
G01*
X125740819Y-44232096D01*
X125740820Y-44232096D01*
X125740821Y-44232097D01*
X125886788Y-44323814D01*
X126008686Y-44445712D01*
X126100403Y-44591679D01*
X126157339Y-44754394D01*
X126176641Y-44925700D01*
X126157339Y-45097006D01*
X126100403Y-45259721D01*
X126008686Y-45405688D01*
X125886788Y-45527586D01*
X125740821Y-45619303D01*
X125578106Y-45676239D01*
X125406800Y-45695541D01*
X125235494Y-45676239D01*
X125072779Y-45619303D01*
X124926812Y-45527586D01*
X124804914Y-45405688D01*
X124713197Y-45259721D01*
X124713196Y-45259719D01*
X124656261Y-45097008D01*
X124636959Y-44925699D01*
X124656261Y-44754391D01*
X124713196Y-44591680D01*
X124804916Y-44445709D01*
X124926809Y-44323816D01*
X125072780Y-44232096D01*
X125235491Y-44175161D01*
X125406800Y-44155859D01*
X125578108Y-44175161D01*
G37*
G36*
X128118108Y-44175161D02*
G01*
X128280819Y-44232096D01*
X128280820Y-44232096D01*
X128280821Y-44232097D01*
X128426788Y-44323814D01*
X128548686Y-44445712D01*
X128640403Y-44591679D01*
X128697339Y-44754394D01*
X128716641Y-44925700D01*
X128697339Y-45097006D01*
X128640403Y-45259721D01*
X128548686Y-45405688D01*
X128426788Y-45527586D01*
X128280821Y-45619303D01*
X128118106Y-45676239D01*
X127946800Y-45695541D01*
X127775494Y-45676239D01*
X127612779Y-45619303D01*
X127466812Y-45527586D01*
X127344914Y-45405688D01*
X127253197Y-45259721D01*
X127253196Y-45259719D01*
X127196261Y-45097008D01*
X127176959Y-44925699D01*
X127196261Y-44754391D01*
X127253196Y-44591680D01*
X127344916Y-44445709D01*
X127466809Y-44323816D01*
X127612780Y-44232096D01*
X127775491Y-44175161D01*
X127946800Y-44155859D01*
X128118108Y-44175161D01*
G37*
G36*
X130658108Y-44175161D02*
G01*
X130820819Y-44232096D01*
X130820820Y-44232096D01*
X130820821Y-44232097D01*
X130966788Y-44323814D01*
X131088686Y-44445712D01*
X131180403Y-44591679D01*
X131237339Y-44754394D01*
X131256641Y-44925700D01*
X131237339Y-45097006D01*
X131180403Y-45259721D01*
X131088686Y-45405688D01*
X130966788Y-45527586D01*
X130820821Y-45619303D01*
X130658106Y-45676239D01*
X130486800Y-45695541D01*
X130315494Y-45676239D01*
X130152779Y-45619303D01*
X130006812Y-45527586D01*
X129884914Y-45405688D01*
X129793197Y-45259721D01*
X129793196Y-45259719D01*
X129736261Y-45097008D01*
X129716959Y-44925700D01*
X129736261Y-44754391D01*
X129793196Y-44591680D01*
X129884916Y-44445709D01*
X130006809Y-44323816D01*
X130152780Y-44232096D01*
X130315491Y-44175161D01*
X130486800Y-44155859D01*
X130658108Y-44175161D01*
G37*
G36*
X133198108Y-44175161D02*
G01*
X133360819Y-44232096D01*
X133360820Y-44232096D01*
X133360821Y-44232097D01*
X133506788Y-44323814D01*
X133628686Y-44445712D01*
X133720403Y-44591679D01*
X133777339Y-44754394D01*
X133796641Y-44925700D01*
X133777339Y-45097006D01*
X133720403Y-45259721D01*
X133628686Y-45405688D01*
X133506788Y-45527586D01*
X133360821Y-45619303D01*
X133198106Y-45676239D01*
X133026800Y-45695541D01*
X132855494Y-45676239D01*
X132692779Y-45619303D01*
X132546812Y-45527586D01*
X132424914Y-45405688D01*
X132333197Y-45259721D01*
X132333196Y-45259719D01*
X132276261Y-45097008D01*
X132256959Y-44925700D01*
X132276261Y-44754391D01*
X132333196Y-44591680D01*
X132424916Y-44445709D01*
X132546809Y-44323816D01*
X132692780Y-44232096D01*
X132855491Y-44175161D01*
X133026800Y-44155859D01*
X133198108Y-44175161D01*
G37*
G36*
X135738108Y-44175161D02*
G01*
X135900819Y-44232096D01*
X135900820Y-44232096D01*
X135900821Y-44232097D01*
X136046788Y-44323814D01*
X136168686Y-44445712D01*
X136260403Y-44591679D01*
X136317339Y-44754394D01*
X136336641Y-44925700D01*
X136317339Y-45097006D01*
X136260403Y-45259721D01*
X136168686Y-45405688D01*
X136046788Y-45527586D01*
X135900821Y-45619303D01*
X135738106Y-45676239D01*
X135566800Y-45695541D01*
X135395494Y-45676239D01*
X135232779Y-45619303D01*
X135086812Y-45527586D01*
X134964914Y-45405688D01*
X134873197Y-45259721D01*
X134873196Y-45259719D01*
X134816261Y-45097008D01*
X134796959Y-44925699D01*
X134816261Y-44754391D01*
X134873196Y-44591680D01*
X134964916Y-44445709D01*
X135086809Y-44323816D01*
X135232780Y-44232096D01*
X135395491Y-44175161D01*
X135566800Y-44155859D01*
X135738108Y-44175161D01*
G37*
G36*
X138278108Y-44175161D02*
G01*
X138440819Y-44232096D01*
X138440820Y-44232096D01*
X138440821Y-44232097D01*
X138586788Y-44323814D01*
X138708686Y-44445712D01*
X138800403Y-44591679D01*
X138857339Y-44754394D01*
X138876641Y-44925700D01*
X138857339Y-45097006D01*
X138800403Y-45259721D01*
X138708686Y-45405688D01*
X138586788Y-45527586D01*
X138440821Y-45619303D01*
X138278106Y-45676239D01*
X138106800Y-45695541D01*
X137935494Y-45676239D01*
X137772779Y-45619303D01*
X137626812Y-45527586D01*
X137504914Y-45405688D01*
X137413197Y-45259721D01*
X137413196Y-45259719D01*
X137356261Y-45097008D01*
X137336959Y-44925699D01*
X137356261Y-44754391D01*
X137413196Y-44591680D01*
X137504916Y-44445709D01*
X137626809Y-44323816D01*
X137772780Y-44232096D01*
X137935491Y-44175161D01*
X138106800Y-44155859D01*
X138278108Y-44175161D01*
G37*
G36*
X140818108Y-44175161D02*
G01*
X140980819Y-44232096D01*
X140980820Y-44232096D01*
X140980821Y-44232097D01*
X141126788Y-44323814D01*
X141248686Y-44445712D01*
X141340403Y-44591679D01*
X141397339Y-44754394D01*
X141416641Y-44925700D01*
X141397339Y-45097006D01*
X141340403Y-45259721D01*
X141248686Y-45405688D01*
X141126788Y-45527586D01*
X140980821Y-45619303D01*
X140818106Y-45676239D01*
X140646800Y-45695541D01*
X140475494Y-45676239D01*
X140312779Y-45619303D01*
X140166812Y-45527586D01*
X140044914Y-45405688D01*
X139953197Y-45259721D01*
X139953196Y-45259719D01*
X139896261Y-45097008D01*
X139876959Y-44925699D01*
X139896261Y-44754391D01*
X139953196Y-44591680D01*
X140044916Y-44445709D01*
X140166809Y-44323816D01*
X140312780Y-44232096D01*
X140475491Y-44175161D01*
X140646800Y-44155859D01*
X140818108Y-44175161D01*
G37*
G36*
X143229764Y-44160700D02*
G01*
X143358108Y-44175161D01*
X143520819Y-44232096D01*
X143520820Y-44232096D01*
X143520821Y-44232097D01*
X143666788Y-44323814D01*
X143788686Y-44445712D01*
X143880403Y-44591679D01*
X143937339Y-44754394D01*
X143956641Y-44925700D01*
X143937339Y-45097006D01*
X143880403Y-45259721D01*
X143788686Y-45405688D01*
X143666788Y-45527586D01*
X143520821Y-45619303D01*
X143358106Y-45676239D01*
X143186800Y-45695541D01*
X143015494Y-45676239D01*
X142852779Y-45619303D01*
X142706812Y-45527586D01*
X142584914Y-45405688D01*
X142493197Y-45259721D01*
X142493196Y-45259719D01*
X142436261Y-45097008D01*
X142416959Y-44925699D01*
X142436261Y-44754391D01*
X142493196Y-44591680D01*
X142584916Y-44445709D01*
X142706809Y-44323816D01*
X142852780Y-44232096D01*
X143015491Y-44175161D01*
X143186799Y-44155859D01*
X143186800Y-44155859D01*
X143229764Y-44160700D01*
G37*
G36*
X145898108Y-44175161D02*
G01*
X146060819Y-44232096D01*
X146060820Y-44232096D01*
X146060821Y-44232097D01*
X146206788Y-44323814D01*
X146328686Y-44445712D01*
X146420403Y-44591679D01*
X146477339Y-44754394D01*
X146496641Y-44925700D01*
X146477339Y-45097006D01*
X146420403Y-45259721D01*
X146328686Y-45405688D01*
X146206788Y-45527586D01*
X146060821Y-45619303D01*
X145898106Y-45676239D01*
X145726800Y-45695541D01*
X145555494Y-45676239D01*
X145392779Y-45619303D01*
X145246812Y-45527586D01*
X145124914Y-45405688D01*
X145033197Y-45259721D01*
X145033196Y-45259719D01*
X144976261Y-45097008D01*
X144956959Y-44925699D01*
X144976261Y-44754391D01*
X145033196Y-44591680D01*
X145124916Y-44445709D01*
X145246809Y-44323816D01*
X145392780Y-44232096D01*
X145555491Y-44175161D01*
X145726800Y-44155859D01*
X145898108Y-44175161D01*
G37*
G36*
X148438108Y-44175161D02*
G01*
X148600819Y-44232096D01*
X148600820Y-44232096D01*
X148600821Y-44232097D01*
X148746788Y-44323814D01*
X148868686Y-44445712D01*
X148960403Y-44591679D01*
X149017339Y-44754394D01*
X149036641Y-44925700D01*
X149017339Y-45097006D01*
X148960403Y-45259721D01*
X148868686Y-45405688D01*
X148746788Y-45527586D01*
X148600821Y-45619303D01*
X148438106Y-45676239D01*
X148266800Y-45695541D01*
X148095494Y-45676239D01*
X147932779Y-45619303D01*
X147786812Y-45527586D01*
X147664914Y-45405688D01*
X147573197Y-45259721D01*
X147573196Y-45259719D01*
X147516261Y-45097008D01*
X147496959Y-44925699D01*
X147516261Y-44754391D01*
X147573196Y-44591680D01*
X147664916Y-44445709D01*
X147786809Y-44323816D01*
X147932780Y-44232096D01*
X148095491Y-44175161D01*
X148266800Y-44155859D01*
X148438108Y-44175161D01*
G37*
G36*
X150978108Y-44175161D02*
G01*
X151140819Y-44232096D01*
X151140820Y-44232096D01*
X151140821Y-44232097D01*
X151286788Y-44323814D01*
X151408686Y-44445712D01*
X151500403Y-44591679D01*
X151557339Y-44754394D01*
X151576641Y-44925700D01*
X151557339Y-45097006D01*
X151500403Y-45259721D01*
X151408686Y-45405688D01*
X151286788Y-45527586D01*
X151140821Y-45619303D01*
X150978106Y-45676239D01*
X150806800Y-45695541D01*
X150635494Y-45676239D01*
X150472779Y-45619303D01*
X150326812Y-45527586D01*
X150204914Y-45405688D01*
X150113197Y-45259721D01*
X150113196Y-45259719D01*
X150056261Y-45097008D01*
X150036959Y-44925700D01*
X150056261Y-44754391D01*
X150113196Y-44591680D01*
X150204916Y-44445709D01*
X150326809Y-44323816D01*
X150472780Y-44232096D01*
X150635491Y-44175161D01*
X150806800Y-44155859D01*
X150978108Y-44175161D01*
G37*
G36*
X153518108Y-44175161D02*
G01*
X153680819Y-44232096D01*
X153680820Y-44232096D01*
X153680821Y-44232097D01*
X153826788Y-44323814D01*
X153948686Y-44445712D01*
X154040403Y-44591679D01*
X154097339Y-44754394D01*
X154116641Y-44925700D01*
X154097339Y-45097006D01*
X154040403Y-45259721D01*
X153948686Y-45405688D01*
X153826788Y-45527586D01*
X153680821Y-45619303D01*
X153518106Y-45676239D01*
X153346800Y-45695541D01*
X153175494Y-45676239D01*
X153012779Y-45619303D01*
X152866812Y-45527586D01*
X152744914Y-45405688D01*
X152653197Y-45259721D01*
X152653196Y-45259719D01*
X152596261Y-45097008D01*
X152576959Y-44925700D01*
X152596261Y-44754391D01*
X152653196Y-44591680D01*
X152744916Y-44445709D01*
X152866809Y-44323816D01*
X153012780Y-44232096D01*
X153175491Y-44175161D01*
X153346800Y-44155859D01*
X153518108Y-44175161D01*
G37*
G36*
X156058108Y-44175161D02*
G01*
X156220819Y-44232096D01*
X156220820Y-44232096D01*
X156220821Y-44232097D01*
X156366788Y-44323814D01*
X156488686Y-44445712D01*
X156580403Y-44591679D01*
X156637339Y-44754394D01*
X156656641Y-44925700D01*
X156637339Y-45097006D01*
X156580403Y-45259721D01*
X156488686Y-45405688D01*
X156366788Y-45527586D01*
X156220821Y-45619303D01*
X156058106Y-45676239D01*
X155886800Y-45695541D01*
X155715494Y-45676239D01*
X155552779Y-45619303D01*
X155406812Y-45527586D01*
X155284914Y-45405688D01*
X155193197Y-45259721D01*
X155193196Y-45259719D01*
X155136261Y-45097008D01*
X155116959Y-44925700D01*
X155136261Y-44754391D01*
X155193196Y-44591680D01*
X155284916Y-44445709D01*
X155406809Y-44323816D01*
X155552780Y-44232096D01*
X155715491Y-44175161D01*
X155886800Y-44155859D01*
X156058108Y-44175161D01*
G37*
G36*
X158469764Y-44160700D02*
G01*
X158598108Y-44175161D01*
X158760819Y-44232096D01*
X158760820Y-44232096D01*
X158760821Y-44232097D01*
X158906788Y-44323814D01*
X159028686Y-44445712D01*
X159120403Y-44591679D01*
X159177339Y-44754394D01*
X159196641Y-44925700D01*
X159177339Y-45097006D01*
X159120403Y-45259721D01*
X159028686Y-45405688D01*
X158906788Y-45527586D01*
X158760821Y-45619303D01*
X158598106Y-45676239D01*
X158426800Y-45695541D01*
X158255494Y-45676239D01*
X158092779Y-45619303D01*
X157946812Y-45527586D01*
X157824914Y-45405688D01*
X157733197Y-45259721D01*
X157733196Y-45259719D01*
X157676261Y-45097008D01*
X157656959Y-44925700D01*
X157676261Y-44754391D01*
X157733196Y-44591680D01*
X157824916Y-44445709D01*
X157946809Y-44323816D01*
X158092780Y-44232096D01*
X158255491Y-44175161D01*
X158426799Y-44155859D01*
X158426800Y-44155859D01*
X158469764Y-44160700D01*
G37*
G36*
X161009764Y-44160700D02*
G01*
X161138108Y-44175161D01*
X161300819Y-44232096D01*
X161300820Y-44232096D01*
X161300821Y-44232097D01*
X161446788Y-44323814D01*
X161568686Y-44445712D01*
X161660403Y-44591679D01*
X161717339Y-44754394D01*
X161736641Y-44925700D01*
X161717339Y-45097006D01*
X161660403Y-45259721D01*
X161568686Y-45405688D01*
X161446788Y-45527586D01*
X161300821Y-45619303D01*
X161138106Y-45676239D01*
X160966800Y-45695541D01*
X160795494Y-45676239D01*
X160632779Y-45619303D01*
X160486812Y-45527586D01*
X160364914Y-45405688D01*
X160273197Y-45259721D01*
X160273196Y-45259719D01*
X160216261Y-45097008D01*
X160196959Y-44925700D01*
X160216261Y-44754391D01*
X160273196Y-44591680D01*
X160364916Y-44445709D01*
X160486809Y-44323816D01*
X160632780Y-44232096D01*
X160795491Y-44175161D01*
X160966799Y-44155859D01*
X160966800Y-44155859D01*
X161009764Y-44160700D01*
G37*
G36*
X163549764Y-44160700D02*
G01*
X163678108Y-44175161D01*
X163840819Y-44232096D01*
X163840820Y-44232096D01*
X163840821Y-44232097D01*
X163986788Y-44323814D01*
X164108686Y-44445712D01*
X164200403Y-44591679D01*
X164257339Y-44754394D01*
X164276641Y-44925700D01*
X164257339Y-45097006D01*
X164200403Y-45259721D01*
X164108686Y-45405688D01*
X163986788Y-45527586D01*
X163840821Y-45619303D01*
X163678106Y-45676239D01*
X163506800Y-45695541D01*
X163335494Y-45676239D01*
X163172779Y-45619303D01*
X163026812Y-45527586D01*
X162904914Y-45405688D01*
X162813197Y-45259721D01*
X162813196Y-45259719D01*
X162756261Y-45097008D01*
X162736959Y-44925700D01*
X162756261Y-44754391D01*
X162813196Y-44591680D01*
X162904916Y-44445709D01*
X163026809Y-44323816D01*
X163172780Y-44232096D01*
X163335491Y-44175161D01*
X163506799Y-44155859D01*
X163506800Y-44155859D01*
X163549764Y-44160700D01*
G37*
G36*
X166811800Y-45690700D02*
G01*
X165281800Y-45690700D01*
X165281800Y-44160700D01*
X166811800Y-44160700D01*
X166811800Y-45690700D01*
G37*
M02*
