M48
; DRILL file {KiCad 7.0.2-0} date 2023 April 25, Tuesday 00:34:19
; FORMAT={-:-/ absolute / inch / decimal}
; #@! TF.CreationDate,2023-04-25T00:34:19+03:00
; #@! TF.GenerationSoftware,Kicad,Pcbnew,7.0.2-0
; #@! TF.FileFunction,Plated,1,4,PTH
FMAT,2
INCH
; #@! TA.AperFunction,Plated,PTH,ViaDrill
T1C0.0130
; #@! TA.AperFunction,Plated,PTH,ComponentDrill
T2C0.0394
; #@! TA.AperFunction,Plated,PTH,ComponentDrill
T3C0.0402
; #@! TA.AperFunction,Plated,PTH,ComponentDrill
T4C0.0409
; #@! TA.AperFunction,Plated,PTH,ComponentDrill
T5C0.0472
; #@! TA.AperFunction,Plated,PTH,ComponentDrill
T6C0.0512
; #@! TA.AperFunction,Plated,PTH,ComponentDrill
T7C0.1201
%
G90
G05
T1
X3.25Y-4.562
X3.272Y-4.27
X3.272Y-4.33
X3.2853Y-4.0211
X3.345Y-4.485
X3.346Y-4.432
X3.368Y-4.33
X3.39Y-4.458
X3.39Y-4.51
X3.392Y-4.406
X3.392Y-4.614
X3.524Y-3.946
X3.598Y-3.715
X3.735Y-3.393
X3.756Y-4.306
X3.78Y-4.184
X3.796Y-4.224
X3.8Y-4.33
X3.812Y-4.284
X3.89Y-3.715
X3.92Y-4.5
X3.942Y-4.178
X4.046Y-3.398
X4.08Y-4.3
X4.086Y-3.502
X4.2Y-3.715
X4.235Y-4.5
X4.252Y-4.18
X4.356Y-3.394
X4.395Y-4.3
X4.51Y-3.715
X4.524Y-4.172
X4.545Y-4.5
X4.604Y-4.368
X4.67Y-3.398
X4.7Y-4.3
X4.802Y-4.402
X4.82Y-3.715
X4.86Y-4.5
X4.976Y-3.398
X5.015Y-4.3
X5.048Y-4.826
X5.116Y-4.408
X5.12Y-2.784
X5.13Y-3.715
X5.17Y-4.5
X5.182Y-2.784
X5.286Y-3.398
X5.325Y-4.3
X5.44Y-3.715
X5.44Y-4.41
X5.48Y-4.5
X5.596Y-3.396
X5.635Y-4.3
X5.75Y-3.715
X5.79Y-4.5
X5.906Y-3.384
X5.945Y-4.305
X6.044Y-4.302
X6.06Y-3.715
X6.1Y-4.5
X6.198Y-2.76
X6.216Y-3.384
X6.255Y-4.3
X6.356Y-2.95
X6.37Y-3.715
X6.37Y-4.3
X6.41Y-4.5
X6.526Y-3.384
X6.565Y-4.3
X6.678Y-4.298
X6.68Y-3.715
X6.69Y-3.886
X6.72Y-4.5
X6.76Y-2.824
X6.772Y-4.408
X6.8Y-4.37
X6.836Y-3.386
X6.875Y-4.3
X6.99Y-3.715
X7.072Y-2.822
X7.144Y-3.386
X7.144Y-4.604
X7.2Y-3.92
X7.202Y-3.964
X7.204Y-4.016
X7.3Y-3.715
X7.382Y-2.824
X7.4Y-4.24
X7.456Y-3.384
X7.488Y-4.456
X7.53Y-4.67
X7.556Y-3.922
X7.61Y-3.715
X7.69Y-2.822
X7.71Y-4.24
X7.762Y-3.392
X7.794Y-3.834
X7.848Y-3.832
X7.866Y-3.928
X7.89Y-3.832
X7.92Y-3.715
X7.94Y-3.924
X7.976Y-4.474
X7.985Y-4.71
X7.998Y-2.818
X8.02Y-4.24
X8.076Y-3.388
X8.1Y-3.882
X8.122Y-4.082
X8.144Y-3.88
X8.154Y-2.952
X8.16Y-3.132
X8.176Y-3.908
X8.176Y-4.16
X8.268Y-3.786
X8.2833Y-2.8711
X8.308Y-2.822
X8.368Y-3.208
X8.402Y-3.12
X8.438Y-4.97
X8.542Y-2.778
X8.562Y-2.422
X8.632Y-4.936
T2
X3.388Y-3.8682
X3.388Y-3.9682
X3.388Y-4.116
X3.388Y-4.216
X5.098Y-3.02
X5.098Y-3.12
X5.198Y-3.02
X5.198Y-3.12
X5.298Y-3.02
X5.298Y-3.12
X5.398Y-3.02
X5.398Y-3.12
X5.498Y-3.02
X5.498Y-3.12
X8.214Y-3.41
X8.214Y-3.51
X8.214Y-3.6182
X8.214Y-3.7182
X8.3462Y-3.404
X8.4462Y-3.404
X8.6878Y-3.332
X8.7878Y-3.332
T3
X2.9173Y-2.3187
X2.9173Y-3.3187
X3.0173Y-2.3187
X3.0173Y-3.3187
X3.1173Y-2.3187
X3.1173Y-3.3187
X3.2173Y-2.3187
X3.2173Y-3.3187
X3.3173Y-2.3187
X3.3173Y-3.3187
X3.4173Y-2.3187
X3.4173Y-3.3187
X3.5173Y-2.3187
X3.5173Y-3.3187
X3.6173Y-2.3187
X3.6173Y-3.3187
X3.7173Y-2.3187
X3.7173Y-3.3187
X3.8173Y-2.3187
X3.8173Y-3.3187
X3.9173Y-2.3187
X3.9173Y-3.3187
X4.0173Y-2.3187
X4.0173Y-3.3187
X4.1173Y-2.3187
X4.1173Y-3.3187
X4.2173Y-2.3187
X4.2173Y-3.3187
X4.3173Y-2.3187
X4.3173Y-3.3187
X4.4173Y-2.3187
X4.4173Y-3.3187
X4.5173Y-2.3187
X4.5173Y-3.3187
X4.6173Y-2.3187
X4.6173Y-3.3187
X4.7173Y-2.3187
X4.7173Y-3.3187
T4
X3.0242Y-3.8963
X3.0242Y-4.0042
X3.0242Y-4.1121
X3.0242Y-4.2199
X3.136Y-3.8424
X3.136Y-3.9503
X3.136Y-4.0581
X3.136Y-4.166
X3.136Y-4.2739
X8.4882Y-3.8474
X8.4882Y-3.9553
X8.4882Y-4.0632
X8.4882Y-4.1711
X8.4882Y-4.2789
X8.6Y-3.9014
X8.6Y-4.0093
X8.6Y-4.1171
X8.6Y-4.225
T5
X2.9594Y-4.9
X3.1563Y-4.9
X3.3531Y-4.9
X3.55Y-4.9
X3.7469Y-4.9
X3.9437Y-4.9
X4.1406Y-4.9
X4.3374Y-4.9
X4.5343Y-4.9
X4.7311Y-4.9
X4.9533Y-4.9
X5.1502Y-4.9
X5.347Y-4.9
X5.5439Y-4.9
X5.7407Y-4.9
X5.9376Y-4.9
X6.1344Y-4.9
X6.3313Y-4.9
X6.5281Y-4.9
X6.725Y-4.9
X6.9502Y-4.9
X7.147Y-4.9
X7.3439Y-4.9
X7.5407Y-4.9
X7.7376Y-4.9
X7.9344Y-4.9
X8.1313Y-4.9
X8.3281Y-4.9
X8.525Y-4.9
X8.7219Y-4.9
T6
X5.2291Y-2.406
X5.426Y-2.406
X5.684Y-2.404
X5.8809Y-2.404
X6.1396Y-2.4043
X6.1656Y-3.1263
X6.3364Y-2.4043
X6.3624Y-3.1263
X8.6717Y-2.9356
X8.6717Y-3.1324
T7
X3.0801Y-3.5662
X3.0801Y-4.5501
X8.5441Y-3.5713
X8.5441Y-4.5551
T0
M30
