%TF.GenerationSoftware,KiCad,Pcbnew,7.0.2-0*%
%TF.CreationDate,2023-04-24T01:17:18+03:00*%
%TF.ProjectId,PLC-CIM,504c432d-4349-44d2-9e6b-696361645f70,rev?*%
%TF.SameCoordinates,Original*%
%TF.FileFunction,Legend,Top*%
%TF.FilePolarity,Positive*%
%FSLAX46Y46*%
G04 Gerber Fmt 4.6, Leading zero omitted, Abs format (unit mm)*
G04 Created by KiCad (PCBNEW 7.0.2-0) date 2023-04-24 01:17:18*
%MOMM*%
%LPD*%
G01*
G04 APERTURE LIST*
%ADD10C,0.254000*%
%ADD11C,0.150000*%
%ADD12C,0.300000*%
%ADD13C,0.100000*%
%ADD14C,0.200000*%
%ADD15C,0.127000*%
G04 APERTURE END LIST*
D10*
%TO.C,J8*%
X79524526Y-103528332D02*
X80431669Y-103528332D01*
X80431669Y-103528332D02*
X80613097Y-103588809D01*
X80613097Y-103588809D02*
X80734050Y-103709761D01*
X80734050Y-103709761D02*
X80794526Y-103891190D01*
X80794526Y-103891190D02*
X80794526Y-104012142D01*
X80068811Y-102742142D02*
X80008335Y-102863094D01*
X80008335Y-102863094D02*
X79947859Y-102923571D01*
X79947859Y-102923571D02*
X79826907Y-102984047D01*
X79826907Y-102984047D02*
X79766430Y-102984047D01*
X79766430Y-102984047D02*
X79645478Y-102923571D01*
X79645478Y-102923571D02*
X79585002Y-102863094D01*
X79585002Y-102863094D02*
X79524526Y-102742142D01*
X79524526Y-102742142D02*
X79524526Y-102500237D01*
X79524526Y-102500237D02*
X79585002Y-102379285D01*
X79585002Y-102379285D02*
X79645478Y-102318809D01*
X79645478Y-102318809D02*
X79766430Y-102258332D01*
X79766430Y-102258332D02*
X79826907Y-102258332D01*
X79826907Y-102258332D02*
X79947859Y-102318809D01*
X79947859Y-102318809D02*
X80008335Y-102379285D01*
X80008335Y-102379285D02*
X80068811Y-102500237D01*
X80068811Y-102500237D02*
X80068811Y-102742142D01*
X80068811Y-102742142D02*
X80129288Y-102863094D01*
X80129288Y-102863094D02*
X80189764Y-102923571D01*
X80189764Y-102923571D02*
X80310716Y-102984047D01*
X80310716Y-102984047D02*
X80552621Y-102984047D01*
X80552621Y-102984047D02*
X80673573Y-102923571D01*
X80673573Y-102923571D02*
X80734050Y-102863094D01*
X80734050Y-102863094D02*
X80794526Y-102742142D01*
X80794526Y-102742142D02*
X80794526Y-102500237D01*
X80794526Y-102500237D02*
X80734050Y-102379285D01*
X80734050Y-102379285D02*
X80673573Y-102318809D01*
X80673573Y-102318809D02*
X80552621Y-102258332D01*
X80552621Y-102258332D02*
X80310716Y-102258332D01*
X80310716Y-102258332D02*
X80189764Y-102318809D01*
X80189764Y-102318809D02*
X80129288Y-102379285D01*
X80129288Y-102379285D02*
X80068811Y-102500237D01*
%TO.C,J3*%
X119746667Y-123777526D02*
X119746667Y-124684669D01*
X119746667Y-124684669D02*
X119686190Y-124866097D01*
X119686190Y-124866097D02*
X119565238Y-124987050D01*
X119565238Y-124987050D02*
X119383809Y-125047526D01*
X119383809Y-125047526D02*
X119262857Y-125047526D01*
X120230476Y-123777526D02*
X121016667Y-123777526D01*
X121016667Y-123777526D02*
X120593333Y-124261335D01*
X120593333Y-124261335D02*
X120774762Y-124261335D01*
X120774762Y-124261335D02*
X120895714Y-124321811D01*
X120895714Y-124321811D02*
X120956190Y-124382288D01*
X120956190Y-124382288D02*
X121016667Y-124503240D01*
X121016667Y-124503240D02*
X121016667Y-124805621D01*
X121016667Y-124805621D02*
X120956190Y-124926573D01*
X120956190Y-124926573D02*
X120895714Y-124987050D01*
X120895714Y-124987050D02*
X120774762Y-125047526D01*
X120774762Y-125047526D02*
X120411905Y-125047526D01*
X120411905Y-125047526D02*
X120290952Y-124987050D01*
X120290952Y-124987050D02*
X120230476Y-124926573D01*
%TO.C,J2*%
X170391667Y-123777526D02*
X170391667Y-124684669D01*
X170391667Y-124684669D02*
X170331190Y-124866097D01*
X170331190Y-124866097D02*
X170210238Y-124987050D01*
X170210238Y-124987050D02*
X170028809Y-125047526D01*
X170028809Y-125047526D02*
X169907857Y-125047526D01*
X170935952Y-123898478D02*
X170996428Y-123838002D01*
X170996428Y-123838002D02*
X171117381Y-123777526D01*
X171117381Y-123777526D02*
X171419762Y-123777526D01*
X171419762Y-123777526D02*
X171540714Y-123838002D01*
X171540714Y-123838002D02*
X171601190Y-123898478D01*
X171601190Y-123898478D02*
X171661667Y-124019430D01*
X171661667Y-124019430D02*
X171661667Y-124140383D01*
X171661667Y-124140383D02*
X171601190Y-124321811D01*
X171601190Y-124321811D02*
X170875476Y-125047526D01*
X170875476Y-125047526D02*
X171661667Y-125047526D01*
%TO.C,R54*%
X121745526Y-89871428D02*
X121140764Y-90294762D01*
X121745526Y-90597143D02*
X120475526Y-90597143D01*
X120475526Y-90597143D02*
X120475526Y-90113333D01*
X120475526Y-90113333D02*
X120536002Y-89992381D01*
X120536002Y-89992381D02*
X120596478Y-89931904D01*
X120596478Y-89931904D02*
X120717430Y-89871428D01*
X120717430Y-89871428D02*
X120898859Y-89871428D01*
X120898859Y-89871428D02*
X121019811Y-89931904D01*
X121019811Y-89931904D02*
X121080288Y-89992381D01*
X121080288Y-89992381D02*
X121140764Y-90113333D01*
X121140764Y-90113333D02*
X121140764Y-90597143D01*
X120475526Y-88722381D02*
X120475526Y-89327143D01*
X120475526Y-89327143D02*
X121080288Y-89387619D01*
X121080288Y-89387619D02*
X121019811Y-89327143D01*
X121019811Y-89327143D02*
X120959335Y-89206190D01*
X120959335Y-89206190D02*
X120959335Y-88903809D01*
X120959335Y-88903809D02*
X121019811Y-88782857D01*
X121019811Y-88782857D02*
X121080288Y-88722381D01*
X121080288Y-88722381D02*
X121201240Y-88661904D01*
X121201240Y-88661904D02*
X121503621Y-88661904D01*
X121503621Y-88661904D02*
X121624573Y-88722381D01*
X121624573Y-88722381D02*
X121685050Y-88782857D01*
X121685050Y-88782857D02*
X121745526Y-88903809D01*
X121745526Y-88903809D02*
X121745526Y-89206190D01*
X121745526Y-89206190D02*
X121685050Y-89327143D01*
X121685050Y-89327143D02*
X121624573Y-89387619D01*
X120898859Y-87573333D02*
X121745526Y-87573333D01*
X120415050Y-87875714D02*
X121322192Y-88178095D01*
X121322192Y-88178095D02*
X121322192Y-87391904D01*
%TO.C,R53*%
X129619526Y-89871428D02*
X129014764Y-90294762D01*
X129619526Y-90597143D02*
X128349526Y-90597143D01*
X128349526Y-90597143D02*
X128349526Y-90113333D01*
X128349526Y-90113333D02*
X128410002Y-89992381D01*
X128410002Y-89992381D02*
X128470478Y-89931904D01*
X128470478Y-89931904D02*
X128591430Y-89871428D01*
X128591430Y-89871428D02*
X128772859Y-89871428D01*
X128772859Y-89871428D02*
X128893811Y-89931904D01*
X128893811Y-89931904D02*
X128954288Y-89992381D01*
X128954288Y-89992381D02*
X129014764Y-90113333D01*
X129014764Y-90113333D02*
X129014764Y-90597143D01*
X128349526Y-88722381D02*
X128349526Y-89327143D01*
X128349526Y-89327143D02*
X128954288Y-89387619D01*
X128954288Y-89387619D02*
X128893811Y-89327143D01*
X128893811Y-89327143D02*
X128833335Y-89206190D01*
X128833335Y-89206190D02*
X128833335Y-88903809D01*
X128833335Y-88903809D02*
X128893811Y-88782857D01*
X128893811Y-88782857D02*
X128954288Y-88722381D01*
X128954288Y-88722381D02*
X129075240Y-88661904D01*
X129075240Y-88661904D02*
X129377621Y-88661904D01*
X129377621Y-88661904D02*
X129498573Y-88722381D01*
X129498573Y-88722381D02*
X129559050Y-88782857D01*
X129559050Y-88782857D02*
X129619526Y-88903809D01*
X129619526Y-88903809D02*
X129619526Y-89206190D01*
X129619526Y-89206190D02*
X129559050Y-89327143D01*
X129559050Y-89327143D02*
X129498573Y-89387619D01*
X128349526Y-88238571D02*
X128349526Y-87452380D01*
X128349526Y-87452380D02*
X128833335Y-87875714D01*
X128833335Y-87875714D02*
X128833335Y-87694285D01*
X128833335Y-87694285D02*
X128893811Y-87573333D01*
X128893811Y-87573333D02*
X128954288Y-87512857D01*
X128954288Y-87512857D02*
X129075240Y-87452380D01*
X129075240Y-87452380D02*
X129377621Y-87452380D01*
X129377621Y-87452380D02*
X129498573Y-87512857D01*
X129498573Y-87512857D02*
X129559050Y-87573333D01*
X129559050Y-87573333D02*
X129619526Y-87694285D01*
X129619526Y-87694285D02*
X129619526Y-88057142D01*
X129619526Y-88057142D02*
X129559050Y-88178095D01*
X129559050Y-88178095D02*
X129498573Y-88238571D01*
%TO.C,R52*%
X137493526Y-89895428D02*
X136888764Y-90318762D01*
X137493526Y-90621143D02*
X136223526Y-90621143D01*
X136223526Y-90621143D02*
X136223526Y-90137333D01*
X136223526Y-90137333D02*
X136284002Y-90016381D01*
X136284002Y-90016381D02*
X136344478Y-89955904D01*
X136344478Y-89955904D02*
X136465430Y-89895428D01*
X136465430Y-89895428D02*
X136646859Y-89895428D01*
X136646859Y-89895428D02*
X136767811Y-89955904D01*
X136767811Y-89955904D02*
X136828288Y-90016381D01*
X136828288Y-90016381D02*
X136888764Y-90137333D01*
X136888764Y-90137333D02*
X136888764Y-90621143D01*
X136223526Y-88746381D02*
X136223526Y-89351143D01*
X136223526Y-89351143D02*
X136828288Y-89411619D01*
X136828288Y-89411619D02*
X136767811Y-89351143D01*
X136767811Y-89351143D02*
X136707335Y-89230190D01*
X136707335Y-89230190D02*
X136707335Y-88927809D01*
X136707335Y-88927809D02*
X136767811Y-88806857D01*
X136767811Y-88806857D02*
X136828288Y-88746381D01*
X136828288Y-88746381D02*
X136949240Y-88685904D01*
X136949240Y-88685904D02*
X137251621Y-88685904D01*
X137251621Y-88685904D02*
X137372573Y-88746381D01*
X137372573Y-88746381D02*
X137433050Y-88806857D01*
X137433050Y-88806857D02*
X137493526Y-88927809D01*
X137493526Y-88927809D02*
X137493526Y-89230190D01*
X137493526Y-89230190D02*
X137433050Y-89351143D01*
X137433050Y-89351143D02*
X137372573Y-89411619D01*
X136344478Y-88202095D02*
X136284002Y-88141619D01*
X136284002Y-88141619D02*
X136223526Y-88020666D01*
X136223526Y-88020666D02*
X136223526Y-87718285D01*
X136223526Y-87718285D02*
X136284002Y-87597333D01*
X136284002Y-87597333D02*
X136344478Y-87536857D01*
X136344478Y-87536857D02*
X136465430Y-87476380D01*
X136465430Y-87476380D02*
X136586383Y-87476380D01*
X136586383Y-87476380D02*
X136767811Y-87536857D01*
X136767811Y-87536857D02*
X137493526Y-88262571D01*
X137493526Y-88262571D02*
X137493526Y-87476380D01*
%TO.C,R51*%
X145367526Y-89895428D02*
X144762764Y-90318762D01*
X145367526Y-90621143D02*
X144097526Y-90621143D01*
X144097526Y-90621143D02*
X144097526Y-90137333D01*
X144097526Y-90137333D02*
X144158002Y-90016381D01*
X144158002Y-90016381D02*
X144218478Y-89955904D01*
X144218478Y-89955904D02*
X144339430Y-89895428D01*
X144339430Y-89895428D02*
X144520859Y-89895428D01*
X144520859Y-89895428D02*
X144641811Y-89955904D01*
X144641811Y-89955904D02*
X144702288Y-90016381D01*
X144702288Y-90016381D02*
X144762764Y-90137333D01*
X144762764Y-90137333D02*
X144762764Y-90621143D01*
X144097526Y-88746381D02*
X144097526Y-89351143D01*
X144097526Y-89351143D02*
X144702288Y-89411619D01*
X144702288Y-89411619D02*
X144641811Y-89351143D01*
X144641811Y-89351143D02*
X144581335Y-89230190D01*
X144581335Y-89230190D02*
X144581335Y-88927809D01*
X144581335Y-88927809D02*
X144641811Y-88806857D01*
X144641811Y-88806857D02*
X144702288Y-88746381D01*
X144702288Y-88746381D02*
X144823240Y-88685904D01*
X144823240Y-88685904D02*
X145125621Y-88685904D01*
X145125621Y-88685904D02*
X145246573Y-88746381D01*
X145246573Y-88746381D02*
X145307050Y-88806857D01*
X145307050Y-88806857D02*
X145367526Y-88927809D01*
X145367526Y-88927809D02*
X145367526Y-89230190D01*
X145367526Y-89230190D02*
X145307050Y-89351143D01*
X145307050Y-89351143D02*
X145246573Y-89411619D01*
X145367526Y-87476380D02*
X145367526Y-88202095D01*
X145367526Y-87839238D02*
X144097526Y-87839238D01*
X144097526Y-87839238D02*
X144278954Y-87960190D01*
X144278954Y-87960190D02*
X144399907Y-88081142D01*
X144399907Y-88081142D02*
X144460383Y-88202095D01*
%TO.C,R50*%
X153241526Y-89819428D02*
X152636764Y-90242762D01*
X153241526Y-90545143D02*
X151971526Y-90545143D01*
X151971526Y-90545143D02*
X151971526Y-90061333D01*
X151971526Y-90061333D02*
X152032002Y-89940381D01*
X152032002Y-89940381D02*
X152092478Y-89879904D01*
X152092478Y-89879904D02*
X152213430Y-89819428D01*
X152213430Y-89819428D02*
X152394859Y-89819428D01*
X152394859Y-89819428D02*
X152515811Y-89879904D01*
X152515811Y-89879904D02*
X152576288Y-89940381D01*
X152576288Y-89940381D02*
X152636764Y-90061333D01*
X152636764Y-90061333D02*
X152636764Y-90545143D01*
X151971526Y-88670381D02*
X151971526Y-89275143D01*
X151971526Y-89275143D02*
X152576288Y-89335619D01*
X152576288Y-89335619D02*
X152515811Y-89275143D01*
X152515811Y-89275143D02*
X152455335Y-89154190D01*
X152455335Y-89154190D02*
X152455335Y-88851809D01*
X152455335Y-88851809D02*
X152515811Y-88730857D01*
X152515811Y-88730857D02*
X152576288Y-88670381D01*
X152576288Y-88670381D02*
X152697240Y-88609904D01*
X152697240Y-88609904D02*
X152999621Y-88609904D01*
X152999621Y-88609904D02*
X153120573Y-88670381D01*
X153120573Y-88670381D02*
X153181050Y-88730857D01*
X153181050Y-88730857D02*
X153241526Y-88851809D01*
X153241526Y-88851809D02*
X153241526Y-89154190D01*
X153241526Y-89154190D02*
X153181050Y-89275143D01*
X153181050Y-89275143D02*
X153120573Y-89335619D01*
X151971526Y-87823714D02*
X151971526Y-87702761D01*
X151971526Y-87702761D02*
X152032002Y-87581809D01*
X152032002Y-87581809D02*
X152092478Y-87521333D01*
X152092478Y-87521333D02*
X152213430Y-87460857D01*
X152213430Y-87460857D02*
X152455335Y-87400380D01*
X152455335Y-87400380D02*
X152757716Y-87400380D01*
X152757716Y-87400380D02*
X152999621Y-87460857D01*
X152999621Y-87460857D02*
X153120573Y-87521333D01*
X153120573Y-87521333D02*
X153181050Y-87581809D01*
X153181050Y-87581809D02*
X153241526Y-87702761D01*
X153241526Y-87702761D02*
X153241526Y-87823714D01*
X153241526Y-87823714D02*
X153181050Y-87944666D01*
X153181050Y-87944666D02*
X153120573Y-88005142D01*
X153120573Y-88005142D02*
X152999621Y-88065619D01*
X152999621Y-88065619D02*
X152757716Y-88126095D01*
X152757716Y-88126095D02*
X152455335Y-88126095D01*
X152455335Y-88126095D02*
X152213430Y-88065619D01*
X152213430Y-88065619D02*
X152092478Y-88005142D01*
X152092478Y-88005142D02*
X152032002Y-87944666D01*
X152032002Y-87944666D02*
X151971526Y-87823714D01*
%TO.C,R49*%
X161115526Y-89819428D02*
X160510764Y-90242762D01*
X161115526Y-90545143D02*
X159845526Y-90545143D01*
X159845526Y-90545143D02*
X159845526Y-90061333D01*
X159845526Y-90061333D02*
X159906002Y-89940381D01*
X159906002Y-89940381D02*
X159966478Y-89879904D01*
X159966478Y-89879904D02*
X160087430Y-89819428D01*
X160087430Y-89819428D02*
X160268859Y-89819428D01*
X160268859Y-89819428D02*
X160389811Y-89879904D01*
X160389811Y-89879904D02*
X160450288Y-89940381D01*
X160450288Y-89940381D02*
X160510764Y-90061333D01*
X160510764Y-90061333D02*
X160510764Y-90545143D01*
X160268859Y-88730857D02*
X161115526Y-88730857D01*
X159785050Y-89033238D02*
X160692192Y-89335619D01*
X160692192Y-89335619D02*
X160692192Y-88549428D01*
X161115526Y-88005142D02*
X161115526Y-87763238D01*
X161115526Y-87763238D02*
X161055050Y-87642285D01*
X161055050Y-87642285D02*
X160994573Y-87581809D01*
X160994573Y-87581809D02*
X160813145Y-87460857D01*
X160813145Y-87460857D02*
X160571240Y-87400380D01*
X160571240Y-87400380D02*
X160087430Y-87400380D01*
X160087430Y-87400380D02*
X159966478Y-87460857D01*
X159966478Y-87460857D02*
X159906002Y-87521333D01*
X159906002Y-87521333D02*
X159845526Y-87642285D01*
X159845526Y-87642285D02*
X159845526Y-87884190D01*
X159845526Y-87884190D02*
X159906002Y-88005142D01*
X159906002Y-88005142D02*
X159966478Y-88065619D01*
X159966478Y-88065619D02*
X160087430Y-88126095D01*
X160087430Y-88126095D02*
X160389811Y-88126095D01*
X160389811Y-88126095D02*
X160510764Y-88065619D01*
X160510764Y-88065619D02*
X160571240Y-88005142D01*
X160571240Y-88005142D02*
X160631716Y-87884190D01*
X160631716Y-87884190D02*
X160631716Y-87642285D01*
X160631716Y-87642285D02*
X160571240Y-87521333D01*
X160571240Y-87521333D02*
X160510764Y-87460857D01*
X160510764Y-87460857D02*
X160389811Y-87400380D01*
%TO.C,R48*%
X162131526Y-109730428D02*
X161526764Y-110153762D01*
X162131526Y-110456143D02*
X160861526Y-110456143D01*
X160861526Y-110456143D02*
X160861526Y-109972333D01*
X160861526Y-109972333D02*
X160922002Y-109851381D01*
X160922002Y-109851381D02*
X160982478Y-109790904D01*
X160982478Y-109790904D02*
X161103430Y-109730428D01*
X161103430Y-109730428D02*
X161284859Y-109730428D01*
X161284859Y-109730428D02*
X161405811Y-109790904D01*
X161405811Y-109790904D02*
X161466288Y-109851381D01*
X161466288Y-109851381D02*
X161526764Y-109972333D01*
X161526764Y-109972333D02*
X161526764Y-110456143D01*
X161284859Y-108641857D02*
X162131526Y-108641857D01*
X160801050Y-108944238D02*
X161708192Y-109246619D01*
X161708192Y-109246619D02*
X161708192Y-108460428D01*
X161405811Y-107795190D02*
X161345335Y-107916142D01*
X161345335Y-107916142D02*
X161284859Y-107976619D01*
X161284859Y-107976619D02*
X161163907Y-108037095D01*
X161163907Y-108037095D02*
X161103430Y-108037095D01*
X161103430Y-108037095D02*
X160982478Y-107976619D01*
X160982478Y-107976619D02*
X160922002Y-107916142D01*
X160922002Y-107916142D02*
X160861526Y-107795190D01*
X160861526Y-107795190D02*
X160861526Y-107553285D01*
X160861526Y-107553285D02*
X160922002Y-107432333D01*
X160922002Y-107432333D02*
X160982478Y-107371857D01*
X160982478Y-107371857D02*
X161103430Y-107311380D01*
X161103430Y-107311380D02*
X161163907Y-107311380D01*
X161163907Y-107311380D02*
X161284859Y-107371857D01*
X161284859Y-107371857D02*
X161345335Y-107432333D01*
X161345335Y-107432333D02*
X161405811Y-107553285D01*
X161405811Y-107553285D02*
X161405811Y-107795190D01*
X161405811Y-107795190D02*
X161466288Y-107916142D01*
X161466288Y-107916142D02*
X161526764Y-107976619D01*
X161526764Y-107976619D02*
X161647716Y-108037095D01*
X161647716Y-108037095D02*
X161889621Y-108037095D01*
X161889621Y-108037095D02*
X162010573Y-107976619D01*
X162010573Y-107976619D02*
X162071050Y-107916142D01*
X162071050Y-107916142D02*
X162131526Y-107795190D01*
X162131526Y-107795190D02*
X162131526Y-107553285D01*
X162131526Y-107553285D02*
X162071050Y-107432333D01*
X162071050Y-107432333D02*
X162010573Y-107371857D01*
X162010573Y-107371857D02*
X161889621Y-107311380D01*
X161889621Y-107311380D02*
X161647716Y-107311380D01*
X161647716Y-107311380D02*
X161526764Y-107371857D01*
X161526764Y-107371857D02*
X161466288Y-107432333D01*
X161466288Y-107432333D02*
X161405811Y-107553285D01*
%TO.C,R47*%
X170005526Y-109782428D02*
X169400764Y-110205762D01*
X170005526Y-110508143D02*
X168735526Y-110508143D01*
X168735526Y-110508143D02*
X168735526Y-110024333D01*
X168735526Y-110024333D02*
X168796002Y-109903381D01*
X168796002Y-109903381D02*
X168856478Y-109842904D01*
X168856478Y-109842904D02*
X168977430Y-109782428D01*
X168977430Y-109782428D02*
X169158859Y-109782428D01*
X169158859Y-109782428D02*
X169279811Y-109842904D01*
X169279811Y-109842904D02*
X169340288Y-109903381D01*
X169340288Y-109903381D02*
X169400764Y-110024333D01*
X169400764Y-110024333D02*
X169400764Y-110508143D01*
X169158859Y-108693857D02*
X170005526Y-108693857D01*
X168675050Y-108996238D02*
X169582192Y-109298619D01*
X169582192Y-109298619D02*
X169582192Y-108512428D01*
X168735526Y-108149571D02*
X168735526Y-107302904D01*
X168735526Y-107302904D02*
X170005526Y-107847190D01*
%TO.C,R46*%
X90239526Y-89843428D02*
X89634764Y-90266762D01*
X90239526Y-90569143D02*
X88969526Y-90569143D01*
X88969526Y-90569143D02*
X88969526Y-90085333D01*
X88969526Y-90085333D02*
X89030002Y-89964381D01*
X89030002Y-89964381D02*
X89090478Y-89903904D01*
X89090478Y-89903904D02*
X89211430Y-89843428D01*
X89211430Y-89843428D02*
X89392859Y-89843428D01*
X89392859Y-89843428D02*
X89513811Y-89903904D01*
X89513811Y-89903904D02*
X89574288Y-89964381D01*
X89574288Y-89964381D02*
X89634764Y-90085333D01*
X89634764Y-90085333D02*
X89634764Y-90569143D01*
X89392859Y-88754857D02*
X90239526Y-88754857D01*
X88909050Y-89057238D02*
X89816192Y-89359619D01*
X89816192Y-89359619D02*
X89816192Y-88573428D01*
X88969526Y-87545333D02*
X88969526Y-87787238D01*
X88969526Y-87787238D02*
X89030002Y-87908190D01*
X89030002Y-87908190D02*
X89090478Y-87968666D01*
X89090478Y-87968666D02*
X89271907Y-88089619D01*
X89271907Y-88089619D02*
X89513811Y-88150095D01*
X89513811Y-88150095D02*
X89997621Y-88150095D01*
X89997621Y-88150095D02*
X90118573Y-88089619D01*
X90118573Y-88089619D02*
X90179050Y-88029142D01*
X90179050Y-88029142D02*
X90239526Y-87908190D01*
X90239526Y-87908190D02*
X90239526Y-87666285D01*
X90239526Y-87666285D02*
X90179050Y-87545333D01*
X90179050Y-87545333D02*
X90118573Y-87484857D01*
X90118573Y-87484857D02*
X89997621Y-87424380D01*
X89997621Y-87424380D02*
X89695240Y-87424380D01*
X89695240Y-87424380D02*
X89574288Y-87484857D01*
X89574288Y-87484857D02*
X89513811Y-87545333D01*
X89513811Y-87545333D02*
X89453335Y-87666285D01*
X89453335Y-87666285D02*
X89453335Y-87908190D01*
X89453335Y-87908190D02*
X89513811Y-88029142D01*
X89513811Y-88029142D02*
X89574288Y-88089619D01*
X89574288Y-88089619D02*
X89695240Y-88150095D01*
%TO.C,R45*%
X98123526Y-89843428D02*
X97518764Y-90266762D01*
X98123526Y-90569143D02*
X96853526Y-90569143D01*
X96853526Y-90569143D02*
X96853526Y-90085333D01*
X96853526Y-90085333D02*
X96914002Y-89964381D01*
X96914002Y-89964381D02*
X96974478Y-89903904D01*
X96974478Y-89903904D02*
X97095430Y-89843428D01*
X97095430Y-89843428D02*
X97276859Y-89843428D01*
X97276859Y-89843428D02*
X97397811Y-89903904D01*
X97397811Y-89903904D02*
X97458288Y-89964381D01*
X97458288Y-89964381D02*
X97518764Y-90085333D01*
X97518764Y-90085333D02*
X97518764Y-90569143D01*
X97276859Y-88754857D02*
X98123526Y-88754857D01*
X96793050Y-89057238D02*
X97700192Y-89359619D01*
X97700192Y-89359619D02*
X97700192Y-88573428D01*
X96853526Y-87484857D02*
X96853526Y-88089619D01*
X96853526Y-88089619D02*
X97458288Y-88150095D01*
X97458288Y-88150095D02*
X97397811Y-88089619D01*
X97397811Y-88089619D02*
X97337335Y-87968666D01*
X97337335Y-87968666D02*
X97337335Y-87666285D01*
X97337335Y-87666285D02*
X97397811Y-87545333D01*
X97397811Y-87545333D02*
X97458288Y-87484857D01*
X97458288Y-87484857D02*
X97579240Y-87424380D01*
X97579240Y-87424380D02*
X97881621Y-87424380D01*
X97881621Y-87424380D02*
X98002573Y-87484857D01*
X98002573Y-87484857D02*
X98063050Y-87545333D01*
X98063050Y-87545333D02*
X98123526Y-87666285D01*
X98123526Y-87666285D02*
X98123526Y-87968666D01*
X98123526Y-87968666D02*
X98063050Y-88089619D01*
X98063050Y-88089619D02*
X98002573Y-88150095D01*
%TO.C,R44*%
X106036526Y-89843428D02*
X105431764Y-90266762D01*
X106036526Y-90569143D02*
X104766526Y-90569143D01*
X104766526Y-90569143D02*
X104766526Y-90085333D01*
X104766526Y-90085333D02*
X104827002Y-89964381D01*
X104827002Y-89964381D02*
X104887478Y-89903904D01*
X104887478Y-89903904D02*
X105008430Y-89843428D01*
X105008430Y-89843428D02*
X105189859Y-89843428D01*
X105189859Y-89843428D02*
X105310811Y-89903904D01*
X105310811Y-89903904D02*
X105371288Y-89964381D01*
X105371288Y-89964381D02*
X105431764Y-90085333D01*
X105431764Y-90085333D02*
X105431764Y-90569143D01*
X105189859Y-88754857D02*
X106036526Y-88754857D01*
X104706050Y-89057238D02*
X105613192Y-89359619D01*
X105613192Y-89359619D02*
X105613192Y-88573428D01*
X105189859Y-87545333D02*
X106036526Y-87545333D01*
X104706050Y-87847714D02*
X105613192Y-88150095D01*
X105613192Y-88150095D02*
X105613192Y-87363904D01*
%TO.C,R43*%
X113871526Y-89843428D02*
X113266764Y-90266762D01*
X113871526Y-90569143D02*
X112601526Y-90569143D01*
X112601526Y-90569143D02*
X112601526Y-90085333D01*
X112601526Y-90085333D02*
X112662002Y-89964381D01*
X112662002Y-89964381D02*
X112722478Y-89903904D01*
X112722478Y-89903904D02*
X112843430Y-89843428D01*
X112843430Y-89843428D02*
X113024859Y-89843428D01*
X113024859Y-89843428D02*
X113145811Y-89903904D01*
X113145811Y-89903904D02*
X113206288Y-89964381D01*
X113206288Y-89964381D02*
X113266764Y-90085333D01*
X113266764Y-90085333D02*
X113266764Y-90569143D01*
X113024859Y-88754857D02*
X113871526Y-88754857D01*
X112541050Y-89057238D02*
X113448192Y-89359619D01*
X113448192Y-89359619D02*
X113448192Y-88573428D01*
X112601526Y-88210571D02*
X112601526Y-87424380D01*
X112601526Y-87424380D02*
X113085335Y-87847714D01*
X113085335Y-87847714D02*
X113085335Y-87666285D01*
X113085335Y-87666285D02*
X113145811Y-87545333D01*
X113145811Y-87545333D02*
X113206288Y-87484857D01*
X113206288Y-87484857D02*
X113327240Y-87424380D01*
X113327240Y-87424380D02*
X113629621Y-87424380D01*
X113629621Y-87424380D02*
X113750573Y-87484857D01*
X113750573Y-87484857D02*
X113811050Y-87545333D01*
X113811050Y-87545333D02*
X113871526Y-87666285D01*
X113871526Y-87666285D02*
X113871526Y-88029142D01*
X113871526Y-88029142D02*
X113811050Y-88150095D01*
X113811050Y-88150095D02*
X113750573Y-88210571D01*
%TO.C,R42*%
X114760526Y-109782428D02*
X114155764Y-110205762D01*
X114760526Y-110508143D02*
X113490526Y-110508143D01*
X113490526Y-110508143D02*
X113490526Y-110024333D01*
X113490526Y-110024333D02*
X113551002Y-109903381D01*
X113551002Y-109903381D02*
X113611478Y-109842904D01*
X113611478Y-109842904D02*
X113732430Y-109782428D01*
X113732430Y-109782428D02*
X113913859Y-109782428D01*
X113913859Y-109782428D02*
X114034811Y-109842904D01*
X114034811Y-109842904D02*
X114095288Y-109903381D01*
X114095288Y-109903381D02*
X114155764Y-110024333D01*
X114155764Y-110024333D02*
X114155764Y-110508143D01*
X113913859Y-108693857D02*
X114760526Y-108693857D01*
X113430050Y-108996238D02*
X114337192Y-109298619D01*
X114337192Y-109298619D02*
X114337192Y-108512428D01*
X113611478Y-108089095D02*
X113551002Y-108028619D01*
X113551002Y-108028619D02*
X113490526Y-107907666D01*
X113490526Y-107907666D02*
X113490526Y-107605285D01*
X113490526Y-107605285D02*
X113551002Y-107484333D01*
X113551002Y-107484333D02*
X113611478Y-107423857D01*
X113611478Y-107423857D02*
X113732430Y-107363380D01*
X113732430Y-107363380D02*
X113853383Y-107363380D01*
X113853383Y-107363380D02*
X114034811Y-107423857D01*
X114034811Y-107423857D02*
X114760526Y-108149571D01*
X114760526Y-108149571D02*
X114760526Y-107363380D01*
%TO.C,R41*%
X122634526Y-109782428D02*
X122029764Y-110205762D01*
X122634526Y-110508143D02*
X121364526Y-110508143D01*
X121364526Y-110508143D02*
X121364526Y-110024333D01*
X121364526Y-110024333D02*
X121425002Y-109903381D01*
X121425002Y-109903381D02*
X121485478Y-109842904D01*
X121485478Y-109842904D02*
X121606430Y-109782428D01*
X121606430Y-109782428D02*
X121787859Y-109782428D01*
X121787859Y-109782428D02*
X121908811Y-109842904D01*
X121908811Y-109842904D02*
X121969288Y-109903381D01*
X121969288Y-109903381D02*
X122029764Y-110024333D01*
X122029764Y-110024333D02*
X122029764Y-110508143D01*
X121787859Y-108693857D02*
X122634526Y-108693857D01*
X121304050Y-108996238D02*
X122211192Y-109298619D01*
X122211192Y-109298619D02*
X122211192Y-108512428D01*
X122634526Y-107363380D02*
X122634526Y-108089095D01*
X122634526Y-107726238D02*
X121364526Y-107726238D01*
X121364526Y-107726238D02*
X121545954Y-107847190D01*
X121545954Y-107847190D02*
X121666907Y-107968142D01*
X121666907Y-107968142D02*
X121727383Y-108089095D01*
%TO.C,R40*%
X130635526Y-109758428D02*
X130030764Y-110181762D01*
X130635526Y-110484143D02*
X129365526Y-110484143D01*
X129365526Y-110484143D02*
X129365526Y-110000333D01*
X129365526Y-110000333D02*
X129426002Y-109879381D01*
X129426002Y-109879381D02*
X129486478Y-109818904D01*
X129486478Y-109818904D02*
X129607430Y-109758428D01*
X129607430Y-109758428D02*
X129788859Y-109758428D01*
X129788859Y-109758428D02*
X129909811Y-109818904D01*
X129909811Y-109818904D02*
X129970288Y-109879381D01*
X129970288Y-109879381D02*
X130030764Y-110000333D01*
X130030764Y-110000333D02*
X130030764Y-110484143D01*
X129788859Y-108669857D02*
X130635526Y-108669857D01*
X129305050Y-108972238D02*
X130212192Y-109274619D01*
X130212192Y-109274619D02*
X130212192Y-108488428D01*
X129365526Y-107762714D02*
X129365526Y-107641761D01*
X129365526Y-107641761D02*
X129426002Y-107520809D01*
X129426002Y-107520809D02*
X129486478Y-107460333D01*
X129486478Y-107460333D02*
X129607430Y-107399857D01*
X129607430Y-107399857D02*
X129849335Y-107339380D01*
X129849335Y-107339380D02*
X130151716Y-107339380D01*
X130151716Y-107339380D02*
X130393621Y-107399857D01*
X130393621Y-107399857D02*
X130514573Y-107460333D01*
X130514573Y-107460333D02*
X130575050Y-107520809D01*
X130575050Y-107520809D02*
X130635526Y-107641761D01*
X130635526Y-107641761D02*
X130635526Y-107762714D01*
X130635526Y-107762714D02*
X130575050Y-107883666D01*
X130575050Y-107883666D02*
X130514573Y-107944142D01*
X130514573Y-107944142D02*
X130393621Y-108004619D01*
X130393621Y-108004619D02*
X130151716Y-108065095D01*
X130151716Y-108065095D02*
X129849335Y-108065095D01*
X129849335Y-108065095D02*
X129607430Y-108004619D01*
X129607430Y-108004619D02*
X129486478Y-107944142D01*
X129486478Y-107944142D02*
X129426002Y-107883666D01*
X129426002Y-107883666D02*
X129365526Y-107762714D01*
%TO.C,R39*%
X138509526Y-109782428D02*
X137904764Y-110205762D01*
X138509526Y-110508143D02*
X137239526Y-110508143D01*
X137239526Y-110508143D02*
X137239526Y-110024333D01*
X137239526Y-110024333D02*
X137300002Y-109903381D01*
X137300002Y-109903381D02*
X137360478Y-109842904D01*
X137360478Y-109842904D02*
X137481430Y-109782428D01*
X137481430Y-109782428D02*
X137662859Y-109782428D01*
X137662859Y-109782428D02*
X137783811Y-109842904D01*
X137783811Y-109842904D02*
X137844288Y-109903381D01*
X137844288Y-109903381D02*
X137904764Y-110024333D01*
X137904764Y-110024333D02*
X137904764Y-110508143D01*
X137239526Y-109359095D02*
X137239526Y-108572904D01*
X137239526Y-108572904D02*
X137723335Y-108996238D01*
X137723335Y-108996238D02*
X137723335Y-108814809D01*
X137723335Y-108814809D02*
X137783811Y-108693857D01*
X137783811Y-108693857D02*
X137844288Y-108633381D01*
X137844288Y-108633381D02*
X137965240Y-108572904D01*
X137965240Y-108572904D02*
X138267621Y-108572904D01*
X138267621Y-108572904D02*
X138388573Y-108633381D01*
X138388573Y-108633381D02*
X138449050Y-108693857D01*
X138449050Y-108693857D02*
X138509526Y-108814809D01*
X138509526Y-108814809D02*
X138509526Y-109177666D01*
X138509526Y-109177666D02*
X138449050Y-109298619D01*
X138449050Y-109298619D02*
X138388573Y-109359095D01*
X138509526Y-107968142D02*
X138509526Y-107726238D01*
X138509526Y-107726238D02*
X138449050Y-107605285D01*
X138449050Y-107605285D02*
X138388573Y-107544809D01*
X138388573Y-107544809D02*
X138207145Y-107423857D01*
X138207145Y-107423857D02*
X137965240Y-107363380D01*
X137965240Y-107363380D02*
X137481430Y-107363380D01*
X137481430Y-107363380D02*
X137360478Y-107423857D01*
X137360478Y-107423857D02*
X137300002Y-107484333D01*
X137300002Y-107484333D02*
X137239526Y-107605285D01*
X137239526Y-107605285D02*
X137239526Y-107847190D01*
X137239526Y-107847190D02*
X137300002Y-107968142D01*
X137300002Y-107968142D02*
X137360478Y-108028619D01*
X137360478Y-108028619D02*
X137481430Y-108089095D01*
X137481430Y-108089095D02*
X137783811Y-108089095D01*
X137783811Y-108089095D02*
X137904764Y-108028619D01*
X137904764Y-108028619D02*
X137965240Y-107968142D01*
X137965240Y-107968142D02*
X138025716Y-107847190D01*
X138025716Y-107847190D02*
X138025716Y-107605285D01*
X138025716Y-107605285D02*
X137965240Y-107484333D01*
X137965240Y-107484333D02*
X137904764Y-107423857D01*
X137904764Y-107423857D02*
X137783811Y-107363380D01*
%TO.C,R38*%
X146383526Y-109782428D02*
X145778764Y-110205762D01*
X146383526Y-110508143D02*
X145113526Y-110508143D01*
X145113526Y-110508143D02*
X145113526Y-110024333D01*
X145113526Y-110024333D02*
X145174002Y-109903381D01*
X145174002Y-109903381D02*
X145234478Y-109842904D01*
X145234478Y-109842904D02*
X145355430Y-109782428D01*
X145355430Y-109782428D02*
X145536859Y-109782428D01*
X145536859Y-109782428D02*
X145657811Y-109842904D01*
X145657811Y-109842904D02*
X145718288Y-109903381D01*
X145718288Y-109903381D02*
X145778764Y-110024333D01*
X145778764Y-110024333D02*
X145778764Y-110508143D01*
X145113526Y-109359095D02*
X145113526Y-108572904D01*
X145113526Y-108572904D02*
X145597335Y-108996238D01*
X145597335Y-108996238D02*
X145597335Y-108814809D01*
X145597335Y-108814809D02*
X145657811Y-108693857D01*
X145657811Y-108693857D02*
X145718288Y-108633381D01*
X145718288Y-108633381D02*
X145839240Y-108572904D01*
X145839240Y-108572904D02*
X146141621Y-108572904D01*
X146141621Y-108572904D02*
X146262573Y-108633381D01*
X146262573Y-108633381D02*
X146323050Y-108693857D01*
X146323050Y-108693857D02*
X146383526Y-108814809D01*
X146383526Y-108814809D02*
X146383526Y-109177666D01*
X146383526Y-109177666D02*
X146323050Y-109298619D01*
X146323050Y-109298619D02*
X146262573Y-109359095D01*
X145657811Y-107847190D02*
X145597335Y-107968142D01*
X145597335Y-107968142D02*
X145536859Y-108028619D01*
X145536859Y-108028619D02*
X145415907Y-108089095D01*
X145415907Y-108089095D02*
X145355430Y-108089095D01*
X145355430Y-108089095D02*
X145234478Y-108028619D01*
X145234478Y-108028619D02*
X145174002Y-107968142D01*
X145174002Y-107968142D02*
X145113526Y-107847190D01*
X145113526Y-107847190D02*
X145113526Y-107605285D01*
X145113526Y-107605285D02*
X145174002Y-107484333D01*
X145174002Y-107484333D02*
X145234478Y-107423857D01*
X145234478Y-107423857D02*
X145355430Y-107363380D01*
X145355430Y-107363380D02*
X145415907Y-107363380D01*
X145415907Y-107363380D02*
X145536859Y-107423857D01*
X145536859Y-107423857D02*
X145597335Y-107484333D01*
X145597335Y-107484333D02*
X145657811Y-107605285D01*
X145657811Y-107605285D02*
X145657811Y-107847190D01*
X145657811Y-107847190D02*
X145718288Y-107968142D01*
X145718288Y-107968142D02*
X145778764Y-108028619D01*
X145778764Y-108028619D02*
X145899716Y-108089095D01*
X145899716Y-108089095D02*
X146141621Y-108089095D01*
X146141621Y-108089095D02*
X146262573Y-108028619D01*
X146262573Y-108028619D02*
X146323050Y-107968142D01*
X146323050Y-107968142D02*
X146383526Y-107847190D01*
X146383526Y-107847190D02*
X146383526Y-107605285D01*
X146383526Y-107605285D02*
X146323050Y-107484333D01*
X146323050Y-107484333D02*
X146262573Y-107423857D01*
X146262573Y-107423857D02*
X146141621Y-107363380D01*
X146141621Y-107363380D02*
X145899716Y-107363380D01*
X145899716Y-107363380D02*
X145778764Y-107423857D01*
X145778764Y-107423857D02*
X145718288Y-107484333D01*
X145718288Y-107484333D02*
X145657811Y-107605285D01*
%TO.C,R37*%
X154257526Y-109758428D02*
X153652764Y-110181762D01*
X154257526Y-110484143D02*
X152987526Y-110484143D01*
X152987526Y-110484143D02*
X152987526Y-110000333D01*
X152987526Y-110000333D02*
X153048002Y-109879381D01*
X153048002Y-109879381D02*
X153108478Y-109818904D01*
X153108478Y-109818904D02*
X153229430Y-109758428D01*
X153229430Y-109758428D02*
X153410859Y-109758428D01*
X153410859Y-109758428D02*
X153531811Y-109818904D01*
X153531811Y-109818904D02*
X153592288Y-109879381D01*
X153592288Y-109879381D02*
X153652764Y-110000333D01*
X153652764Y-110000333D02*
X153652764Y-110484143D01*
X152987526Y-109335095D02*
X152987526Y-108548904D01*
X152987526Y-108548904D02*
X153471335Y-108972238D01*
X153471335Y-108972238D02*
X153471335Y-108790809D01*
X153471335Y-108790809D02*
X153531811Y-108669857D01*
X153531811Y-108669857D02*
X153592288Y-108609381D01*
X153592288Y-108609381D02*
X153713240Y-108548904D01*
X153713240Y-108548904D02*
X154015621Y-108548904D01*
X154015621Y-108548904D02*
X154136573Y-108609381D01*
X154136573Y-108609381D02*
X154197050Y-108669857D01*
X154197050Y-108669857D02*
X154257526Y-108790809D01*
X154257526Y-108790809D02*
X154257526Y-109153666D01*
X154257526Y-109153666D02*
X154197050Y-109274619D01*
X154197050Y-109274619D02*
X154136573Y-109335095D01*
X152987526Y-108125571D02*
X152987526Y-107278904D01*
X152987526Y-107278904D02*
X154257526Y-107823190D01*
%TO.C,R30*%
X213915171Y-78514726D02*
X213491837Y-77909964D01*
X213189456Y-78514726D02*
X213189456Y-77244726D01*
X213189456Y-77244726D02*
X213673266Y-77244726D01*
X213673266Y-77244726D02*
X213794218Y-77305202D01*
X213794218Y-77305202D02*
X213854695Y-77365678D01*
X213854695Y-77365678D02*
X213915171Y-77486630D01*
X213915171Y-77486630D02*
X213915171Y-77668059D01*
X213915171Y-77668059D02*
X213854695Y-77789011D01*
X213854695Y-77789011D02*
X213794218Y-77849488D01*
X213794218Y-77849488D02*
X213673266Y-77909964D01*
X213673266Y-77909964D02*
X213189456Y-77909964D01*
X214338504Y-77244726D02*
X215124695Y-77244726D01*
X215124695Y-77244726D02*
X214701361Y-77728535D01*
X214701361Y-77728535D02*
X214882790Y-77728535D01*
X214882790Y-77728535D02*
X215003742Y-77789011D01*
X215003742Y-77789011D02*
X215064218Y-77849488D01*
X215064218Y-77849488D02*
X215124695Y-77970440D01*
X215124695Y-77970440D02*
X215124695Y-78272821D01*
X215124695Y-78272821D02*
X215064218Y-78393773D01*
X215064218Y-78393773D02*
X215003742Y-78454250D01*
X215003742Y-78454250D02*
X214882790Y-78514726D01*
X214882790Y-78514726D02*
X214519933Y-78514726D01*
X214519933Y-78514726D02*
X214398980Y-78454250D01*
X214398980Y-78454250D02*
X214338504Y-78393773D01*
X215910885Y-77244726D02*
X216031838Y-77244726D01*
X216031838Y-77244726D02*
X216152790Y-77305202D01*
X216152790Y-77305202D02*
X216213266Y-77365678D01*
X216213266Y-77365678D02*
X216273742Y-77486630D01*
X216273742Y-77486630D02*
X216334219Y-77728535D01*
X216334219Y-77728535D02*
X216334219Y-78030916D01*
X216334219Y-78030916D02*
X216273742Y-78272821D01*
X216273742Y-78272821D02*
X216213266Y-78393773D01*
X216213266Y-78393773D02*
X216152790Y-78454250D01*
X216152790Y-78454250D02*
X216031838Y-78514726D01*
X216031838Y-78514726D02*
X215910885Y-78514726D01*
X215910885Y-78514726D02*
X215789933Y-78454250D01*
X215789933Y-78454250D02*
X215729457Y-78393773D01*
X215729457Y-78393773D02*
X215668980Y-78272821D01*
X215668980Y-78272821D02*
X215608504Y-78030916D01*
X215608504Y-78030916D02*
X215608504Y-77728535D01*
X215608504Y-77728535D02*
X215668980Y-77486630D01*
X215668980Y-77486630D02*
X215729457Y-77365678D01*
X215729457Y-77365678D02*
X215789933Y-77305202D01*
X215789933Y-77305202D02*
X215910885Y-77244726D01*
%TO.C,R29*%
X208936771Y-78514726D02*
X208513437Y-77909964D01*
X208211056Y-78514726D02*
X208211056Y-77244726D01*
X208211056Y-77244726D02*
X208694866Y-77244726D01*
X208694866Y-77244726D02*
X208815818Y-77305202D01*
X208815818Y-77305202D02*
X208876295Y-77365678D01*
X208876295Y-77365678D02*
X208936771Y-77486630D01*
X208936771Y-77486630D02*
X208936771Y-77668059D01*
X208936771Y-77668059D02*
X208876295Y-77789011D01*
X208876295Y-77789011D02*
X208815818Y-77849488D01*
X208815818Y-77849488D02*
X208694866Y-77909964D01*
X208694866Y-77909964D02*
X208211056Y-77909964D01*
X209420580Y-77365678D02*
X209481056Y-77305202D01*
X209481056Y-77305202D02*
X209602009Y-77244726D01*
X209602009Y-77244726D02*
X209904390Y-77244726D01*
X209904390Y-77244726D02*
X210025342Y-77305202D01*
X210025342Y-77305202D02*
X210085818Y-77365678D01*
X210085818Y-77365678D02*
X210146295Y-77486630D01*
X210146295Y-77486630D02*
X210146295Y-77607583D01*
X210146295Y-77607583D02*
X210085818Y-77789011D01*
X210085818Y-77789011D02*
X209360104Y-78514726D01*
X209360104Y-78514726D02*
X210146295Y-78514726D01*
X210751057Y-78514726D02*
X210992961Y-78514726D01*
X210992961Y-78514726D02*
X211113914Y-78454250D01*
X211113914Y-78454250D02*
X211174390Y-78393773D01*
X211174390Y-78393773D02*
X211295342Y-78212345D01*
X211295342Y-78212345D02*
X211355819Y-77970440D01*
X211355819Y-77970440D02*
X211355819Y-77486630D01*
X211355819Y-77486630D02*
X211295342Y-77365678D01*
X211295342Y-77365678D02*
X211234866Y-77305202D01*
X211234866Y-77305202D02*
X211113914Y-77244726D01*
X211113914Y-77244726D02*
X210872009Y-77244726D01*
X210872009Y-77244726D02*
X210751057Y-77305202D01*
X210751057Y-77305202D02*
X210690580Y-77365678D01*
X210690580Y-77365678D02*
X210630104Y-77486630D01*
X210630104Y-77486630D02*
X210630104Y-77789011D01*
X210630104Y-77789011D02*
X210690580Y-77909964D01*
X210690580Y-77909964D02*
X210751057Y-77970440D01*
X210751057Y-77970440D02*
X210872009Y-78030916D01*
X210872009Y-78030916D02*
X211113914Y-78030916D01*
X211113914Y-78030916D02*
X211234866Y-77970440D01*
X211234866Y-77970440D02*
X211295342Y-77909964D01*
X211295342Y-77909964D02*
X211355819Y-77789011D01*
%TO.C,R25*%
X218842771Y-78514726D02*
X218419437Y-77909964D01*
X218117056Y-78514726D02*
X218117056Y-77244726D01*
X218117056Y-77244726D02*
X218600866Y-77244726D01*
X218600866Y-77244726D02*
X218721818Y-77305202D01*
X218721818Y-77305202D02*
X218782295Y-77365678D01*
X218782295Y-77365678D02*
X218842771Y-77486630D01*
X218842771Y-77486630D02*
X218842771Y-77668059D01*
X218842771Y-77668059D02*
X218782295Y-77789011D01*
X218782295Y-77789011D02*
X218721818Y-77849488D01*
X218721818Y-77849488D02*
X218600866Y-77909964D01*
X218600866Y-77909964D02*
X218117056Y-77909964D01*
X219326580Y-77365678D02*
X219387056Y-77305202D01*
X219387056Y-77305202D02*
X219508009Y-77244726D01*
X219508009Y-77244726D02*
X219810390Y-77244726D01*
X219810390Y-77244726D02*
X219931342Y-77305202D01*
X219931342Y-77305202D02*
X219991818Y-77365678D01*
X219991818Y-77365678D02*
X220052295Y-77486630D01*
X220052295Y-77486630D02*
X220052295Y-77607583D01*
X220052295Y-77607583D02*
X219991818Y-77789011D01*
X219991818Y-77789011D02*
X219266104Y-78514726D01*
X219266104Y-78514726D02*
X220052295Y-78514726D01*
X221201342Y-77244726D02*
X220596580Y-77244726D01*
X220596580Y-77244726D02*
X220536104Y-77849488D01*
X220536104Y-77849488D02*
X220596580Y-77789011D01*
X220596580Y-77789011D02*
X220717533Y-77728535D01*
X220717533Y-77728535D02*
X221019914Y-77728535D01*
X221019914Y-77728535D02*
X221140866Y-77789011D01*
X221140866Y-77789011D02*
X221201342Y-77849488D01*
X221201342Y-77849488D02*
X221261819Y-77970440D01*
X221261819Y-77970440D02*
X221261819Y-78272821D01*
X221261819Y-78272821D02*
X221201342Y-78393773D01*
X221201342Y-78393773D02*
X221140866Y-78454250D01*
X221140866Y-78454250D02*
X221019914Y-78514726D01*
X221019914Y-78514726D02*
X220717533Y-78514726D01*
X220717533Y-78514726D02*
X220596580Y-78454250D01*
X220596580Y-78454250D02*
X220536104Y-78393773D01*
%TO.C,R24*%
X197381253Y-116551141D02*
X197509543Y-115824168D01*
X196868096Y-116037983D02*
X197766122Y-115139958D01*
X197766122Y-115139958D02*
X198108227Y-115482063D01*
X198108227Y-115482063D02*
X198150990Y-115610352D01*
X198150990Y-115610352D02*
X198150990Y-115695878D01*
X198150990Y-115695878D02*
X198108227Y-115824168D01*
X198108227Y-115824168D02*
X197979937Y-115952457D01*
X197979937Y-115952457D02*
X197851648Y-115995220D01*
X197851648Y-115995220D02*
X197766122Y-115995220D01*
X197766122Y-115995220D02*
X197637832Y-115952457D01*
X197637832Y-115952457D02*
X197295727Y-115610352D01*
X198535858Y-116080747D02*
X198621384Y-116080747D01*
X198621384Y-116080747D02*
X198749673Y-116123510D01*
X198749673Y-116123510D02*
X198963489Y-116337325D01*
X198963489Y-116337325D02*
X199006252Y-116465615D01*
X199006252Y-116465615D02*
X199006252Y-116551141D01*
X199006252Y-116551141D02*
X198963489Y-116679430D01*
X198963489Y-116679430D02*
X198877963Y-116764957D01*
X198877963Y-116764957D02*
X198706910Y-116850483D01*
X198706910Y-116850483D02*
X197680595Y-116850483D01*
X197680595Y-116850483D02*
X198236516Y-117406403D01*
X199604936Y-117577456D02*
X199006252Y-118176140D01*
X199733225Y-117021535D02*
X198877963Y-117449167D01*
X198877963Y-117449167D02*
X199433884Y-118005087D01*
%TO.C,R23*%
X187277526Y-103178428D02*
X186672764Y-103601762D01*
X187277526Y-103904143D02*
X186007526Y-103904143D01*
X186007526Y-103904143D02*
X186007526Y-103420333D01*
X186007526Y-103420333D02*
X186068002Y-103299381D01*
X186068002Y-103299381D02*
X186128478Y-103238904D01*
X186128478Y-103238904D02*
X186249430Y-103178428D01*
X186249430Y-103178428D02*
X186430859Y-103178428D01*
X186430859Y-103178428D02*
X186551811Y-103238904D01*
X186551811Y-103238904D02*
X186612288Y-103299381D01*
X186612288Y-103299381D02*
X186672764Y-103420333D01*
X186672764Y-103420333D02*
X186672764Y-103904143D01*
X186128478Y-102694619D02*
X186068002Y-102634143D01*
X186068002Y-102634143D02*
X186007526Y-102513190D01*
X186007526Y-102513190D02*
X186007526Y-102210809D01*
X186007526Y-102210809D02*
X186068002Y-102089857D01*
X186068002Y-102089857D02*
X186128478Y-102029381D01*
X186128478Y-102029381D02*
X186249430Y-101968904D01*
X186249430Y-101968904D02*
X186370383Y-101968904D01*
X186370383Y-101968904D02*
X186551811Y-102029381D01*
X186551811Y-102029381D02*
X187277526Y-102755095D01*
X187277526Y-102755095D02*
X187277526Y-101968904D01*
X186007526Y-101545571D02*
X186007526Y-100759380D01*
X186007526Y-100759380D02*
X186491335Y-101182714D01*
X186491335Y-101182714D02*
X186491335Y-101001285D01*
X186491335Y-101001285D02*
X186551811Y-100880333D01*
X186551811Y-100880333D02*
X186612288Y-100819857D01*
X186612288Y-100819857D02*
X186733240Y-100759380D01*
X186733240Y-100759380D02*
X187035621Y-100759380D01*
X187035621Y-100759380D02*
X187156573Y-100819857D01*
X187156573Y-100819857D02*
X187217050Y-100880333D01*
X187217050Y-100880333D02*
X187277526Y-101001285D01*
X187277526Y-101001285D02*
X187277526Y-101364142D01*
X187277526Y-101364142D02*
X187217050Y-101485095D01*
X187217050Y-101485095D02*
X187156573Y-101545571D01*
%TO.C,R22*%
X195151526Y-103154428D02*
X194546764Y-103577762D01*
X195151526Y-103880143D02*
X193881526Y-103880143D01*
X193881526Y-103880143D02*
X193881526Y-103396333D01*
X193881526Y-103396333D02*
X193942002Y-103275381D01*
X193942002Y-103275381D02*
X194002478Y-103214904D01*
X194002478Y-103214904D02*
X194123430Y-103154428D01*
X194123430Y-103154428D02*
X194304859Y-103154428D01*
X194304859Y-103154428D02*
X194425811Y-103214904D01*
X194425811Y-103214904D02*
X194486288Y-103275381D01*
X194486288Y-103275381D02*
X194546764Y-103396333D01*
X194546764Y-103396333D02*
X194546764Y-103880143D01*
X194002478Y-102670619D02*
X193942002Y-102610143D01*
X193942002Y-102610143D02*
X193881526Y-102489190D01*
X193881526Y-102489190D02*
X193881526Y-102186809D01*
X193881526Y-102186809D02*
X193942002Y-102065857D01*
X193942002Y-102065857D02*
X194002478Y-102005381D01*
X194002478Y-102005381D02*
X194123430Y-101944904D01*
X194123430Y-101944904D02*
X194244383Y-101944904D01*
X194244383Y-101944904D02*
X194425811Y-102005381D01*
X194425811Y-102005381D02*
X195151526Y-102731095D01*
X195151526Y-102731095D02*
X195151526Y-101944904D01*
X194002478Y-101461095D02*
X193942002Y-101400619D01*
X193942002Y-101400619D02*
X193881526Y-101279666D01*
X193881526Y-101279666D02*
X193881526Y-100977285D01*
X193881526Y-100977285D02*
X193942002Y-100856333D01*
X193942002Y-100856333D02*
X194002478Y-100795857D01*
X194002478Y-100795857D02*
X194123430Y-100735380D01*
X194123430Y-100735380D02*
X194244383Y-100735380D01*
X194244383Y-100735380D02*
X194425811Y-100795857D01*
X194425811Y-100795857D02*
X195151526Y-101521571D01*
X195151526Y-101521571D02*
X195151526Y-100735380D01*
%TO.C,R21*%
X203025526Y-103154428D02*
X202420764Y-103577762D01*
X203025526Y-103880143D02*
X201755526Y-103880143D01*
X201755526Y-103880143D02*
X201755526Y-103396333D01*
X201755526Y-103396333D02*
X201816002Y-103275381D01*
X201816002Y-103275381D02*
X201876478Y-103214904D01*
X201876478Y-103214904D02*
X201997430Y-103154428D01*
X201997430Y-103154428D02*
X202178859Y-103154428D01*
X202178859Y-103154428D02*
X202299811Y-103214904D01*
X202299811Y-103214904D02*
X202360288Y-103275381D01*
X202360288Y-103275381D02*
X202420764Y-103396333D01*
X202420764Y-103396333D02*
X202420764Y-103880143D01*
X201876478Y-102670619D02*
X201816002Y-102610143D01*
X201816002Y-102610143D02*
X201755526Y-102489190D01*
X201755526Y-102489190D02*
X201755526Y-102186809D01*
X201755526Y-102186809D02*
X201816002Y-102065857D01*
X201816002Y-102065857D02*
X201876478Y-102005381D01*
X201876478Y-102005381D02*
X201997430Y-101944904D01*
X201997430Y-101944904D02*
X202118383Y-101944904D01*
X202118383Y-101944904D02*
X202299811Y-102005381D01*
X202299811Y-102005381D02*
X203025526Y-102731095D01*
X203025526Y-102731095D02*
X203025526Y-101944904D01*
X203025526Y-100735380D02*
X203025526Y-101461095D01*
X203025526Y-101098238D02*
X201755526Y-101098238D01*
X201755526Y-101098238D02*
X201936954Y-101219190D01*
X201936954Y-101219190D02*
X202057907Y-101340142D01*
X202057907Y-101340142D02*
X202118383Y-101461095D01*
%TO.C,R20*%
X99012526Y-109782428D02*
X98407764Y-110205762D01*
X99012526Y-110508143D02*
X97742526Y-110508143D01*
X97742526Y-110508143D02*
X97742526Y-110024333D01*
X97742526Y-110024333D02*
X97803002Y-109903381D01*
X97803002Y-109903381D02*
X97863478Y-109842904D01*
X97863478Y-109842904D02*
X97984430Y-109782428D01*
X97984430Y-109782428D02*
X98165859Y-109782428D01*
X98165859Y-109782428D02*
X98286811Y-109842904D01*
X98286811Y-109842904D02*
X98347288Y-109903381D01*
X98347288Y-109903381D02*
X98407764Y-110024333D01*
X98407764Y-110024333D02*
X98407764Y-110508143D01*
X97863478Y-109298619D02*
X97803002Y-109238143D01*
X97803002Y-109238143D02*
X97742526Y-109117190D01*
X97742526Y-109117190D02*
X97742526Y-108814809D01*
X97742526Y-108814809D02*
X97803002Y-108693857D01*
X97803002Y-108693857D02*
X97863478Y-108633381D01*
X97863478Y-108633381D02*
X97984430Y-108572904D01*
X97984430Y-108572904D02*
X98105383Y-108572904D01*
X98105383Y-108572904D02*
X98286811Y-108633381D01*
X98286811Y-108633381D02*
X99012526Y-109359095D01*
X99012526Y-109359095D02*
X99012526Y-108572904D01*
X97742526Y-107786714D02*
X97742526Y-107665761D01*
X97742526Y-107665761D02*
X97803002Y-107544809D01*
X97803002Y-107544809D02*
X97863478Y-107484333D01*
X97863478Y-107484333D02*
X97984430Y-107423857D01*
X97984430Y-107423857D02*
X98226335Y-107363380D01*
X98226335Y-107363380D02*
X98528716Y-107363380D01*
X98528716Y-107363380D02*
X98770621Y-107423857D01*
X98770621Y-107423857D02*
X98891573Y-107484333D01*
X98891573Y-107484333D02*
X98952050Y-107544809D01*
X98952050Y-107544809D02*
X99012526Y-107665761D01*
X99012526Y-107665761D02*
X99012526Y-107786714D01*
X99012526Y-107786714D02*
X98952050Y-107907666D01*
X98952050Y-107907666D02*
X98891573Y-107968142D01*
X98891573Y-107968142D02*
X98770621Y-108028619D01*
X98770621Y-108028619D02*
X98528716Y-108089095D01*
X98528716Y-108089095D02*
X98226335Y-108089095D01*
X98226335Y-108089095D02*
X97984430Y-108028619D01*
X97984430Y-108028619D02*
X97863478Y-107968142D01*
X97863478Y-107968142D02*
X97803002Y-107907666D01*
X97803002Y-107907666D02*
X97742526Y-107786714D01*
%TO.C,R19*%
X106886526Y-109782428D02*
X106281764Y-110205762D01*
X106886526Y-110508143D02*
X105616526Y-110508143D01*
X105616526Y-110508143D02*
X105616526Y-110024333D01*
X105616526Y-110024333D02*
X105677002Y-109903381D01*
X105677002Y-109903381D02*
X105737478Y-109842904D01*
X105737478Y-109842904D02*
X105858430Y-109782428D01*
X105858430Y-109782428D02*
X106039859Y-109782428D01*
X106039859Y-109782428D02*
X106160811Y-109842904D01*
X106160811Y-109842904D02*
X106221288Y-109903381D01*
X106221288Y-109903381D02*
X106281764Y-110024333D01*
X106281764Y-110024333D02*
X106281764Y-110508143D01*
X106886526Y-108572904D02*
X106886526Y-109298619D01*
X106886526Y-108935762D02*
X105616526Y-108935762D01*
X105616526Y-108935762D02*
X105797954Y-109056714D01*
X105797954Y-109056714D02*
X105918907Y-109177666D01*
X105918907Y-109177666D02*
X105979383Y-109298619D01*
X106886526Y-107968142D02*
X106886526Y-107726238D01*
X106886526Y-107726238D02*
X106826050Y-107605285D01*
X106826050Y-107605285D02*
X106765573Y-107544809D01*
X106765573Y-107544809D02*
X106584145Y-107423857D01*
X106584145Y-107423857D02*
X106342240Y-107363380D01*
X106342240Y-107363380D02*
X105858430Y-107363380D01*
X105858430Y-107363380D02*
X105737478Y-107423857D01*
X105737478Y-107423857D02*
X105677002Y-107484333D01*
X105677002Y-107484333D02*
X105616526Y-107605285D01*
X105616526Y-107605285D02*
X105616526Y-107847190D01*
X105616526Y-107847190D02*
X105677002Y-107968142D01*
X105677002Y-107968142D02*
X105737478Y-108028619D01*
X105737478Y-108028619D02*
X105858430Y-108089095D01*
X105858430Y-108089095D02*
X106160811Y-108089095D01*
X106160811Y-108089095D02*
X106281764Y-108028619D01*
X106281764Y-108028619D02*
X106342240Y-107968142D01*
X106342240Y-107968142D02*
X106402716Y-107847190D01*
X106402716Y-107847190D02*
X106402716Y-107605285D01*
X106402716Y-107605285D02*
X106342240Y-107484333D01*
X106342240Y-107484333D02*
X106281764Y-107423857D01*
X106281764Y-107423857D02*
X106160811Y-107363380D01*
%TO.C,R12*%
X188210371Y-78413126D02*
X187787037Y-77808364D01*
X187484656Y-78413126D02*
X187484656Y-77143126D01*
X187484656Y-77143126D02*
X187968466Y-77143126D01*
X187968466Y-77143126D02*
X188089418Y-77203602D01*
X188089418Y-77203602D02*
X188149895Y-77264078D01*
X188149895Y-77264078D02*
X188210371Y-77385030D01*
X188210371Y-77385030D02*
X188210371Y-77566459D01*
X188210371Y-77566459D02*
X188149895Y-77687411D01*
X188149895Y-77687411D02*
X188089418Y-77747888D01*
X188089418Y-77747888D02*
X187968466Y-77808364D01*
X187968466Y-77808364D02*
X187484656Y-77808364D01*
X189419895Y-78413126D02*
X188694180Y-78413126D01*
X189057037Y-78413126D02*
X189057037Y-77143126D01*
X189057037Y-77143126D02*
X188936085Y-77324554D01*
X188936085Y-77324554D02*
X188815133Y-77445507D01*
X188815133Y-77445507D02*
X188694180Y-77505983D01*
X189903704Y-77264078D02*
X189964180Y-77203602D01*
X189964180Y-77203602D02*
X190085133Y-77143126D01*
X190085133Y-77143126D02*
X190387514Y-77143126D01*
X190387514Y-77143126D02*
X190508466Y-77203602D01*
X190508466Y-77203602D02*
X190568942Y-77264078D01*
X190568942Y-77264078D02*
X190629419Y-77385030D01*
X190629419Y-77385030D02*
X190629419Y-77505983D01*
X190629419Y-77505983D02*
X190568942Y-77687411D01*
X190568942Y-77687411D02*
X189843228Y-78413126D01*
X189843228Y-78413126D02*
X190629419Y-78413126D01*
%TO.C,R11*%
X196084371Y-78667126D02*
X195661037Y-78062364D01*
X195358656Y-78667126D02*
X195358656Y-77397126D01*
X195358656Y-77397126D02*
X195842466Y-77397126D01*
X195842466Y-77397126D02*
X195963418Y-77457602D01*
X195963418Y-77457602D02*
X196023895Y-77518078D01*
X196023895Y-77518078D02*
X196084371Y-77639030D01*
X196084371Y-77639030D02*
X196084371Y-77820459D01*
X196084371Y-77820459D02*
X196023895Y-77941411D01*
X196023895Y-77941411D02*
X195963418Y-78001888D01*
X195963418Y-78001888D02*
X195842466Y-78062364D01*
X195842466Y-78062364D02*
X195358656Y-78062364D01*
X197293895Y-78667126D02*
X196568180Y-78667126D01*
X196931037Y-78667126D02*
X196931037Y-77397126D01*
X196931037Y-77397126D02*
X196810085Y-77578554D01*
X196810085Y-77578554D02*
X196689133Y-77699507D01*
X196689133Y-77699507D02*
X196568180Y-77759983D01*
X198503419Y-78667126D02*
X197777704Y-78667126D01*
X198140561Y-78667126D02*
X198140561Y-77397126D01*
X198140561Y-77397126D02*
X198019609Y-77578554D01*
X198019609Y-77578554D02*
X197898657Y-77699507D01*
X197898657Y-77699507D02*
X197777704Y-77759983D01*
%TO.C,R10*%
X203958371Y-78514726D02*
X203535037Y-77909964D01*
X203232656Y-78514726D02*
X203232656Y-77244726D01*
X203232656Y-77244726D02*
X203716466Y-77244726D01*
X203716466Y-77244726D02*
X203837418Y-77305202D01*
X203837418Y-77305202D02*
X203897895Y-77365678D01*
X203897895Y-77365678D02*
X203958371Y-77486630D01*
X203958371Y-77486630D02*
X203958371Y-77668059D01*
X203958371Y-77668059D02*
X203897895Y-77789011D01*
X203897895Y-77789011D02*
X203837418Y-77849488D01*
X203837418Y-77849488D02*
X203716466Y-77909964D01*
X203716466Y-77909964D02*
X203232656Y-77909964D01*
X205167895Y-78514726D02*
X204442180Y-78514726D01*
X204805037Y-78514726D02*
X204805037Y-77244726D01*
X204805037Y-77244726D02*
X204684085Y-77426154D01*
X204684085Y-77426154D02*
X204563133Y-77547107D01*
X204563133Y-77547107D02*
X204442180Y-77607583D01*
X205954085Y-77244726D02*
X206075038Y-77244726D01*
X206075038Y-77244726D02*
X206195990Y-77305202D01*
X206195990Y-77305202D02*
X206256466Y-77365678D01*
X206256466Y-77365678D02*
X206316942Y-77486630D01*
X206316942Y-77486630D02*
X206377419Y-77728535D01*
X206377419Y-77728535D02*
X206377419Y-78030916D01*
X206377419Y-78030916D02*
X206316942Y-78272821D01*
X206316942Y-78272821D02*
X206256466Y-78393773D01*
X206256466Y-78393773D02*
X206195990Y-78454250D01*
X206195990Y-78454250D02*
X206075038Y-78514726D01*
X206075038Y-78514726D02*
X205954085Y-78514726D01*
X205954085Y-78514726D02*
X205833133Y-78454250D01*
X205833133Y-78454250D02*
X205772657Y-78393773D01*
X205772657Y-78393773D02*
X205712180Y-78272821D01*
X205712180Y-78272821D02*
X205651704Y-78030916D01*
X205651704Y-78030916D02*
X205651704Y-77728535D01*
X205651704Y-77728535D02*
X205712180Y-77486630D01*
X205712180Y-77486630D02*
X205772657Y-77365678D01*
X205772657Y-77365678D02*
X205833133Y-77305202D01*
X205833133Y-77305202D02*
X205954085Y-77244726D01*
%TO.C,R8*%
X173016333Y-78413126D02*
X172592999Y-77808364D01*
X172290618Y-78413126D02*
X172290618Y-77143126D01*
X172290618Y-77143126D02*
X172774428Y-77143126D01*
X172774428Y-77143126D02*
X172895380Y-77203602D01*
X172895380Y-77203602D02*
X172955857Y-77264078D01*
X172955857Y-77264078D02*
X173016333Y-77385030D01*
X173016333Y-77385030D02*
X173016333Y-77566459D01*
X173016333Y-77566459D02*
X172955857Y-77687411D01*
X172955857Y-77687411D02*
X172895380Y-77747888D01*
X172895380Y-77747888D02*
X172774428Y-77808364D01*
X172774428Y-77808364D02*
X172290618Y-77808364D01*
X173742047Y-77687411D02*
X173621095Y-77626935D01*
X173621095Y-77626935D02*
X173560618Y-77566459D01*
X173560618Y-77566459D02*
X173500142Y-77445507D01*
X173500142Y-77445507D02*
X173500142Y-77385030D01*
X173500142Y-77385030D02*
X173560618Y-77264078D01*
X173560618Y-77264078D02*
X173621095Y-77203602D01*
X173621095Y-77203602D02*
X173742047Y-77143126D01*
X173742047Y-77143126D02*
X173983952Y-77143126D01*
X173983952Y-77143126D02*
X174104904Y-77203602D01*
X174104904Y-77203602D02*
X174165380Y-77264078D01*
X174165380Y-77264078D02*
X174225857Y-77385030D01*
X174225857Y-77385030D02*
X174225857Y-77445507D01*
X174225857Y-77445507D02*
X174165380Y-77566459D01*
X174165380Y-77566459D02*
X174104904Y-77626935D01*
X174104904Y-77626935D02*
X173983952Y-77687411D01*
X173983952Y-77687411D02*
X173742047Y-77687411D01*
X173742047Y-77687411D02*
X173621095Y-77747888D01*
X173621095Y-77747888D02*
X173560618Y-77808364D01*
X173560618Y-77808364D02*
X173500142Y-77929316D01*
X173500142Y-77929316D02*
X173500142Y-78171221D01*
X173500142Y-78171221D02*
X173560618Y-78292173D01*
X173560618Y-78292173D02*
X173621095Y-78352650D01*
X173621095Y-78352650D02*
X173742047Y-78413126D01*
X173742047Y-78413126D02*
X173983952Y-78413126D01*
X173983952Y-78413126D02*
X174104904Y-78352650D01*
X174104904Y-78352650D02*
X174165380Y-78292173D01*
X174165380Y-78292173D02*
X174225857Y-78171221D01*
X174225857Y-78171221D02*
X174225857Y-77929316D01*
X174225857Y-77929316D02*
X174165380Y-77808364D01*
X174165380Y-77808364D02*
X174104904Y-77747888D01*
X174104904Y-77747888D02*
X173983952Y-77687411D01*
%TO.C,R7*%
X180890333Y-78413126D02*
X180466999Y-77808364D01*
X180164618Y-78413126D02*
X180164618Y-77143126D01*
X180164618Y-77143126D02*
X180648428Y-77143126D01*
X180648428Y-77143126D02*
X180769380Y-77203602D01*
X180769380Y-77203602D02*
X180829857Y-77264078D01*
X180829857Y-77264078D02*
X180890333Y-77385030D01*
X180890333Y-77385030D02*
X180890333Y-77566459D01*
X180890333Y-77566459D02*
X180829857Y-77687411D01*
X180829857Y-77687411D02*
X180769380Y-77747888D01*
X180769380Y-77747888D02*
X180648428Y-77808364D01*
X180648428Y-77808364D02*
X180164618Y-77808364D01*
X181313666Y-77143126D02*
X182160333Y-77143126D01*
X182160333Y-77143126D02*
X181616047Y-78413126D01*
%TO.C,R6*%
X168989526Y-89238666D02*
X168384764Y-89662000D01*
X168989526Y-89964381D02*
X167719526Y-89964381D01*
X167719526Y-89964381D02*
X167719526Y-89480571D01*
X167719526Y-89480571D02*
X167780002Y-89359619D01*
X167780002Y-89359619D02*
X167840478Y-89299142D01*
X167840478Y-89299142D02*
X167961430Y-89238666D01*
X167961430Y-89238666D02*
X168142859Y-89238666D01*
X168142859Y-89238666D02*
X168263811Y-89299142D01*
X168263811Y-89299142D02*
X168324288Y-89359619D01*
X168324288Y-89359619D02*
X168384764Y-89480571D01*
X168384764Y-89480571D02*
X168384764Y-89964381D01*
X167719526Y-88150095D02*
X167719526Y-88392000D01*
X167719526Y-88392000D02*
X167780002Y-88512952D01*
X167780002Y-88512952D02*
X167840478Y-88573428D01*
X167840478Y-88573428D02*
X168021907Y-88694381D01*
X168021907Y-88694381D02*
X168263811Y-88754857D01*
X168263811Y-88754857D02*
X168747621Y-88754857D01*
X168747621Y-88754857D02*
X168868573Y-88694381D01*
X168868573Y-88694381D02*
X168929050Y-88633904D01*
X168929050Y-88633904D02*
X168989526Y-88512952D01*
X168989526Y-88512952D02*
X168989526Y-88271047D01*
X168989526Y-88271047D02*
X168929050Y-88150095D01*
X168929050Y-88150095D02*
X168868573Y-88089619D01*
X168868573Y-88089619D02*
X168747621Y-88029142D01*
X168747621Y-88029142D02*
X168445240Y-88029142D01*
X168445240Y-88029142D02*
X168324288Y-88089619D01*
X168324288Y-88089619D02*
X168263811Y-88150095D01*
X168263811Y-88150095D02*
X168203335Y-88271047D01*
X168203335Y-88271047D02*
X168203335Y-88512952D01*
X168203335Y-88512952D02*
X168263811Y-88633904D01*
X168263811Y-88633904D02*
X168324288Y-88694381D01*
X168324288Y-88694381D02*
X168445240Y-88754857D01*
%TO.C,R5*%
X176863526Y-89238666D02*
X176258764Y-89662000D01*
X176863526Y-89964381D02*
X175593526Y-89964381D01*
X175593526Y-89964381D02*
X175593526Y-89480571D01*
X175593526Y-89480571D02*
X175654002Y-89359619D01*
X175654002Y-89359619D02*
X175714478Y-89299142D01*
X175714478Y-89299142D02*
X175835430Y-89238666D01*
X175835430Y-89238666D02*
X176016859Y-89238666D01*
X176016859Y-89238666D02*
X176137811Y-89299142D01*
X176137811Y-89299142D02*
X176198288Y-89359619D01*
X176198288Y-89359619D02*
X176258764Y-89480571D01*
X176258764Y-89480571D02*
X176258764Y-89964381D01*
X175593526Y-88089619D02*
X175593526Y-88694381D01*
X175593526Y-88694381D02*
X176198288Y-88754857D01*
X176198288Y-88754857D02*
X176137811Y-88694381D01*
X176137811Y-88694381D02*
X176077335Y-88573428D01*
X176077335Y-88573428D02*
X176077335Y-88271047D01*
X176077335Y-88271047D02*
X176137811Y-88150095D01*
X176137811Y-88150095D02*
X176198288Y-88089619D01*
X176198288Y-88089619D02*
X176319240Y-88029142D01*
X176319240Y-88029142D02*
X176621621Y-88029142D01*
X176621621Y-88029142D02*
X176742573Y-88089619D01*
X176742573Y-88089619D02*
X176803050Y-88150095D01*
X176803050Y-88150095D02*
X176863526Y-88271047D01*
X176863526Y-88271047D02*
X176863526Y-88573428D01*
X176863526Y-88573428D02*
X176803050Y-88694381D01*
X176803050Y-88694381D02*
X176742573Y-88754857D01*
%TO.C,R4*%
X184737526Y-89238666D02*
X184132764Y-89662000D01*
X184737526Y-89964381D02*
X183467526Y-89964381D01*
X183467526Y-89964381D02*
X183467526Y-89480571D01*
X183467526Y-89480571D02*
X183528002Y-89359619D01*
X183528002Y-89359619D02*
X183588478Y-89299142D01*
X183588478Y-89299142D02*
X183709430Y-89238666D01*
X183709430Y-89238666D02*
X183890859Y-89238666D01*
X183890859Y-89238666D02*
X184011811Y-89299142D01*
X184011811Y-89299142D02*
X184072288Y-89359619D01*
X184072288Y-89359619D02*
X184132764Y-89480571D01*
X184132764Y-89480571D02*
X184132764Y-89964381D01*
X183890859Y-88150095D02*
X184737526Y-88150095D01*
X183407050Y-88452476D02*
X184314192Y-88754857D01*
X184314192Y-88754857D02*
X184314192Y-87968666D01*
%TO.C,R3*%
X192611526Y-89238666D02*
X192006764Y-89662000D01*
X192611526Y-89964381D02*
X191341526Y-89964381D01*
X191341526Y-89964381D02*
X191341526Y-89480571D01*
X191341526Y-89480571D02*
X191402002Y-89359619D01*
X191402002Y-89359619D02*
X191462478Y-89299142D01*
X191462478Y-89299142D02*
X191583430Y-89238666D01*
X191583430Y-89238666D02*
X191764859Y-89238666D01*
X191764859Y-89238666D02*
X191885811Y-89299142D01*
X191885811Y-89299142D02*
X191946288Y-89359619D01*
X191946288Y-89359619D02*
X192006764Y-89480571D01*
X192006764Y-89480571D02*
X192006764Y-89964381D01*
X191341526Y-88815333D02*
X191341526Y-88029142D01*
X191341526Y-88029142D02*
X191825335Y-88452476D01*
X191825335Y-88452476D02*
X191825335Y-88271047D01*
X191825335Y-88271047D02*
X191885811Y-88150095D01*
X191885811Y-88150095D02*
X191946288Y-88089619D01*
X191946288Y-88089619D02*
X192067240Y-88029142D01*
X192067240Y-88029142D02*
X192369621Y-88029142D01*
X192369621Y-88029142D02*
X192490573Y-88089619D01*
X192490573Y-88089619D02*
X192551050Y-88150095D01*
X192551050Y-88150095D02*
X192611526Y-88271047D01*
X192611526Y-88271047D02*
X192611526Y-88633904D01*
X192611526Y-88633904D02*
X192551050Y-88754857D01*
X192551050Y-88754857D02*
X192490573Y-88815333D01*
%TO.C,R2*%
X200485526Y-89238666D02*
X199880764Y-89662000D01*
X200485526Y-89964381D02*
X199215526Y-89964381D01*
X199215526Y-89964381D02*
X199215526Y-89480571D01*
X199215526Y-89480571D02*
X199276002Y-89359619D01*
X199276002Y-89359619D02*
X199336478Y-89299142D01*
X199336478Y-89299142D02*
X199457430Y-89238666D01*
X199457430Y-89238666D02*
X199638859Y-89238666D01*
X199638859Y-89238666D02*
X199759811Y-89299142D01*
X199759811Y-89299142D02*
X199820288Y-89359619D01*
X199820288Y-89359619D02*
X199880764Y-89480571D01*
X199880764Y-89480571D02*
X199880764Y-89964381D01*
X199336478Y-88754857D02*
X199276002Y-88694381D01*
X199276002Y-88694381D02*
X199215526Y-88573428D01*
X199215526Y-88573428D02*
X199215526Y-88271047D01*
X199215526Y-88271047D02*
X199276002Y-88150095D01*
X199276002Y-88150095D02*
X199336478Y-88089619D01*
X199336478Y-88089619D02*
X199457430Y-88029142D01*
X199457430Y-88029142D02*
X199578383Y-88029142D01*
X199578383Y-88029142D02*
X199759811Y-88089619D01*
X199759811Y-88089619D02*
X200485526Y-88815333D01*
X200485526Y-88815333D02*
X200485526Y-88029142D01*
%TO.C,R1*%
X186124885Y-116089772D02*
X186253174Y-115362799D01*
X185611727Y-115576615D02*
X186509753Y-114678589D01*
X186509753Y-114678589D02*
X186851858Y-115020694D01*
X186851858Y-115020694D02*
X186894621Y-115148984D01*
X186894621Y-115148984D02*
X186894621Y-115234510D01*
X186894621Y-115234510D02*
X186851858Y-115362799D01*
X186851858Y-115362799D02*
X186723568Y-115491089D01*
X186723568Y-115491089D02*
X186595279Y-115533852D01*
X186595279Y-115533852D02*
X186509753Y-115533852D01*
X186509753Y-115533852D02*
X186381463Y-115491089D01*
X186381463Y-115491089D02*
X186039358Y-115148984D01*
X186980147Y-116945035D02*
X186466990Y-116431877D01*
X186723568Y-116688456D02*
X187621594Y-115790430D01*
X187621594Y-115790430D02*
X187407778Y-115833194D01*
X187407778Y-115833194D02*
X187236726Y-115833194D01*
X187236726Y-115833194D02*
X187108437Y-115790430D01*
D11*
%TO.C,U1*%
X174409419Y-47592604D02*
X175218942Y-47592604D01*
X175218942Y-47592604D02*
X175314180Y-47544985D01*
X175314180Y-47544985D02*
X175361800Y-47497366D01*
X175361800Y-47497366D02*
X175409419Y-47402128D01*
X175409419Y-47402128D02*
X175409419Y-47211652D01*
X175409419Y-47211652D02*
X175361800Y-47116414D01*
X175361800Y-47116414D02*
X175314180Y-47068795D01*
X175314180Y-47068795D02*
X175218942Y-47021176D01*
X175218942Y-47021176D02*
X174409419Y-47021176D01*
X175409419Y-46021176D02*
X175409419Y-46592604D01*
X175409419Y-46306890D02*
X174409419Y-46306890D01*
X174409419Y-46306890D02*
X174552276Y-46402128D01*
X174552276Y-46402128D02*
X174647514Y-46497366D01*
X174647514Y-46497366D02*
X174695133Y-46592604D01*
D10*
%TO.C,R36*%
X213915171Y-81918326D02*
X213491837Y-81313564D01*
X213189456Y-81918326D02*
X213189456Y-80648326D01*
X213189456Y-80648326D02*
X213673266Y-80648326D01*
X213673266Y-80648326D02*
X213794218Y-80708802D01*
X213794218Y-80708802D02*
X213854695Y-80769278D01*
X213854695Y-80769278D02*
X213915171Y-80890230D01*
X213915171Y-80890230D02*
X213915171Y-81071659D01*
X213915171Y-81071659D02*
X213854695Y-81192611D01*
X213854695Y-81192611D02*
X213794218Y-81253088D01*
X213794218Y-81253088D02*
X213673266Y-81313564D01*
X213673266Y-81313564D02*
X213189456Y-81313564D01*
X214338504Y-80648326D02*
X215124695Y-80648326D01*
X215124695Y-80648326D02*
X214701361Y-81132135D01*
X214701361Y-81132135D02*
X214882790Y-81132135D01*
X214882790Y-81132135D02*
X215003742Y-81192611D01*
X215003742Y-81192611D02*
X215064218Y-81253088D01*
X215064218Y-81253088D02*
X215124695Y-81374040D01*
X215124695Y-81374040D02*
X215124695Y-81676421D01*
X215124695Y-81676421D02*
X215064218Y-81797373D01*
X215064218Y-81797373D02*
X215003742Y-81857850D01*
X215003742Y-81857850D02*
X214882790Y-81918326D01*
X214882790Y-81918326D02*
X214519933Y-81918326D01*
X214519933Y-81918326D02*
X214398980Y-81857850D01*
X214398980Y-81857850D02*
X214338504Y-81797373D01*
X216213266Y-80648326D02*
X215971361Y-80648326D01*
X215971361Y-80648326D02*
X215850409Y-80708802D01*
X215850409Y-80708802D02*
X215789933Y-80769278D01*
X215789933Y-80769278D02*
X215668980Y-80950707D01*
X215668980Y-80950707D02*
X215608504Y-81192611D01*
X215608504Y-81192611D02*
X215608504Y-81676421D01*
X215608504Y-81676421D02*
X215668980Y-81797373D01*
X215668980Y-81797373D02*
X215729457Y-81857850D01*
X215729457Y-81857850D02*
X215850409Y-81918326D01*
X215850409Y-81918326D02*
X216092314Y-81918326D01*
X216092314Y-81918326D02*
X216213266Y-81857850D01*
X216213266Y-81857850D02*
X216273742Y-81797373D01*
X216273742Y-81797373D02*
X216334219Y-81676421D01*
X216334219Y-81676421D02*
X216334219Y-81374040D01*
X216334219Y-81374040D02*
X216273742Y-81253088D01*
X216273742Y-81253088D02*
X216213266Y-81192611D01*
X216213266Y-81192611D02*
X216092314Y-81132135D01*
X216092314Y-81132135D02*
X215850409Y-81132135D01*
X215850409Y-81132135D02*
X215729457Y-81192611D01*
X215729457Y-81192611D02*
X215668980Y-81253088D01*
X215668980Y-81253088D02*
X215608504Y-81374040D01*
%TO.C,R35*%
X208936771Y-81918326D02*
X208513437Y-81313564D01*
X208211056Y-81918326D02*
X208211056Y-80648326D01*
X208211056Y-80648326D02*
X208694866Y-80648326D01*
X208694866Y-80648326D02*
X208815818Y-80708802D01*
X208815818Y-80708802D02*
X208876295Y-80769278D01*
X208876295Y-80769278D02*
X208936771Y-80890230D01*
X208936771Y-80890230D02*
X208936771Y-81071659D01*
X208936771Y-81071659D02*
X208876295Y-81192611D01*
X208876295Y-81192611D02*
X208815818Y-81253088D01*
X208815818Y-81253088D02*
X208694866Y-81313564D01*
X208694866Y-81313564D02*
X208211056Y-81313564D01*
X209360104Y-80648326D02*
X210146295Y-80648326D01*
X210146295Y-80648326D02*
X209722961Y-81132135D01*
X209722961Y-81132135D02*
X209904390Y-81132135D01*
X209904390Y-81132135D02*
X210025342Y-81192611D01*
X210025342Y-81192611D02*
X210085818Y-81253088D01*
X210085818Y-81253088D02*
X210146295Y-81374040D01*
X210146295Y-81374040D02*
X210146295Y-81676421D01*
X210146295Y-81676421D02*
X210085818Y-81797373D01*
X210085818Y-81797373D02*
X210025342Y-81857850D01*
X210025342Y-81857850D02*
X209904390Y-81918326D01*
X209904390Y-81918326D02*
X209541533Y-81918326D01*
X209541533Y-81918326D02*
X209420580Y-81857850D01*
X209420580Y-81857850D02*
X209360104Y-81797373D01*
X211295342Y-80648326D02*
X210690580Y-80648326D01*
X210690580Y-80648326D02*
X210630104Y-81253088D01*
X210630104Y-81253088D02*
X210690580Y-81192611D01*
X210690580Y-81192611D02*
X210811533Y-81132135D01*
X210811533Y-81132135D02*
X211113914Y-81132135D01*
X211113914Y-81132135D02*
X211234866Y-81192611D01*
X211234866Y-81192611D02*
X211295342Y-81253088D01*
X211295342Y-81253088D02*
X211355819Y-81374040D01*
X211355819Y-81374040D02*
X211355819Y-81676421D01*
X211355819Y-81676421D02*
X211295342Y-81797373D01*
X211295342Y-81797373D02*
X211234866Y-81857850D01*
X211234866Y-81857850D02*
X211113914Y-81918326D01*
X211113914Y-81918326D02*
X210811533Y-81918326D01*
X210811533Y-81918326D02*
X210690580Y-81857850D01*
X210690580Y-81857850D02*
X210630104Y-81797373D01*
%TO.C,R31*%
X218842771Y-81918326D02*
X218419437Y-81313564D01*
X218117056Y-81918326D02*
X218117056Y-80648326D01*
X218117056Y-80648326D02*
X218600866Y-80648326D01*
X218600866Y-80648326D02*
X218721818Y-80708802D01*
X218721818Y-80708802D02*
X218782295Y-80769278D01*
X218782295Y-80769278D02*
X218842771Y-80890230D01*
X218842771Y-80890230D02*
X218842771Y-81071659D01*
X218842771Y-81071659D02*
X218782295Y-81192611D01*
X218782295Y-81192611D02*
X218721818Y-81253088D01*
X218721818Y-81253088D02*
X218600866Y-81313564D01*
X218600866Y-81313564D02*
X218117056Y-81313564D01*
X219266104Y-80648326D02*
X220052295Y-80648326D01*
X220052295Y-80648326D02*
X219628961Y-81132135D01*
X219628961Y-81132135D02*
X219810390Y-81132135D01*
X219810390Y-81132135D02*
X219931342Y-81192611D01*
X219931342Y-81192611D02*
X219991818Y-81253088D01*
X219991818Y-81253088D02*
X220052295Y-81374040D01*
X220052295Y-81374040D02*
X220052295Y-81676421D01*
X220052295Y-81676421D02*
X219991818Y-81797373D01*
X219991818Y-81797373D02*
X219931342Y-81857850D01*
X219931342Y-81857850D02*
X219810390Y-81918326D01*
X219810390Y-81918326D02*
X219447533Y-81918326D01*
X219447533Y-81918326D02*
X219326580Y-81857850D01*
X219326580Y-81857850D02*
X219266104Y-81797373D01*
X221261819Y-81918326D02*
X220536104Y-81918326D01*
X220898961Y-81918326D02*
X220898961Y-80648326D01*
X220898961Y-80648326D02*
X220778009Y-80829754D01*
X220778009Y-80829754D02*
X220657057Y-80950707D01*
X220657057Y-80950707D02*
X220536104Y-81011183D01*
%TO.C,R18*%
X188210371Y-81765926D02*
X187787037Y-81161164D01*
X187484656Y-81765926D02*
X187484656Y-80495926D01*
X187484656Y-80495926D02*
X187968466Y-80495926D01*
X187968466Y-80495926D02*
X188089418Y-80556402D01*
X188089418Y-80556402D02*
X188149895Y-80616878D01*
X188149895Y-80616878D02*
X188210371Y-80737830D01*
X188210371Y-80737830D02*
X188210371Y-80919259D01*
X188210371Y-80919259D02*
X188149895Y-81040211D01*
X188149895Y-81040211D02*
X188089418Y-81100688D01*
X188089418Y-81100688D02*
X187968466Y-81161164D01*
X187968466Y-81161164D02*
X187484656Y-81161164D01*
X189419895Y-81765926D02*
X188694180Y-81765926D01*
X189057037Y-81765926D02*
X189057037Y-80495926D01*
X189057037Y-80495926D02*
X188936085Y-80677354D01*
X188936085Y-80677354D02*
X188815133Y-80798307D01*
X188815133Y-80798307D02*
X188694180Y-80858783D01*
X190145609Y-81040211D02*
X190024657Y-80979735D01*
X190024657Y-80979735D02*
X189964180Y-80919259D01*
X189964180Y-80919259D02*
X189903704Y-80798307D01*
X189903704Y-80798307D02*
X189903704Y-80737830D01*
X189903704Y-80737830D02*
X189964180Y-80616878D01*
X189964180Y-80616878D02*
X190024657Y-80556402D01*
X190024657Y-80556402D02*
X190145609Y-80495926D01*
X190145609Y-80495926D02*
X190387514Y-80495926D01*
X190387514Y-80495926D02*
X190508466Y-80556402D01*
X190508466Y-80556402D02*
X190568942Y-80616878D01*
X190568942Y-80616878D02*
X190629419Y-80737830D01*
X190629419Y-80737830D02*
X190629419Y-80798307D01*
X190629419Y-80798307D02*
X190568942Y-80919259D01*
X190568942Y-80919259D02*
X190508466Y-80979735D01*
X190508466Y-80979735D02*
X190387514Y-81040211D01*
X190387514Y-81040211D02*
X190145609Y-81040211D01*
X190145609Y-81040211D02*
X190024657Y-81100688D01*
X190024657Y-81100688D02*
X189964180Y-81161164D01*
X189964180Y-81161164D02*
X189903704Y-81282116D01*
X189903704Y-81282116D02*
X189903704Y-81524021D01*
X189903704Y-81524021D02*
X189964180Y-81644973D01*
X189964180Y-81644973D02*
X190024657Y-81705450D01*
X190024657Y-81705450D02*
X190145609Y-81765926D01*
X190145609Y-81765926D02*
X190387514Y-81765926D01*
X190387514Y-81765926D02*
X190508466Y-81705450D01*
X190508466Y-81705450D02*
X190568942Y-81644973D01*
X190568942Y-81644973D02*
X190629419Y-81524021D01*
X190629419Y-81524021D02*
X190629419Y-81282116D01*
X190629419Y-81282116D02*
X190568942Y-81161164D01*
X190568942Y-81161164D02*
X190508466Y-81100688D01*
X190508466Y-81100688D02*
X190387514Y-81040211D01*
%TO.C,R17*%
X196084371Y-82019926D02*
X195661037Y-81415164D01*
X195358656Y-82019926D02*
X195358656Y-80749926D01*
X195358656Y-80749926D02*
X195842466Y-80749926D01*
X195842466Y-80749926D02*
X195963418Y-80810402D01*
X195963418Y-80810402D02*
X196023895Y-80870878D01*
X196023895Y-80870878D02*
X196084371Y-80991830D01*
X196084371Y-80991830D02*
X196084371Y-81173259D01*
X196084371Y-81173259D02*
X196023895Y-81294211D01*
X196023895Y-81294211D02*
X195963418Y-81354688D01*
X195963418Y-81354688D02*
X195842466Y-81415164D01*
X195842466Y-81415164D02*
X195358656Y-81415164D01*
X197293895Y-82019926D02*
X196568180Y-82019926D01*
X196931037Y-82019926D02*
X196931037Y-80749926D01*
X196931037Y-80749926D02*
X196810085Y-80931354D01*
X196810085Y-80931354D02*
X196689133Y-81052307D01*
X196689133Y-81052307D02*
X196568180Y-81112783D01*
X197717228Y-80749926D02*
X198563895Y-80749926D01*
X198563895Y-80749926D02*
X198019609Y-82019926D01*
%TO.C,R16*%
X203958371Y-81867526D02*
X203535037Y-81262764D01*
X203232656Y-81867526D02*
X203232656Y-80597526D01*
X203232656Y-80597526D02*
X203716466Y-80597526D01*
X203716466Y-80597526D02*
X203837418Y-80658002D01*
X203837418Y-80658002D02*
X203897895Y-80718478D01*
X203897895Y-80718478D02*
X203958371Y-80839430D01*
X203958371Y-80839430D02*
X203958371Y-81020859D01*
X203958371Y-81020859D02*
X203897895Y-81141811D01*
X203897895Y-81141811D02*
X203837418Y-81202288D01*
X203837418Y-81202288D02*
X203716466Y-81262764D01*
X203716466Y-81262764D02*
X203232656Y-81262764D01*
X205167895Y-81867526D02*
X204442180Y-81867526D01*
X204805037Y-81867526D02*
X204805037Y-80597526D01*
X204805037Y-80597526D02*
X204684085Y-80778954D01*
X204684085Y-80778954D02*
X204563133Y-80899907D01*
X204563133Y-80899907D02*
X204442180Y-80960383D01*
X206256466Y-80597526D02*
X206014561Y-80597526D01*
X206014561Y-80597526D02*
X205893609Y-80658002D01*
X205893609Y-80658002D02*
X205833133Y-80718478D01*
X205833133Y-80718478D02*
X205712180Y-80899907D01*
X205712180Y-80899907D02*
X205651704Y-81141811D01*
X205651704Y-81141811D02*
X205651704Y-81625621D01*
X205651704Y-81625621D02*
X205712180Y-81746573D01*
X205712180Y-81746573D02*
X205772657Y-81807050D01*
X205772657Y-81807050D02*
X205893609Y-81867526D01*
X205893609Y-81867526D02*
X206135514Y-81867526D01*
X206135514Y-81867526D02*
X206256466Y-81807050D01*
X206256466Y-81807050D02*
X206316942Y-81746573D01*
X206316942Y-81746573D02*
X206377419Y-81625621D01*
X206377419Y-81625621D02*
X206377419Y-81323240D01*
X206377419Y-81323240D02*
X206316942Y-81202288D01*
X206316942Y-81202288D02*
X206256466Y-81141811D01*
X206256466Y-81141811D02*
X206135514Y-81081335D01*
X206135514Y-81081335D02*
X205893609Y-81081335D01*
X205893609Y-81081335D02*
X205772657Y-81141811D01*
X205772657Y-81141811D02*
X205712180Y-81202288D01*
X205712180Y-81202288D02*
X205651704Y-81323240D01*
%TO.C,R14*%
X172411571Y-81765926D02*
X171988237Y-81161164D01*
X171685856Y-81765926D02*
X171685856Y-80495926D01*
X171685856Y-80495926D02*
X172169666Y-80495926D01*
X172169666Y-80495926D02*
X172290618Y-80556402D01*
X172290618Y-80556402D02*
X172351095Y-80616878D01*
X172351095Y-80616878D02*
X172411571Y-80737830D01*
X172411571Y-80737830D02*
X172411571Y-80919259D01*
X172411571Y-80919259D02*
X172351095Y-81040211D01*
X172351095Y-81040211D02*
X172290618Y-81100688D01*
X172290618Y-81100688D02*
X172169666Y-81161164D01*
X172169666Y-81161164D02*
X171685856Y-81161164D01*
X173621095Y-81765926D02*
X172895380Y-81765926D01*
X173258237Y-81765926D02*
X173258237Y-80495926D01*
X173258237Y-80495926D02*
X173137285Y-80677354D01*
X173137285Y-80677354D02*
X173016333Y-80798307D01*
X173016333Y-80798307D02*
X172895380Y-80858783D01*
X174709666Y-80919259D02*
X174709666Y-81765926D01*
X174407285Y-80435450D02*
X174104904Y-81342592D01*
X174104904Y-81342592D02*
X174891095Y-81342592D01*
%TO.C,R13*%
X180285571Y-81765926D02*
X179862237Y-81161164D01*
X179559856Y-81765926D02*
X179559856Y-80495926D01*
X179559856Y-80495926D02*
X180043666Y-80495926D01*
X180043666Y-80495926D02*
X180164618Y-80556402D01*
X180164618Y-80556402D02*
X180225095Y-80616878D01*
X180225095Y-80616878D02*
X180285571Y-80737830D01*
X180285571Y-80737830D02*
X180285571Y-80919259D01*
X180285571Y-80919259D02*
X180225095Y-81040211D01*
X180225095Y-81040211D02*
X180164618Y-81100688D01*
X180164618Y-81100688D02*
X180043666Y-81161164D01*
X180043666Y-81161164D02*
X179559856Y-81161164D01*
X181495095Y-81765926D02*
X180769380Y-81765926D01*
X181132237Y-81765926D02*
X181132237Y-80495926D01*
X181132237Y-80495926D02*
X181011285Y-80677354D01*
X181011285Y-80677354D02*
X180890333Y-80798307D01*
X180890333Y-80798307D02*
X180769380Y-80858783D01*
X181918428Y-80495926D02*
X182704619Y-80495926D01*
X182704619Y-80495926D02*
X182281285Y-80979735D01*
X182281285Y-80979735D02*
X182462714Y-80979735D01*
X182462714Y-80979735D02*
X182583666Y-81040211D01*
X182583666Y-81040211D02*
X182644142Y-81100688D01*
X182644142Y-81100688D02*
X182704619Y-81221640D01*
X182704619Y-81221640D02*
X182704619Y-81524021D01*
X182704619Y-81524021D02*
X182644142Y-81644973D01*
X182644142Y-81644973D02*
X182583666Y-81705450D01*
X182583666Y-81705450D02*
X182462714Y-81765926D01*
X182462714Y-81765926D02*
X182099857Y-81765926D01*
X182099857Y-81765926D02*
X181978904Y-81705450D01*
X181978904Y-81705450D02*
X181918428Y-81644973D01*
%TO.C,J13*%
X215990526Y-104233094D02*
X216897669Y-104233094D01*
X216897669Y-104233094D02*
X217079097Y-104293571D01*
X217079097Y-104293571D02*
X217200050Y-104414523D01*
X217200050Y-104414523D02*
X217260526Y-104595952D01*
X217260526Y-104595952D02*
X217260526Y-104716904D01*
X217260526Y-102963094D02*
X217260526Y-103688809D01*
X217260526Y-103325952D02*
X215990526Y-103325952D01*
X215990526Y-103325952D02*
X216171954Y-103446904D01*
X216171954Y-103446904D02*
X216292907Y-103567856D01*
X216292907Y-103567856D02*
X216353383Y-103688809D01*
X215990526Y-102539761D02*
X215990526Y-101753570D01*
X215990526Y-101753570D02*
X216474335Y-102176904D01*
X216474335Y-102176904D02*
X216474335Y-101995475D01*
X216474335Y-101995475D02*
X216534811Y-101874523D01*
X216534811Y-101874523D02*
X216595288Y-101814047D01*
X216595288Y-101814047D02*
X216716240Y-101753570D01*
X216716240Y-101753570D02*
X217018621Y-101753570D01*
X217018621Y-101753570D02*
X217139573Y-101814047D01*
X217139573Y-101814047D02*
X217200050Y-101874523D01*
X217200050Y-101874523D02*
X217260526Y-101995475D01*
X217260526Y-101995475D02*
X217260526Y-102358332D01*
X217260526Y-102358332D02*
X217200050Y-102479285D01*
X217200050Y-102479285D02*
X217139573Y-102539761D01*
%TO.C,J1*%
X221111667Y-123777526D02*
X221111667Y-124684669D01*
X221111667Y-124684669D02*
X221051190Y-124866097D01*
X221051190Y-124866097D02*
X220930238Y-124987050D01*
X220930238Y-124987050D02*
X220748809Y-125047526D01*
X220748809Y-125047526D02*
X220627857Y-125047526D01*
X222381667Y-125047526D02*
X221655952Y-125047526D01*
X222018809Y-125047526D02*
X222018809Y-123777526D01*
X222018809Y-123777526D02*
X221897857Y-123958954D01*
X221897857Y-123958954D02*
X221776905Y-124079907D01*
X221776905Y-124079907D02*
X221655952Y-124140383D01*
%TO.C,IC43*%
X125682526Y-92955524D02*
X124412526Y-92955524D01*
X125561573Y-91625047D02*
X125622050Y-91685523D01*
X125622050Y-91685523D02*
X125682526Y-91866952D01*
X125682526Y-91866952D02*
X125682526Y-91987904D01*
X125682526Y-91987904D02*
X125622050Y-92169333D01*
X125622050Y-92169333D02*
X125501097Y-92290285D01*
X125501097Y-92290285D02*
X125380145Y-92350762D01*
X125380145Y-92350762D02*
X125138240Y-92411238D01*
X125138240Y-92411238D02*
X124956811Y-92411238D01*
X124956811Y-92411238D02*
X124714907Y-92350762D01*
X124714907Y-92350762D02*
X124593954Y-92290285D01*
X124593954Y-92290285D02*
X124473002Y-92169333D01*
X124473002Y-92169333D02*
X124412526Y-91987904D01*
X124412526Y-91987904D02*
X124412526Y-91866952D01*
X124412526Y-91866952D02*
X124473002Y-91685523D01*
X124473002Y-91685523D02*
X124533478Y-91625047D01*
X124835859Y-90536476D02*
X125682526Y-90536476D01*
X124352050Y-90838857D02*
X125259192Y-91141238D01*
X125259192Y-91141238D02*
X125259192Y-90355047D01*
X124412526Y-89992190D02*
X124412526Y-89205999D01*
X124412526Y-89205999D02*
X124896335Y-89629333D01*
X124896335Y-89629333D02*
X124896335Y-89447904D01*
X124896335Y-89447904D02*
X124956811Y-89326952D01*
X124956811Y-89326952D02*
X125017288Y-89266476D01*
X125017288Y-89266476D02*
X125138240Y-89205999D01*
X125138240Y-89205999D02*
X125440621Y-89205999D01*
X125440621Y-89205999D02*
X125561573Y-89266476D01*
X125561573Y-89266476D02*
X125622050Y-89326952D01*
X125622050Y-89326952D02*
X125682526Y-89447904D01*
X125682526Y-89447904D02*
X125682526Y-89810761D01*
X125682526Y-89810761D02*
X125622050Y-89931714D01*
X125622050Y-89931714D02*
X125561573Y-89992190D01*
%TO.C,IC42*%
X133556526Y-92955524D02*
X132286526Y-92955524D01*
X133435573Y-91625047D02*
X133496050Y-91685523D01*
X133496050Y-91685523D02*
X133556526Y-91866952D01*
X133556526Y-91866952D02*
X133556526Y-91987904D01*
X133556526Y-91987904D02*
X133496050Y-92169333D01*
X133496050Y-92169333D02*
X133375097Y-92290285D01*
X133375097Y-92290285D02*
X133254145Y-92350762D01*
X133254145Y-92350762D02*
X133012240Y-92411238D01*
X133012240Y-92411238D02*
X132830811Y-92411238D01*
X132830811Y-92411238D02*
X132588907Y-92350762D01*
X132588907Y-92350762D02*
X132467954Y-92290285D01*
X132467954Y-92290285D02*
X132347002Y-92169333D01*
X132347002Y-92169333D02*
X132286526Y-91987904D01*
X132286526Y-91987904D02*
X132286526Y-91866952D01*
X132286526Y-91866952D02*
X132347002Y-91685523D01*
X132347002Y-91685523D02*
X132407478Y-91625047D01*
X132709859Y-90536476D02*
X133556526Y-90536476D01*
X132226050Y-90838857D02*
X133133192Y-91141238D01*
X133133192Y-91141238D02*
X133133192Y-90355047D01*
X132407478Y-89931714D02*
X132347002Y-89871238D01*
X132347002Y-89871238D02*
X132286526Y-89750285D01*
X132286526Y-89750285D02*
X132286526Y-89447904D01*
X132286526Y-89447904D02*
X132347002Y-89326952D01*
X132347002Y-89326952D02*
X132407478Y-89266476D01*
X132407478Y-89266476D02*
X132528430Y-89205999D01*
X132528430Y-89205999D02*
X132649383Y-89205999D01*
X132649383Y-89205999D02*
X132830811Y-89266476D01*
X132830811Y-89266476D02*
X133556526Y-89992190D01*
X133556526Y-89992190D02*
X133556526Y-89205999D01*
%TO.C,IC41*%
X141430526Y-92955524D02*
X140160526Y-92955524D01*
X141309573Y-91625047D02*
X141370050Y-91685523D01*
X141370050Y-91685523D02*
X141430526Y-91866952D01*
X141430526Y-91866952D02*
X141430526Y-91987904D01*
X141430526Y-91987904D02*
X141370050Y-92169333D01*
X141370050Y-92169333D02*
X141249097Y-92290285D01*
X141249097Y-92290285D02*
X141128145Y-92350762D01*
X141128145Y-92350762D02*
X140886240Y-92411238D01*
X140886240Y-92411238D02*
X140704811Y-92411238D01*
X140704811Y-92411238D02*
X140462907Y-92350762D01*
X140462907Y-92350762D02*
X140341954Y-92290285D01*
X140341954Y-92290285D02*
X140221002Y-92169333D01*
X140221002Y-92169333D02*
X140160526Y-91987904D01*
X140160526Y-91987904D02*
X140160526Y-91866952D01*
X140160526Y-91866952D02*
X140221002Y-91685523D01*
X140221002Y-91685523D02*
X140281478Y-91625047D01*
X140583859Y-90536476D02*
X141430526Y-90536476D01*
X140100050Y-90838857D02*
X141007192Y-91141238D01*
X141007192Y-91141238D02*
X141007192Y-90355047D01*
X141430526Y-89205999D02*
X141430526Y-89931714D01*
X141430526Y-89568857D02*
X140160526Y-89568857D01*
X140160526Y-89568857D02*
X140341954Y-89689809D01*
X140341954Y-89689809D02*
X140462907Y-89810761D01*
X140462907Y-89810761D02*
X140523383Y-89931714D01*
%TO.C,IC40*%
X149304526Y-92903524D02*
X148034526Y-92903524D01*
X149183573Y-91573047D02*
X149244050Y-91633523D01*
X149244050Y-91633523D02*
X149304526Y-91814952D01*
X149304526Y-91814952D02*
X149304526Y-91935904D01*
X149304526Y-91935904D02*
X149244050Y-92117333D01*
X149244050Y-92117333D02*
X149123097Y-92238285D01*
X149123097Y-92238285D02*
X149002145Y-92298762D01*
X149002145Y-92298762D02*
X148760240Y-92359238D01*
X148760240Y-92359238D02*
X148578811Y-92359238D01*
X148578811Y-92359238D02*
X148336907Y-92298762D01*
X148336907Y-92298762D02*
X148215954Y-92238285D01*
X148215954Y-92238285D02*
X148095002Y-92117333D01*
X148095002Y-92117333D02*
X148034526Y-91935904D01*
X148034526Y-91935904D02*
X148034526Y-91814952D01*
X148034526Y-91814952D02*
X148095002Y-91633523D01*
X148095002Y-91633523D02*
X148155478Y-91573047D01*
X148457859Y-90484476D02*
X149304526Y-90484476D01*
X147974050Y-90786857D02*
X148881192Y-91089238D01*
X148881192Y-91089238D02*
X148881192Y-90303047D01*
X148034526Y-89577333D02*
X148034526Y-89456380D01*
X148034526Y-89456380D02*
X148095002Y-89335428D01*
X148095002Y-89335428D02*
X148155478Y-89274952D01*
X148155478Y-89274952D02*
X148276430Y-89214476D01*
X148276430Y-89214476D02*
X148518335Y-89153999D01*
X148518335Y-89153999D02*
X148820716Y-89153999D01*
X148820716Y-89153999D02*
X149062621Y-89214476D01*
X149062621Y-89214476D02*
X149183573Y-89274952D01*
X149183573Y-89274952D02*
X149244050Y-89335428D01*
X149244050Y-89335428D02*
X149304526Y-89456380D01*
X149304526Y-89456380D02*
X149304526Y-89577333D01*
X149304526Y-89577333D02*
X149244050Y-89698285D01*
X149244050Y-89698285D02*
X149183573Y-89758761D01*
X149183573Y-89758761D02*
X149062621Y-89819238D01*
X149062621Y-89819238D02*
X148820716Y-89879714D01*
X148820716Y-89879714D02*
X148518335Y-89879714D01*
X148518335Y-89879714D02*
X148276430Y-89819238D01*
X148276430Y-89819238D02*
X148155478Y-89758761D01*
X148155478Y-89758761D02*
X148095002Y-89698285D01*
X148095002Y-89698285D02*
X148034526Y-89577333D01*
%TO.C,IC39*%
X157178526Y-92903524D02*
X155908526Y-92903524D01*
X157057573Y-91573047D02*
X157118050Y-91633523D01*
X157118050Y-91633523D02*
X157178526Y-91814952D01*
X157178526Y-91814952D02*
X157178526Y-91935904D01*
X157178526Y-91935904D02*
X157118050Y-92117333D01*
X157118050Y-92117333D02*
X156997097Y-92238285D01*
X156997097Y-92238285D02*
X156876145Y-92298762D01*
X156876145Y-92298762D02*
X156634240Y-92359238D01*
X156634240Y-92359238D02*
X156452811Y-92359238D01*
X156452811Y-92359238D02*
X156210907Y-92298762D01*
X156210907Y-92298762D02*
X156089954Y-92238285D01*
X156089954Y-92238285D02*
X155969002Y-92117333D01*
X155969002Y-92117333D02*
X155908526Y-91935904D01*
X155908526Y-91935904D02*
X155908526Y-91814952D01*
X155908526Y-91814952D02*
X155969002Y-91633523D01*
X155969002Y-91633523D02*
X156029478Y-91573047D01*
X155908526Y-91149714D02*
X155908526Y-90363523D01*
X155908526Y-90363523D02*
X156392335Y-90786857D01*
X156392335Y-90786857D02*
X156392335Y-90605428D01*
X156392335Y-90605428D02*
X156452811Y-90484476D01*
X156452811Y-90484476D02*
X156513288Y-90424000D01*
X156513288Y-90424000D02*
X156634240Y-90363523D01*
X156634240Y-90363523D02*
X156936621Y-90363523D01*
X156936621Y-90363523D02*
X157057573Y-90424000D01*
X157057573Y-90424000D02*
X157118050Y-90484476D01*
X157118050Y-90484476D02*
X157178526Y-90605428D01*
X157178526Y-90605428D02*
X157178526Y-90968285D01*
X157178526Y-90968285D02*
X157118050Y-91089238D01*
X157118050Y-91089238D02*
X157057573Y-91149714D01*
X157178526Y-89758761D02*
X157178526Y-89516857D01*
X157178526Y-89516857D02*
X157118050Y-89395904D01*
X157118050Y-89395904D02*
X157057573Y-89335428D01*
X157057573Y-89335428D02*
X156876145Y-89214476D01*
X156876145Y-89214476D02*
X156634240Y-89153999D01*
X156634240Y-89153999D02*
X156150430Y-89153999D01*
X156150430Y-89153999D02*
X156029478Y-89214476D01*
X156029478Y-89214476D02*
X155969002Y-89274952D01*
X155969002Y-89274952D02*
X155908526Y-89395904D01*
X155908526Y-89395904D02*
X155908526Y-89637809D01*
X155908526Y-89637809D02*
X155969002Y-89758761D01*
X155969002Y-89758761D02*
X156029478Y-89819238D01*
X156029478Y-89819238D02*
X156150430Y-89879714D01*
X156150430Y-89879714D02*
X156452811Y-89879714D01*
X156452811Y-89879714D02*
X156573764Y-89819238D01*
X156573764Y-89819238D02*
X156634240Y-89758761D01*
X156634240Y-89758761D02*
X156694716Y-89637809D01*
X156694716Y-89637809D02*
X156694716Y-89395904D01*
X156694716Y-89395904D02*
X156634240Y-89274952D01*
X156634240Y-89274952D02*
X156573764Y-89214476D01*
X156573764Y-89214476D02*
X156452811Y-89153999D01*
%TO.C,IC38*%
X165052526Y-92903524D02*
X163782526Y-92903524D01*
X164931573Y-91573047D02*
X164992050Y-91633523D01*
X164992050Y-91633523D02*
X165052526Y-91814952D01*
X165052526Y-91814952D02*
X165052526Y-91935904D01*
X165052526Y-91935904D02*
X164992050Y-92117333D01*
X164992050Y-92117333D02*
X164871097Y-92238285D01*
X164871097Y-92238285D02*
X164750145Y-92298762D01*
X164750145Y-92298762D02*
X164508240Y-92359238D01*
X164508240Y-92359238D02*
X164326811Y-92359238D01*
X164326811Y-92359238D02*
X164084907Y-92298762D01*
X164084907Y-92298762D02*
X163963954Y-92238285D01*
X163963954Y-92238285D02*
X163843002Y-92117333D01*
X163843002Y-92117333D02*
X163782526Y-91935904D01*
X163782526Y-91935904D02*
X163782526Y-91814952D01*
X163782526Y-91814952D02*
X163843002Y-91633523D01*
X163843002Y-91633523D02*
X163903478Y-91573047D01*
X163782526Y-91149714D02*
X163782526Y-90363523D01*
X163782526Y-90363523D02*
X164266335Y-90786857D01*
X164266335Y-90786857D02*
X164266335Y-90605428D01*
X164266335Y-90605428D02*
X164326811Y-90484476D01*
X164326811Y-90484476D02*
X164387288Y-90424000D01*
X164387288Y-90424000D02*
X164508240Y-90363523D01*
X164508240Y-90363523D02*
X164810621Y-90363523D01*
X164810621Y-90363523D02*
X164931573Y-90424000D01*
X164931573Y-90424000D02*
X164992050Y-90484476D01*
X164992050Y-90484476D02*
X165052526Y-90605428D01*
X165052526Y-90605428D02*
X165052526Y-90968285D01*
X165052526Y-90968285D02*
X164992050Y-91089238D01*
X164992050Y-91089238D02*
X164931573Y-91149714D01*
X164326811Y-89637809D02*
X164266335Y-89758761D01*
X164266335Y-89758761D02*
X164205859Y-89819238D01*
X164205859Y-89819238D02*
X164084907Y-89879714D01*
X164084907Y-89879714D02*
X164024430Y-89879714D01*
X164024430Y-89879714D02*
X163903478Y-89819238D01*
X163903478Y-89819238D02*
X163843002Y-89758761D01*
X163843002Y-89758761D02*
X163782526Y-89637809D01*
X163782526Y-89637809D02*
X163782526Y-89395904D01*
X163782526Y-89395904D02*
X163843002Y-89274952D01*
X163843002Y-89274952D02*
X163903478Y-89214476D01*
X163903478Y-89214476D02*
X164024430Y-89153999D01*
X164024430Y-89153999D02*
X164084907Y-89153999D01*
X164084907Y-89153999D02*
X164205859Y-89214476D01*
X164205859Y-89214476D02*
X164266335Y-89274952D01*
X164266335Y-89274952D02*
X164326811Y-89395904D01*
X164326811Y-89395904D02*
X164326811Y-89637809D01*
X164326811Y-89637809D02*
X164387288Y-89758761D01*
X164387288Y-89758761D02*
X164447764Y-89819238D01*
X164447764Y-89819238D02*
X164568716Y-89879714D01*
X164568716Y-89879714D02*
X164810621Y-89879714D01*
X164810621Y-89879714D02*
X164931573Y-89819238D01*
X164931573Y-89819238D02*
X164992050Y-89758761D01*
X164992050Y-89758761D02*
X165052526Y-89637809D01*
X165052526Y-89637809D02*
X165052526Y-89395904D01*
X165052526Y-89395904D02*
X164992050Y-89274952D01*
X164992050Y-89274952D02*
X164931573Y-89214476D01*
X164931573Y-89214476D02*
X164810621Y-89153999D01*
X164810621Y-89153999D02*
X164568716Y-89153999D01*
X164568716Y-89153999D02*
X164447764Y-89214476D01*
X164447764Y-89214476D02*
X164387288Y-89274952D01*
X164387288Y-89274952D02*
X164326811Y-89395904D01*
%TO.C,IC37*%
X166068526Y-112790524D02*
X164798526Y-112790524D01*
X165947573Y-111460047D02*
X166008050Y-111520523D01*
X166008050Y-111520523D02*
X166068526Y-111701952D01*
X166068526Y-111701952D02*
X166068526Y-111822904D01*
X166068526Y-111822904D02*
X166008050Y-112004333D01*
X166008050Y-112004333D02*
X165887097Y-112125285D01*
X165887097Y-112125285D02*
X165766145Y-112185762D01*
X165766145Y-112185762D02*
X165524240Y-112246238D01*
X165524240Y-112246238D02*
X165342811Y-112246238D01*
X165342811Y-112246238D02*
X165100907Y-112185762D01*
X165100907Y-112185762D02*
X164979954Y-112125285D01*
X164979954Y-112125285D02*
X164859002Y-112004333D01*
X164859002Y-112004333D02*
X164798526Y-111822904D01*
X164798526Y-111822904D02*
X164798526Y-111701952D01*
X164798526Y-111701952D02*
X164859002Y-111520523D01*
X164859002Y-111520523D02*
X164919478Y-111460047D01*
X164798526Y-111036714D02*
X164798526Y-110250523D01*
X164798526Y-110250523D02*
X165282335Y-110673857D01*
X165282335Y-110673857D02*
X165282335Y-110492428D01*
X165282335Y-110492428D02*
X165342811Y-110371476D01*
X165342811Y-110371476D02*
X165403288Y-110311000D01*
X165403288Y-110311000D02*
X165524240Y-110250523D01*
X165524240Y-110250523D02*
X165826621Y-110250523D01*
X165826621Y-110250523D02*
X165947573Y-110311000D01*
X165947573Y-110311000D02*
X166008050Y-110371476D01*
X166008050Y-110371476D02*
X166068526Y-110492428D01*
X166068526Y-110492428D02*
X166068526Y-110855285D01*
X166068526Y-110855285D02*
X166008050Y-110976238D01*
X166008050Y-110976238D02*
X165947573Y-111036714D01*
X164798526Y-109827190D02*
X164798526Y-108980523D01*
X164798526Y-108980523D02*
X166068526Y-109524809D01*
%TO.C,IC36*%
X173942526Y-112842524D02*
X172672526Y-112842524D01*
X173821573Y-111512047D02*
X173882050Y-111572523D01*
X173882050Y-111572523D02*
X173942526Y-111753952D01*
X173942526Y-111753952D02*
X173942526Y-111874904D01*
X173942526Y-111874904D02*
X173882050Y-112056333D01*
X173882050Y-112056333D02*
X173761097Y-112177285D01*
X173761097Y-112177285D02*
X173640145Y-112237762D01*
X173640145Y-112237762D02*
X173398240Y-112298238D01*
X173398240Y-112298238D02*
X173216811Y-112298238D01*
X173216811Y-112298238D02*
X172974907Y-112237762D01*
X172974907Y-112237762D02*
X172853954Y-112177285D01*
X172853954Y-112177285D02*
X172733002Y-112056333D01*
X172733002Y-112056333D02*
X172672526Y-111874904D01*
X172672526Y-111874904D02*
X172672526Y-111753952D01*
X172672526Y-111753952D02*
X172733002Y-111572523D01*
X172733002Y-111572523D02*
X172793478Y-111512047D01*
X172672526Y-111088714D02*
X172672526Y-110302523D01*
X172672526Y-110302523D02*
X173156335Y-110725857D01*
X173156335Y-110725857D02*
X173156335Y-110544428D01*
X173156335Y-110544428D02*
X173216811Y-110423476D01*
X173216811Y-110423476D02*
X173277288Y-110363000D01*
X173277288Y-110363000D02*
X173398240Y-110302523D01*
X173398240Y-110302523D02*
X173700621Y-110302523D01*
X173700621Y-110302523D02*
X173821573Y-110363000D01*
X173821573Y-110363000D02*
X173882050Y-110423476D01*
X173882050Y-110423476D02*
X173942526Y-110544428D01*
X173942526Y-110544428D02*
X173942526Y-110907285D01*
X173942526Y-110907285D02*
X173882050Y-111028238D01*
X173882050Y-111028238D02*
X173821573Y-111088714D01*
X172672526Y-109213952D02*
X172672526Y-109455857D01*
X172672526Y-109455857D02*
X172733002Y-109576809D01*
X172733002Y-109576809D02*
X172793478Y-109637285D01*
X172793478Y-109637285D02*
X172974907Y-109758238D01*
X172974907Y-109758238D02*
X173216811Y-109818714D01*
X173216811Y-109818714D02*
X173700621Y-109818714D01*
X173700621Y-109818714D02*
X173821573Y-109758238D01*
X173821573Y-109758238D02*
X173882050Y-109697761D01*
X173882050Y-109697761D02*
X173942526Y-109576809D01*
X173942526Y-109576809D02*
X173942526Y-109334904D01*
X173942526Y-109334904D02*
X173882050Y-109213952D01*
X173882050Y-109213952D02*
X173821573Y-109153476D01*
X173821573Y-109153476D02*
X173700621Y-109092999D01*
X173700621Y-109092999D02*
X173398240Y-109092999D01*
X173398240Y-109092999D02*
X173277288Y-109153476D01*
X173277288Y-109153476D02*
X173216811Y-109213952D01*
X173216811Y-109213952D02*
X173156335Y-109334904D01*
X173156335Y-109334904D02*
X173156335Y-109576809D01*
X173156335Y-109576809D02*
X173216811Y-109697761D01*
X173216811Y-109697761D02*
X173277288Y-109758238D01*
X173277288Y-109758238D02*
X173398240Y-109818714D01*
%TO.C,IC35*%
X94186526Y-92903524D02*
X92916526Y-92903524D01*
X94065573Y-91573047D02*
X94126050Y-91633523D01*
X94126050Y-91633523D02*
X94186526Y-91814952D01*
X94186526Y-91814952D02*
X94186526Y-91935904D01*
X94186526Y-91935904D02*
X94126050Y-92117333D01*
X94126050Y-92117333D02*
X94005097Y-92238285D01*
X94005097Y-92238285D02*
X93884145Y-92298762D01*
X93884145Y-92298762D02*
X93642240Y-92359238D01*
X93642240Y-92359238D02*
X93460811Y-92359238D01*
X93460811Y-92359238D02*
X93218907Y-92298762D01*
X93218907Y-92298762D02*
X93097954Y-92238285D01*
X93097954Y-92238285D02*
X92977002Y-92117333D01*
X92977002Y-92117333D02*
X92916526Y-91935904D01*
X92916526Y-91935904D02*
X92916526Y-91814952D01*
X92916526Y-91814952D02*
X92977002Y-91633523D01*
X92977002Y-91633523D02*
X93037478Y-91573047D01*
X92916526Y-91149714D02*
X92916526Y-90363523D01*
X92916526Y-90363523D02*
X93400335Y-90786857D01*
X93400335Y-90786857D02*
X93400335Y-90605428D01*
X93400335Y-90605428D02*
X93460811Y-90484476D01*
X93460811Y-90484476D02*
X93521288Y-90424000D01*
X93521288Y-90424000D02*
X93642240Y-90363523D01*
X93642240Y-90363523D02*
X93944621Y-90363523D01*
X93944621Y-90363523D02*
X94065573Y-90424000D01*
X94065573Y-90424000D02*
X94126050Y-90484476D01*
X94126050Y-90484476D02*
X94186526Y-90605428D01*
X94186526Y-90605428D02*
X94186526Y-90968285D01*
X94186526Y-90968285D02*
X94126050Y-91089238D01*
X94126050Y-91089238D02*
X94065573Y-91149714D01*
X92916526Y-89214476D02*
X92916526Y-89819238D01*
X92916526Y-89819238D02*
X93521288Y-89879714D01*
X93521288Y-89879714D02*
X93460811Y-89819238D01*
X93460811Y-89819238D02*
X93400335Y-89698285D01*
X93400335Y-89698285D02*
X93400335Y-89395904D01*
X93400335Y-89395904D02*
X93460811Y-89274952D01*
X93460811Y-89274952D02*
X93521288Y-89214476D01*
X93521288Y-89214476D02*
X93642240Y-89153999D01*
X93642240Y-89153999D02*
X93944621Y-89153999D01*
X93944621Y-89153999D02*
X94065573Y-89214476D01*
X94065573Y-89214476D02*
X94126050Y-89274952D01*
X94126050Y-89274952D02*
X94186526Y-89395904D01*
X94186526Y-89395904D02*
X94186526Y-89698285D01*
X94186526Y-89698285D02*
X94126050Y-89819238D01*
X94126050Y-89819238D02*
X94065573Y-89879714D01*
%TO.C,IC34*%
X102060526Y-92903524D02*
X100790526Y-92903524D01*
X101939573Y-91573047D02*
X102000050Y-91633523D01*
X102000050Y-91633523D02*
X102060526Y-91814952D01*
X102060526Y-91814952D02*
X102060526Y-91935904D01*
X102060526Y-91935904D02*
X102000050Y-92117333D01*
X102000050Y-92117333D02*
X101879097Y-92238285D01*
X101879097Y-92238285D02*
X101758145Y-92298762D01*
X101758145Y-92298762D02*
X101516240Y-92359238D01*
X101516240Y-92359238D02*
X101334811Y-92359238D01*
X101334811Y-92359238D02*
X101092907Y-92298762D01*
X101092907Y-92298762D02*
X100971954Y-92238285D01*
X100971954Y-92238285D02*
X100851002Y-92117333D01*
X100851002Y-92117333D02*
X100790526Y-91935904D01*
X100790526Y-91935904D02*
X100790526Y-91814952D01*
X100790526Y-91814952D02*
X100851002Y-91633523D01*
X100851002Y-91633523D02*
X100911478Y-91573047D01*
X100790526Y-91149714D02*
X100790526Y-90363523D01*
X100790526Y-90363523D02*
X101274335Y-90786857D01*
X101274335Y-90786857D02*
X101274335Y-90605428D01*
X101274335Y-90605428D02*
X101334811Y-90484476D01*
X101334811Y-90484476D02*
X101395288Y-90424000D01*
X101395288Y-90424000D02*
X101516240Y-90363523D01*
X101516240Y-90363523D02*
X101818621Y-90363523D01*
X101818621Y-90363523D02*
X101939573Y-90424000D01*
X101939573Y-90424000D02*
X102000050Y-90484476D01*
X102000050Y-90484476D02*
X102060526Y-90605428D01*
X102060526Y-90605428D02*
X102060526Y-90968285D01*
X102060526Y-90968285D02*
X102000050Y-91089238D01*
X102000050Y-91089238D02*
X101939573Y-91149714D01*
X101213859Y-89274952D02*
X102060526Y-89274952D01*
X100730050Y-89577333D02*
X101637192Y-89879714D01*
X101637192Y-89879714D02*
X101637192Y-89093523D01*
%TO.C,IC33*%
X109934526Y-92903524D02*
X108664526Y-92903524D01*
X109813573Y-91573047D02*
X109874050Y-91633523D01*
X109874050Y-91633523D02*
X109934526Y-91814952D01*
X109934526Y-91814952D02*
X109934526Y-91935904D01*
X109934526Y-91935904D02*
X109874050Y-92117333D01*
X109874050Y-92117333D02*
X109753097Y-92238285D01*
X109753097Y-92238285D02*
X109632145Y-92298762D01*
X109632145Y-92298762D02*
X109390240Y-92359238D01*
X109390240Y-92359238D02*
X109208811Y-92359238D01*
X109208811Y-92359238D02*
X108966907Y-92298762D01*
X108966907Y-92298762D02*
X108845954Y-92238285D01*
X108845954Y-92238285D02*
X108725002Y-92117333D01*
X108725002Y-92117333D02*
X108664526Y-91935904D01*
X108664526Y-91935904D02*
X108664526Y-91814952D01*
X108664526Y-91814952D02*
X108725002Y-91633523D01*
X108725002Y-91633523D02*
X108785478Y-91573047D01*
X108664526Y-91149714D02*
X108664526Y-90363523D01*
X108664526Y-90363523D02*
X109148335Y-90786857D01*
X109148335Y-90786857D02*
X109148335Y-90605428D01*
X109148335Y-90605428D02*
X109208811Y-90484476D01*
X109208811Y-90484476D02*
X109269288Y-90424000D01*
X109269288Y-90424000D02*
X109390240Y-90363523D01*
X109390240Y-90363523D02*
X109692621Y-90363523D01*
X109692621Y-90363523D02*
X109813573Y-90424000D01*
X109813573Y-90424000D02*
X109874050Y-90484476D01*
X109874050Y-90484476D02*
X109934526Y-90605428D01*
X109934526Y-90605428D02*
X109934526Y-90968285D01*
X109934526Y-90968285D02*
X109874050Y-91089238D01*
X109874050Y-91089238D02*
X109813573Y-91149714D01*
X108664526Y-89940190D02*
X108664526Y-89153999D01*
X108664526Y-89153999D02*
X109148335Y-89577333D01*
X109148335Y-89577333D02*
X109148335Y-89395904D01*
X109148335Y-89395904D02*
X109208811Y-89274952D01*
X109208811Y-89274952D02*
X109269288Y-89214476D01*
X109269288Y-89214476D02*
X109390240Y-89153999D01*
X109390240Y-89153999D02*
X109692621Y-89153999D01*
X109692621Y-89153999D02*
X109813573Y-89214476D01*
X109813573Y-89214476D02*
X109874050Y-89274952D01*
X109874050Y-89274952D02*
X109934526Y-89395904D01*
X109934526Y-89395904D02*
X109934526Y-89758761D01*
X109934526Y-89758761D02*
X109874050Y-89879714D01*
X109874050Y-89879714D02*
X109813573Y-89940190D01*
%TO.C,IC32*%
X117808526Y-92903524D02*
X116538526Y-92903524D01*
X117687573Y-91573047D02*
X117748050Y-91633523D01*
X117748050Y-91633523D02*
X117808526Y-91814952D01*
X117808526Y-91814952D02*
X117808526Y-91935904D01*
X117808526Y-91935904D02*
X117748050Y-92117333D01*
X117748050Y-92117333D02*
X117627097Y-92238285D01*
X117627097Y-92238285D02*
X117506145Y-92298762D01*
X117506145Y-92298762D02*
X117264240Y-92359238D01*
X117264240Y-92359238D02*
X117082811Y-92359238D01*
X117082811Y-92359238D02*
X116840907Y-92298762D01*
X116840907Y-92298762D02*
X116719954Y-92238285D01*
X116719954Y-92238285D02*
X116599002Y-92117333D01*
X116599002Y-92117333D02*
X116538526Y-91935904D01*
X116538526Y-91935904D02*
X116538526Y-91814952D01*
X116538526Y-91814952D02*
X116599002Y-91633523D01*
X116599002Y-91633523D02*
X116659478Y-91573047D01*
X116538526Y-91149714D02*
X116538526Y-90363523D01*
X116538526Y-90363523D02*
X117022335Y-90786857D01*
X117022335Y-90786857D02*
X117022335Y-90605428D01*
X117022335Y-90605428D02*
X117082811Y-90484476D01*
X117082811Y-90484476D02*
X117143288Y-90424000D01*
X117143288Y-90424000D02*
X117264240Y-90363523D01*
X117264240Y-90363523D02*
X117566621Y-90363523D01*
X117566621Y-90363523D02*
X117687573Y-90424000D01*
X117687573Y-90424000D02*
X117748050Y-90484476D01*
X117748050Y-90484476D02*
X117808526Y-90605428D01*
X117808526Y-90605428D02*
X117808526Y-90968285D01*
X117808526Y-90968285D02*
X117748050Y-91089238D01*
X117748050Y-91089238D02*
X117687573Y-91149714D01*
X116659478Y-89879714D02*
X116599002Y-89819238D01*
X116599002Y-89819238D02*
X116538526Y-89698285D01*
X116538526Y-89698285D02*
X116538526Y-89395904D01*
X116538526Y-89395904D02*
X116599002Y-89274952D01*
X116599002Y-89274952D02*
X116659478Y-89214476D01*
X116659478Y-89214476D02*
X116780430Y-89153999D01*
X116780430Y-89153999D02*
X116901383Y-89153999D01*
X116901383Y-89153999D02*
X117082811Y-89214476D01*
X117082811Y-89214476D02*
X117808526Y-89940190D01*
X117808526Y-89940190D02*
X117808526Y-89153999D01*
%TO.C,IC30*%
X118697526Y-112842524D02*
X117427526Y-112842524D01*
X118576573Y-111512047D02*
X118637050Y-111572523D01*
X118637050Y-111572523D02*
X118697526Y-111753952D01*
X118697526Y-111753952D02*
X118697526Y-111874904D01*
X118697526Y-111874904D02*
X118637050Y-112056333D01*
X118637050Y-112056333D02*
X118516097Y-112177285D01*
X118516097Y-112177285D02*
X118395145Y-112237762D01*
X118395145Y-112237762D02*
X118153240Y-112298238D01*
X118153240Y-112298238D02*
X117971811Y-112298238D01*
X117971811Y-112298238D02*
X117729907Y-112237762D01*
X117729907Y-112237762D02*
X117608954Y-112177285D01*
X117608954Y-112177285D02*
X117488002Y-112056333D01*
X117488002Y-112056333D02*
X117427526Y-111874904D01*
X117427526Y-111874904D02*
X117427526Y-111753952D01*
X117427526Y-111753952D02*
X117488002Y-111572523D01*
X117488002Y-111572523D02*
X117548478Y-111512047D01*
X117427526Y-111088714D02*
X117427526Y-110302523D01*
X117427526Y-110302523D02*
X117911335Y-110725857D01*
X117911335Y-110725857D02*
X117911335Y-110544428D01*
X117911335Y-110544428D02*
X117971811Y-110423476D01*
X117971811Y-110423476D02*
X118032288Y-110363000D01*
X118032288Y-110363000D02*
X118153240Y-110302523D01*
X118153240Y-110302523D02*
X118455621Y-110302523D01*
X118455621Y-110302523D02*
X118576573Y-110363000D01*
X118576573Y-110363000D02*
X118637050Y-110423476D01*
X118637050Y-110423476D02*
X118697526Y-110544428D01*
X118697526Y-110544428D02*
X118697526Y-110907285D01*
X118697526Y-110907285D02*
X118637050Y-111028238D01*
X118637050Y-111028238D02*
X118576573Y-111088714D01*
X117427526Y-109516333D02*
X117427526Y-109395380D01*
X117427526Y-109395380D02*
X117488002Y-109274428D01*
X117488002Y-109274428D02*
X117548478Y-109213952D01*
X117548478Y-109213952D02*
X117669430Y-109153476D01*
X117669430Y-109153476D02*
X117911335Y-109092999D01*
X117911335Y-109092999D02*
X118213716Y-109092999D01*
X118213716Y-109092999D02*
X118455621Y-109153476D01*
X118455621Y-109153476D02*
X118576573Y-109213952D01*
X118576573Y-109213952D02*
X118637050Y-109274428D01*
X118637050Y-109274428D02*
X118697526Y-109395380D01*
X118697526Y-109395380D02*
X118697526Y-109516333D01*
X118697526Y-109516333D02*
X118637050Y-109637285D01*
X118637050Y-109637285D02*
X118576573Y-109697761D01*
X118576573Y-109697761D02*
X118455621Y-109758238D01*
X118455621Y-109758238D02*
X118213716Y-109818714D01*
X118213716Y-109818714D02*
X117911335Y-109818714D01*
X117911335Y-109818714D02*
X117669430Y-109758238D01*
X117669430Y-109758238D02*
X117548478Y-109697761D01*
X117548478Y-109697761D02*
X117488002Y-109637285D01*
X117488002Y-109637285D02*
X117427526Y-109516333D01*
%TO.C,IC29*%
X126698526Y-112842524D02*
X125428526Y-112842524D01*
X126577573Y-111512047D02*
X126638050Y-111572523D01*
X126638050Y-111572523D02*
X126698526Y-111753952D01*
X126698526Y-111753952D02*
X126698526Y-111874904D01*
X126698526Y-111874904D02*
X126638050Y-112056333D01*
X126638050Y-112056333D02*
X126517097Y-112177285D01*
X126517097Y-112177285D02*
X126396145Y-112237762D01*
X126396145Y-112237762D02*
X126154240Y-112298238D01*
X126154240Y-112298238D02*
X125972811Y-112298238D01*
X125972811Y-112298238D02*
X125730907Y-112237762D01*
X125730907Y-112237762D02*
X125609954Y-112177285D01*
X125609954Y-112177285D02*
X125489002Y-112056333D01*
X125489002Y-112056333D02*
X125428526Y-111874904D01*
X125428526Y-111874904D02*
X125428526Y-111753952D01*
X125428526Y-111753952D02*
X125489002Y-111572523D01*
X125489002Y-111572523D02*
X125549478Y-111512047D01*
X125549478Y-111028238D02*
X125489002Y-110967762D01*
X125489002Y-110967762D02*
X125428526Y-110846809D01*
X125428526Y-110846809D02*
X125428526Y-110544428D01*
X125428526Y-110544428D02*
X125489002Y-110423476D01*
X125489002Y-110423476D02*
X125549478Y-110363000D01*
X125549478Y-110363000D02*
X125670430Y-110302523D01*
X125670430Y-110302523D02*
X125791383Y-110302523D01*
X125791383Y-110302523D02*
X125972811Y-110363000D01*
X125972811Y-110363000D02*
X126698526Y-111088714D01*
X126698526Y-111088714D02*
X126698526Y-110302523D01*
X126698526Y-109697761D02*
X126698526Y-109455857D01*
X126698526Y-109455857D02*
X126638050Y-109334904D01*
X126638050Y-109334904D02*
X126577573Y-109274428D01*
X126577573Y-109274428D02*
X126396145Y-109153476D01*
X126396145Y-109153476D02*
X126154240Y-109092999D01*
X126154240Y-109092999D02*
X125670430Y-109092999D01*
X125670430Y-109092999D02*
X125549478Y-109153476D01*
X125549478Y-109153476D02*
X125489002Y-109213952D01*
X125489002Y-109213952D02*
X125428526Y-109334904D01*
X125428526Y-109334904D02*
X125428526Y-109576809D01*
X125428526Y-109576809D02*
X125489002Y-109697761D01*
X125489002Y-109697761D02*
X125549478Y-109758238D01*
X125549478Y-109758238D02*
X125670430Y-109818714D01*
X125670430Y-109818714D02*
X125972811Y-109818714D01*
X125972811Y-109818714D02*
X126093764Y-109758238D01*
X126093764Y-109758238D02*
X126154240Y-109697761D01*
X126154240Y-109697761D02*
X126214716Y-109576809D01*
X126214716Y-109576809D02*
X126214716Y-109334904D01*
X126214716Y-109334904D02*
X126154240Y-109213952D01*
X126154240Y-109213952D02*
X126093764Y-109153476D01*
X126093764Y-109153476D02*
X125972811Y-109092999D01*
%TO.C,IC28*%
X134572526Y-112842524D02*
X133302526Y-112842524D01*
X134451573Y-111512047D02*
X134512050Y-111572523D01*
X134512050Y-111572523D02*
X134572526Y-111753952D01*
X134572526Y-111753952D02*
X134572526Y-111874904D01*
X134572526Y-111874904D02*
X134512050Y-112056333D01*
X134512050Y-112056333D02*
X134391097Y-112177285D01*
X134391097Y-112177285D02*
X134270145Y-112237762D01*
X134270145Y-112237762D02*
X134028240Y-112298238D01*
X134028240Y-112298238D02*
X133846811Y-112298238D01*
X133846811Y-112298238D02*
X133604907Y-112237762D01*
X133604907Y-112237762D02*
X133483954Y-112177285D01*
X133483954Y-112177285D02*
X133363002Y-112056333D01*
X133363002Y-112056333D02*
X133302526Y-111874904D01*
X133302526Y-111874904D02*
X133302526Y-111753952D01*
X133302526Y-111753952D02*
X133363002Y-111572523D01*
X133363002Y-111572523D02*
X133423478Y-111512047D01*
X133423478Y-111028238D02*
X133363002Y-110967762D01*
X133363002Y-110967762D02*
X133302526Y-110846809D01*
X133302526Y-110846809D02*
X133302526Y-110544428D01*
X133302526Y-110544428D02*
X133363002Y-110423476D01*
X133363002Y-110423476D02*
X133423478Y-110363000D01*
X133423478Y-110363000D02*
X133544430Y-110302523D01*
X133544430Y-110302523D02*
X133665383Y-110302523D01*
X133665383Y-110302523D02*
X133846811Y-110363000D01*
X133846811Y-110363000D02*
X134572526Y-111088714D01*
X134572526Y-111088714D02*
X134572526Y-110302523D01*
X133846811Y-109576809D02*
X133786335Y-109697761D01*
X133786335Y-109697761D02*
X133725859Y-109758238D01*
X133725859Y-109758238D02*
X133604907Y-109818714D01*
X133604907Y-109818714D02*
X133544430Y-109818714D01*
X133544430Y-109818714D02*
X133423478Y-109758238D01*
X133423478Y-109758238D02*
X133363002Y-109697761D01*
X133363002Y-109697761D02*
X133302526Y-109576809D01*
X133302526Y-109576809D02*
X133302526Y-109334904D01*
X133302526Y-109334904D02*
X133363002Y-109213952D01*
X133363002Y-109213952D02*
X133423478Y-109153476D01*
X133423478Y-109153476D02*
X133544430Y-109092999D01*
X133544430Y-109092999D02*
X133604907Y-109092999D01*
X133604907Y-109092999D02*
X133725859Y-109153476D01*
X133725859Y-109153476D02*
X133786335Y-109213952D01*
X133786335Y-109213952D02*
X133846811Y-109334904D01*
X133846811Y-109334904D02*
X133846811Y-109576809D01*
X133846811Y-109576809D02*
X133907288Y-109697761D01*
X133907288Y-109697761D02*
X133967764Y-109758238D01*
X133967764Y-109758238D02*
X134088716Y-109818714D01*
X134088716Y-109818714D02*
X134330621Y-109818714D01*
X134330621Y-109818714D02*
X134451573Y-109758238D01*
X134451573Y-109758238D02*
X134512050Y-109697761D01*
X134512050Y-109697761D02*
X134572526Y-109576809D01*
X134572526Y-109576809D02*
X134572526Y-109334904D01*
X134572526Y-109334904D02*
X134512050Y-109213952D01*
X134512050Y-109213952D02*
X134451573Y-109153476D01*
X134451573Y-109153476D02*
X134330621Y-109092999D01*
X134330621Y-109092999D02*
X134088716Y-109092999D01*
X134088716Y-109092999D02*
X133967764Y-109153476D01*
X133967764Y-109153476D02*
X133907288Y-109213952D01*
X133907288Y-109213952D02*
X133846811Y-109334904D01*
%TO.C,IC27*%
X142446526Y-112842524D02*
X141176526Y-112842524D01*
X142325573Y-111512047D02*
X142386050Y-111572523D01*
X142386050Y-111572523D02*
X142446526Y-111753952D01*
X142446526Y-111753952D02*
X142446526Y-111874904D01*
X142446526Y-111874904D02*
X142386050Y-112056333D01*
X142386050Y-112056333D02*
X142265097Y-112177285D01*
X142265097Y-112177285D02*
X142144145Y-112237762D01*
X142144145Y-112237762D02*
X141902240Y-112298238D01*
X141902240Y-112298238D02*
X141720811Y-112298238D01*
X141720811Y-112298238D02*
X141478907Y-112237762D01*
X141478907Y-112237762D02*
X141357954Y-112177285D01*
X141357954Y-112177285D02*
X141237002Y-112056333D01*
X141237002Y-112056333D02*
X141176526Y-111874904D01*
X141176526Y-111874904D02*
X141176526Y-111753952D01*
X141176526Y-111753952D02*
X141237002Y-111572523D01*
X141237002Y-111572523D02*
X141297478Y-111512047D01*
X141297478Y-111028238D02*
X141237002Y-110967762D01*
X141237002Y-110967762D02*
X141176526Y-110846809D01*
X141176526Y-110846809D02*
X141176526Y-110544428D01*
X141176526Y-110544428D02*
X141237002Y-110423476D01*
X141237002Y-110423476D02*
X141297478Y-110363000D01*
X141297478Y-110363000D02*
X141418430Y-110302523D01*
X141418430Y-110302523D02*
X141539383Y-110302523D01*
X141539383Y-110302523D02*
X141720811Y-110363000D01*
X141720811Y-110363000D02*
X142446526Y-111088714D01*
X142446526Y-111088714D02*
X142446526Y-110302523D01*
X141176526Y-109879190D02*
X141176526Y-109032523D01*
X141176526Y-109032523D02*
X142446526Y-109576809D01*
%TO.C,IC26*%
X150320526Y-112842524D02*
X149050526Y-112842524D01*
X150199573Y-111512047D02*
X150260050Y-111572523D01*
X150260050Y-111572523D02*
X150320526Y-111753952D01*
X150320526Y-111753952D02*
X150320526Y-111874904D01*
X150320526Y-111874904D02*
X150260050Y-112056333D01*
X150260050Y-112056333D02*
X150139097Y-112177285D01*
X150139097Y-112177285D02*
X150018145Y-112237762D01*
X150018145Y-112237762D02*
X149776240Y-112298238D01*
X149776240Y-112298238D02*
X149594811Y-112298238D01*
X149594811Y-112298238D02*
X149352907Y-112237762D01*
X149352907Y-112237762D02*
X149231954Y-112177285D01*
X149231954Y-112177285D02*
X149111002Y-112056333D01*
X149111002Y-112056333D02*
X149050526Y-111874904D01*
X149050526Y-111874904D02*
X149050526Y-111753952D01*
X149050526Y-111753952D02*
X149111002Y-111572523D01*
X149111002Y-111572523D02*
X149171478Y-111512047D01*
X149171478Y-111028238D02*
X149111002Y-110967762D01*
X149111002Y-110967762D02*
X149050526Y-110846809D01*
X149050526Y-110846809D02*
X149050526Y-110544428D01*
X149050526Y-110544428D02*
X149111002Y-110423476D01*
X149111002Y-110423476D02*
X149171478Y-110363000D01*
X149171478Y-110363000D02*
X149292430Y-110302523D01*
X149292430Y-110302523D02*
X149413383Y-110302523D01*
X149413383Y-110302523D02*
X149594811Y-110363000D01*
X149594811Y-110363000D02*
X150320526Y-111088714D01*
X150320526Y-111088714D02*
X150320526Y-110302523D01*
X149050526Y-109213952D02*
X149050526Y-109455857D01*
X149050526Y-109455857D02*
X149111002Y-109576809D01*
X149111002Y-109576809D02*
X149171478Y-109637285D01*
X149171478Y-109637285D02*
X149352907Y-109758238D01*
X149352907Y-109758238D02*
X149594811Y-109818714D01*
X149594811Y-109818714D02*
X150078621Y-109818714D01*
X150078621Y-109818714D02*
X150199573Y-109758238D01*
X150199573Y-109758238D02*
X150260050Y-109697761D01*
X150260050Y-109697761D02*
X150320526Y-109576809D01*
X150320526Y-109576809D02*
X150320526Y-109334904D01*
X150320526Y-109334904D02*
X150260050Y-109213952D01*
X150260050Y-109213952D02*
X150199573Y-109153476D01*
X150199573Y-109153476D02*
X150078621Y-109092999D01*
X150078621Y-109092999D02*
X149776240Y-109092999D01*
X149776240Y-109092999D02*
X149655288Y-109153476D01*
X149655288Y-109153476D02*
X149594811Y-109213952D01*
X149594811Y-109213952D02*
X149534335Y-109334904D01*
X149534335Y-109334904D02*
X149534335Y-109576809D01*
X149534335Y-109576809D02*
X149594811Y-109697761D01*
X149594811Y-109697761D02*
X149655288Y-109758238D01*
X149655288Y-109758238D02*
X149776240Y-109818714D01*
%TO.C,IC25*%
X158194526Y-112842524D02*
X156924526Y-112842524D01*
X158073573Y-111512047D02*
X158134050Y-111572523D01*
X158134050Y-111572523D02*
X158194526Y-111753952D01*
X158194526Y-111753952D02*
X158194526Y-111874904D01*
X158194526Y-111874904D02*
X158134050Y-112056333D01*
X158134050Y-112056333D02*
X158013097Y-112177285D01*
X158013097Y-112177285D02*
X157892145Y-112237762D01*
X157892145Y-112237762D02*
X157650240Y-112298238D01*
X157650240Y-112298238D02*
X157468811Y-112298238D01*
X157468811Y-112298238D02*
X157226907Y-112237762D01*
X157226907Y-112237762D02*
X157105954Y-112177285D01*
X157105954Y-112177285D02*
X156985002Y-112056333D01*
X156985002Y-112056333D02*
X156924526Y-111874904D01*
X156924526Y-111874904D02*
X156924526Y-111753952D01*
X156924526Y-111753952D02*
X156985002Y-111572523D01*
X156985002Y-111572523D02*
X157045478Y-111512047D01*
X157045478Y-111028238D02*
X156985002Y-110967762D01*
X156985002Y-110967762D02*
X156924526Y-110846809D01*
X156924526Y-110846809D02*
X156924526Y-110544428D01*
X156924526Y-110544428D02*
X156985002Y-110423476D01*
X156985002Y-110423476D02*
X157045478Y-110363000D01*
X157045478Y-110363000D02*
X157166430Y-110302523D01*
X157166430Y-110302523D02*
X157287383Y-110302523D01*
X157287383Y-110302523D02*
X157468811Y-110363000D01*
X157468811Y-110363000D02*
X158194526Y-111088714D01*
X158194526Y-111088714D02*
X158194526Y-110302523D01*
X156924526Y-109153476D02*
X156924526Y-109758238D01*
X156924526Y-109758238D02*
X157529288Y-109818714D01*
X157529288Y-109818714D02*
X157468811Y-109758238D01*
X157468811Y-109758238D02*
X157408335Y-109637285D01*
X157408335Y-109637285D02*
X157408335Y-109334904D01*
X157408335Y-109334904D02*
X157468811Y-109213952D01*
X157468811Y-109213952D02*
X157529288Y-109153476D01*
X157529288Y-109153476D02*
X157650240Y-109092999D01*
X157650240Y-109092999D02*
X157952621Y-109092999D01*
X157952621Y-109092999D02*
X158073573Y-109153476D01*
X158073573Y-109153476D02*
X158134050Y-109213952D01*
X158134050Y-109213952D02*
X158194526Y-109334904D01*
X158194526Y-109334904D02*
X158194526Y-109637285D01*
X158194526Y-109637285D02*
X158134050Y-109758238D01*
X158134050Y-109758238D02*
X158073573Y-109818714D01*
%TO.C,IC24*%
X212363875Y-84976726D02*
X212363875Y-83706726D01*
X213694352Y-84855773D02*
X213633876Y-84916250D01*
X213633876Y-84916250D02*
X213452447Y-84976726D01*
X213452447Y-84976726D02*
X213331495Y-84976726D01*
X213331495Y-84976726D02*
X213150066Y-84916250D01*
X213150066Y-84916250D02*
X213029114Y-84795297D01*
X213029114Y-84795297D02*
X212968637Y-84674345D01*
X212968637Y-84674345D02*
X212908161Y-84432440D01*
X212908161Y-84432440D02*
X212908161Y-84251011D01*
X212908161Y-84251011D02*
X212968637Y-84009107D01*
X212968637Y-84009107D02*
X213029114Y-83888154D01*
X213029114Y-83888154D02*
X213150066Y-83767202D01*
X213150066Y-83767202D02*
X213331495Y-83706726D01*
X213331495Y-83706726D02*
X213452447Y-83706726D01*
X213452447Y-83706726D02*
X213633876Y-83767202D01*
X213633876Y-83767202D02*
X213694352Y-83827678D01*
X214178161Y-83827678D02*
X214238637Y-83767202D01*
X214238637Y-83767202D02*
X214359590Y-83706726D01*
X214359590Y-83706726D02*
X214661971Y-83706726D01*
X214661971Y-83706726D02*
X214782923Y-83767202D01*
X214782923Y-83767202D02*
X214843399Y-83827678D01*
X214843399Y-83827678D02*
X214903876Y-83948630D01*
X214903876Y-83948630D02*
X214903876Y-84069583D01*
X214903876Y-84069583D02*
X214843399Y-84251011D01*
X214843399Y-84251011D02*
X214117685Y-84976726D01*
X214117685Y-84976726D02*
X214903876Y-84976726D01*
X215992447Y-84130059D02*
X215992447Y-84976726D01*
X215690066Y-83646250D02*
X215387685Y-84553392D01*
X215387685Y-84553392D02*
X216173876Y-84553392D01*
%TO.C,IC23*%
X207365075Y-84955926D02*
X207365075Y-83685926D01*
X208695552Y-84834973D02*
X208635076Y-84895450D01*
X208635076Y-84895450D02*
X208453647Y-84955926D01*
X208453647Y-84955926D02*
X208332695Y-84955926D01*
X208332695Y-84955926D02*
X208151266Y-84895450D01*
X208151266Y-84895450D02*
X208030314Y-84774497D01*
X208030314Y-84774497D02*
X207969837Y-84653545D01*
X207969837Y-84653545D02*
X207909361Y-84411640D01*
X207909361Y-84411640D02*
X207909361Y-84230211D01*
X207909361Y-84230211D02*
X207969837Y-83988307D01*
X207969837Y-83988307D02*
X208030314Y-83867354D01*
X208030314Y-83867354D02*
X208151266Y-83746402D01*
X208151266Y-83746402D02*
X208332695Y-83685926D01*
X208332695Y-83685926D02*
X208453647Y-83685926D01*
X208453647Y-83685926D02*
X208635076Y-83746402D01*
X208635076Y-83746402D02*
X208695552Y-83806878D01*
X209179361Y-83806878D02*
X209239837Y-83746402D01*
X209239837Y-83746402D02*
X209360790Y-83685926D01*
X209360790Y-83685926D02*
X209663171Y-83685926D01*
X209663171Y-83685926D02*
X209784123Y-83746402D01*
X209784123Y-83746402D02*
X209844599Y-83806878D01*
X209844599Y-83806878D02*
X209905076Y-83927830D01*
X209905076Y-83927830D02*
X209905076Y-84048783D01*
X209905076Y-84048783D02*
X209844599Y-84230211D01*
X209844599Y-84230211D02*
X209118885Y-84955926D01*
X209118885Y-84955926D02*
X209905076Y-84955926D01*
X210328409Y-83685926D02*
X211114600Y-83685926D01*
X211114600Y-83685926D02*
X210691266Y-84169735D01*
X210691266Y-84169735D02*
X210872695Y-84169735D01*
X210872695Y-84169735D02*
X210993647Y-84230211D01*
X210993647Y-84230211D02*
X211054123Y-84290688D01*
X211054123Y-84290688D02*
X211114600Y-84411640D01*
X211114600Y-84411640D02*
X211114600Y-84714021D01*
X211114600Y-84714021D02*
X211054123Y-84834973D01*
X211054123Y-84834973D02*
X210993647Y-84895450D01*
X210993647Y-84895450D02*
X210872695Y-84955926D01*
X210872695Y-84955926D02*
X210509838Y-84955926D01*
X210509838Y-84955926D02*
X210388885Y-84895450D01*
X210388885Y-84895450D02*
X210328409Y-84834973D01*
%TO.C,IC19*%
X217291475Y-84955926D02*
X217291475Y-83685926D01*
X218621952Y-84834973D02*
X218561476Y-84895450D01*
X218561476Y-84895450D02*
X218380047Y-84955926D01*
X218380047Y-84955926D02*
X218259095Y-84955926D01*
X218259095Y-84955926D02*
X218077666Y-84895450D01*
X218077666Y-84895450D02*
X217956714Y-84774497D01*
X217956714Y-84774497D02*
X217896237Y-84653545D01*
X217896237Y-84653545D02*
X217835761Y-84411640D01*
X217835761Y-84411640D02*
X217835761Y-84230211D01*
X217835761Y-84230211D02*
X217896237Y-83988307D01*
X217896237Y-83988307D02*
X217956714Y-83867354D01*
X217956714Y-83867354D02*
X218077666Y-83746402D01*
X218077666Y-83746402D02*
X218259095Y-83685926D01*
X218259095Y-83685926D02*
X218380047Y-83685926D01*
X218380047Y-83685926D02*
X218561476Y-83746402D01*
X218561476Y-83746402D02*
X218621952Y-83806878D01*
X219831476Y-84955926D02*
X219105761Y-84955926D01*
X219468618Y-84955926D02*
X219468618Y-83685926D01*
X219468618Y-83685926D02*
X219347666Y-83867354D01*
X219347666Y-83867354D02*
X219226714Y-83988307D01*
X219226714Y-83988307D02*
X219105761Y-84048783D01*
X220436238Y-84955926D02*
X220678142Y-84955926D01*
X220678142Y-84955926D02*
X220799095Y-84895450D01*
X220799095Y-84895450D02*
X220859571Y-84834973D01*
X220859571Y-84834973D02*
X220980523Y-84653545D01*
X220980523Y-84653545D02*
X221041000Y-84411640D01*
X221041000Y-84411640D02*
X221041000Y-83927830D01*
X221041000Y-83927830D02*
X220980523Y-83806878D01*
X220980523Y-83806878D02*
X220920047Y-83746402D01*
X220920047Y-83746402D02*
X220799095Y-83685926D01*
X220799095Y-83685926D02*
X220557190Y-83685926D01*
X220557190Y-83685926D02*
X220436238Y-83746402D01*
X220436238Y-83746402D02*
X220375761Y-83806878D01*
X220375761Y-83806878D02*
X220315285Y-83927830D01*
X220315285Y-83927830D02*
X220315285Y-84230211D01*
X220315285Y-84230211D02*
X220375761Y-84351164D01*
X220375761Y-84351164D02*
X220436238Y-84411640D01*
X220436238Y-84411640D02*
X220557190Y-84472116D01*
X220557190Y-84472116D02*
X220799095Y-84472116D01*
X220799095Y-84472116D02*
X220920047Y-84411640D01*
X220920047Y-84411640D02*
X220980523Y-84351164D01*
X220980523Y-84351164D02*
X221041000Y-84230211D01*
%TO.C,IC18*%
X200845280Y-114554168D02*
X201743306Y-113656142D01*
X201871595Y-115409430D02*
X201786069Y-115409430D01*
X201786069Y-115409430D02*
X201615017Y-115323904D01*
X201615017Y-115323904D02*
X201529490Y-115238378D01*
X201529490Y-115238378D02*
X201443964Y-115067325D01*
X201443964Y-115067325D02*
X201443964Y-114896273D01*
X201443964Y-114896273D02*
X201486727Y-114767983D01*
X201486727Y-114767983D02*
X201615017Y-114554168D01*
X201615017Y-114554168D02*
X201743306Y-114425878D01*
X201743306Y-114425878D02*
X201957122Y-114297589D01*
X201957122Y-114297589D02*
X202085411Y-114254826D01*
X202085411Y-114254826D02*
X202256463Y-114254826D01*
X202256463Y-114254826D02*
X202427516Y-114340352D01*
X202427516Y-114340352D02*
X202513042Y-114425878D01*
X202513042Y-114425878D02*
X202598568Y-114596931D01*
X202598568Y-114596931D02*
X202598568Y-114682457D01*
X202641332Y-116350219D02*
X202128174Y-115837062D01*
X202384753Y-116093640D02*
X203282778Y-115195615D01*
X203282778Y-115195615D02*
X203068963Y-115238378D01*
X203068963Y-115238378D02*
X202897910Y-115238378D01*
X202897910Y-115238378D02*
X202769621Y-115195615D01*
X203667647Y-116350219D02*
X203624884Y-116221930D01*
X203624884Y-116221930D02*
X203624884Y-116136404D01*
X203624884Y-116136404D02*
X203667647Y-116008114D01*
X203667647Y-116008114D02*
X203710410Y-115965351D01*
X203710410Y-115965351D02*
X203838699Y-115922588D01*
X203838699Y-115922588D02*
X203924225Y-115922588D01*
X203924225Y-115922588D02*
X204052515Y-115965351D01*
X204052515Y-115965351D02*
X204223567Y-116136404D01*
X204223567Y-116136404D02*
X204266330Y-116264693D01*
X204266330Y-116264693D02*
X204266330Y-116350219D01*
X204266330Y-116350219D02*
X204223567Y-116478509D01*
X204223567Y-116478509D02*
X204180804Y-116521272D01*
X204180804Y-116521272D02*
X204052515Y-116564035D01*
X204052515Y-116564035D02*
X203966989Y-116564035D01*
X203966989Y-116564035D02*
X203838699Y-116521272D01*
X203838699Y-116521272D02*
X203667647Y-116350219D01*
X203667647Y-116350219D02*
X203539357Y-116307456D01*
X203539357Y-116307456D02*
X203453831Y-116307456D01*
X203453831Y-116307456D02*
X203325542Y-116350219D01*
X203325542Y-116350219D02*
X203154489Y-116521272D01*
X203154489Y-116521272D02*
X203111726Y-116649561D01*
X203111726Y-116649561D02*
X203111726Y-116735087D01*
X203111726Y-116735087D02*
X203154489Y-116863377D01*
X203154489Y-116863377D02*
X203325542Y-117034429D01*
X203325542Y-117034429D02*
X203453831Y-117077192D01*
X203453831Y-117077192D02*
X203539357Y-117077192D01*
X203539357Y-117077192D02*
X203667647Y-117034429D01*
X203667647Y-117034429D02*
X203838699Y-116863377D01*
X203838699Y-116863377D02*
X203881462Y-116735087D01*
X203881462Y-116735087D02*
X203881462Y-116649561D01*
X203881462Y-116649561D02*
X203838699Y-116521272D01*
%TO.C,IC17*%
X191214526Y-106238524D02*
X189944526Y-106238524D01*
X191093573Y-104908047D02*
X191154050Y-104968523D01*
X191154050Y-104968523D02*
X191214526Y-105149952D01*
X191214526Y-105149952D02*
X191214526Y-105270904D01*
X191214526Y-105270904D02*
X191154050Y-105452333D01*
X191154050Y-105452333D02*
X191033097Y-105573285D01*
X191033097Y-105573285D02*
X190912145Y-105633762D01*
X190912145Y-105633762D02*
X190670240Y-105694238D01*
X190670240Y-105694238D02*
X190488811Y-105694238D01*
X190488811Y-105694238D02*
X190246907Y-105633762D01*
X190246907Y-105633762D02*
X190125954Y-105573285D01*
X190125954Y-105573285D02*
X190005002Y-105452333D01*
X190005002Y-105452333D02*
X189944526Y-105270904D01*
X189944526Y-105270904D02*
X189944526Y-105149952D01*
X189944526Y-105149952D02*
X190005002Y-104968523D01*
X190005002Y-104968523D02*
X190065478Y-104908047D01*
X191214526Y-103698523D02*
X191214526Y-104424238D01*
X191214526Y-104061381D02*
X189944526Y-104061381D01*
X189944526Y-104061381D02*
X190125954Y-104182333D01*
X190125954Y-104182333D02*
X190246907Y-104303285D01*
X190246907Y-104303285D02*
X190307383Y-104424238D01*
X189944526Y-103275190D02*
X189944526Y-102428523D01*
X189944526Y-102428523D02*
X191214526Y-102972809D01*
%TO.C,IC16*%
X199088526Y-106238524D02*
X197818526Y-106238524D01*
X198967573Y-104908047D02*
X199028050Y-104968523D01*
X199028050Y-104968523D02*
X199088526Y-105149952D01*
X199088526Y-105149952D02*
X199088526Y-105270904D01*
X199088526Y-105270904D02*
X199028050Y-105452333D01*
X199028050Y-105452333D02*
X198907097Y-105573285D01*
X198907097Y-105573285D02*
X198786145Y-105633762D01*
X198786145Y-105633762D02*
X198544240Y-105694238D01*
X198544240Y-105694238D02*
X198362811Y-105694238D01*
X198362811Y-105694238D02*
X198120907Y-105633762D01*
X198120907Y-105633762D02*
X197999954Y-105573285D01*
X197999954Y-105573285D02*
X197879002Y-105452333D01*
X197879002Y-105452333D02*
X197818526Y-105270904D01*
X197818526Y-105270904D02*
X197818526Y-105149952D01*
X197818526Y-105149952D02*
X197879002Y-104968523D01*
X197879002Y-104968523D02*
X197939478Y-104908047D01*
X199088526Y-103698523D02*
X199088526Y-104424238D01*
X199088526Y-104061381D02*
X197818526Y-104061381D01*
X197818526Y-104061381D02*
X197999954Y-104182333D01*
X197999954Y-104182333D02*
X198120907Y-104303285D01*
X198120907Y-104303285D02*
X198181383Y-104424238D01*
X197818526Y-102609952D02*
X197818526Y-102851857D01*
X197818526Y-102851857D02*
X197879002Y-102972809D01*
X197879002Y-102972809D02*
X197939478Y-103033285D01*
X197939478Y-103033285D02*
X198120907Y-103154238D01*
X198120907Y-103154238D02*
X198362811Y-103214714D01*
X198362811Y-103214714D02*
X198846621Y-103214714D01*
X198846621Y-103214714D02*
X198967573Y-103154238D01*
X198967573Y-103154238D02*
X199028050Y-103093761D01*
X199028050Y-103093761D02*
X199088526Y-102972809D01*
X199088526Y-102972809D02*
X199088526Y-102730904D01*
X199088526Y-102730904D02*
X199028050Y-102609952D01*
X199028050Y-102609952D02*
X198967573Y-102549476D01*
X198967573Y-102549476D02*
X198846621Y-102488999D01*
X198846621Y-102488999D02*
X198544240Y-102488999D01*
X198544240Y-102488999D02*
X198423288Y-102549476D01*
X198423288Y-102549476D02*
X198362811Y-102609952D01*
X198362811Y-102609952D02*
X198302335Y-102730904D01*
X198302335Y-102730904D02*
X198302335Y-102972809D01*
X198302335Y-102972809D02*
X198362811Y-103093761D01*
X198362811Y-103093761D02*
X198423288Y-103154238D01*
X198423288Y-103154238D02*
X198544240Y-103214714D01*
%TO.C,IC15*%
X206962526Y-106238524D02*
X205692526Y-106238524D01*
X206841573Y-104908047D02*
X206902050Y-104968523D01*
X206902050Y-104968523D02*
X206962526Y-105149952D01*
X206962526Y-105149952D02*
X206962526Y-105270904D01*
X206962526Y-105270904D02*
X206902050Y-105452333D01*
X206902050Y-105452333D02*
X206781097Y-105573285D01*
X206781097Y-105573285D02*
X206660145Y-105633762D01*
X206660145Y-105633762D02*
X206418240Y-105694238D01*
X206418240Y-105694238D02*
X206236811Y-105694238D01*
X206236811Y-105694238D02*
X205994907Y-105633762D01*
X205994907Y-105633762D02*
X205873954Y-105573285D01*
X205873954Y-105573285D02*
X205753002Y-105452333D01*
X205753002Y-105452333D02*
X205692526Y-105270904D01*
X205692526Y-105270904D02*
X205692526Y-105149952D01*
X205692526Y-105149952D02*
X205753002Y-104968523D01*
X205753002Y-104968523D02*
X205813478Y-104908047D01*
X206962526Y-103698523D02*
X206962526Y-104424238D01*
X206962526Y-104061381D02*
X205692526Y-104061381D01*
X205692526Y-104061381D02*
X205873954Y-104182333D01*
X205873954Y-104182333D02*
X205994907Y-104303285D01*
X205994907Y-104303285D02*
X206055383Y-104424238D01*
X205692526Y-102549476D02*
X205692526Y-103154238D01*
X205692526Y-103154238D02*
X206297288Y-103214714D01*
X206297288Y-103214714D02*
X206236811Y-103154238D01*
X206236811Y-103154238D02*
X206176335Y-103033285D01*
X206176335Y-103033285D02*
X206176335Y-102730904D01*
X206176335Y-102730904D02*
X206236811Y-102609952D01*
X206236811Y-102609952D02*
X206297288Y-102549476D01*
X206297288Y-102549476D02*
X206418240Y-102488999D01*
X206418240Y-102488999D02*
X206720621Y-102488999D01*
X206720621Y-102488999D02*
X206841573Y-102549476D01*
X206841573Y-102549476D02*
X206902050Y-102609952D01*
X206902050Y-102609952D02*
X206962526Y-102730904D01*
X206962526Y-102730904D02*
X206962526Y-103033285D01*
X206962526Y-103033285D02*
X206902050Y-103154238D01*
X206902050Y-103154238D02*
X206841573Y-103214714D01*
%TO.C,IC14*%
X102949526Y-112842524D02*
X101679526Y-112842524D01*
X102828573Y-111512047D02*
X102889050Y-111572523D01*
X102889050Y-111572523D02*
X102949526Y-111753952D01*
X102949526Y-111753952D02*
X102949526Y-111874904D01*
X102949526Y-111874904D02*
X102889050Y-112056333D01*
X102889050Y-112056333D02*
X102768097Y-112177285D01*
X102768097Y-112177285D02*
X102647145Y-112237762D01*
X102647145Y-112237762D02*
X102405240Y-112298238D01*
X102405240Y-112298238D02*
X102223811Y-112298238D01*
X102223811Y-112298238D02*
X101981907Y-112237762D01*
X101981907Y-112237762D02*
X101860954Y-112177285D01*
X101860954Y-112177285D02*
X101740002Y-112056333D01*
X101740002Y-112056333D02*
X101679526Y-111874904D01*
X101679526Y-111874904D02*
X101679526Y-111753952D01*
X101679526Y-111753952D02*
X101740002Y-111572523D01*
X101740002Y-111572523D02*
X101800478Y-111512047D01*
X102949526Y-110302523D02*
X102949526Y-111028238D01*
X102949526Y-110665381D02*
X101679526Y-110665381D01*
X101679526Y-110665381D02*
X101860954Y-110786333D01*
X101860954Y-110786333D02*
X101981907Y-110907285D01*
X101981907Y-110907285D02*
X102042383Y-111028238D01*
X102102859Y-109213952D02*
X102949526Y-109213952D01*
X101619050Y-109516333D02*
X102526192Y-109818714D01*
X102526192Y-109818714D02*
X102526192Y-109032523D01*
%TO.C,IC13*%
X110823526Y-112842524D02*
X109553526Y-112842524D01*
X110702573Y-111512047D02*
X110763050Y-111572523D01*
X110763050Y-111572523D02*
X110823526Y-111753952D01*
X110823526Y-111753952D02*
X110823526Y-111874904D01*
X110823526Y-111874904D02*
X110763050Y-112056333D01*
X110763050Y-112056333D02*
X110642097Y-112177285D01*
X110642097Y-112177285D02*
X110521145Y-112237762D01*
X110521145Y-112237762D02*
X110279240Y-112298238D01*
X110279240Y-112298238D02*
X110097811Y-112298238D01*
X110097811Y-112298238D02*
X109855907Y-112237762D01*
X109855907Y-112237762D02*
X109734954Y-112177285D01*
X109734954Y-112177285D02*
X109614002Y-112056333D01*
X109614002Y-112056333D02*
X109553526Y-111874904D01*
X109553526Y-111874904D02*
X109553526Y-111753952D01*
X109553526Y-111753952D02*
X109614002Y-111572523D01*
X109614002Y-111572523D02*
X109674478Y-111512047D01*
X110823526Y-110302523D02*
X110823526Y-111028238D01*
X110823526Y-110665381D02*
X109553526Y-110665381D01*
X109553526Y-110665381D02*
X109734954Y-110786333D01*
X109734954Y-110786333D02*
X109855907Y-110907285D01*
X109855907Y-110907285D02*
X109916383Y-111028238D01*
X109553526Y-109879190D02*
X109553526Y-109092999D01*
X109553526Y-109092999D02*
X110037335Y-109516333D01*
X110037335Y-109516333D02*
X110037335Y-109334904D01*
X110037335Y-109334904D02*
X110097811Y-109213952D01*
X110097811Y-109213952D02*
X110158288Y-109153476D01*
X110158288Y-109153476D02*
X110279240Y-109092999D01*
X110279240Y-109092999D02*
X110581621Y-109092999D01*
X110581621Y-109092999D02*
X110702573Y-109153476D01*
X110702573Y-109153476D02*
X110763050Y-109213952D01*
X110763050Y-109213952D02*
X110823526Y-109334904D01*
X110823526Y-109334904D02*
X110823526Y-109697761D01*
X110823526Y-109697761D02*
X110763050Y-109818714D01*
X110763050Y-109818714D02*
X110702573Y-109879190D01*
%TO.C,IC12*%
X186659075Y-84824326D02*
X186659075Y-83554326D01*
X187989552Y-84703373D02*
X187929076Y-84763850D01*
X187929076Y-84763850D02*
X187747647Y-84824326D01*
X187747647Y-84824326D02*
X187626695Y-84824326D01*
X187626695Y-84824326D02*
X187445266Y-84763850D01*
X187445266Y-84763850D02*
X187324314Y-84642897D01*
X187324314Y-84642897D02*
X187263837Y-84521945D01*
X187263837Y-84521945D02*
X187203361Y-84280040D01*
X187203361Y-84280040D02*
X187203361Y-84098611D01*
X187203361Y-84098611D02*
X187263837Y-83856707D01*
X187263837Y-83856707D02*
X187324314Y-83735754D01*
X187324314Y-83735754D02*
X187445266Y-83614802D01*
X187445266Y-83614802D02*
X187626695Y-83554326D01*
X187626695Y-83554326D02*
X187747647Y-83554326D01*
X187747647Y-83554326D02*
X187929076Y-83614802D01*
X187929076Y-83614802D02*
X187989552Y-83675278D01*
X189199076Y-84824326D02*
X188473361Y-84824326D01*
X188836218Y-84824326D02*
X188836218Y-83554326D01*
X188836218Y-83554326D02*
X188715266Y-83735754D01*
X188715266Y-83735754D02*
X188594314Y-83856707D01*
X188594314Y-83856707D02*
X188473361Y-83917183D01*
X189682885Y-83675278D02*
X189743361Y-83614802D01*
X189743361Y-83614802D02*
X189864314Y-83554326D01*
X189864314Y-83554326D02*
X190166695Y-83554326D01*
X190166695Y-83554326D02*
X190287647Y-83614802D01*
X190287647Y-83614802D02*
X190348123Y-83675278D01*
X190348123Y-83675278D02*
X190408600Y-83796230D01*
X190408600Y-83796230D02*
X190408600Y-83917183D01*
X190408600Y-83917183D02*
X190348123Y-84098611D01*
X190348123Y-84098611D02*
X189622409Y-84824326D01*
X189622409Y-84824326D02*
X190408600Y-84824326D01*
%TO.C,IC11*%
X194533075Y-85027526D02*
X194533075Y-83757526D01*
X195863552Y-84906573D02*
X195803076Y-84967050D01*
X195803076Y-84967050D02*
X195621647Y-85027526D01*
X195621647Y-85027526D02*
X195500695Y-85027526D01*
X195500695Y-85027526D02*
X195319266Y-84967050D01*
X195319266Y-84967050D02*
X195198314Y-84846097D01*
X195198314Y-84846097D02*
X195137837Y-84725145D01*
X195137837Y-84725145D02*
X195077361Y-84483240D01*
X195077361Y-84483240D02*
X195077361Y-84301811D01*
X195077361Y-84301811D02*
X195137837Y-84059907D01*
X195137837Y-84059907D02*
X195198314Y-83938954D01*
X195198314Y-83938954D02*
X195319266Y-83818002D01*
X195319266Y-83818002D02*
X195500695Y-83757526D01*
X195500695Y-83757526D02*
X195621647Y-83757526D01*
X195621647Y-83757526D02*
X195803076Y-83818002D01*
X195803076Y-83818002D02*
X195863552Y-83878478D01*
X197073076Y-85027526D02*
X196347361Y-85027526D01*
X196710218Y-85027526D02*
X196710218Y-83757526D01*
X196710218Y-83757526D02*
X196589266Y-83938954D01*
X196589266Y-83938954D02*
X196468314Y-84059907D01*
X196468314Y-84059907D02*
X196347361Y-84120383D01*
X198282600Y-85027526D02*
X197556885Y-85027526D01*
X197919742Y-85027526D02*
X197919742Y-83757526D01*
X197919742Y-83757526D02*
X197798790Y-83938954D01*
X197798790Y-83938954D02*
X197677838Y-84059907D01*
X197677838Y-84059907D02*
X197556885Y-84120383D01*
%TO.C,IC10*%
X202386675Y-84905126D02*
X202386675Y-83635126D01*
X203717152Y-84784173D02*
X203656676Y-84844650D01*
X203656676Y-84844650D02*
X203475247Y-84905126D01*
X203475247Y-84905126D02*
X203354295Y-84905126D01*
X203354295Y-84905126D02*
X203172866Y-84844650D01*
X203172866Y-84844650D02*
X203051914Y-84723697D01*
X203051914Y-84723697D02*
X202991437Y-84602745D01*
X202991437Y-84602745D02*
X202930961Y-84360840D01*
X202930961Y-84360840D02*
X202930961Y-84179411D01*
X202930961Y-84179411D02*
X202991437Y-83937507D01*
X202991437Y-83937507D02*
X203051914Y-83816554D01*
X203051914Y-83816554D02*
X203172866Y-83695602D01*
X203172866Y-83695602D02*
X203354295Y-83635126D01*
X203354295Y-83635126D02*
X203475247Y-83635126D01*
X203475247Y-83635126D02*
X203656676Y-83695602D01*
X203656676Y-83695602D02*
X203717152Y-83756078D01*
X204926676Y-84905126D02*
X204200961Y-84905126D01*
X204563818Y-84905126D02*
X204563818Y-83635126D01*
X204563818Y-83635126D02*
X204442866Y-83816554D01*
X204442866Y-83816554D02*
X204321914Y-83937507D01*
X204321914Y-83937507D02*
X204200961Y-83997983D01*
X205712866Y-83635126D02*
X205833819Y-83635126D01*
X205833819Y-83635126D02*
X205954771Y-83695602D01*
X205954771Y-83695602D02*
X206015247Y-83756078D01*
X206015247Y-83756078D02*
X206075723Y-83877030D01*
X206075723Y-83877030D02*
X206136200Y-84118935D01*
X206136200Y-84118935D02*
X206136200Y-84421316D01*
X206136200Y-84421316D02*
X206075723Y-84663221D01*
X206075723Y-84663221D02*
X206015247Y-84784173D01*
X206015247Y-84784173D02*
X205954771Y-84844650D01*
X205954771Y-84844650D02*
X205833819Y-84905126D01*
X205833819Y-84905126D02*
X205712866Y-84905126D01*
X205712866Y-84905126D02*
X205591914Y-84844650D01*
X205591914Y-84844650D02*
X205531438Y-84784173D01*
X205531438Y-84784173D02*
X205470961Y-84663221D01*
X205470961Y-84663221D02*
X205410485Y-84421316D01*
X205410485Y-84421316D02*
X205410485Y-84118935D01*
X205410485Y-84118935D02*
X205470961Y-83877030D01*
X205470961Y-83877030D02*
X205531438Y-83756078D01*
X205531438Y-83756078D02*
X205591914Y-83695602D01*
X205591914Y-83695602D02*
X205712866Y-83635126D01*
%TO.C,IC8*%
X171444637Y-84875126D02*
X171444637Y-83605126D01*
X172775114Y-84754173D02*
X172714638Y-84814650D01*
X172714638Y-84814650D02*
X172533209Y-84875126D01*
X172533209Y-84875126D02*
X172412257Y-84875126D01*
X172412257Y-84875126D02*
X172230828Y-84814650D01*
X172230828Y-84814650D02*
X172109876Y-84693697D01*
X172109876Y-84693697D02*
X172049399Y-84572745D01*
X172049399Y-84572745D02*
X171988923Y-84330840D01*
X171988923Y-84330840D02*
X171988923Y-84149411D01*
X171988923Y-84149411D02*
X172049399Y-83907507D01*
X172049399Y-83907507D02*
X172109876Y-83786554D01*
X172109876Y-83786554D02*
X172230828Y-83665602D01*
X172230828Y-83665602D02*
X172412257Y-83605126D01*
X172412257Y-83605126D02*
X172533209Y-83605126D01*
X172533209Y-83605126D02*
X172714638Y-83665602D01*
X172714638Y-83665602D02*
X172775114Y-83726078D01*
X173500828Y-84149411D02*
X173379876Y-84088935D01*
X173379876Y-84088935D02*
X173319399Y-84028459D01*
X173319399Y-84028459D02*
X173258923Y-83907507D01*
X173258923Y-83907507D02*
X173258923Y-83847030D01*
X173258923Y-83847030D02*
X173319399Y-83726078D01*
X173319399Y-83726078D02*
X173379876Y-83665602D01*
X173379876Y-83665602D02*
X173500828Y-83605126D01*
X173500828Y-83605126D02*
X173742733Y-83605126D01*
X173742733Y-83605126D02*
X173863685Y-83665602D01*
X173863685Y-83665602D02*
X173924161Y-83726078D01*
X173924161Y-83726078D02*
X173984638Y-83847030D01*
X173984638Y-83847030D02*
X173984638Y-83907507D01*
X173984638Y-83907507D02*
X173924161Y-84028459D01*
X173924161Y-84028459D02*
X173863685Y-84088935D01*
X173863685Y-84088935D02*
X173742733Y-84149411D01*
X173742733Y-84149411D02*
X173500828Y-84149411D01*
X173500828Y-84149411D02*
X173379876Y-84209888D01*
X173379876Y-84209888D02*
X173319399Y-84270364D01*
X173319399Y-84270364D02*
X173258923Y-84391316D01*
X173258923Y-84391316D02*
X173258923Y-84633221D01*
X173258923Y-84633221D02*
X173319399Y-84754173D01*
X173319399Y-84754173D02*
X173379876Y-84814650D01*
X173379876Y-84814650D02*
X173500828Y-84875126D01*
X173500828Y-84875126D02*
X173742733Y-84875126D01*
X173742733Y-84875126D02*
X173863685Y-84814650D01*
X173863685Y-84814650D02*
X173924161Y-84754173D01*
X173924161Y-84754173D02*
X173984638Y-84633221D01*
X173984638Y-84633221D02*
X173984638Y-84391316D01*
X173984638Y-84391316D02*
X173924161Y-84270364D01*
X173924161Y-84270364D02*
X173863685Y-84209888D01*
X173863685Y-84209888D02*
X173742733Y-84149411D01*
%TO.C,IC7*%
X179318637Y-84875126D02*
X179318637Y-83605126D01*
X180649114Y-84754173D02*
X180588638Y-84814650D01*
X180588638Y-84814650D02*
X180407209Y-84875126D01*
X180407209Y-84875126D02*
X180286257Y-84875126D01*
X180286257Y-84875126D02*
X180104828Y-84814650D01*
X180104828Y-84814650D02*
X179983876Y-84693697D01*
X179983876Y-84693697D02*
X179923399Y-84572745D01*
X179923399Y-84572745D02*
X179862923Y-84330840D01*
X179862923Y-84330840D02*
X179862923Y-84149411D01*
X179862923Y-84149411D02*
X179923399Y-83907507D01*
X179923399Y-83907507D02*
X179983876Y-83786554D01*
X179983876Y-83786554D02*
X180104828Y-83665602D01*
X180104828Y-83665602D02*
X180286257Y-83605126D01*
X180286257Y-83605126D02*
X180407209Y-83605126D01*
X180407209Y-83605126D02*
X180588638Y-83665602D01*
X180588638Y-83665602D02*
X180649114Y-83726078D01*
X181072447Y-83605126D02*
X181919114Y-83605126D01*
X181919114Y-83605126D02*
X181374828Y-84875126D01*
%TO.C,IC6*%
X172926526Y-92298762D02*
X171656526Y-92298762D01*
X172805573Y-90968285D02*
X172866050Y-91028761D01*
X172866050Y-91028761D02*
X172926526Y-91210190D01*
X172926526Y-91210190D02*
X172926526Y-91331142D01*
X172926526Y-91331142D02*
X172866050Y-91512571D01*
X172866050Y-91512571D02*
X172745097Y-91633523D01*
X172745097Y-91633523D02*
X172624145Y-91694000D01*
X172624145Y-91694000D02*
X172382240Y-91754476D01*
X172382240Y-91754476D02*
X172200811Y-91754476D01*
X172200811Y-91754476D02*
X171958907Y-91694000D01*
X171958907Y-91694000D02*
X171837954Y-91633523D01*
X171837954Y-91633523D02*
X171717002Y-91512571D01*
X171717002Y-91512571D02*
X171656526Y-91331142D01*
X171656526Y-91331142D02*
X171656526Y-91210190D01*
X171656526Y-91210190D02*
X171717002Y-91028761D01*
X171717002Y-91028761D02*
X171777478Y-90968285D01*
X171656526Y-89879714D02*
X171656526Y-90121619D01*
X171656526Y-90121619D02*
X171717002Y-90242571D01*
X171717002Y-90242571D02*
X171777478Y-90303047D01*
X171777478Y-90303047D02*
X171958907Y-90424000D01*
X171958907Y-90424000D02*
X172200811Y-90484476D01*
X172200811Y-90484476D02*
X172684621Y-90484476D01*
X172684621Y-90484476D02*
X172805573Y-90424000D01*
X172805573Y-90424000D02*
X172866050Y-90363523D01*
X172866050Y-90363523D02*
X172926526Y-90242571D01*
X172926526Y-90242571D02*
X172926526Y-90000666D01*
X172926526Y-90000666D02*
X172866050Y-89879714D01*
X172866050Y-89879714D02*
X172805573Y-89819238D01*
X172805573Y-89819238D02*
X172684621Y-89758761D01*
X172684621Y-89758761D02*
X172382240Y-89758761D01*
X172382240Y-89758761D02*
X172261288Y-89819238D01*
X172261288Y-89819238D02*
X172200811Y-89879714D01*
X172200811Y-89879714D02*
X172140335Y-90000666D01*
X172140335Y-90000666D02*
X172140335Y-90242571D01*
X172140335Y-90242571D02*
X172200811Y-90363523D01*
X172200811Y-90363523D02*
X172261288Y-90424000D01*
X172261288Y-90424000D02*
X172382240Y-90484476D01*
%TO.C,IC5*%
X180800526Y-92298762D02*
X179530526Y-92298762D01*
X180679573Y-90968285D02*
X180740050Y-91028761D01*
X180740050Y-91028761D02*
X180800526Y-91210190D01*
X180800526Y-91210190D02*
X180800526Y-91331142D01*
X180800526Y-91331142D02*
X180740050Y-91512571D01*
X180740050Y-91512571D02*
X180619097Y-91633523D01*
X180619097Y-91633523D02*
X180498145Y-91694000D01*
X180498145Y-91694000D02*
X180256240Y-91754476D01*
X180256240Y-91754476D02*
X180074811Y-91754476D01*
X180074811Y-91754476D02*
X179832907Y-91694000D01*
X179832907Y-91694000D02*
X179711954Y-91633523D01*
X179711954Y-91633523D02*
X179591002Y-91512571D01*
X179591002Y-91512571D02*
X179530526Y-91331142D01*
X179530526Y-91331142D02*
X179530526Y-91210190D01*
X179530526Y-91210190D02*
X179591002Y-91028761D01*
X179591002Y-91028761D02*
X179651478Y-90968285D01*
X179530526Y-89819238D02*
X179530526Y-90424000D01*
X179530526Y-90424000D02*
X180135288Y-90484476D01*
X180135288Y-90484476D02*
X180074811Y-90424000D01*
X180074811Y-90424000D02*
X180014335Y-90303047D01*
X180014335Y-90303047D02*
X180014335Y-90000666D01*
X180014335Y-90000666D02*
X180074811Y-89879714D01*
X180074811Y-89879714D02*
X180135288Y-89819238D01*
X180135288Y-89819238D02*
X180256240Y-89758761D01*
X180256240Y-89758761D02*
X180558621Y-89758761D01*
X180558621Y-89758761D02*
X180679573Y-89819238D01*
X180679573Y-89819238D02*
X180740050Y-89879714D01*
X180740050Y-89879714D02*
X180800526Y-90000666D01*
X180800526Y-90000666D02*
X180800526Y-90303047D01*
X180800526Y-90303047D02*
X180740050Y-90424000D01*
X180740050Y-90424000D02*
X180679573Y-90484476D01*
%TO.C,IC4*%
X188674526Y-92298762D02*
X187404526Y-92298762D01*
X188553573Y-90968285D02*
X188614050Y-91028761D01*
X188614050Y-91028761D02*
X188674526Y-91210190D01*
X188674526Y-91210190D02*
X188674526Y-91331142D01*
X188674526Y-91331142D02*
X188614050Y-91512571D01*
X188614050Y-91512571D02*
X188493097Y-91633523D01*
X188493097Y-91633523D02*
X188372145Y-91694000D01*
X188372145Y-91694000D02*
X188130240Y-91754476D01*
X188130240Y-91754476D02*
X187948811Y-91754476D01*
X187948811Y-91754476D02*
X187706907Y-91694000D01*
X187706907Y-91694000D02*
X187585954Y-91633523D01*
X187585954Y-91633523D02*
X187465002Y-91512571D01*
X187465002Y-91512571D02*
X187404526Y-91331142D01*
X187404526Y-91331142D02*
X187404526Y-91210190D01*
X187404526Y-91210190D02*
X187465002Y-91028761D01*
X187465002Y-91028761D02*
X187525478Y-90968285D01*
X187827859Y-89879714D02*
X188674526Y-89879714D01*
X187344050Y-90182095D02*
X188251192Y-90484476D01*
X188251192Y-90484476D02*
X188251192Y-89698285D01*
%TO.C,IC3*%
X196548526Y-92298762D02*
X195278526Y-92298762D01*
X196427573Y-90968285D02*
X196488050Y-91028761D01*
X196488050Y-91028761D02*
X196548526Y-91210190D01*
X196548526Y-91210190D02*
X196548526Y-91331142D01*
X196548526Y-91331142D02*
X196488050Y-91512571D01*
X196488050Y-91512571D02*
X196367097Y-91633523D01*
X196367097Y-91633523D02*
X196246145Y-91694000D01*
X196246145Y-91694000D02*
X196004240Y-91754476D01*
X196004240Y-91754476D02*
X195822811Y-91754476D01*
X195822811Y-91754476D02*
X195580907Y-91694000D01*
X195580907Y-91694000D02*
X195459954Y-91633523D01*
X195459954Y-91633523D02*
X195339002Y-91512571D01*
X195339002Y-91512571D02*
X195278526Y-91331142D01*
X195278526Y-91331142D02*
X195278526Y-91210190D01*
X195278526Y-91210190D02*
X195339002Y-91028761D01*
X195339002Y-91028761D02*
X195399478Y-90968285D01*
X195278526Y-90544952D02*
X195278526Y-89758761D01*
X195278526Y-89758761D02*
X195762335Y-90182095D01*
X195762335Y-90182095D02*
X195762335Y-90000666D01*
X195762335Y-90000666D02*
X195822811Y-89879714D01*
X195822811Y-89879714D02*
X195883288Y-89819238D01*
X195883288Y-89819238D02*
X196004240Y-89758761D01*
X196004240Y-89758761D02*
X196306621Y-89758761D01*
X196306621Y-89758761D02*
X196427573Y-89819238D01*
X196427573Y-89819238D02*
X196488050Y-89879714D01*
X196488050Y-89879714D02*
X196548526Y-90000666D01*
X196548526Y-90000666D02*
X196548526Y-90363523D01*
X196548526Y-90363523D02*
X196488050Y-90484476D01*
X196488050Y-90484476D02*
X196427573Y-90544952D01*
%TO.C,IC2*%
X204422526Y-92298762D02*
X203152526Y-92298762D01*
X204301573Y-90968285D02*
X204362050Y-91028761D01*
X204362050Y-91028761D02*
X204422526Y-91210190D01*
X204422526Y-91210190D02*
X204422526Y-91331142D01*
X204422526Y-91331142D02*
X204362050Y-91512571D01*
X204362050Y-91512571D02*
X204241097Y-91633523D01*
X204241097Y-91633523D02*
X204120145Y-91694000D01*
X204120145Y-91694000D02*
X203878240Y-91754476D01*
X203878240Y-91754476D02*
X203696811Y-91754476D01*
X203696811Y-91754476D02*
X203454907Y-91694000D01*
X203454907Y-91694000D02*
X203333954Y-91633523D01*
X203333954Y-91633523D02*
X203213002Y-91512571D01*
X203213002Y-91512571D02*
X203152526Y-91331142D01*
X203152526Y-91331142D02*
X203152526Y-91210190D01*
X203152526Y-91210190D02*
X203213002Y-91028761D01*
X203213002Y-91028761D02*
X203273478Y-90968285D01*
X203273478Y-90484476D02*
X203213002Y-90424000D01*
X203213002Y-90424000D02*
X203152526Y-90303047D01*
X203152526Y-90303047D02*
X203152526Y-90000666D01*
X203152526Y-90000666D02*
X203213002Y-89879714D01*
X203213002Y-89879714D02*
X203273478Y-89819238D01*
X203273478Y-89819238D02*
X203394430Y-89758761D01*
X203394430Y-89758761D02*
X203515383Y-89758761D01*
X203515383Y-89758761D02*
X203696811Y-89819238D01*
X203696811Y-89819238D02*
X204422526Y-90544952D01*
X204422526Y-90544952D02*
X204422526Y-89758761D01*
%TO.C,IC1*%
X189535879Y-113912766D02*
X190433904Y-113014740D01*
X190562194Y-114768029D02*
X190476667Y-114768029D01*
X190476667Y-114768029D02*
X190305615Y-114682502D01*
X190305615Y-114682502D02*
X190220089Y-114596976D01*
X190220089Y-114596976D02*
X190134562Y-114425924D01*
X190134562Y-114425924D02*
X190134562Y-114254871D01*
X190134562Y-114254871D02*
X190177326Y-114126582D01*
X190177326Y-114126582D02*
X190305615Y-113912766D01*
X190305615Y-113912766D02*
X190433904Y-113784477D01*
X190433904Y-113784477D02*
X190647720Y-113656187D01*
X190647720Y-113656187D02*
X190776009Y-113613424D01*
X190776009Y-113613424D02*
X190947062Y-113613424D01*
X190947062Y-113613424D02*
X191118114Y-113698951D01*
X191118114Y-113698951D02*
X191203641Y-113784477D01*
X191203641Y-113784477D02*
X191289167Y-113955529D01*
X191289167Y-113955529D02*
X191289167Y-114041056D01*
X191331930Y-115708817D02*
X190818772Y-115195660D01*
X191075351Y-115452239D02*
X191973377Y-114554213D01*
X191973377Y-114554213D02*
X191759561Y-114596976D01*
X191759561Y-114596976D02*
X191588509Y-114596976D01*
X191588509Y-114596976D02*
X191460219Y-114554213D01*
D12*
%TO.C,J8*%
X86780000Y-108685000D02*
G75*
G03*
X86780000Y-108585000I0J50000D01*
G01*
X86780000Y-108585000D02*
G75*
G03*
X86780000Y-108685000I0J-50000D01*
G01*
X86780000Y-108685000D02*
X86780000Y-108685000D01*
X86780000Y-108585000D02*
X86780000Y-108585000D01*
D13*
X73585000Y-87700000D02*
X86135000Y-87700000D01*
X73585000Y-118510000D02*
X73585000Y-87700000D01*
X86135000Y-118510000D02*
X73585000Y-118510000D01*
X86135000Y-87700000D02*
X86135000Y-118510000D01*
D14*
%TO.C,J3*%
X120170000Y-120460000D02*
X72670000Y-120460000D01*
X72670000Y-120460000D02*
X72670000Y-129460000D01*
X72670000Y-129460000D02*
X122670000Y-129460000D01*
X122670000Y-129460000D02*
X122670000Y-124460000D01*
%TO.C,J2*%
X170815000Y-120460000D02*
X123315000Y-120460000D01*
X123315000Y-120460000D02*
X123315000Y-129460000D01*
X123315000Y-129460000D02*
X173315000Y-129460000D01*
X173315000Y-129460000D02*
X173315000Y-124460000D01*
%TO.C,R54*%
X122308000Y-89055000D02*
X120008000Y-89055000D01*
%TO.C,R53*%
X130182000Y-89055000D02*
X127882000Y-89055000D01*
%TO.C,R52*%
X138056000Y-89079000D02*
X135756000Y-89079000D01*
%TO.C,R51*%
X145930000Y-89079000D02*
X143630000Y-89079000D01*
%TO.C,R50*%
X153804000Y-89003000D02*
X151504000Y-89003000D01*
%TO.C,R49*%
X161678000Y-89003000D02*
X159378000Y-89003000D01*
%TO.C,R48*%
X162694000Y-108914000D02*
X160394000Y-108914000D01*
%TO.C,R47*%
X170568000Y-108966000D02*
X168268000Y-108966000D01*
%TO.C,R46*%
X90802000Y-89027000D02*
X88502000Y-89027000D01*
%TO.C,R45*%
X98686000Y-89027000D02*
X96386000Y-89027000D01*
%TO.C,R44*%
X106599000Y-89027000D02*
X104299000Y-89027000D01*
%TO.C,R43*%
X114434000Y-89027000D02*
X112134000Y-89027000D01*
%TO.C,R42*%
X115323000Y-108966000D02*
X113023000Y-108966000D01*
%TO.C,R41*%
X123197000Y-108966000D02*
X120897000Y-108966000D01*
%TO.C,R40*%
X131198000Y-108942000D02*
X128898000Y-108942000D01*
%TO.C,R39*%
X139072000Y-108966000D02*
X136772000Y-108966000D01*
%TO.C,R38*%
X146946000Y-108966000D02*
X144646000Y-108966000D01*
%TO.C,R37*%
X154820000Y-108942000D02*
X152520000Y-108942000D01*
%TO.C,R30*%
X214731600Y-79127200D02*
X214731600Y-76727200D01*
%TO.C,R29*%
X209753200Y-79127200D02*
X209753200Y-76727200D01*
%TO.C,R25*%
X219659200Y-79127200D02*
X219659200Y-76727200D01*
%TO.C,R24*%
X199187173Y-115899827D02*
X197560827Y-117526173D01*
%TO.C,R23*%
X187840000Y-102362000D02*
X185540000Y-102362000D01*
%TO.C,R22*%
X195714000Y-102338000D02*
X193414000Y-102338000D01*
%TO.C,R21*%
X203588000Y-102338000D02*
X201288000Y-102338000D01*
%TO.C,R20*%
X99575000Y-108966000D02*
X97275000Y-108966000D01*
%TO.C,R19*%
X107449000Y-108966000D02*
X105149000Y-108966000D01*
%TO.C,R12*%
X189026800Y-79025600D02*
X189026800Y-76625600D01*
%TO.C,R11*%
X196900800Y-79279600D02*
X196900800Y-76879600D01*
%TO.C,R10*%
X204774800Y-79127200D02*
X204774800Y-76727200D01*
%TO.C,R8*%
X173228000Y-79025600D02*
X173228000Y-76625600D01*
%TO.C,R7*%
X181102000Y-79025600D02*
X181102000Y-76625600D01*
%TO.C,R6*%
X169552000Y-89027000D02*
X167252000Y-89027000D01*
%TO.C,R5*%
X177426000Y-89027000D02*
X175126000Y-89027000D01*
%TO.C,R4*%
X185300000Y-89027000D02*
X183000000Y-89027000D01*
%TO.C,R3*%
X193174000Y-89027000D02*
X190874000Y-89027000D01*
%TO.C,R2*%
X201048000Y-89027000D02*
X198748000Y-89027000D01*
%TO.C,R1*%
X187503173Y-115010827D02*
X185876827Y-116637173D01*
%TO.C,U1*%
X166266800Y-43055700D02*
G75*
G03*
X166266800Y-43055700I-100000J0D01*
G01*
D15*
X167296800Y-43675700D02*
X119096800Y-43675700D01*
X119096800Y-71575700D02*
X167296800Y-71575700D01*
X167296800Y-71575700D02*
X167296800Y-66625700D01*
X167296800Y-48625700D02*
X167296800Y-43675700D01*
X167296800Y-48625700D02*
X173496800Y-48625700D01*
X173496800Y-48625700D02*
X173496800Y-66625700D01*
X173496800Y-66625700D02*
X167296800Y-66625700D01*
X119096800Y-43675700D02*
X119096800Y-53555700D01*
X119096800Y-53555700D02*
X118196800Y-53555700D01*
X118196800Y-53555700D02*
X118196800Y-61685700D01*
X118196800Y-61685700D02*
X119096800Y-61685700D01*
X119096800Y-61685700D02*
X119096800Y-71575700D01*
D14*
%TO.C,R36*%
X214731600Y-80180800D02*
X214731600Y-82480800D01*
%TO.C,R35*%
X209753200Y-80180800D02*
X209753200Y-82480800D01*
%TO.C,R31*%
X219659200Y-80180800D02*
X219659200Y-82480800D01*
%TO.C,R18*%
X189026800Y-80028400D02*
X189026800Y-82328400D01*
%TO.C,R17*%
X196900800Y-80282400D02*
X196900800Y-82582400D01*
%TO.C,R16*%
X204774800Y-80130000D02*
X204774800Y-82430000D01*
%TO.C,R14*%
X173228000Y-80028400D02*
X173228000Y-82328400D01*
%TO.C,R13*%
X181102000Y-80028400D02*
X181102000Y-82328400D01*
D13*
%TO.C,J13*%
X210745000Y-118610000D02*
X210745000Y-87800000D01*
X210745000Y-87800000D02*
X223295000Y-87800000D01*
X223295000Y-87800000D02*
X223295000Y-118610000D01*
X223295000Y-118610000D02*
X210745000Y-118610000D01*
D12*
X210100000Y-97725000D02*
X210100000Y-97725000D01*
X210100000Y-97625000D02*
X210100000Y-97625000D01*
X210100000Y-97725000D02*
G75*
G03*
X210100000Y-97625000I0J50000D01*
G01*
X210100000Y-97625000D02*
G75*
G03*
X210100000Y-97725000I0J-50000D01*
G01*
D14*
%TO.C,J1*%
X221535000Y-120460000D02*
X174035000Y-120460000D01*
X174035000Y-120460000D02*
X174035000Y-129460000D01*
X174035000Y-129460000D02*
X224035000Y-129460000D01*
X224035000Y-129460000D02*
X224035000Y-124460000D01*
%TO.C,IC43*%
X127065000Y-87036000D02*
X127065000Y-88686000D01*
X123220000Y-89036000D02*
X126970000Y-89036000D01*
X123220000Y-93186000D02*
X123220000Y-89036000D01*
X126970000Y-93186000D02*
X123220000Y-93186000D01*
X126970000Y-89036000D02*
X126970000Y-93186000D01*
%TO.C,IC42*%
X134939000Y-87036000D02*
X134939000Y-88686000D01*
X131094000Y-89036000D02*
X134844000Y-89036000D01*
X131094000Y-93186000D02*
X131094000Y-89036000D01*
X134844000Y-93186000D02*
X131094000Y-93186000D01*
X134844000Y-89036000D02*
X134844000Y-93186000D01*
%TO.C,IC41*%
X142813000Y-87036000D02*
X142813000Y-88686000D01*
X138968000Y-89036000D02*
X142718000Y-89036000D01*
X138968000Y-93186000D02*
X138968000Y-89036000D01*
X142718000Y-93186000D02*
X138968000Y-93186000D01*
X142718000Y-89036000D02*
X142718000Y-93186000D01*
%TO.C,IC40*%
X150687000Y-86984000D02*
X150687000Y-88634000D01*
X146842000Y-88984000D02*
X150592000Y-88984000D01*
X146842000Y-93134000D02*
X146842000Y-88984000D01*
X150592000Y-93134000D02*
X146842000Y-93134000D01*
X150592000Y-88984000D02*
X150592000Y-93134000D01*
%TO.C,IC39*%
X158561000Y-86984000D02*
X158561000Y-88634000D01*
X154716000Y-88984000D02*
X158466000Y-88984000D01*
X154716000Y-93134000D02*
X154716000Y-88984000D01*
X158466000Y-93134000D02*
X154716000Y-93134000D01*
X158466000Y-88984000D02*
X158466000Y-93134000D01*
%TO.C,IC38*%
X166340000Y-88984000D02*
X166340000Y-93134000D01*
X166340000Y-93134000D02*
X162590000Y-93134000D01*
X162590000Y-93134000D02*
X162590000Y-88984000D01*
X162590000Y-88984000D02*
X166340000Y-88984000D01*
X166435000Y-86984000D02*
X166435000Y-88634000D01*
%TO.C,IC37*%
X167451000Y-106871000D02*
X167451000Y-108521000D01*
X163606000Y-108871000D02*
X167356000Y-108871000D01*
X163606000Y-113021000D02*
X163606000Y-108871000D01*
X167356000Y-113021000D02*
X163606000Y-113021000D01*
X167356000Y-108871000D02*
X167356000Y-113021000D01*
%TO.C,IC36*%
X175325000Y-106923000D02*
X175325000Y-108573000D01*
X171480000Y-108923000D02*
X175230000Y-108923000D01*
X171480000Y-113073000D02*
X171480000Y-108923000D01*
X175230000Y-113073000D02*
X171480000Y-113073000D01*
X175230000Y-108923000D02*
X175230000Y-113073000D01*
%TO.C,IC35*%
X95474000Y-88984000D02*
X95474000Y-93134000D01*
X95474000Y-93134000D02*
X91724000Y-93134000D01*
X91724000Y-93134000D02*
X91724000Y-88984000D01*
X91724000Y-88984000D02*
X95474000Y-88984000D01*
X95569000Y-86984000D02*
X95569000Y-88634000D01*
%TO.C,IC34*%
X103348000Y-88984000D02*
X103348000Y-93134000D01*
X103348000Y-93134000D02*
X99598000Y-93134000D01*
X99598000Y-93134000D02*
X99598000Y-88984000D01*
X99598000Y-88984000D02*
X103348000Y-88984000D01*
X103443000Y-86984000D02*
X103443000Y-88634000D01*
%TO.C,IC33*%
X111222000Y-88984000D02*
X111222000Y-93134000D01*
X111222000Y-93134000D02*
X107472000Y-93134000D01*
X107472000Y-93134000D02*
X107472000Y-88984000D01*
X107472000Y-88984000D02*
X111222000Y-88984000D01*
X111317000Y-86984000D02*
X111317000Y-88634000D01*
%TO.C,IC32*%
X119096000Y-88984000D02*
X119096000Y-93134000D01*
X119096000Y-93134000D02*
X115346000Y-93134000D01*
X115346000Y-93134000D02*
X115346000Y-88984000D01*
X115346000Y-88984000D02*
X119096000Y-88984000D01*
X119191000Y-86984000D02*
X119191000Y-88634000D01*
%TO.C,IC30*%
X120080000Y-106923000D02*
X120080000Y-108573000D01*
X116235000Y-108923000D02*
X119985000Y-108923000D01*
X116235000Y-113073000D02*
X116235000Y-108923000D01*
X119985000Y-113073000D02*
X116235000Y-113073000D01*
X119985000Y-108923000D02*
X119985000Y-113073000D01*
%TO.C,IC29*%
X128081000Y-106923000D02*
X128081000Y-108573000D01*
X124236000Y-108923000D02*
X127986000Y-108923000D01*
X124236000Y-113073000D02*
X124236000Y-108923000D01*
X127986000Y-113073000D02*
X124236000Y-113073000D01*
X127986000Y-108923000D02*
X127986000Y-113073000D01*
%TO.C,IC28*%
X135955000Y-106923000D02*
X135955000Y-108573000D01*
X132110000Y-108923000D02*
X135860000Y-108923000D01*
X132110000Y-113073000D02*
X132110000Y-108923000D01*
X135860000Y-113073000D02*
X132110000Y-113073000D01*
X135860000Y-108923000D02*
X135860000Y-113073000D01*
%TO.C,IC27*%
X143829000Y-106923000D02*
X143829000Y-108573000D01*
X139984000Y-108923000D02*
X143734000Y-108923000D01*
X139984000Y-113073000D02*
X139984000Y-108923000D01*
X143734000Y-113073000D02*
X139984000Y-113073000D01*
X143734000Y-108923000D02*
X143734000Y-113073000D01*
%TO.C,IC26*%
X151608000Y-108923000D02*
X151608000Y-113073000D01*
X151608000Y-113073000D02*
X147858000Y-113073000D01*
X147858000Y-113073000D02*
X147858000Y-108923000D01*
X147858000Y-108923000D02*
X151608000Y-108923000D01*
X151703000Y-106923000D02*
X151703000Y-108573000D01*
%TO.C,IC25*%
X159577000Y-106923000D02*
X159577000Y-108573000D01*
X155732000Y-108923000D02*
X159482000Y-108923000D01*
X155732000Y-113073000D02*
X155732000Y-108923000D01*
X159482000Y-113073000D02*
X155732000Y-113073000D01*
X159482000Y-108923000D02*
X159482000Y-113073000D01*
%TO.C,IC24*%
X215758400Y-85489200D02*
X214558400Y-85489200D01*
%TO.C,IC23*%
X210759600Y-85468400D02*
X209559600Y-85468400D01*
%TO.C,IC19*%
X220686000Y-85468400D02*
X219486000Y-85468400D01*
%TO.C,IC18*%
X201076540Y-111168540D02*
X202243266Y-112335266D01*
X199771928Y-115301579D02*
X202423579Y-112649928D01*
X202706421Y-118236072D02*
X199771928Y-115301579D01*
X205358072Y-115584421D02*
X202706421Y-118236072D01*
X202423579Y-112649928D02*
X205358072Y-115584421D01*
%TO.C,IC17*%
X192597000Y-100319000D02*
X192597000Y-101969000D01*
X188752000Y-102319000D02*
X192502000Y-102319000D01*
X188752000Y-106469000D02*
X188752000Y-102319000D01*
X192502000Y-106469000D02*
X188752000Y-106469000D01*
X192502000Y-102319000D02*
X192502000Y-106469000D01*
%TO.C,IC16*%
X200471000Y-100319000D02*
X200471000Y-101969000D01*
X196626000Y-102319000D02*
X200376000Y-102319000D01*
X196626000Y-106469000D02*
X196626000Y-102319000D01*
X200376000Y-106469000D02*
X196626000Y-106469000D01*
X200376000Y-102319000D02*
X200376000Y-106469000D01*
%TO.C,IC15*%
X208345000Y-100319000D02*
X208345000Y-101969000D01*
X204500000Y-102319000D02*
X208250000Y-102319000D01*
X204500000Y-106469000D02*
X204500000Y-102319000D01*
X208250000Y-106469000D02*
X204500000Y-106469000D01*
X208250000Y-102319000D02*
X208250000Y-106469000D01*
%TO.C,IC14*%
X104237000Y-108923000D02*
X104237000Y-113073000D01*
X104237000Y-113073000D02*
X100487000Y-113073000D01*
X100487000Y-113073000D02*
X100487000Y-108923000D01*
X100487000Y-108923000D02*
X104237000Y-108923000D01*
X104332000Y-106923000D02*
X104332000Y-108573000D01*
%TO.C,IC13*%
X112111000Y-108923000D02*
X112111000Y-113073000D01*
X112111000Y-113073000D02*
X108361000Y-113073000D01*
X108361000Y-113073000D02*
X108361000Y-108923000D01*
X108361000Y-108923000D02*
X112111000Y-108923000D01*
X112206000Y-106923000D02*
X112206000Y-108573000D01*
%TO.C,IC12*%
X190053600Y-85336800D02*
X188853600Y-85336800D01*
%TO.C,IC11*%
X197927600Y-85540000D02*
X196727600Y-85540000D01*
%TO.C,IC10*%
X205781200Y-85417600D02*
X204581200Y-85417600D01*
%TO.C,IC8*%
X174234400Y-85387600D02*
X173034400Y-85387600D01*
%TO.C,IC7*%
X182108400Y-85387600D02*
X180908400Y-85387600D01*
%TO.C,IC6*%
X174214000Y-88984000D02*
X174214000Y-93134000D01*
X174214000Y-93134000D02*
X170464000Y-93134000D01*
X170464000Y-93134000D02*
X170464000Y-88984000D01*
X170464000Y-88984000D02*
X174214000Y-88984000D01*
X174309000Y-86984000D02*
X174309000Y-88634000D01*
%TO.C,IC5*%
X182088000Y-88984000D02*
X182088000Y-93134000D01*
X182088000Y-93134000D02*
X178338000Y-93134000D01*
X178338000Y-93134000D02*
X178338000Y-88984000D01*
X178338000Y-88984000D02*
X182088000Y-88984000D01*
X182183000Y-86984000D02*
X182183000Y-88634000D01*
%TO.C,IC4*%
X189962000Y-88984000D02*
X189962000Y-93134000D01*
X189962000Y-93134000D02*
X186212000Y-93134000D01*
X186212000Y-93134000D02*
X186212000Y-88984000D01*
X186212000Y-88984000D02*
X189962000Y-88984000D01*
X190057000Y-86984000D02*
X190057000Y-88634000D01*
%TO.C,IC3*%
X197836000Y-88984000D02*
X197836000Y-93134000D01*
X197836000Y-93134000D02*
X194086000Y-93134000D01*
X194086000Y-93134000D02*
X194086000Y-88984000D01*
X194086000Y-88984000D02*
X197836000Y-88984000D01*
X197931000Y-86984000D02*
X197931000Y-88634000D01*
%TO.C,IC2*%
X205710000Y-88984000D02*
X205710000Y-93134000D01*
X205710000Y-93134000D02*
X201960000Y-93134000D01*
X201960000Y-93134000D02*
X201960000Y-88984000D01*
X201960000Y-88984000D02*
X205710000Y-88984000D01*
X205805000Y-86984000D02*
X205805000Y-88634000D01*
%TO.C,IC1*%
X190739579Y-111633928D02*
X193674072Y-114568421D01*
X193674072Y-114568421D02*
X191022421Y-117220072D01*
X191022421Y-117220072D02*
X188087928Y-114285579D01*
X188087928Y-114285579D02*
X190739579Y-111633928D01*
X189392540Y-110152540D02*
X190559266Y-111319266D01*
%TD*%
M02*
